*
*
G04 PADS 9.5 Build Number: 522968 generated Gerber (RS-274-X) file*
G04 PC Version=2.1*
*
%IN "HomeFit.pcb"*%
*
%MOIN*%
*
%FSLAX35Y35*%
*
*
*
*
G04 PC Standard Apertures*
*
*
G04 Thermal Relief Aperture macro.*
%AMTER*
1,1,$1,0,0*
1,0,$1-$2,0,0*
21,0,$3,$4,0,0,45*
21,0,$3,$4,0,0,135*
%
*
*
G04 Annular Aperture macro.*
%AMANN*
1,1,$1,0,0*
1,0,$2,0,0*
%
*
*
G04 Odd Aperture macro.*
%AMODD*
1,1,$1,0,0*
1,0,$1-0.005,0,0*
%
*
*
G04 PC Custom Aperture Macros*
*
*
*
*
*
*
G04 PC Aperture Table*
*
%ADD010C,0.001*%
%ADD013C,0.01*%
%ADD014C,0.00787*%
%ADD022R,0.06X0.06*%
%ADD023C,0.06*%
%ADD029O,0.05118X0.07087*%
%ADD031C,0.06299*%
%ADD036C,0.01181*%
%ADD057C,0.015*%
%ADD073R,0.06299X0.06299*%
%ADD074C,0.03937*%
%ADD086C,0.00984*%
%ADD134C,0.02756*%
*
*
*
*
G04 PC Circuitry*
G04 Layer Name HomeFit.pcb - circuitry*
%LPD*%
*
*
G04 PC Custom Flashes*
G04 Layer Name HomeFit.pcb - flashes*
%LPD*%
*
*
G04 PC Circuitry*
G04 Layer Name HomeFit.pcb - circuitry*
%LPD*%
*
G54D10*
G01X347559Y150000D02*
G75*
G03X347559I-5906J0D01*
G01X357445Y191339D02*
X357450D01*
X347559Y150000D02*
G03X347559I-5906J0D01*
G54D13*
G01X142825Y228166D02*
X138370Y225896D01*
X140640Y221441*
X145095Y223711*
X142825Y228166*
X140299Y222110D02*
X141954D01*
X139789Y223110D02*
X143916D01*
X139280Y224110D02*
X144891D01*
X138770Y225110D02*
X144382D01*
X138791Y226110D02*
X143872D01*
X140753Y227110D02*
X143363D01*
X142716Y228110D02*
X142853D01*
X139110Y224442D02*
Y226273D01*
X140110Y222480D02*
Y226782D01*
X141110Y221680D02*
Y227292D01*
X142110Y222190D02*
Y227802D01*
X143110Y222699D02*
Y227605D01*
X144110Y223209D02*
Y225643D01*
X143659Y252058D02*
X139204Y249788D01*
X141474Y245333*
X145929Y247603*
X143659Y252058*
X141078Y246110D02*
X142999D01*
X140569Y247110D02*
X144962D01*
X140059Y248110D02*
X145671D01*
X139550Y249110D02*
X145161D01*
X139836Y250110D02*
X144652D01*
X141799Y251110D02*
X144142D01*
X140110Y248010D02*
Y250250D01*
X141110Y246048D02*
Y250760D01*
X142110Y245657D02*
Y251269D01*
X143110Y246167D02*
Y251779D01*
X144110Y246676D02*
Y251173D01*
X145110Y247186D02*
Y249211D01*
G54D14*
X226378Y442287D02*
G03X226378I-5906J0D01*
G01Y169524D02*
G03X226378I-5906J0D01*
G01X347559Y150000D02*
G03X347559I-5906J0D01*
G01X318080Y118504D02*
X365341D01*
Y205118*
X318080*
Y118504*
X299207Y254724D02*
Y116929D01*
Y254724D02*
Y116929D01*
X324797Y350229D02*
G03X299207Y254724I-25590J-44324D01*
G01X324797Y350229D02*
G03X299207Y254724I-25590J-44324D01*
G01Y116929*
X324797Y350229D02*
G03X299207Y254724I-25590J-44324D01*
G01X393701Y469564D02*
G03X299213Y116929I-94488J-163658D01*
G01X393701Y469564D02*
G03X299213Y116929I-94488J-163658D01*
G01X393701Y469564D02*
G03X299213Y116929I-94488J-163658D01*
G01X393696Y469567D02*
X324797Y350230D01*
X393696Y469567D02*
X324797Y350230D01*
X393696Y469567D02*
X324797Y350230D01*
G54D22*
X181102Y172835D03*
X211811Y151575D03*
X337008Y123622D03*
G54D23*
X137192Y233713D03*
X191102Y172835D03*
X221811Y151575D03*
X347008Y123622D03*
X147017Y239961D03*
X151504Y231156D03*
G54D29*
X329528Y197835D03*
X354331D03*
G54D31*
X166535Y425354D03*
X176535Y415354D03*
Y425354D03*
X186535Y415354D03*
Y425354D03*
X310866Y369685D03*
X300866D03*
X290984D03*
X268268Y247244D03*
X278268D03*
X288150D03*
X246036Y275394D03*
X174436Y234055D03*
X299213Y398425D03*
Y481102D03*
X275266Y395544D03*
X253868Y475404D03*
X238189Y305906D03*
X155512D03*
G54D36*
X227953Y156693D02*
X197638D01*
X181496Y172835*
X181102*
X258268Y158268D02*
Y247244D01*
X268110Y164173D02*
Y247087D01*
X268268Y247244*
X180709Y207480D02*
Y217717D01*
X206693Y197638D02*
Y260236D01*
X218504Y329921D02*
X245276D01*
X204331Y329528D02*
Y353543D01*
X202756Y355118*
X191339*
X186614Y359843*
Y388189*
X199213Y350000D02*
X182677D01*
X177165Y355512*
Y387795*
X150394Y358661D02*
Y392913D01*
X156693Y399213*
X174803*
X177953Y402362*
Y406772*
X186535Y415354*
X224409Y368504D02*
Y399213D01*
X238583Y413386*
X300866Y369685D02*
X300787Y369764D01*
Y374803*
X319291Y393307*
Y446850*
X310866Y369685D02*
Y379370D01*
X322047Y390551*
Y425591*
X338976Y442520*
Y446850*
X292913Y384646D02*
X305118D01*
X174016Y403937D02*
X166535Y411417D01*
Y415354*
X176535D02*
X181654Y420472D01*
X209449*
G54D57*
X185007Y176739D02*
X183224Y174956D01*
X185007Y168930D02*
X183224Y170713D01*
X177198Y168930D02*
X178981Y170713D01*
X177198Y176739D02*
X178981Y174956D01*
X183404Y428486D02*
X184308Y427581D01*
X189667Y428486D02*
X188763Y427581D01*
X136480Y226510D02*
X138879Y225730D01*
X143439Y230055D02*
X142659Y227656D01*
X146984Y223097D02*
X144585Y223876D01*
X140026Y219551D02*
X140805Y221950D01*
X291281Y250376D02*
X290377Y249471D01*
X285018Y250376D02*
X285922Y249471D01*
X285018Y244112D02*
X285922Y245017D01*
X291281Y244112D02*
X290377Y245017D01*
X229832Y158572D02*
X228927Y157667D01*
X226074Y158572D02*
X226978Y157667D01*
X226074Y154814D02*
X226978Y155719D01*
X229832Y154814D02*
X228927Y155719D01*
X226289Y370383D02*
X225384Y369478D01*
X222530Y370383D02*
X223435Y369478D01*
X222530Y366625D02*
X223435Y367530D01*
X226289Y366625D02*
X225384Y367530D01*
X240462Y415265D02*
X239557Y414360D01*
X236704Y415265D02*
X237608Y414360D01*
X236704Y411507D02*
X237608Y412411D01*
X240462Y411507D02*
X239557Y412411D01*
G54D73*
X166535Y415354D03*
X320866Y369685D03*
X258268Y247244D03*
G54D74*
X201575Y195669D02*
Y233858D01*
X251181Y223228D02*
X234646D01*
X224016Y233858*
Y260236*
X122884Y344094D02*
X144538Y365748D01*
Y384990*
X144488Y385039*
X218110Y370866D02*
Y404331D01*
X242520Y428740*
Y453543*
X238583Y457480*
X144488Y385039D02*
Y394488D01*
X159449Y409449*
Y418268*
Y423622*
X161181Y425354*
X166535*
X198661Y457480*
X238583*
X242520Y461417*
Y472835*
X245089Y475404*
X253868*
X259449Y481102*
X299213*
G54D86*
X303642Y398425D02*
G03X303642I-4429J0D01*
G01X279695Y395544D02*
G03X279695I-4429J0D01*
G01X242618Y305906D02*
G03X242618I-4429J0D01*
G01X241240Y413386D02*
G03X241240I-2657J0D01*
G01X155783Y231156D02*
G03X155783I-4279J0D01*
G01X151297Y239961D02*
G03X151297I-4280J0D01*
G01X159941Y305906D02*
G03X159941I-4429J0D01*
G01X141472Y233713D02*
G03X141472I-4280J0D01*
G01X195382Y172835D02*
G03X195382I-4280J0D01*
G01X178865Y234055D02*
G03X178865I-4429J0D01*
G01X295413Y369685D02*
G03X295413I-4429J0D01*
G01X292579Y247244D02*
G03X292579I-4429J0D01*
G01X282697D02*
G03X282697I-4429J0D01*
G01X250466Y275394D02*
G03X250466I-4430J0D01*
G01X390811Y467902D02*
G03X390633Y468576I-425J248D01*
X208119Y468077I-90830J-156493*
X197119Y461409I95689J-170266*
X197555Y460534I269J-412*
G01X198661Y460728D02*
G03X197555Y460534I0J-3248D01*
G01X198661Y460728D02*
X237033D01*
G03X237381Y460873I0J492*
G01X239127Y462619*
G03X239272Y462967I-347J348*
G01Y472835*
X240223Y475131D02*
G03X239272Y472835I2297J-2296D01*
G01X240223Y475131D02*
X242792Y477701D01*
X245089Y478652D02*
G03X242792Y477701I-0J-3248D01*
G01X245089Y478652D02*
X250669D01*
G03X250989Y478770I0J492*
G01X253477Y479816D02*
G03X250989Y478770I391J-4412D01*
G01X253477Y479816D02*
G03X253785Y479962I-43J490D01*
G01X257128Y483375*
X259449Y484350D02*
G03X257128Y483375I-0J-3248D01*
G01X259449Y484350D02*
X296014D01*
G03X296334Y484469I0J493*
G01Y477736D02*
G03Y484469I2879J3366D01*
G01Y477736D02*
G03X296014Y477854I-320J-374D01*
G01X261021*
G03X260669Y477707I-0J-492*
G01X258426Y475416*
G03X258287Y475105I352J-344*
G01X250989Y472038D02*
G03X258287Y475105I2879J3366D01*
G01X250989Y472038D02*
G03X250669Y472156I-320J-374D01*
G01X246638*
G03X246290Y472012I0J-492*
G01X245912Y471633*
G03X245768Y471285I348J-348*
G01Y461417*
X244816Y459121D02*
G03X245768Y461417I-2296J2296D01*
G01X244816Y459121D02*
X243524Y457828D01*
G03Y457132I348J-348*
G01X244816Y455840*
X245768Y453543D02*
G03X244816Y455840I-3248J0D01*
G01X245768Y453543D02*
Y428740D01*
X244816Y426443D02*
G03X245768Y428740I-2296J2297D01*
G01X244816Y426443D02*
X221502Y403129D01*
G03X221358Y402781I348J-348*
G01Y370866*
X221317Y370350D02*
G03X221358Y370866I-3207J516D01*
G01X221317Y370350D02*
G03X222210Y369996I486J-78D01*
G01X221772Y368826D02*
G03X222210Y369996I2637J-322D01*
G01X221772Y368826D02*
G03X220866Y369146I-489J60D01*
G01X214862Y370866D02*
G03X220866Y369146I3248J0D01*
G01X214862Y370866D02*
Y404331D01*
X215814Y406627D02*
G03X214862Y404331I2296J-2296D01*
G01X215814Y406627D02*
X239127Y429941D01*
G03X239272Y430289I-347J348*
G01Y451994*
G03X239127Y452342I-492J0*
G01X237381Y454088*
G03X237033Y454232I-348J-348*
G01X200211*
G03X199863Y454088I-0J-492*
G01X176394Y430619*
G03X176721Y429780I348J-348*
G01X180200Y422867D02*
G03X176721Y429780I-3665J2487D01*
G01X180200Y422867D02*
G03X180825Y422149I407J-277D01*
G01X181654Y422343D02*
G03X180825Y422149I-0J-1871D01*
G01X181654Y422343D02*
X182308D01*
G03X182731Y423087I0J492*
G01X190340D02*
G03X182731I-3805J2267D01*
G01X190340D02*
G03X190763Y422343I423J-252D01*
G01X207366*
G03X207691Y422466I-0J492*
G01Y418479D02*
G03Y422466I1758J1993D01*
G01Y418479D02*
G03X207366Y418602I-325J-369D01*
G01X190613*
G03X190205Y417835I-0J-492*
G01X185291Y411104D02*
G03X190205Y417835I1244J4250D01*
G01X185291Y411104D02*
G03X184805Y410979I-138J-473D01*
G01X179967Y406141*
G03X179823Y405793I348J-348*
G01Y402362*
X179275Y401040D02*
G03X179823Y402362I-1322J1322D01*
G01X179275Y401040D02*
X176126Y397890D01*
X174803Y397343D02*
G03X176126Y397890I0J1870D01*
G01X174803Y397342D02*
X157671D01*
X157671D02*
G03X157323Y397198I0J-492D01*
G01X152408Y392283*
G03X152264Y391935I348J-348*
G01Y360745*
G03X152387Y360419I492J-0*
G01X148401D02*
G03X152387I1993J-1758D01*
G01X148401D02*
G03X148524Y360745I-370J326D01*
G01Y364413*
G03X147572Y364588I-493J-0*
G01X146835Y363451D02*
G03X147572Y364588I-2297J2297D01*
G01X146835Y363451D02*
X125181Y341798D01*
X120588Y346391D02*
G03X125181Y341798I2296J-2297D01*
G01X120588Y346391D02*
X141146Y366949D01*
G03X141290Y367297I-348J348*
G01Y384432*
G03X141283Y384512I-492J0*
G01X141240Y385039D02*
G03X141283Y384512I3248J0D01*
G01X141240Y385039D02*
Y394488D01*
X142191Y396785D02*
G03X141240Y394488I2297J-2297D01*
G01X142191Y396785D02*
X156057Y410650D01*
G03X156201Y410998I-348J348*
G01Y418268*
Y423622*
X156294Y424396D02*
G03X156201Y423622I3155J-774D01*
G01X156294Y424396D02*
G03X155442Y424833I-478J117D01*
X130763Y388377I148366J-127022*
X130752Y388354I436J-228*
X130760Y225800I176902J-81267*
X130762Y225796I447J206*
X191367Y153339I168761J79582*
X191652Y153248I285J401*
G01X191652D02*
X207039D01*
G03X207531Y153740I0J492*
G01Y154575*
X208811Y155854D02*
G03X207531Y154575I0J-1279D01*
G01X208811Y155854D02*
X214811D01*
X216091Y154575D02*
G03X214811Y155854I-1280J-0D01*
G01X216091Y154575D02*
Y153740D01*
G03X216583Y153248I492J0*
G01X217559*
G03X217997Y153517I-0J492*
G01X225625D02*
G03X217997I-3814J-1942D01*
G01X225625D02*
G03X226063Y153248I438J223D01*
G01X226857*
G03X227028Y154202I-0J492*
G01X228878D02*
G03X227028I-925J2491D01*
G01X228878D02*
G03X229049Y153248I171J-462D01*
G01X296654*
G03X297146Y153740I-0J492*
G01Y252794*
G03X296677Y253286I-492J0*
G01X323021Y352638D02*
G03X296677Y253286I-23789J-46861D01*
G01X323021Y352638D02*
G03X323669Y352829I223J439D01*
G01X390811Y467902*
X196274Y459686D02*
G03X195653Y460444I-348J348D01*
X159140Y429028I108155J-162633*
X159725Y428258I364J-331*
G01X161181Y428602D02*
G03X159725Y428258I0J-3248D01*
G01X161181Y428602D02*
X163337D01*
G03X163657Y428720I-0J493*
G01X166191Y429770D02*
G03X163657Y428720I344J-4416D01*
G01X166191Y429770D02*
G03X166500Y429913I-39J491D01*
G01X196274Y459686*
X325295Y372835D02*
Y366535D01*
X324016Y365256D02*
G03X325295Y366535I-0J1279D01*
G01X324016Y365256D02*
X317717D01*
X316437Y366535D02*
G03X317717Y365256I1280J0D01*
G01X316437Y366535D02*
Y372835D01*
X317717Y374114D02*
G03X316437Y372835I-0J-1279D01*
G01X317717Y374114D02*
X324016D01*
X325295Y372835D02*
G03X324016Y374114I-1279J-0D01*
G01X340970Y445093D02*
G03X336983I-1994J1757D01*
G01X340970D02*
G03X340846Y444767I369J-326D01*
G01Y442520*
X340299Y441197D02*
G03X340846Y442520I-1323J1323D01*
G01X340299Y441197D02*
X324061Y424960D01*
G03X323917Y424612I348J-348*
G01Y390551*
X323370Y389229D02*
G03X323917Y390551I-1323J1322D01*
G01X323370Y389229D02*
X312880Y378740D01*
G03X312736Y378392I348J-348*
G01Y374002*
G03X312992Y373571I492J0*
G01X308740D02*
G03X312992I2126J-3886D01*
G01X308740D02*
G03X308996Y374002I-236J431D01*
G01Y379179*
G03X308156Y379527I-492J-0*
G01X302944Y374315*
G03X303049Y373539I348J-348*
G01X298669Y373531D02*
G03X303049Y373539I2197J-3846D01*
G01X298669Y373531D02*
G03X298917Y373958I-244J427D01*
G01Y374803*
X299465Y376126D02*
G03X298917Y374803I1322J-1323D01*
G01X299465Y376126D02*
X304607Y381267D01*
G03X304393Y382089I-348J348*
G01X303360Y382653D02*
G03X304393Y382089I1758J1993D01*
G01X303360Y382653D02*
G03X303035Y382776I-325J-370D01*
G01X294997*
G03X294671Y382653I-0J-493*
G01Y386639D02*
G03Y382653I-1758J-1993D01*
G01Y386639D02*
G03X294997Y386516I326J369D01*
G01X303035*
G03X303360Y386639I-0J492*
G01X307675Y385371D02*
G03X303360Y386639I-2557J-725D01*
G01X307675Y385371D02*
G03X308496Y385157I473J134D01*
G01X317277Y393938*
G03X317421Y394286I-348J348*
G01Y444767*
G03X317298Y445093I-492J0*
G01X321284D02*
G03X317298I-1993J1757D01*
G01X321284D02*
G03X321161Y444767I370J-326D01*
G01Y428538*
G03X322002Y428190I493J-0*
G01X336962Y443150*
G03X337106Y443498I-348J348*
G01Y444767*
G03X336983Y445093I-492J0*
G01X303642Y398425D02*
G03X303642I-4429J0D01*
G01X279695Y395544D02*
G03X279695I-4429J0D01*
G01X242618Y305906D02*
G03X242618I-4429J0D01*
G01X243518Y327928D02*
G03Y331914I1758J1993D01*
G01Y327928D02*
G03X243192Y328051I-326J-369D01*
G01X220587*
G03X220262Y327928I0J-492*
G01Y331914D02*
G03Y327928I-1758J-1993D01*
G01Y331914D02*
G03X220587Y331791I325J369D01*
G01X243192*
G03X243518Y331914I0J492*
G01X241240Y413386D02*
G03X241240I-2657J0D01*
G01X208686Y258478D02*
G03X204700I-1993J1758D01*
G01X208686D02*
G03X208563Y258153I369J-325D01*
G01Y199721*
G03X208686Y199396I492J0*
G01X205454Y195287D02*
G03X208686Y199396I1239J2351D01*
G01X205454Y195287D02*
G03X204744Y194959I-230J-436D01*
G01X198327Y195669D02*
G03X204744Y194959I3248J0D01*
G01X198327Y195669D02*
Y233858D01*
X203968Y236054D02*
G03X198327Y233858I-2393J-2196D01*
G01X203968Y236054D02*
G03X204823Y236387I363J333D01*
G01Y258153*
G03X204700Y258478I-492J-0*
G01X202338Y331285D02*
G03X206324I1993J-1757D01*
G01X202338D02*
G03X202461Y331611I-370J326D01*
G01Y348475*
G03X201538Y348713I-493J0*
G01X197455Y348007D02*
G03X201538Y348713I1758J1993D01*
G01X197455Y348007D02*
G03X197129Y348130I-326J-369D01*
G01X182677*
X181355Y348678D02*
G03X182677Y348130I1322J1322D01*
G01X181355Y348678D02*
X175843Y354189D01*
X175295Y355512D02*
G03X175843Y354189I1870J-0D01*
G01X175295Y355512D02*
Y385712D01*
G03X175172Y386038I-492J0*
G01X179158D02*
G03X175172I-1993J1757D01*
G01X179158D02*
G03X179035Y385712I370J-326D01*
G01Y356490*
G03X179180Y356142I493J0*
G01X183308Y352014*
G03X183656Y351870I348J348*
G01X197129*
G03X197455Y351993I0J492*
G01X197926Y352325D02*
G03X197455Y351993I1287J-2325D01*
G01X197926Y352325D02*
G03X197688Y353248I-238J431D01*
G01X191339*
X190016Y353796D02*
G03X191339Y353248I1323J1322D01*
G01X190016Y353796D02*
X185292Y358520D01*
X184744Y359843D02*
G03X185292Y358520I1870J-0D01*
G01X184744Y359843D02*
Y386106D01*
G03X184621Y386431I-492J-0*
G01X188607D02*
G03X184621I-1993J1758D01*
G01X188607D02*
G03X188484Y386106I369J-325D01*
G01Y360821*
G03X188628Y360473I492J-0*
G01X191969Y357132*
G03X192317Y356988I348J348*
G01X202756*
X204078Y356440D02*
G03X202756Y356988I-1322J-1322D01*
G01X204078Y356440D02*
X205653Y354866D01*
X206201Y353543D02*
G03X205653Y354866I-1870J0D01*
G01X206201Y353543D02*
Y331611D01*
G03X206324Y331285I492J-0*
G01X155783Y231156D02*
G03X155783I-4279J0D01*
G01X146348Y222352D02*
G03X146907Y224073I-581J1140D01*
G01X146348Y222352D02*
X141002Y219628D01*
X139281Y220187D02*
G03X141002Y219628I1140J581D01*
G01X139281Y220187D02*
X136557Y225533D01*
X137116Y227254D02*
G03X136557Y225533I581J-1140D01*
G01X137116Y227254D02*
X142462Y229978D01*
X144183Y229419D02*
G03X142462Y229978I-1140J-581D01*
G01X144183Y229419D02*
X146907Y224073D01*
X151297Y239961D02*
G03X151297I-4280J0D01*
G01X159941Y305906D02*
G03X159941I-4429J0D01*
G01X141472Y233713D02*
G03X141472I-4280J0D01*
G01X147183Y246245D02*
G03X147742Y247966I-581J1140D01*
G01X147183Y246245D02*
X141837Y243521D01*
X140116Y244080D02*
G03X141837Y243521I1140J581D01*
G01X140116Y244080D02*
X137392Y249426D01*
X137951Y251147D02*
G03X137392Y249426I581J-1140D01*
G01X137951Y251147D02*
X143297Y253871D01*
X145018Y253312D02*
G03X143297Y253871I-1140J-581D01*
G01X145018Y253312D02*
X147742Y247966D01*
X195382Y172835D02*
G03X195382I-4280J0D01*
G01X185382Y175835D02*
Y169835D01*
X184102Y168555D02*
G03X185382Y169835I0J1280D01*
G01X184102Y168555D02*
X178102D01*
X176823Y169835D02*
G03X178102Y168555I1279J-0D01*
G01X176823Y169835D02*
Y175835D01*
X178102Y177114D02*
G03X176823Y175835I0J-1279D01*
G01X178102Y177114D02*
X184102D01*
X185382Y175835D02*
G03X184102Y177114I-1280J-0D01*
G01X182702Y215959D02*
G03X178716I-1993J1758D01*
G01X182702D02*
G03X182579Y215633I369J-326D01*
G01Y209564*
G03X182702Y209238I492J-0*
G01X178716D02*
G03X182702I1993J-1758D01*
G01X178716D02*
G03X178839Y209564I-370J326D01*
G01Y215633*
G03X178716Y215959I-493J0*
G01X178865Y234055D02*
G03X178865I-4429J0D01*
G01X251181Y219980D02*
G03Y226476I0J3248D01*
G01Y219980D02*
X234646D01*
X232349Y220932D02*
G03X234646Y219980I2297J2296D01*
G01X232349Y220932D02*
X221719Y231562D01*
X220768Y233858D02*
G03X221719Y231562I3248J0D01*
G01X220768Y233858D02*
Y260236D01*
X227264D02*
G03X220768I-3248J0D01*
G01X227264D02*
Y235408D01*
X227264D02*
G03X227408Y235060I492J-0D01*
G01X235847Y226621*
G03X236195Y226476I348J348*
G01X251181*
X295413Y369685D02*
G03X295413I-4429J0D01*
G01X292579Y247244D02*
G03X292579I-4429J0D01*
G01X282697D02*
G03X282697I-4429J0D01*
G01X270252Y243284D02*
G03X266000Y243440I-1984J3960D01*
G01X270252Y243284D02*
G03X269980Y242844I220J-440D01*
G01Y166257*
G03X270103Y165931I492J-0*
G01X266117D02*
G03X270103I1993J-1758D01*
G01X266117D02*
G03X266240Y166257I-369J326D01*
G01Y243017*
G03X266000Y243440I-492J-0*
G01X262697Y250394D02*
Y244094D01*
X261417Y242815D02*
G03X262697Y244094I0J1279D01*
G01X261417Y242815D02*
X260630D01*
G03X260138Y242323I-0J-492*
G01Y160351*
G03X260261Y160025I492J-0*
G01X256275D02*
G03X260261I1993J-1757D01*
G01X256275D02*
G03X256398Y160351I-370J326D01*
G01Y242323*
G03X255905Y242815I-493J-0*
G01X255118*
X253839Y244094D02*
G03X255118Y242815I1279J0D01*
G01X253839Y244094D02*
Y250394D01*
X255118Y251673D02*
G03X253839Y250394I0J-1279D01*
G01X255118Y251673D02*
X261417D01*
X262697Y250394D02*
G03X261417Y251673I-1280J-0D01*
G01X250466Y275394D02*
G03X250466I-4430J0D01*
G01X195357Y460247D02*
X196370D01*
X193874Y459247D02*
X195834D01*
X192420Y458247D02*
X194834D01*
X190993Y457247D02*
X193834D01*
X189593Y456247D02*
X192834D01*
X188219Y455247D02*
X191834D01*
X186869Y454247D02*
X190834D01*
X185543Y453247D02*
X189834D01*
X184240Y452247D02*
X188834D01*
X182959Y451247D02*
X187834D01*
X181700Y450247D02*
X186834D01*
X180462Y449247D02*
X185834D01*
X179245Y448247D02*
X184834D01*
X178047Y447247D02*
X183834D01*
X176868Y446247D02*
X182834D01*
X175708Y445247D02*
X181834D01*
X174566Y444247D02*
X180834D01*
X173442Y443247D02*
X179834D01*
X172335Y442247D02*
X178834D01*
X171244Y441247D02*
X177834D01*
X170171Y440247D02*
X176834D01*
X169113Y439247D02*
X175834D01*
X168070Y438247D02*
X174834D01*
X167043Y437247D02*
X173834D01*
X166031Y436247D02*
X172834D01*
X165034Y435247D02*
X171834D01*
X164050Y434247D02*
X170834D01*
X163081Y433247D02*
X169834D01*
X162126Y432247D02*
X168834D01*
X161183Y431247D02*
X167834D01*
X160254Y430247D02*
X166834D01*
X159338Y429247D02*
X164422D01*
X159306Y428247D02*
X159702D01*
X245768Y468247D02*
X390869D01*
X245768Y467247D02*
X390429D01*
X245768Y466247D02*
X389845D01*
X245768Y469247D02*
X389468D01*
X245768Y465247D02*
X389262D01*
X245768Y464247D02*
X388679D01*
X245768Y463247D02*
X388095D01*
X245768Y470247D02*
X387692D01*
X245768Y462247D02*
X387512D01*
X245763Y461247D02*
X386928D01*
X245549Y460247D02*
X386345D01*
X255396Y471247D02*
X385867D01*
X244936Y459247D02*
X385761D01*
X243943Y458247D02*
X385178D01*
X243439Y457247D02*
X384594D01*
X244410Y456247D02*
X384011D01*
X256974Y472247D02*
X383992D01*
X245285Y455247D02*
X383427D01*
X245691Y454247D02*
X382844D01*
X245768Y453247D02*
X382260D01*
X257736Y473247D02*
X382061D01*
X245768Y452247D02*
X381677D01*
X245768Y451247D02*
X381093D01*
X245768Y450247D02*
X380510D01*
X258143Y474247D02*
X380072D01*
X340125Y449247D02*
X379926D01*
X341237Y448247D02*
X379343D01*
X341604Y447247D02*
X378759D01*
X341564Y446247D02*
X378176D01*
X258318Y475247D02*
X378019D01*
X341095Y445247D02*
X377593D01*
X340846Y444247D02*
X377009D01*
X340846Y443247D02*
X376426D01*
X259240Y476247D02*
X375898D01*
X340826Y442247D02*
X375842D01*
X340346Y441247D02*
X375259D01*
X339348Y440247D02*
X374675D01*
X338348Y439247D02*
X374092D01*
X301392Y477247D02*
X373702D01*
X337348Y438247D02*
X373508D01*
X336348Y437247D02*
X372925D01*
X335348Y436247D02*
X372341D01*
X334348Y435247D02*
X371758D01*
X302598Y478247D02*
X371425D01*
X333348Y434247D02*
X371174D01*
X332348Y433247D02*
X370591D01*
X331348Y432247D02*
X370007D01*
X330348Y431247D02*
X369424D01*
X303234Y479247D02*
X369059D01*
X329348Y430247D02*
X368840D01*
X328348Y429247D02*
X368257D01*
X327348Y428247D02*
X367673D01*
X326348Y427247D02*
X367090D01*
X303558Y480247D02*
X366595D01*
X325348Y426247D02*
X366507D01*
X324348Y425247D02*
X365923D01*
X323917Y424247D02*
X365340D01*
X323917Y423247D02*
X364756D01*
X323917Y422247D02*
X364173D01*
X303639Y481247D02*
X364020D01*
X323917Y421247D02*
X363589D01*
X323917Y420247D02*
X363006D01*
X323917Y419247D02*
X362422D01*
X323917Y418247D02*
X361839D01*
X303491Y482247D02*
X361321D01*
X323917Y417247D02*
X361255D01*
X323917Y416247D02*
X360672D01*
X323917Y415247D02*
X360088D01*
X323917Y414247D02*
X359505D01*
X323917Y413247D02*
X358921D01*
X303088Y483247D02*
X358481D01*
X323917Y412247D02*
X358338D01*
X323917Y411247D02*
X357754D01*
X323917Y410247D02*
X357171D01*
X323917Y409247D02*
X356587D01*
X323917Y408247D02*
X356004D01*
X302332Y484247D02*
X355479D01*
X323917Y407247D02*
X355421D01*
X323917Y406247D02*
X354837D01*
X323917Y405247D02*
X354254D01*
X323917Y404247D02*
X353670D01*
X323917Y403247D02*
X353087D01*
X323917Y402247D02*
X352503D01*
X300775Y485247D02*
X352286D01*
X323917Y401247D02*
X351920D01*
X323917Y400247D02*
X351336D01*
X323917Y399247D02*
X350753D01*
X323917Y398247D02*
X350169D01*
X323917Y397247D02*
X349586D01*
X323917Y396247D02*
X349002D01*
X250741Y486247D02*
X348866D01*
X323917Y395247D02*
X348419D01*
X323917Y394247D02*
X347835D01*
X323917Y393247D02*
X347252D01*
X323917Y392247D02*
X346668D01*
X323917Y391247D02*
X346085D01*
X323892Y390247D02*
X345501D01*
X254440Y487247D02*
X345166D01*
X323387Y389247D02*
X344918D01*
X322388Y388247D02*
X344335D01*
X321388Y387247D02*
X343751D01*
X320388Y386247D02*
X343168D01*
X319388Y385247D02*
X342584D01*
X318388Y384247D02*
X342001D01*
X317388Y383247D02*
X341417D01*
X258494Y488247D02*
X341113D01*
X316388Y382247D02*
X340834D01*
X315388Y381247D02*
X340250D01*
X314388Y380247D02*
X339667D01*
X313388Y379247D02*
X339083D01*
X312736Y378247D02*
X338500D01*
X312736Y377247D02*
X337916D01*
X320440Y449247D02*
X337827D01*
X312736Y376247D02*
X337333D01*
X321161Y444247D02*
X337106D01*
X321161Y443247D02*
X337037D01*
X321410Y445247D02*
X336857D01*
X312736Y375247D02*
X336749D01*
X321552Y448247D02*
X336715D01*
X263018Y489247D02*
X336588D01*
X321879Y446247D02*
X336388D01*
X321919Y447247D02*
X336349D01*
X312736Y374247D02*
X336166D01*
X321161Y442247D02*
X336059D01*
X325227Y373247D02*
X335582D01*
X321161Y441247D02*
X335059D01*
X325295Y372247D02*
X334999D01*
X325295Y371247D02*
X334415D01*
X321161Y440247D02*
X334059D01*
X325295Y370247D02*
X333832D01*
X325295Y369247D02*
X333249D01*
X321161Y439247D02*
X333059D01*
X325295Y368247D02*
X332665D01*
X325295Y367247D02*
X332082D01*
X321161Y438247D02*
X332059D01*
X325262Y366247D02*
X331498D01*
X268215Y490247D02*
X331391D01*
X321161Y437247D02*
X331059D01*
X188484Y365247D02*
X330915D01*
X188484Y364247D02*
X330331D01*
X321161Y436247D02*
X330059D01*
X188484Y363247D02*
X329748D01*
X188484Y362247D02*
X329164D01*
X321161Y435247D02*
X329059D01*
X188484Y361247D02*
X328581D01*
X321161Y434247D02*
X328059D01*
X188855Y360247D02*
X327997D01*
X189855Y359247D02*
X327414D01*
X321161Y433247D02*
X327059D01*
X302200Y358247D02*
X326830D01*
X309850Y357247D02*
X326247D01*
X321161Y432247D02*
X326059D01*
X313884Y356247D02*
X325663D01*
X274495Y491247D02*
X325111D01*
X316969Y355247D02*
X325080D01*
X321161Y431247D02*
X325059D01*
X319543Y354247D02*
X324496D01*
X321161Y430247D02*
X324059D01*
X321782Y353247D02*
X323913D01*
X321161Y429247D02*
X323059D01*
X321257Y428247D02*
X322059D01*
X245768Y449247D02*
X318142D01*
X245768Y444247D02*
X317421D01*
X245768Y443247D02*
X317421D01*
X245768Y442247D02*
X317421D01*
X245768Y441247D02*
X317421D01*
X245768Y440247D02*
X317421D01*
X245768Y439247D02*
X317421D01*
X245768Y438247D02*
X317421D01*
X245768Y437247D02*
X317421D01*
X245768Y436247D02*
X317421D01*
X245768Y435247D02*
X317421D01*
X245768Y434247D02*
X317421D01*
X245768Y433247D02*
X317421D01*
X245768Y432247D02*
X317421D01*
X245768Y431247D02*
X317421D01*
X245768Y430247D02*
X317421D01*
X245768Y429247D02*
X317421D01*
X245730Y428247D02*
X317421D01*
X245404Y427247D02*
X317421D01*
X244620Y426247D02*
X317421D01*
X243620Y425247D02*
X317421D01*
X242620Y424247D02*
X317421D01*
X241620Y423247D02*
X317421D01*
X240620Y422247D02*
X317421D01*
X239620Y421247D02*
X317421D01*
X238620Y420247D02*
X317421D01*
X237620Y419247D02*
X317421D01*
X236620Y418247D02*
X317421D01*
X235620Y417247D02*
X317421D01*
X234620Y416247D02*
X317421D01*
X240480Y415247D02*
X317421D01*
X241097Y414247D02*
X317421D01*
X241237Y413247D02*
X317421D01*
X240984Y412247D02*
X317421D01*
X240160Y411247D02*
X317421D01*
X228620Y410247D02*
X317421D01*
X227620Y409247D02*
X317421D01*
X226620Y408247D02*
X317421D01*
X225620Y407247D02*
X317421D01*
X224620Y406247D02*
X317421D01*
X223620Y405247D02*
X317421D01*
X222620Y404247D02*
X317421D01*
X221620Y403247D02*
X317421D01*
X301452Y402247D02*
X317421D01*
X302627Y401247D02*
X317421D01*
X303250Y400247D02*
X317421D01*
X303565Y399247D02*
X317421D01*
X303638Y398247D02*
X317421D01*
X303482Y397247D02*
X317421D01*
X303069Y396247D02*
X317421D01*
X302297Y395247D02*
X317421D01*
X300682Y394247D02*
X317420D01*
X245768Y445247D02*
X317172D01*
X245768Y448247D02*
X317030D01*
X245768Y446247D02*
X316703D01*
X245768Y447247D02*
X316664D01*
X279053Y393247D02*
X316586D01*
X283035Y492247D02*
X316571D01*
X313499Y373247D02*
X316505D01*
X313658Y366247D02*
X316470D01*
X314479Y372247D02*
X316437D01*
X315011Y371247D02*
X316437D01*
X315260Y370247D02*
X316437D01*
X315274Y369247D02*
X316437D01*
X315055Y368247D02*
X316437D01*
X314564Y367247D02*
X316437D01*
X278224Y392247D02*
X315586D01*
X276339Y391247D02*
X314586D01*
X221358Y390247D02*
X313586D01*
X221358Y389247D02*
X312586D01*
X221358Y388247D02*
X311586D01*
X305663Y387247D02*
X310586D01*
X307239Y386247D02*
X309586D01*
X306876Y378247D02*
X308996D01*
X305876Y377247D02*
X308996D01*
X304876Y376247D02*
X308996D01*
X303876Y375247D02*
X308996D01*
X302887Y374247D02*
X308996D01*
X307876Y379247D02*
X308991D01*
X307729Y385247D02*
X308586D01*
X303499Y373247D02*
X308233D01*
X303658Y366247D02*
X308074D01*
X304479Y372247D02*
X307253D01*
X304564Y367247D02*
X307169D01*
X305011Y371247D02*
X306721D01*
X305055Y368247D02*
X306677D01*
X305260Y370247D02*
X306473D01*
X305274Y369247D02*
X306459D01*
X221358Y381247D02*
X304586D01*
X293458Y387247D02*
X304573D01*
X294057Y382247D02*
X303975D01*
X221358Y380247D02*
X303586D01*
X221358Y379247D02*
X302586D01*
X221358Y378247D02*
X301586D01*
X221358Y377247D02*
X300586D01*
X221358Y376247D02*
X299586D01*
X221358Y375247D02*
X298971D01*
X221358Y374247D02*
X298917D01*
X293617Y373247D02*
X298233D01*
X293776Y366247D02*
X298074D01*
X279501Y394247D02*
X297744D01*
X247320Y485247D02*
X297650D01*
X294597Y372247D02*
X297253D01*
X294682Y367247D02*
X297169D01*
X227264Y252247D02*
X297146D01*
X290046Y251247D02*
X297146D01*
X291406Y250247D02*
X297146D01*
X292100Y249247D02*
X297146D01*
X292464Y248247D02*
X297146D01*
X292579Y247247D02*
X297146D01*
X292465Y246247D02*
X297146D01*
X292103Y245247D02*
X297146D01*
X291410Y244247D02*
X297146D01*
X290057Y243247D02*
X297146D01*
X269980Y242247D02*
X297146D01*
X269980Y241247D02*
X297146D01*
X269980Y240247D02*
X297146D01*
X269980Y239247D02*
X297146D01*
X269980Y238247D02*
X297146D01*
X269980Y237247D02*
X297146D01*
X269980Y236247D02*
X297146D01*
X269980Y235247D02*
X297146D01*
X269980Y234247D02*
X297146D01*
X269980Y233247D02*
X297146D01*
X269980Y232247D02*
X297146D01*
X269980Y231247D02*
X297146D01*
X269980Y230247D02*
X297146D01*
X269980Y229247D02*
X297146D01*
X269980Y228247D02*
X297146D01*
X269980Y227247D02*
X297146D01*
X269980Y226247D02*
X297146D01*
X269980Y225247D02*
X297146D01*
X269980Y224247D02*
X297146D01*
X269980Y223247D02*
X297146D01*
X269980Y222247D02*
X297146D01*
X269980Y221247D02*
X297146D01*
X269980Y220247D02*
X297146D01*
X269980Y219247D02*
X297146D01*
X269980Y218247D02*
X297146D01*
X269980Y217247D02*
X297146D01*
X269980Y216247D02*
X297146D01*
X269980Y215247D02*
X297146D01*
X269980Y214247D02*
X297146D01*
X269980Y213247D02*
X297146D01*
X269980Y212247D02*
X297146D01*
X269980Y211247D02*
X297146D01*
X269980Y210247D02*
X297146D01*
X269980Y209247D02*
X297146D01*
X269980Y208247D02*
X297146D01*
X269980Y207247D02*
X297146D01*
X269980Y206247D02*
X297146D01*
X269980Y205247D02*
X297146D01*
X269980Y204247D02*
X297146D01*
X269980Y203247D02*
X297146D01*
X269980Y202247D02*
X297146D01*
X269980Y201247D02*
X297146D01*
X269980Y200247D02*
X297146D01*
X269980Y199247D02*
X297146D01*
X269980Y198247D02*
X297146D01*
X269980Y197247D02*
X297146D01*
X269980Y196247D02*
X297146D01*
X269980Y195247D02*
X297146D01*
X269980Y194247D02*
X297146D01*
X269980Y193247D02*
X297146D01*
X269980Y192247D02*
X297146D01*
X269980Y191247D02*
X297146D01*
X269980Y190247D02*
X297146D01*
X269980Y189247D02*
X297146D01*
X269980Y188247D02*
X297146D01*
X269980Y187247D02*
X297146D01*
X269980Y186247D02*
X297146D01*
X269980Y185247D02*
X297146D01*
X269980Y184247D02*
X297146D01*
X269980Y183247D02*
X297146D01*
X269980Y182247D02*
X297146D01*
X269980Y181247D02*
X297146D01*
X269980Y180247D02*
X297146D01*
X269980Y179247D02*
X297146D01*
X269980Y178247D02*
X297146D01*
X269980Y177247D02*
X297146D01*
X269980Y176247D02*
X297146D01*
X269980Y175247D02*
X297146D01*
X269980Y174247D02*
X297146D01*
X269980Y173247D02*
X297146D01*
X269980Y172247D02*
X297146D01*
X269980Y171247D02*
X297146D01*
X269980Y170247D02*
X297146D01*
X269980Y169247D02*
X297146D01*
X269980Y168247D02*
X297146D01*
X269980Y167247D02*
X297146D01*
X269980Y166247D02*
X297146D01*
X270541Y165247D02*
X297146D01*
X270767Y164247D02*
X297146D01*
X270601Y163247D02*
X297146D01*
X269941Y162247D02*
X297146D01*
X260138Y161247D02*
X297146D01*
X260149Y160247D02*
X297146D01*
X260738Y159247D02*
X297146D01*
X260925Y158247D02*
X297146D01*
X260721Y157247D02*
X297146D01*
X259993Y156247D02*
X297146D01*
X230182Y155247D02*
X297146D01*
X228991Y154247D02*
X297146D01*
X260219Y477247D02*
X297033D01*
X221358Y402247D02*
X296974D01*
X227264Y253247D02*
X296847D01*
X295129Y371247D02*
X296721D01*
X295173Y368247D02*
X296677D01*
X295378Y370247D02*
X296473D01*
X295392Y369247D02*
X296459D01*
X190855Y358247D02*
X296264D01*
X279685Y395247D02*
X296128D01*
X221358Y401247D02*
X295798D01*
X279639Y396247D02*
X295356D01*
X221358Y400247D02*
X295175D01*
X279355Y397247D02*
X294943D01*
X277697Y399247D02*
X294860D01*
X278775Y398247D02*
X294787D01*
X221358Y387247D02*
X292369D01*
X221358Y382247D02*
X291770D01*
X221358Y386247D02*
X290792D01*
X221358Y383247D02*
X290654D01*
X221358Y385247D02*
X290325D01*
X221358Y384247D02*
X290286D01*
X227264Y254247D02*
X288912D01*
X191855Y357247D02*
X288613D01*
X221358Y373247D02*
X288351D01*
X225812Y366247D02*
X288192D01*
X221358Y372247D02*
X287371D01*
X226751Y367247D02*
X287287D01*
X221358Y371247D02*
X286840D01*
X227054Y368247D02*
X286795D01*
X226416Y370247D02*
X286591D01*
X226961Y369247D02*
X286577D01*
X280164Y251247D02*
X286253D01*
X280175Y243247D02*
X286242D01*
X281524Y250247D02*
X284894D01*
X281529Y244247D02*
X284889D01*
X227264Y255247D02*
X284791D01*
X204272Y356247D02*
X284580D01*
X282218Y249247D02*
X284199D01*
X282221Y245247D02*
X284196D01*
X282582Y248247D02*
X283835D01*
X282583Y246247D02*
X283834D01*
X282697Y247247D02*
X283720D01*
X227264Y256247D02*
X281664D01*
X205272Y355247D02*
X281494D01*
X227264Y257247D02*
X279066D01*
X206063Y354247D02*
X278920D01*
X227264Y258247D02*
X276810D01*
X206201Y353247D02*
X276682D01*
X270164Y251247D02*
X276371D01*
X270189Y243247D02*
X276360D01*
X271524Y250247D02*
X275012D01*
X271529Y244247D02*
X275007D01*
X227264Y259247D02*
X274802D01*
X206201Y352247D02*
X274687D01*
X272218Y249247D02*
X274317D01*
X272221Y245247D02*
X274315D01*
X221358Y391247D02*
X274193D01*
X272582Y248247D02*
X273954D01*
X272583Y246247D02*
X273952D01*
X272697Y247247D02*
X273839D01*
X227264Y260247D02*
X272986D01*
X206201Y351247D02*
X272881D01*
X221358Y399247D02*
X272836D01*
X221358Y392247D02*
X272309D01*
X221358Y398247D02*
X271757D01*
X221358Y393247D02*
X271479D01*
X227103Y261247D02*
X271323D01*
X206201Y350247D02*
X271226D01*
X221358Y397247D02*
X271178D01*
X221358Y394247D02*
X271031D01*
X221358Y396247D02*
X270893D01*
X221358Y395247D02*
X270847D01*
X226567Y262247D02*
X269787D01*
X206201Y349247D02*
X269698D01*
X225235Y263247D02*
X268360D01*
X206201Y348247D02*
X268277D01*
X117750Y264247D02*
X267028D01*
X206201Y347247D02*
X266950D01*
X262371Y251247D02*
X266371D01*
X260138Y162247D02*
X266280D01*
X260138Y242247D02*
X266240D01*
X260138Y241247D02*
X266240D01*
X260138Y240247D02*
X266240D01*
X260138Y239247D02*
X266240D01*
X260138Y238247D02*
X266240D01*
X260138Y237247D02*
X266240D01*
X260138Y236247D02*
X266240D01*
X260138Y235247D02*
X266240D01*
X260138Y234247D02*
X266240D01*
X260138Y233247D02*
X266240D01*
X260138Y232247D02*
X266240D01*
X260138Y231247D02*
X266240D01*
X260138Y230247D02*
X266240D01*
X260138Y229247D02*
X266240D01*
X260138Y228247D02*
X266240D01*
X260138Y227247D02*
X266240D01*
X260138Y226247D02*
X266240D01*
X260138Y225247D02*
X266240D01*
X260138Y224247D02*
X266240D01*
X260138Y223247D02*
X266240D01*
X260138Y222247D02*
X266240D01*
X260138Y221247D02*
X266240D01*
X260138Y220247D02*
X266240D01*
X260138Y219247D02*
X266240D01*
X260138Y218247D02*
X266240D01*
X260138Y217247D02*
X266240D01*
X260138Y216247D02*
X266240D01*
X260138Y215247D02*
X266240D01*
X260138Y214247D02*
X266240D01*
X260138Y213247D02*
X266240D01*
X260138Y212247D02*
X266240D01*
X260138Y211247D02*
X266240D01*
X260138Y210247D02*
X266240D01*
X260138Y209247D02*
X266240D01*
X260138Y208247D02*
X266240D01*
X260138Y207247D02*
X266240D01*
X260138Y206247D02*
X266240D01*
X260138Y205247D02*
X266240D01*
X260138Y204247D02*
X266240D01*
X260138Y203247D02*
X266240D01*
X260138Y202247D02*
X266240D01*
X260138Y201247D02*
X266240D01*
X260138Y200247D02*
X266240D01*
X260138Y199247D02*
X266240D01*
X260138Y198247D02*
X266240D01*
X260138Y197247D02*
X266240D01*
X260138Y196247D02*
X266240D01*
X260138Y195247D02*
X266240D01*
X260138Y194247D02*
X266240D01*
X260138Y193247D02*
X266240D01*
X260138Y192247D02*
X266240D01*
X260138Y191247D02*
X266240D01*
X260138Y190247D02*
X266240D01*
X260138Y189247D02*
X266240D01*
X260138Y188247D02*
X266240D01*
X260138Y187247D02*
X266240D01*
X260138Y186247D02*
X266240D01*
X260138Y185247D02*
X266240D01*
X260138Y184247D02*
X266240D01*
X260138Y183247D02*
X266240D01*
X260138Y182247D02*
X266240D01*
X260138Y181247D02*
X266240D01*
X260138Y180247D02*
X266240D01*
X260138Y179247D02*
X266240D01*
X260138Y178247D02*
X266240D01*
X260138Y177247D02*
X266240D01*
X260138Y176247D02*
X266240D01*
X260138Y175247D02*
X266240D01*
X260138Y174247D02*
X266240D01*
X260138Y173247D02*
X266240D01*
X260138Y172247D02*
X266240D01*
X260138Y171247D02*
X266240D01*
X260138Y170247D02*
X266240D01*
X260138Y169247D02*
X266240D01*
X260138Y168247D02*
X266240D01*
X260138Y167247D02*
X266240D01*
X260138Y166247D02*
X266240D01*
X262376Y243247D02*
X266183D01*
X117527Y265247D02*
X265778D01*
X206201Y346247D02*
X265704D01*
X260138Y165247D02*
X265679D01*
X260138Y163247D02*
X265619D01*
X260138Y164247D02*
X265454D01*
X262697Y250247D02*
X265012D01*
X262697Y244247D02*
X265007D01*
X117310Y266247D02*
X264602D01*
X206201Y345247D02*
X264533D01*
X262697Y249247D02*
X264317D01*
X262697Y245247D02*
X264315D01*
X262697Y248247D02*
X263954D01*
X262697Y246247D02*
X263952D01*
X262697Y247247D02*
X263839D01*
X117098Y267247D02*
X263493D01*
X206201Y344247D02*
X263427D01*
X116891Y268247D02*
X262444D01*
X206201Y343247D02*
X262382D01*
X116691Y269247D02*
X261451D01*
X206201Y342247D02*
X261392D01*
X116495Y270247D02*
X260509D01*
X206201Y341247D02*
X260453D01*
X247592Y271247D02*
X259615D01*
X206201Y340247D02*
X259562D01*
X249153Y272247D02*
X258765D01*
X206201Y339247D02*
X258714D01*
X244127Y484247D02*
X258635D01*
X249910Y273247D02*
X257957D01*
X206201Y338247D02*
X257909D01*
X250315Y274247D02*
X257188D01*
X206201Y337247D02*
X257142D01*
X241125Y483247D02*
X257003D01*
X230573Y156247D02*
X256542D01*
X250463Y275247D02*
X256456D01*
X206201Y336247D02*
X256413D01*
X227264Y242247D02*
X256398D01*
X227264Y241247D02*
X256398D01*
X227264Y240247D02*
X256398D01*
X227264Y239247D02*
X256398D01*
X227264Y238247D02*
X256398D01*
X227264Y237247D02*
X256398D01*
X227264Y236247D02*
X256398D01*
X227291Y235247D02*
X256398D01*
X228221Y234247D02*
X256398D01*
X229221Y233247D02*
X256398D01*
X230221Y232247D02*
X256398D01*
X231221Y231247D02*
X256398D01*
X232221Y230247D02*
X256398D01*
X233221Y229247D02*
X256398D01*
X234221Y228247D02*
X256398D01*
X235221Y227247D02*
X256398D01*
X252381Y226247D02*
X256398D01*
X253726Y225247D02*
X256398D01*
X254265Y224247D02*
X256398D01*
X254429Y223247D02*
X256398D01*
X254277Y222247D02*
X256398D01*
X253755Y221247D02*
X256398D01*
X252469Y220247D02*
X256398D01*
X208563Y219247D02*
X256398D01*
X208563Y218247D02*
X256398D01*
X208563Y217247D02*
X256398D01*
X208563Y216247D02*
X256398D01*
X208563Y215247D02*
X256398D01*
X208563Y214247D02*
X256398D01*
X208563Y213247D02*
X256398D01*
X208563Y212247D02*
X256398D01*
X208563Y211247D02*
X256398D01*
X208563Y210247D02*
X256398D01*
X208563Y209247D02*
X256398D01*
X208563Y208247D02*
X256398D01*
X208563Y207247D02*
X256398D01*
X208563Y206247D02*
X256398D01*
X208563Y205247D02*
X256398D01*
X208563Y204247D02*
X256398D01*
X208563Y203247D02*
X256398D01*
X208563Y202247D02*
X256398D01*
X208563Y201247D02*
X256398D01*
X208563Y200247D02*
X256398D01*
X208808Y199247D02*
X256398D01*
X209280Y198247D02*
X256398D01*
X209321Y197247D02*
X256398D01*
X208957Y196247D02*
X256398D01*
X207853Y195247D02*
X256398D01*
X204495Y194247D02*
X256398D01*
X203738Y193247D02*
X256398D01*
X151149Y192247D02*
X256398D01*
X151917Y191247D02*
X256398D01*
X152696Y190247D02*
X256398D01*
X153485Y189247D02*
X256398D01*
X154286Y188247D02*
X256398D01*
X155098Y187247D02*
X256398D01*
X155922Y186247D02*
X256398D01*
X156758Y185247D02*
X256398D01*
X157605Y184247D02*
X256398D01*
X158465Y183247D02*
X256398D01*
X159337Y182247D02*
X256398D01*
X160221Y181247D02*
X256398D01*
X161119Y180247D02*
X256398D01*
X162030Y179247D02*
X256398D01*
X162954Y178247D02*
X256398D01*
X163892Y177247D02*
X256398D01*
X193685Y176247D02*
X256398D01*
X194637Y175247D02*
X256398D01*
X195142Y174247D02*
X256398D01*
X195362Y173247D02*
X256398D01*
X195341Y172247D02*
X256398D01*
X195076Y171247D02*
X256398D01*
X194511Y170247D02*
X256398D01*
X193435Y169247D02*
X256398D01*
X172998Y168247D02*
X256398D01*
X174091Y167247D02*
X256398D01*
X175201Y166247D02*
X256398D01*
X176329Y165247D02*
X256398D01*
X177476Y164247D02*
X256398D01*
X178642Y163247D02*
X256398D01*
X179828Y162247D02*
X256398D01*
X181034Y161247D02*
X256398D01*
X182261Y160247D02*
X256386D01*
X238285Y482247D02*
X256023D01*
X230552Y157247D02*
X255814D01*
X228688Y159247D02*
X255797D01*
X250383Y276247D02*
X255760D01*
X206201Y335247D02*
X255718D01*
X230109Y158247D02*
X255610D01*
X250059Y277247D02*
X255097D01*
X206201Y334247D02*
X255058D01*
X235587Y481247D02*
X255044D01*
X249424Y278247D02*
X254466D01*
X206201Y333247D02*
X254429D01*
X227264Y251247D02*
X254164D01*
X227264Y243247D02*
X254160D01*
X233012Y480247D02*
X254064D01*
X248221Y279247D02*
X253866D01*
X227264Y250247D02*
X253839D01*
X227264Y249247D02*
X253839D01*
X227264Y248247D02*
X253839D01*
X227264Y247247D02*
X253839D01*
X227264Y246247D02*
X253839D01*
X227264Y245247D02*
X253839D01*
X227264Y244247D02*
X253839D01*
X246562Y332247D02*
X253831D01*
X114837Y280247D02*
X253296D01*
X247579Y331247D02*
X253263D01*
X114700Y281247D02*
X252755D01*
X247913Y330247D02*
X252723D01*
X245768Y471247D02*
X252340D01*
X114569Y282247D02*
X252240D01*
X247846Y329247D02*
X252210D01*
X114443Y283247D02*
X251753D01*
X247339Y328247D02*
X251724D01*
X230547Y479247D02*
X251666D01*
X114322Y284247D02*
X251291D01*
X205695Y327247D02*
X251264D01*
X114207Y285247D02*
X250854D01*
X113923Y326247D02*
X250829D01*
X114096Y286247D02*
X250442D01*
X113826Y325247D02*
X250418D01*
X113991Y287247D02*
X250054D01*
X113735Y324247D02*
X250031D01*
X113891Y288247D02*
X249688D01*
X113649Y323247D02*
X249667D01*
X113797Y289247D02*
X249346D01*
X113569Y322247D02*
X249326D01*
X113707Y290247D02*
X249025D01*
X113493Y321247D02*
X249007D01*
X113623Y291247D02*
X248727D01*
X113423Y320247D02*
X248709D01*
X113544Y292247D02*
X248450D01*
X113358Y319247D02*
X248434D01*
X113470Y293247D02*
X248194D01*
X113298Y318247D02*
X248179D01*
X113401Y294247D02*
X247959D01*
X113243Y317247D02*
X247945D01*
X113338Y295247D02*
X247744D01*
X113193Y316247D02*
X247732D01*
X113280Y296247D02*
X247550D01*
X113149Y315247D02*
X247538D01*
X113226Y297247D02*
X247375D01*
X113109Y314247D02*
X247365D01*
X113178Y298247D02*
X247221D01*
X113075Y313247D02*
X247212D01*
X113136Y299247D02*
X247086D01*
X113046Y312247D02*
X247078D01*
X113098Y300247D02*
X246970D01*
X113022Y311247D02*
X246964D01*
X113065Y301247D02*
X246874D01*
X239067Y310247D02*
X246869D01*
X240685Y302247D02*
X246797D01*
X241097Y309247D02*
X246793D01*
X241731Y303247D02*
X246739D01*
X241949Y308247D02*
X246736D01*
X242296Y304247D02*
X246701D01*
X242410Y307247D02*
X246699D01*
X242569Y305247D02*
X246681D01*
X242605Y306247D02*
X246680D01*
X116305Y271247D02*
X244481D01*
X219790Y332247D02*
X243989D01*
X114979Y279247D02*
X243852D01*
X228181Y478247D02*
X243518D01*
X116121Y272247D02*
X242920D01*
X115126Y278247D02*
X242649D01*
X225904Y477247D02*
X242338D01*
X115941Y273247D02*
X242162D01*
X115278Y277247D02*
X242014D01*
X115767Y274247D02*
X241758D01*
X115436Y276247D02*
X241690D01*
X115599Y275247D02*
X241610D01*
X223708Y476247D02*
X241338D01*
X221587Y475247D02*
X240338D01*
X219534Y474247D02*
X239595D01*
X217545Y473247D02*
X239298D01*
X215615Y472247D02*
X239272D01*
X213739Y471247D02*
X239272D01*
X211915Y470247D02*
X239272D01*
X210139Y469247D02*
X239272D01*
X208408Y468247D02*
X239272D01*
X206656Y467247D02*
X239272D01*
X204933Y466247D02*
X239272D01*
X203249Y465247D02*
X239272D01*
X201602Y464247D02*
X239272D01*
X199991Y463247D02*
X239272D01*
X197021Y451247D02*
X239272D01*
X196021Y450247D02*
X239272D01*
X195021Y449247D02*
X239272D01*
X194021Y448247D02*
X239272D01*
X193021Y447247D02*
X239272D01*
X192021Y446247D02*
X239272D01*
X191021Y445247D02*
X239272D01*
X190021Y444247D02*
X239272D01*
X189021Y443247D02*
X239272D01*
X188021Y442247D02*
X239272D01*
X187021Y441247D02*
X239272D01*
X186021Y440247D02*
X239272D01*
X185021Y439247D02*
X239272D01*
X184021Y438247D02*
X239272D01*
X183021Y437247D02*
X239272D01*
X182021Y436247D02*
X239272D01*
X181021Y435247D02*
X239272D01*
X180021Y434247D02*
X239272D01*
X179021Y433247D02*
X239272D01*
X178021Y432247D02*
X239272D01*
X177021Y431247D02*
X239272D01*
X176250Y430247D02*
X239270D01*
X198021Y452247D02*
X239202D01*
X198414Y462247D02*
X238756D01*
X188649Y429247D02*
X238433D01*
X199021Y453247D02*
X238223D01*
X196964Y461247D02*
X237756D01*
X189890Y428247D02*
X237433D01*
X156390Y310247D02*
X237311D01*
X229620Y411247D02*
X237006D01*
X233620Y415247D02*
X236685D01*
X190540Y427247D02*
X236433D01*
X230620Y412247D02*
X236182D01*
X232620Y414247D02*
X236068D01*
X231620Y413247D02*
X235929D01*
X158008Y302247D02*
X235693D01*
X190874Y426247D02*
X235433D01*
X158419Y309247D02*
X235281D01*
X159054Y303247D02*
X234647D01*
X190963Y425247D02*
X234433D01*
X159272Y308247D02*
X234429D01*
X159619Y304247D02*
X234082D01*
X159733Y307247D02*
X233968D01*
X159892Y305247D02*
X233809D01*
X159928Y306247D02*
X233773D01*
X190824Y424247D02*
X233433D01*
X208563Y220247D02*
X233357D01*
X190431Y423247D02*
X232433D01*
X208563Y221247D02*
X232034D01*
X211427Y422247D02*
X231433D01*
X208563Y222247D02*
X231034D01*
X211991Y421247D02*
X230433D01*
X208563Y223247D02*
X230034D01*
X212097Y420247D02*
X229433D01*
X208563Y224247D02*
X229034D01*
X211807Y419247D02*
X228433D01*
X208563Y225247D02*
X228034D01*
X210901Y418247D02*
X227433D01*
X183509Y159247D02*
X227218D01*
X208563Y226247D02*
X227034D01*
X225154Y154247D02*
X226914D01*
X190540Y417247D02*
X226433D01*
X208563Y227247D02*
X226034D01*
X184780Y158247D02*
X225797D01*
X224009Y155247D02*
X225723D01*
X190874Y416247D02*
X225433D01*
X186074Y157247D02*
X225354D01*
X187392Y156247D02*
X225333D01*
X208563Y228247D02*
X225034D01*
X190963Y415247D02*
X224433D01*
X208563Y229247D02*
X224034D01*
X190824Y414247D02*
X223433D01*
X208563Y230247D02*
X223034D01*
X188484Y366247D02*
X223007D01*
X117978Y263247D02*
X222796D01*
X190431Y413247D02*
X222433D01*
X221311Y370247D02*
X222403D01*
X188484Y367247D02*
X222068D01*
X208563Y231247D02*
X222034D01*
X220031Y368247D02*
X221764D01*
X220949Y369247D02*
X221617D01*
X208431Y262247D02*
X221465D01*
X189691Y412247D02*
X221433D01*
X208563Y232247D02*
X221196D01*
X209151Y261247D02*
X220929D01*
X208563Y233247D02*
X220826D01*
X209350Y260247D02*
X220768D01*
X209159Y259247D02*
X220768D01*
X208572Y258247D02*
X220768D01*
X208563Y257247D02*
X220768D01*
X208563Y256247D02*
X220768D01*
X208563Y255247D02*
X220768D01*
X208563Y254247D02*
X220768D01*
X208563Y253247D02*
X220768D01*
X208563Y252247D02*
X220768D01*
X208563Y251247D02*
X220768D01*
X208563Y250247D02*
X220768D01*
X208563Y249247D02*
X220768D01*
X208563Y248247D02*
X220768D01*
X208563Y247247D02*
X220768D01*
X208563Y246247D02*
X220768D01*
X208563Y245247D02*
X220768D01*
X208563Y244247D02*
X220768D01*
X208563Y243247D02*
X220768D01*
X208563Y242247D02*
X220768D01*
X208563Y241247D02*
X220768D01*
X208563Y240247D02*
X220768D01*
X208563Y239247D02*
X220768D01*
X208563Y238247D02*
X220768D01*
X208563Y237247D02*
X220768D01*
X208563Y236247D02*
X220768D01*
X208563Y235247D02*
X220768D01*
X208563Y234247D02*
X220768D01*
X188192Y411247D02*
X220433D01*
X215900Y155247D02*
X219613D01*
X184073Y410247D02*
X219433D01*
X216091Y154247D02*
X218468D01*
X183073Y409247D02*
X218433D01*
X182073Y408247D02*
X217433D01*
X206201Y332247D02*
X217218D01*
X206659Y328247D02*
X216440D01*
X181073Y407247D02*
X216433D01*
X206357Y331247D02*
X216201D01*
X188484Y368247D02*
X216190D01*
X206973Y329247D02*
X215933D01*
X206889Y330247D02*
X215866D01*
X180073Y406247D02*
X215487D01*
X188484Y369247D02*
X215295D01*
X179823Y405247D02*
X214994D01*
X188484Y370247D02*
X214922D01*
X179823Y404247D02*
X214862D01*
X179823Y403247D02*
X214862D01*
X179819Y402247D02*
X214862D01*
X179454Y401247D02*
X214862D01*
X178482Y400247D02*
X214862D01*
X177482Y399247D02*
X214862D01*
X176482Y398247D02*
X214862D01*
X157380Y397247D02*
X214862D01*
X156372Y396247D02*
X214862D01*
X155372Y395247D02*
X214862D01*
X154372Y394247D02*
X214862D01*
X153372Y393247D02*
X214862D01*
X152375Y392247D02*
X214862D01*
X152264Y391247D02*
X214862D01*
X188296Y390247D02*
X214862D01*
X189052Y389247D02*
X214862D01*
X189271Y388247D02*
X214862D01*
X189099Y387247D02*
X214862D01*
X188505Y386247D02*
X214862D01*
X188484Y385247D02*
X214862D01*
X188484Y384247D02*
X214862D01*
X188484Y383247D02*
X214862D01*
X188484Y382247D02*
X214862D01*
X188484Y381247D02*
X214862D01*
X188484Y380247D02*
X214862D01*
X188484Y379247D02*
X214862D01*
X188484Y378247D02*
X214862D01*
X188484Y377247D02*
X214862D01*
X188484Y376247D02*
X214862D01*
X188484Y375247D02*
X214862D01*
X188484Y374247D02*
X214862D01*
X188484Y373247D02*
X214862D01*
X188484Y372247D02*
X214862D01*
X188484Y371247D02*
X214862D01*
X190140Y418247D02*
X207997D01*
X188735Y155247D02*
X207722D01*
X190103Y154247D02*
X207531D01*
X204931Y195247D02*
X205533D01*
X118212Y262247D02*
X204955D01*
X119466Y257247D02*
X204823D01*
X119733Y256247D02*
X204823D01*
X120007Y255247D02*
X204823D01*
X120286Y254247D02*
X204823D01*
X145051Y253247D02*
X204823D01*
X145561Y252247D02*
X204823D01*
X146070Y251247D02*
X204823D01*
X146580Y250247D02*
X204823D01*
X147089Y249247D02*
X204823D01*
X147599Y248247D02*
X204823D01*
X147874Y247247D02*
X204823D01*
X147187Y246247D02*
X204823D01*
X145224Y245247D02*
X204823D01*
X143261Y244247D02*
X204823D01*
X149760Y243247D02*
X204823D01*
X150635Y242247D02*
X204823D01*
X151099Y241247D02*
X204823D01*
X151287Y240247D02*
X204823D01*
X151237Y239247D02*
X204823D01*
X175867Y238247D02*
X204823D01*
X177507Y237247D02*
X204823D01*
X119204Y258247D02*
X204814D01*
X203776Y236247D02*
X204802D01*
X118451Y261247D02*
X204235D01*
X118947Y259247D02*
X204226D01*
X118697Y260247D02*
X204035D01*
X114024Y327247D02*
X202967D01*
X201210Y348247D02*
X202461D01*
X130630Y347247D02*
X202461D01*
X129630Y346247D02*
X202461D01*
X128630Y345247D02*
X202461D01*
X127630Y344247D02*
X202461D01*
X126630Y343247D02*
X202461D01*
X125630Y342247D02*
X202461D01*
X124446Y341247D02*
X202461D01*
X115823Y340247D02*
X202461D01*
X115652Y339247D02*
X202461D01*
X115488Y338247D02*
X202461D01*
X115328Y337247D02*
X202461D01*
X115174Y336247D02*
X202461D01*
X115025Y335247D02*
X202461D01*
X114882Y334247D02*
X202461D01*
X114743Y333247D02*
X202461D01*
X114610Y332247D02*
X202461D01*
X114483Y331247D02*
X202304D01*
X114131Y328247D02*
X202002D01*
X114360Y330247D02*
X201772D01*
X114243Y329247D02*
X201688D01*
X150392Y193247D02*
X199411D01*
X178285Y236247D02*
X199374D01*
X149645Y194247D02*
X198655D01*
X178702Y235247D02*
X198638D01*
X148909Y195247D02*
X198354D01*
X178861Y234247D02*
X198350D01*
X178791Y233247D02*
X198327D01*
X178479Y232247D02*
X198327D01*
X177861Y231247D02*
X198327D01*
X176697Y230247D02*
X198327D01*
X155333Y229247D02*
X198327D01*
X154642Y228247D02*
X198327D01*
X153244Y227247D02*
X198327D01*
X145800Y226247D02*
X198327D01*
X146309Y225247D02*
X198327D01*
X146819Y224247D02*
X198327D01*
X147023Y223247D02*
X198327D01*
X146142Y222247D02*
X198327D01*
X144179Y221247D02*
X198327D01*
X181521Y220247D02*
X198327D01*
X182881Y219247D02*
X198327D01*
X183313Y218247D02*
X198327D01*
X183324Y217247D02*
X198327D01*
X182923Y216247D02*
X198327D01*
X182579Y215247D02*
X198327D01*
X182579Y214247D02*
X198327D01*
X182579Y213247D02*
X198327D01*
X182579Y212247D02*
X198327D01*
X182579Y211247D02*
X198327D01*
X182579Y210247D02*
X198327D01*
X182694Y209247D02*
X198327D01*
X183253Y208247D02*
X198327D01*
X183356Y207247D02*
X198327D01*
X183062Y206247D02*
X198327D01*
X182149Y205247D02*
X198327D01*
X142724Y204247D02*
X198327D01*
X143373Y203247D02*
X198327D01*
X144032Y202247D02*
X198327D01*
X144700Y201247D02*
X198327D01*
X145377Y200247D02*
X198327D01*
X146064Y199247D02*
X198327D01*
X146760Y198247D02*
X198327D01*
X147467Y197247D02*
X198327D01*
X148183Y196247D02*
X198327D01*
X183075Y352247D02*
X197793D01*
X182075Y353247D02*
X197723D01*
X181075Y354247D02*
X189565D01*
X185239Y169247D02*
X188770D01*
X180075Y355247D02*
X188565D01*
X185314Y176247D02*
X188519D01*
X185382Y170247D02*
X187694D01*
X185382Y175247D02*
X187567D01*
X179100Y356247D02*
X187565D01*
X185382Y171247D02*
X187128D01*
X185382Y174247D02*
X187062D01*
X185382Y172247D02*
X186863D01*
X185382Y173247D02*
X186843D01*
X179035Y357247D02*
X186565D01*
X179035Y358247D02*
X185565D01*
X178191Y390247D02*
X184933D01*
X179035Y359247D02*
X184842D01*
X179035Y385247D02*
X184744D01*
X179035Y384247D02*
X184744D01*
X179035Y383247D02*
X184744D01*
X179035Y382247D02*
X184744D01*
X179035Y381247D02*
X184744D01*
X179035Y380247D02*
X184744D01*
X179035Y379247D02*
X184744D01*
X179035Y378247D02*
X184744D01*
X179035Y377247D02*
X184744D01*
X179035Y376247D02*
X184744D01*
X179035Y375247D02*
X184744D01*
X179035Y374247D02*
X184744D01*
X179035Y373247D02*
X184744D01*
X179035Y372247D02*
X184744D01*
X179035Y371247D02*
X184744D01*
X179035Y370247D02*
X184744D01*
X179035Y369247D02*
X184744D01*
X179035Y368247D02*
X184744D01*
X179035Y367247D02*
X184744D01*
X179035Y366247D02*
X184744D01*
X179035Y365247D02*
X184744D01*
X179035Y364247D02*
X184744D01*
X179035Y363247D02*
X184744D01*
X179035Y362247D02*
X184744D01*
X179035Y361247D02*
X184744D01*
X179035Y360247D02*
X184744D01*
X179325Y386247D02*
X184723D01*
X178649Y429247D02*
X184422D01*
X179391Y389247D02*
X184176D01*
X179766Y387247D02*
X184129D01*
X179784Y388247D02*
X183957D01*
X179890Y428247D02*
X183181D01*
X180431Y423247D02*
X182640D01*
X180540Y427247D02*
X182531D01*
X180824Y424247D02*
X182247D01*
X180874Y426247D02*
X182197D01*
X180963Y425247D02*
X182108D01*
X131630Y348247D02*
X182027D01*
X180255Y422247D02*
X181063D01*
X132630Y349247D02*
X180786D01*
X142216Y220247D02*
X179896D01*
X133630Y350247D02*
X179786D01*
X142083Y205247D02*
X179269D01*
X136153Y215247D02*
X178839D01*
X136708Y214247D02*
X178839D01*
X137272Y213247D02*
X178839D01*
X137844Y212247D02*
X178839D01*
X138424Y211247D02*
X178839D01*
X139013Y210247D02*
X178839D01*
X134630Y351247D02*
X178786D01*
X139610Y209247D02*
X178723D01*
X134009Y219247D02*
X178536D01*
X135605Y216247D02*
X178495D01*
X141452Y206247D02*
X178355D01*
X140215Y208247D02*
X178164D01*
X134533Y218247D02*
X178105D01*
X135065Y217247D02*
X178093D01*
X140829Y207247D02*
X178061D01*
X135630Y352247D02*
X177786D01*
X171923Y169247D02*
X176966D01*
X164843Y176247D02*
X176891D01*
X165809Y175247D02*
X176823D01*
X166790Y174247D02*
X176823D01*
X167785Y173247D02*
X176823D01*
X168796Y172247D02*
X176823D01*
X169822Y171247D02*
X176823D01*
X170864Y170247D02*
X176823D01*
X136630Y353247D02*
X176786D01*
X152264Y390247D02*
X176139D01*
X137630Y354247D02*
X175788D01*
X138630Y355247D02*
X175314D01*
X152264Y385247D02*
X175295D01*
X152264Y384247D02*
X175295D01*
X152264Y383247D02*
X175295D01*
X152264Y382247D02*
X175295D01*
X152264Y381247D02*
X175295D01*
X152264Y380247D02*
X175295D01*
X152264Y379247D02*
X175295D01*
X152264Y378247D02*
X175295D01*
X152264Y377247D02*
X175295D01*
X152264Y376247D02*
X175295D01*
X152264Y375247D02*
X175295D01*
X152264Y374247D02*
X175295D01*
X152264Y373247D02*
X175295D01*
X152264Y372247D02*
X175295D01*
X152264Y371247D02*
X175295D01*
X152264Y370247D02*
X175295D01*
X152264Y369247D02*
X175295D01*
X152264Y368247D02*
X175295D01*
X152264Y367247D02*
X175295D01*
X152264Y366247D02*
X175295D01*
X152264Y365247D02*
X175295D01*
X152264Y364247D02*
X175295D01*
X152264Y363247D02*
X175295D01*
X152264Y362247D02*
X175295D01*
X152264Y361247D02*
X175295D01*
X152527Y360247D02*
X175295D01*
X152986Y359247D02*
X175295D01*
X153019Y358247D02*
X175295D01*
X152643Y357247D02*
X175295D01*
X151503Y356247D02*
X175295D01*
X152264Y386247D02*
X175006D01*
X152264Y389247D02*
X174939D01*
X152264Y387247D02*
X174565D01*
X152264Y388247D02*
X174546D01*
X150938Y238247D02*
X173005D01*
X155685Y230247D02*
X172175D01*
X150326Y237247D02*
X171365D01*
X155782Y231247D02*
X171011D01*
X149143Y236247D02*
X170587D01*
X155642Y232247D02*
X170393D01*
X152762Y235247D02*
X170170D01*
X155238Y233247D02*
X170081D01*
X154464Y234247D02*
X170011D01*
X154943Y424247D02*
X156261D01*
X154099Y423247D02*
X156201D01*
X153267Y422247D02*
X156201D01*
X152446Y421247D02*
X156201D01*
X151636Y420247D02*
X156201D01*
X150837Y419247D02*
X156201D01*
X150048Y418247D02*
X156201D01*
X149270Y417247D02*
X156201D01*
X148502Y416247D02*
X156201D01*
X147745Y415247D02*
X156201D01*
X146997Y414247D02*
X156201D01*
X146260Y413247D02*
X156201D01*
X145532Y412247D02*
X156201D01*
X144814Y411247D02*
X156201D01*
X144105Y410247D02*
X155653D01*
X143406Y409247D02*
X154653D01*
X113003Y310247D02*
X154634D01*
X142715Y408247D02*
X153653D01*
X113038Y302247D02*
X153016D01*
X142034Y407247D02*
X152653D01*
X112990Y309247D02*
X152604D01*
X113015Y303247D02*
X151969D01*
X112981Y308247D02*
X151752D01*
X141362Y406247D02*
X151653D01*
X112998Y304247D02*
X151405D01*
X112978Y307247D02*
X151291D01*
X112986Y305247D02*
X151132D01*
X112979Y306247D02*
X151096D01*
X140699Y405247D02*
X150653D01*
X141188Y235247D02*
X150245D01*
X145290Y227247D02*
X149763D01*
X140045Y404247D02*
X149653D01*
X139630Y356247D02*
X149284D01*
X139399Y403247D02*
X148653D01*
X141439Y234247D02*
X148543D01*
X147418Y364247D02*
X148524D01*
X146630Y363247D02*
X148524D01*
X145630Y362247D02*
X148524D01*
X144630Y361247D02*
X148524D01*
X144781Y228247D02*
X148365D01*
X143630Y360247D02*
X148261D01*
X140630Y357247D02*
X148144D01*
X142630Y359247D02*
X147801D01*
X141446Y233247D02*
X147769D01*
X141630Y358247D02*
X147769D01*
X144271Y229247D02*
X147674D01*
X138762Y402247D02*
X147653D01*
X141213Y232247D02*
X147365D01*
X139702Y230247D02*
X147322D01*
X140690Y231247D02*
X147225D01*
X138134Y401247D02*
X146653D01*
X137514Y400247D02*
X145653D01*
X140641Y236247D02*
X144892D01*
X136902Y399247D02*
X144653D01*
X123743Y243247D02*
X144275D01*
X139607Y237247D02*
X143709D01*
X136298Y398247D02*
X143653D01*
X124093Y242247D02*
X143399D01*
X125555Y238247D02*
X143096D01*
X124449Y241247D02*
X142935D01*
X125180Y239247D02*
X142798D01*
X124812Y240247D02*
X142747D01*
X135703Y397247D02*
X142653D01*
X120571Y253247D02*
X142072D01*
X135115Y396247D02*
X141757D01*
X134536Y395247D02*
X141330D01*
X128922Y384247D02*
X141290D01*
X128493Y383247D02*
X141290D01*
X128072Y382247D02*
X141290D01*
X127656Y381247D02*
X141290D01*
X127248Y380247D02*
X141290D01*
X126845Y379247D02*
X141290D01*
X126449Y378247D02*
X141290D01*
X126060Y377247D02*
X141290D01*
X125677Y376247D02*
X141290D01*
X125300Y375247D02*
X141290D01*
X124929Y374247D02*
X141290D01*
X124565Y373247D02*
X141290D01*
X124206Y372247D02*
X141290D01*
X123854Y371247D02*
X141290D01*
X123508Y370247D02*
X141290D01*
X123168Y369247D02*
X141290D01*
X122834Y368247D02*
X141290D01*
X122506Y367247D02*
X141287D01*
X133964Y394247D02*
X141240D01*
X133400Y393247D02*
X141240D01*
X132844Y392247D02*
X141240D01*
X132295Y391247D02*
X141240D01*
X131754Y390247D02*
X141240D01*
X131221Y389247D02*
X141240D01*
X130702Y388247D02*
X141240D01*
X130247Y387247D02*
X141240D01*
X129799Y386247D02*
X141240D01*
X129357Y385247D02*
X141240D01*
X129217Y229247D02*
X141027D01*
X122184Y366247D02*
X140443D01*
X120861Y252247D02*
X140109D01*
X123399Y244247D02*
X140031D01*
X123061Y245247D02*
X139521D01*
X121868Y365247D02*
X139443D01*
X133492Y220247D02*
X139251D01*
X129656Y228247D02*
X139064D01*
X122729Y246247D02*
X139012D01*
X132983Y221247D02*
X138741D01*
X122403Y247247D02*
X138502D01*
X121558Y364247D02*
X138443D01*
X132482Y222247D02*
X138232D01*
X121158Y251247D02*
X138147D01*
X122083Y248247D02*
X137993D01*
X131988Y223247D02*
X137722D01*
X121768Y249247D02*
X137483D01*
X121254Y363247D02*
X137443D01*
X121460Y250247D02*
X137275D01*
X131502Y224247D02*
X137213D01*
X130103Y227247D02*
X137102D01*
X131022Y225247D02*
X136703D01*
X120956Y362247D02*
X136443D01*
X130556Y226247D02*
X136425D01*
X120663Y361247D02*
X135443D01*
X125936Y237247D02*
X134778D01*
X128784Y230247D02*
X134683D01*
X120376Y360247D02*
X134443D01*
X126324Y236247D02*
X133743D01*
X128358Y231247D02*
X133695D01*
X120095Y359247D02*
X133443D01*
X126718Y235247D02*
X133197D01*
X127938Y232247D02*
X133172D01*
X127118Y234247D02*
X132946D01*
X127525Y233247D02*
X132938D01*
X119820Y358247D02*
X132443D01*
X119551Y357247D02*
X131443D01*
X119287Y356247D02*
X130443D01*
X119029Y355247D02*
X129443D01*
X118776Y354247D02*
X128443D01*
X118529Y353247D02*
X127443D01*
X118288Y352247D02*
X126443D01*
X118052Y351247D02*
X125443D01*
X117822Y350247D02*
X124443D01*
X117598Y349247D02*
X123443D01*
X117379Y348247D02*
X122443D01*
X117165Y347247D02*
X121443D01*
X115998Y341247D02*
X121322D01*
X116957Y346247D02*
X120452D01*
X116179Y342247D02*
X120213D01*
X116754Y345247D02*
X119847D01*
X116365Y343247D02*
X119749D01*
X116557Y344247D02*
X119640D01*
X195978Y459390D02*
Y460524D01*
X194978Y458390D02*
Y459993D01*
X193978Y457390D02*
Y459317D01*
X192978Y456390D02*
Y458632D01*
X191978Y455390D02*
Y457939D01*
X190978Y454390D02*
Y457236D01*
X189978Y453390D02*
Y456523D01*
X188978Y452390D02*
Y455801D01*
X187978Y451390D02*
Y455069D01*
X186978Y450390D02*
Y454328D01*
X185978Y449390D02*
Y453577D01*
X184978Y448390D02*
Y452815D01*
X183978Y447390D02*
Y452043D01*
X182978Y446390D02*
Y451261D01*
X181978Y445390D02*
Y450468D01*
X180978Y444390D02*
Y449665D01*
X179978Y443390D02*
Y448851D01*
X178978Y442390D02*
Y448025D01*
X177978Y441390D02*
Y447188D01*
X176978Y440390D02*
Y446340D01*
X175978Y439390D02*
Y445481D01*
X174978Y438390D02*
Y444609D01*
X173978Y437390D02*
Y443725D01*
X172978Y436390D02*
Y442829D01*
X171978Y435390D02*
Y441921D01*
X170978Y434390D02*
Y441000D01*
X169978Y433390D02*
Y440065D01*
X168978Y432390D02*
Y439118D01*
X167978Y431390D02*
Y438157D01*
X166978Y430390D02*
Y437182D01*
X165978Y429748D02*
Y436193D01*
X164978Y429500D02*
Y435190D01*
X163978Y428970D02*
Y434172D01*
X162978Y428602D02*
Y433139D01*
X161978Y428602D02*
Y432091D01*
X160978Y428596D02*
Y431026D01*
X159978Y428371D02*
Y429946D01*
X389978Y466473D02*
Y468955D01*
X388978Y464759D02*
Y469525D01*
X387978Y463045D02*
Y470087D01*
X386978Y461332D02*
Y470641D01*
X385978Y459618D02*
Y471187D01*
X384978Y457904D02*
Y471725D01*
X383978Y456190D02*
Y472254D01*
X382978Y454476D02*
Y472776D01*
X381978Y452762D02*
Y473289D01*
X380978Y451048D02*
Y473795D01*
X379978Y449334D02*
Y474293D01*
X378978Y447621D02*
Y474784D01*
X377978Y445907D02*
Y475267D01*
X376978Y444193D02*
Y475742D01*
X375978Y442479D02*
Y476210D01*
X374978Y440765D02*
Y476670D01*
X373978Y439051D02*
Y477123D01*
X372978Y437337D02*
Y477569D01*
X371978Y435623D02*
Y478008D01*
X370978Y433910D02*
Y478439D01*
X369978Y432196D02*
Y478863D01*
X368978Y430482D02*
Y479281D01*
X367978Y428768D02*
Y479691D01*
X366978Y427054D02*
Y480094D01*
X365978Y425340D02*
Y480490D01*
X364978Y423626D02*
Y480880D01*
X363978Y421912D02*
Y481263D01*
X362978Y420199D02*
Y481639D01*
X361978Y418485D02*
Y482008D01*
X360978Y416771D02*
Y482370D01*
X359978Y415057D02*
Y482726D01*
X358978Y413343D02*
Y483076D01*
X357978Y411629D02*
Y483419D01*
X356978Y409915D02*
Y483755D01*
X355978Y408201D02*
Y484085D01*
X354978Y406488D02*
Y484408D01*
X353978Y404774D02*
Y484725D01*
X352978Y403060D02*
Y485036D01*
X351978Y401346D02*
Y485340D01*
X350978Y399632D02*
Y485638D01*
X349978Y397918D02*
Y485930D01*
X348978Y396204D02*
Y486215D01*
X347978Y394490D02*
Y486494D01*
X346978Y392777D02*
Y486768D01*
X345978Y391063D02*
Y487035D01*
X344978Y389349D02*
Y487295D01*
X343978Y387635D02*
Y487550D01*
X342978Y385921D02*
Y487799D01*
X341978Y384207D02*
Y488042D01*
X340978Y448599D02*
Y488278D01*
Y382493D02*
Y445102D01*
X339978Y449312D02*
Y488509D01*
Y380780D02*
Y440876D01*
X338978Y449508D02*
Y488734D01*
Y379066D02*
Y439876D01*
X337978Y449313D02*
Y488953D01*
Y377352D02*
Y438876D01*
X336978Y448602D02*
Y489165D01*
Y443166D02*
Y445099D01*
Y375638D02*
Y437876D01*
X335978Y442166D02*
Y489372D01*
Y373924D02*
Y436876D01*
X334978Y441166D02*
Y489574D01*
Y372210D02*
Y435876D01*
X333978Y440166D02*
Y489769D01*
Y370496D02*
Y434876D01*
X332978Y439166D02*
Y489958D01*
Y368782D02*
Y433876D01*
X331978Y438166D02*
Y490142D01*
Y367069D02*
Y432876D01*
X330978Y437166D02*
Y490320D01*
Y365355D02*
Y431876D01*
X329978Y436166D02*
Y490492D01*
Y363641D02*
Y430876D01*
X328978Y435166D02*
Y490658D01*
Y361927D02*
Y429876D01*
X327978Y434166D02*
Y490818D01*
Y360213D02*
Y428876D01*
X326978Y433166D02*
Y490973D01*
Y358499D02*
Y427876D01*
X325978Y432166D02*
Y491122D01*
Y356785D02*
Y426876D01*
X324978Y431166D02*
Y491266D01*
Y373678D02*
Y425876D01*
Y355071D02*
Y365692D01*
X323978Y430166D02*
Y491403D01*
Y374114D02*
Y424848D01*
Y353358D02*
Y365256D01*
X322978Y429166D02*
Y491535D01*
Y374114D02*
Y388837D01*
Y352660D02*
Y365256D01*
X321978Y428167D02*
Y491661D01*
Y374114D02*
Y387837D01*
Y353153D02*
Y365256D01*
X320978Y448904D02*
Y491782D01*
Y374114D02*
Y386837D01*
Y353620D02*
Y365256D01*
X319978Y449418D02*
Y491897D01*
Y374114D02*
Y385837D01*
Y354062D02*
Y365256D01*
X318978Y449489D02*
Y492007D01*
Y374114D02*
Y384837D01*
Y354480D02*
Y365256D01*
X317978Y449160D02*
Y492110D01*
Y374114D02*
Y383837D01*
Y354874D02*
Y365256D01*
X316978Y448158D02*
Y492208D01*
Y393638D02*
Y445543D01*
Y373879D02*
Y382837D01*
Y355244D02*
Y365491D01*
X315978Y392638D02*
Y492301D01*
Y355591D02*
Y381837D01*
X314978Y391638D02*
Y492388D01*
Y371332D02*
Y380837D01*
Y355916D02*
Y368038D01*
X313978Y390638D02*
Y492469D01*
Y372837D02*
Y379837D01*
Y356219D02*
Y366533D01*
X312978Y389638D02*
Y492545D01*
Y373579D02*
Y378837D01*
Y356501D02*
Y365792D01*
X311978Y388638D02*
Y492615D01*
Y356762D02*
Y365398D01*
X310978Y387638D02*
Y492680D01*
Y357001D02*
Y365257D01*
X309978Y386638D02*
Y492739D01*
Y357220D02*
Y365346D01*
X308978Y385638D02*
Y492793D01*
Y373869D02*
Y379312D01*
Y357419D02*
Y365679D01*
X307978Y385043D02*
Y492841D01*
Y373043D02*
Y379349D01*
Y357598D02*
Y366327D01*
X306978Y386544D02*
Y492883D01*
Y371806D02*
Y378349D01*
Y357757D02*
Y367565D01*
X305978Y387160D02*
Y492920D01*
Y357896D02*
Y377349D01*
X304978Y387299D02*
Y492951D01*
Y371332D02*
Y376349D01*
Y358016D02*
Y368038D01*
X303978Y387046D02*
Y492977D01*
Y380638D02*
Y382245D01*
Y372837D02*
Y375349D01*
Y358116D02*
Y366533D01*
X302978Y483435D02*
Y492997D01*
Y400758D02*
Y478770D01*
Y386516D02*
Y396092D01*
Y379638D02*
Y382776D01*
Y373588D02*
Y374349D01*
Y358197D02*
Y365792D01*
X301978Y484562D02*
Y493012D01*
Y401885D02*
Y477642D01*
Y386516D02*
Y394965D01*
Y378638D02*
Y382776D01*
Y358259D02*
Y365398D01*
X300978Y485165D02*
Y493022D01*
Y402487D02*
Y477040D01*
Y386516D02*
Y394363D01*
Y377638D02*
Y382776D01*
Y358302D02*
Y365257D01*
X299978Y485465D02*
Y493025D01*
Y402788D02*
Y476740D01*
Y386516D02*
Y394063D01*
Y376638D02*
Y382776D01*
Y358325D02*
Y365346D01*
X298978Y485525D02*
Y493023D01*
Y402848D02*
Y476679D01*
Y386516D02*
Y394002D01*
Y375274D02*
Y382776D01*
Y358330D02*
Y365679D01*
X297978Y485356D02*
Y493016D01*
Y402679D02*
Y476849D01*
Y386516D02*
Y394172D01*
Y373043D02*
Y382776D01*
Y358316D02*
Y366327D01*
X296978Y484926D02*
Y493003D01*
Y402249D02*
Y477278D01*
Y386516D02*
Y394601D01*
Y371806D02*
Y382776D01*
Y358282D02*
Y367565D01*
Y153370D02*
Y253165D01*
X295978Y484350D02*
Y492985D01*
Y401450D02*
Y477854D01*
Y386516D02*
Y395400D01*
Y358230D02*
Y382776D01*
Y153248D02*
Y253324D01*
X294978Y484350D02*
Y492961D01*
Y399722D02*
Y477854D01*
Y386516D02*
Y397128D01*
Y371601D02*
Y382775D01*
Y358158D02*
Y367769D01*
Y153248D02*
Y253396D01*
X293978Y484350D02*
Y492932D01*
Y387081D02*
Y477854D01*
Y372950D02*
Y382211D01*
Y358067D02*
Y366420D01*
Y153248D02*
Y253487D01*
X292978Y484350D02*
Y492897D01*
Y387302D02*
Y477854D01*
Y373640D02*
Y381989D01*
Y357957D02*
Y365730D01*
Y153248D02*
Y253597D01*
X291978Y484350D02*
Y492856D01*
Y387133D02*
Y477854D01*
Y374001D02*
Y382158D01*
Y357828D02*
Y365369D01*
Y249472D02*
Y253727D01*
Y153248D02*
Y245016D01*
X290978Y484350D02*
Y492810D01*
Y386466D02*
Y477854D01*
Y374114D02*
Y382825D01*
Y357678D02*
Y365256D01*
Y250653D02*
Y253876D01*
Y153248D02*
Y243835D01*
X289978Y484350D02*
Y492758D01*
Y373998D02*
Y477854D01*
Y357509D02*
Y365372D01*
Y251278D02*
Y254045D01*
Y153248D02*
Y243210D01*
X288978Y484350D02*
Y492701D01*
Y373634D02*
Y477854D01*
Y357321D02*
Y365737D01*
Y251595D02*
Y254234D01*
Y153248D02*
Y242893D01*
X287978Y484350D02*
Y492638D01*
Y372937D02*
Y477854D01*
Y357111D02*
Y366433D01*
Y251670D02*
Y254443D01*
Y153248D02*
Y242818D01*
X286978Y484350D02*
Y492570D01*
Y371573D02*
Y477854D01*
Y356882D02*
Y367797D01*
Y251515D02*
Y254672D01*
Y153248D02*
Y242973D01*
X285978Y484350D02*
Y492496D01*
Y356632D02*
Y477854D01*
Y251104D02*
Y254922D01*
Y153248D02*
Y243384D01*
X284978Y484350D02*
Y492417D01*
Y356361D02*
Y477854D01*
Y250335D02*
Y255194D01*
Y153248D02*
Y244153D01*
X283978Y484350D02*
Y492332D01*
Y356068D02*
Y477854D01*
Y248731D02*
Y255486D01*
Y153248D02*
Y245757D01*
X282978Y484350D02*
Y492241D01*
Y355754D02*
Y477854D01*
Y153248D02*
Y255800D01*
X281978Y484350D02*
Y492145D01*
Y355417D02*
Y477854D01*
Y249664D02*
Y256137D01*
Y153248D02*
Y244825D01*
X280978Y484350D02*
Y492043D01*
Y355058D02*
Y477854D01*
Y250748D02*
Y256496D01*
Y153248D02*
Y243741D01*
X279978Y484350D02*
Y491936D01*
Y354676D02*
Y477854D01*
Y251330D02*
Y256878D01*
Y153248D02*
Y243158D01*
X278978Y484350D02*
Y491823D01*
Y397961D02*
Y477854D01*
Y354271D02*
Y393127D01*
Y251616D02*
Y257283D01*
Y153248D02*
Y242872D01*
X277978Y484350D02*
Y491704D01*
Y399046D02*
Y477854D01*
Y353841D02*
Y392042D01*
Y251664D02*
Y257713D01*
Y153248D02*
Y242824D01*
X276978Y484350D02*
Y491580D01*
Y399629D02*
Y477854D01*
Y353386D02*
Y391459D01*
Y251481D02*
Y258168D01*
Y153248D02*
Y243007D01*
X275978Y484350D02*
Y491450D01*
Y399916D02*
Y477854D01*
Y352906D02*
Y391172D01*
Y251035D02*
Y258648D01*
Y153248D02*
Y243453D01*
X274978Y484350D02*
Y491314D01*
Y399964D02*
Y477854D01*
Y352399D02*
Y391124D01*
Y250209D02*
Y259155D01*
Y153248D02*
Y244279D01*
X273978Y484350D02*
Y491173D01*
Y399781D02*
Y477854D01*
Y351865D02*
Y391306D01*
Y248345D02*
Y259689D01*
Y153248D02*
Y246143D01*
X272978Y484350D02*
Y491026D01*
Y399336D02*
Y477854D01*
Y351303D02*
Y391752D01*
Y153248D02*
Y260251D01*
X271978Y484350D02*
Y490873D01*
Y398511D02*
Y477854D01*
Y350711D02*
Y392577D01*
Y249664D02*
Y260843D01*
Y153248D02*
Y244825D01*
X270978Y484350D02*
Y490715D01*
Y396650D02*
Y477854D01*
Y350089D02*
Y394437D01*
Y250748D02*
Y261465D01*
Y153248D02*
Y243741D01*
X269978Y484350D02*
Y490550D01*
Y349436D02*
Y477854D01*
Y251330D02*
Y262119D01*
Y153248D02*
Y162282D01*
X268978Y484350D02*
Y490380D01*
Y348749D02*
Y477854D01*
Y251616D02*
Y262806D01*
Y153248D02*
Y161661D01*
X267978Y484350D02*
Y490204D01*
Y348027D02*
Y477854D01*
Y251664D02*
Y263527D01*
Y153248D02*
Y161519D01*
X266978Y484350D02*
Y490023D01*
Y347269D02*
Y477854D01*
Y251481D02*
Y264286D01*
Y153248D02*
Y161769D01*
X265978Y484350D02*
Y489836D01*
Y346471D02*
Y477854D01*
Y251035D02*
Y265083D01*
Y165759D02*
Y243453D01*
Y153248D02*
Y162588D01*
X264978Y484350D02*
Y489642D01*
Y345633D02*
Y477854D01*
Y250209D02*
Y265921D01*
Y153248D02*
Y244279D01*
X263978Y484350D02*
Y489443D01*
Y344752D02*
Y477854D01*
Y248345D02*
Y266803D01*
Y153248D02*
Y246143D01*
X262978Y484350D02*
Y489238D01*
Y343823D02*
Y477854D01*
Y153248D02*
Y267731D01*
X261978Y484350D02*
Y489028D01*
Y342845D02*
Y477854D01*
Y251544D02*
Y268710D01*
Y153248D02*
Y242944D01*
X260978Y484350D02*
Y488811D01*
Y341812D02*
Y477852D01*
Y251673D02*
Y269743D01*
Y153248D02*
Y242815D01*
X259978Y484350D02*
Y488588D01*
Y340720D02*
Y477000D01*
Y251673D02*
Y270835D01*
Y153248D02*
Y156233D01*
X258978Y484316D02*
Y488360D01*
Y339563D02*
Y475979D01*
Y251673D02*
Y271991D01*
Y153248D02*
Y155707D01*
X257978Y483998D02*
Y488125D01*
Y338334D02*
Y473752D01*
Y251673D02*
Y273220D01*
Y153248D02*
Y155626D01*
X256978Y483221D02*
Y487884D01*
Y337025D02*
Y472250D01*
Y251673D02*
Y274529D01*
Y153248D02*
Y155944D01*
X255978Y482200D02*
Y487638D01*
Y335626D02*
Y471509D01*
Y251673D02*
Y275928D01*
Y159616D02*
Y242810D01*
Y153248D02*
Y156920D01*
X254978Y481179D02*
Y487385D01*
Y334122D02*
Y471116D01*
Y251666D02*
Y277432D01*
Y153248D02*
Y242823D01*
X253978Y480158D02*
Y487126D01*
Y332497D02*
Y470976D01*
Y250974D02*
Y279058D01*
Y224880D02*
Y243514D01*
Y153248D02*
Y221576D01*
X252978Y479743D02*
Y486861D01*
Y330726D02*
Y471065D01*
Y225934D02*
Y280829D01*
Y153248D02*
Y220522D01*
X251978Y479409D02*
Y486590D01*
Y328775D02*
Y471398D01*
Y226377D02*
Y282779D01*
Y153248D02*
Y220079D01*
X250978Y478760D02*
Y486313D01*
Y326596D02*
Y472047D01*
Y226476D02*
Y284959D01*
Y153248D02*
Y219980D01*
X249978Y478652D02*
Y486030D01*
Y324105D02*
Y472156D01*
Y277415D02*
Y287450D01*
Y226476D02*
Y273373D01*
Y153248D02*
Y219980D01*
X248978Y478652D02*
Y485740D01*
Y321152D02*
Y472156D01*
Y278705D02*
Y290402D01*
Y226476D02*
Y272082D01*
Y153248D02*
Y219980D01*
X247978Y478652D02*
Y485445D01*
Y317391D02*
Y472156D01*
Y279375D02*
Y294163D01*
Y226476D02*
Y271413D01*
Y153248D02*
Y219980D01*
X246978Y478652D02*
Y485143D01*
Y331962D02*
Y472156D01*
Y311378D02*
Y327880D01*
Y279722D02*
Y300176D01*
Y226476D02*
Y271066D01*
Y153248D02*
Y219980D01*
X245978Y478652D02*
Y484834D01*
Y332484D02*
Y471699D01*
Y279822D02*
Y327358D01*
Y226476D02*
Y270965D01*
Y153248D02*
Y219980D01*
X244978Y478650D02*
Y484519D01*
Y455667D02*
Y459294D01*
Y332562D02*
Y426617D01*
Y279694D02*
Y327281D01*
Y226476D02*
Y271093D01*
Y153248D02*
Y219980D01*
X243978Y478456D02*
Y484198D01*
Y456679D02*
Y458282D01*
Y332240D02*
Y425605D01*
Y279315D02*
Y327602D01*
Y226476D02*
Y271472D01*
Y153248D02*
Y219980D01*
X242978Y477872D02*
Y483871D01*
Y331791D02*
Y424605D01*
Y278597D02*
Y328051D01*
Y226476D02*
Y272190D01*
Y153248D02*
Y219980D01*
X241978Y476886D02*
Y483537D01*
Y331791D02*
Y423605D01*
Y308200D02*
Y328051D01*
Y277167D02*
Y303611D01*
Y226476D02*
Y273621D01*
Y153248D02*
Y219980D01*
X240978Y475886D02*
Y483196D01*
Y414538D02*
Y422605D01*
Y331791D02*
Y412234D01*
Y309347D02*
Y328051D01*
Y226476D02*
Y302464D01*
Y153248D02*
Y219980D01*
X239978Y474856D02*
Y482849D01*
Y415648D02*
Y421605D01*
Y331791D02*
Y411124D01*
Y309957D02*
Y328051D01*
Y226476D02*
Y301854D01*
Y153248D02*
Y219980D01*
X238978Y462469D02*
Y482495D01*
Y429792D02*
Y452492D01*
Y416014D02*
Y420605D01*
Y331791D02*
Y410758D01*
Y310264D02*
Y328051D01*
Y226476D02*
Y301547D01*
Y153248D02*
Y219980D01*
X237978Y461469D02*
Y482135D01*
Y428792D02*
Y453492D01*
Y415974D02*
Y419605D01*
Y331791D02*
Y410798D01*
Y310330D02*
Y328051D01*
Y226476D02*
Y301481D01*
Y153248D02*
Y219980D01*
X236978Y460728D02*
Y481768D01*
Y427792D02*
Y454232D01*
Y415504D02*
Y418605D01*
Y331791D02*
Y411268D01*
Y310166D02*
Y328051D01*
Y226476D02*
Y301645D01*
Y153248D02*
Y219980D01*
X235978Y460728D02*
Y481395D01*
Y426792D02*
Y454232D01*
Y413911D02*
Y417605D01*
Y331791D02*
Y412861D01*
Y309743D02*
Y328051D01*
Y226527D02*
Y302068D01*
Y153248D02*
Y219980D01*
X234978Y460728D02*
Y481014D01*
Y425792D02*
Y454232D01*
Y331791D02*
Y416605D01*
Y308956D02*
Y328051D01*
Y227490D02*
Y302855D01*
Y153248D02*
Y219980D01*
X233978Y460728D02*
Y480627D01*
Y424792D02*
Y454232D01*
Y331791D02*
Y415605D01*
Y307277D02*
Y328051D01*
Y228490D02*
Y304534D01*
Y153248D02*
Y220050D01*
X232978Y460728D02*
Y480233D01*
Y423792D02*
Y454232D01*
Y331791D02*
Y414605D01*
Y229490D02*
Y328051D01*
Y153248D02*
Y220441D01*
X231978Y460728D02*
Y479832D01*
Y422792D02*
Y454232D01*
Y331791D02*
Y413605D01*
Y230490D02*
Y328051D01*
Y153248D02*
Y221303D01*
X230978Y460728D02*
Y479425D01*
Y421792D02*
Y454232D01*
Y331791D02*
Y412605D01*
Y231490D02*
Y328051D01*
Y153248D02*
Y222303D01*
X229978Y460728D02*
Y479010D01*
Y420792D02*
Y454232D01*
Y331791D02*
Y411605D01*
Y232490D02*
Y328051D01*
Y158414D02*
Y223303D01*
Y153248D02*
Y154972D01*
X228978Y460728D02*
Y478588D01*
Y419792D02*
Y454232D01*
Y331791D02*
Y410605D01*
Y233490D02*
Y328051D01*
Y159145D02*
Y224303D01*
Y153253D02*
Y154241D01*
X227978Y460728D02*
Y478159D01*
Y418792D02*
Y454232D01*
Y331791D02*
Y409605D01*
Y234490D02*
Y328051D01*
Y159350D02*
Y225303D01*
X226978Y460728D02*
Y477723D01*
Y417792D02*
Y454232D01*
Y369187D02*
Y408605D01*
Y331791D02*
Y367821D01*
Y261569D02*
Y328051D01*
Y159165D02*
Y226303D01*
Y153263D02*
Y154221D01*
X225978Y460728D02*
Y477280D01*
Y416792D02*
Y454232D01*
Y370649D02*
Y407605D01*
Y331791D02*
Y366358D01*
Y262825D02*
Y328051D01*
Y158471D02*
Y227303D01*
Y153256D02*
Y154915D01*
X224978Y460728D02*
Y476829D01*
Y415792D02*
Y454232D01*
Y371100D02*
Y406605D01*
Y331791D02*
Y365908D01*
Y263339D02*
Y328051D01*
Y154454D02*
Y228303D01*
X223978Y460728D02*
Y476371D01*
Y414792D02*
Y454232D01*
Y371126D02*
Y405605D01*
Y331791D02*
Y365882D01*
Y263484D02*
Y328051D01*
Y155265D02*
Y229303D01*
X222978Y460728D02*
Y475906D01*
Y413792D02*
Y454232D01*
Y370743D02*
Y404605D01*
Y331791D02*
Y366265D01*
Y263314D02*
Y328051D01*
Y155692D02*
Y230303D01*
X221978Y460728D02*
Y475433D01*
Y412792D02*
Y454232D01*
Y369812D02*
Y403605D01*
Y331791D02*
Y367432D01*
Y262765D02*
Y328051D01*
Y155851D02*
Y231303D01*
X220978Y460728D02*
Y474953D01*
Y411792D02*
Y454232D01*
Y331791D02*
Y369272D01*
Y261385D02*
Y328051D01*
Y155772D02*
Y232710D01*
X219978Y460728D02*
Y474465D01*
Y410792D02*
Y454232D01*
Y332133D02*
Y368209D01*
Y155442D02*
Y327710D01*
X218978Y460728D02*
Y473970D01*
Y409792D02*
Y454232D01*
Y332536D02*
Y367736D01*
Y154782D02*
Y327306D01*
X217978Y460728D02*
Y473467D01*
Y408792D02*
Y454232D01*
Y332526D02*
Y367621D01*
Y153481D02*
Y327316D01*
X216978Y460728D02*
Y472956D01*
Y407792D02*
Y454232D01*
Y332097D02*
Y367822D01*
Y153248D02*
Y327746D01*
X215978Y460728D02*
Y472437D01*
Y406792D02*
Y454232D01*
Y330746D02*
Y368416D01*
Y155100D02*
Y329097D01*
X214978Y460728D02*
Y471910D01*
Y405189D02*
Y454232D01*
Y155843D02*
Y370008D01*
X213978Y460728D02*
Y471376D01*
Y155854D02*
Y454232D01*
X212978Y460728D02*
Y470833D01*
Y155854D02*
Y454232D01*
X211978Y460728D02*
Y470282D01*
Y421289D02*
Y454232D01*
Y155854D02*
Y419655D01*
X210978Y460728D02*
Y469722D01*
Y422646D02*
Y454232D01*
Y155854D02*
Y418299D01*
X209978Y460728D02*
Y469155D01*
Y423077D02*
Y454232D01*
Y155854D02*
Y417868D01*
X208978Y460728D02*
Y468579D01*
Y423088D02*
Y454232D01*
Y261594D02*
Y417857D01*
Y198995D02*
Y258879D01*
Y155854D02*
Y196280D01*
X207978Y460728D02*
Y467998D01*
Y422686D02*
Y454232D01*
Y262563D02*
Y418259D01*
Y155546D02*
Y195311D01*
X206978Y460728D02*
Y467431D01*
Y422343D02*
Y454232D01*
Y329765D02*
Y418602D01*
Y262878D02*
Y329290D01*
Y153248D02*
Y194996D01*
X205978Y460728D02*
Y466856D01*
Y422343D02*
Y454232D01*
Y354429D02*
Y418602D01*
Y262796D02*
Y327442D01*
Y153248D02*
Y195078D01*
X204978Y460728D02*
Y466273D01*
Y422343D02*
Y454232D01*
Y355541D02*
Y418602D01*
Y262266D02*
Y326950D01*
Y153248D02*
Y195277D01*
X203978Y460728D02*
Y465682D01*
Y422343D02*
Y454232D01*
Y356534D02*
Y418602D01*
Y236044D02*
Y326894D01*
Y153248D02*
Y193484D01*
X202978Y460728D02*
Y465084D01*
Y422343D02*
Y454232D01*
Y356975D02*
Y418602D01*
Y236788D02*
Y327240D01*
Y153248D02*
Y192740D01*
X201978Y460728D02*
Y464477D01*
Y422343D02*
Y454232D01*
Y356988D02*
Y418602D01*
Y330763D02*
Y348967D01*
Y237081D02*
Y328293D01*
Y153248D02*
Y192446D01*
X200978Y460728D02*
Y463862D01*
Y422343D02*
Y454232D01*
Y356988D02*
Y418602D01*
Y237051D02*
Y348013D01*
Y153248D02*
Y192477D01*
X199978Y460728D02*
Y463238D01*
Y422343D02*
Y454174D01*
Y356988D02*
Y418602D01*
Y236686D02*
Y347455D01*
Y153248D02*
Y192841D01*
X198978Y460728D02*
Y462606D01*
Y422343D02*
Y453203D01*
Y356988D02*
Y418602D01*
Y235809D02*
Y347353D01*
Y153248D02*
Y193719D01*
X197978Y460656D02*
Y461966D01*
Y422343D02*
Y452203D01*
Y356988D02*
Y418602D01*
Y352358D02*
Y353154D01*
Y153248D02*
Y347647D01*
X196978Y460725D02*
Y461269D01*
Y422343D02*
Y451203D01*
Y356988D02*
Y418602D01*
Y351870D02*
Y353248D01*
Y153248D02*
Y348130D01*
X195978Y422343D02*
Y450203D01*
Y356988D02*
Y418602D01*
Y351870D02*
Y353248D01*
Y153248D02*
Y348130D01*
X194978Y422343D02*
Y449203D01*
Y356988D02*
Y418602D01*
Y351870D02*
Y353248D01*
Y174650D02*
Y348130D01*
Y153248D02*
Y171019D01*
X193978Y422343D02*
Y448203D01*
Y356988D02*
Y418602D01*
Y351870D02*
Y353248D01*
Y176004D02*
Y348130D01*
Y153248D02*
Y169665D01*
X192978Y422343D02*
Y447203D01*
Y356988D02*
Y418602D01*
Y351870D02*
Y353248D01*
Y176681D02*
Y348130D01*
Y153248D02*
Y168988D01*
X191978Y422343D02*
Y446203D01*
Y357124D02*
Y418602D01*
Y351870D02*
Y353248D01*
Y177024D02*
Y348130D01*
Y153248D02*
Y168646D01*
X190978Y422343D02*
Y445203D01*
Y358124D02*
Y418602D01*
Y351870D02*
Y353283D01*
Y177112D02*
Y348130D01*
Y153617D02*
Y168557D01*
X189978Y428142D02*
Y444203D01*
Y359124D02*
Y412567D01*
Y351870D02*
Y353834D01*
Y176964D02*
Y348130D01*
Y154337D02*
Y168706D01*
X188978Y429049D02*
Y443203D01*
Y389404D02*
Y411659D01*
Y360124D02*
Y386974D01*
Y351870D02*
Y354834D01*
Y176549D02*
Y348130D01*
Y155068D02*
Y169120D01*
X187978Y429542D02*
Y442203D01*
Y390470D02*
Y411167D01*
Y351870D02*
Y355834D01*
Y175759D02*
Y348130D01*
Y155808D02*
Y169911D01*
X186978Y429761D02*
Y441203D01*
Y390822D02*
Y410947D01*
Y351870D02*
Y356834D01*
Y173975D02*
Y348130D01*
Y156559D02*
Y171694D01*
X185978Y429748D02*
Y440203D01*
Y390769D02*
Y410960D01*
Y351870D02*
Y357834D01*
Y157321D02*
Y348130D01*
X184978Y429500D02*
Y439203D01*
Y390283D02*
Y411091D01*
Y351870D02*
Y358938D01*
Y176768D02*
Y348130D01*
Y158093D02*
Y168901D01*
X183978Y428970D02*
Y438203D01*
Y388522D02*
Y410152D01*
Y351870D02*
Y387856D01*
Y177114D02*
Y348130D01*
Y158876D02*
Y168555D01*
X182978Y427992D02*
Y437203D01*
Y352344D02*
Y409152D01*
Y219100D02*
Y348130D01*
Y208864D02*
Y216333D01*
Y177114D02*
Y206097D01*
Y159671D02*
Y168555D01*
X181978Y422343D02*
Y436203D01*
Y353344D02*
Y408152D01*
Y220052D02*
Y348266D01*
Y177114D02*
Y205145D01*
Y160476D02*
Y168555D01*
X180978Y422216D02*
Y435203D01*
Y354344D02*
Y407152D01*
Y220360D02*
Y349055D01*
Y177114D02*
Y204836D01*
Y161293D02*
Y168555D01*
X179978Y428142D02*
Y434203D01*
Y355344D02*
Y406152D01*
Y220272D02*
Y350055D01*
Y177114D02*
Y204925D01*
Y162122D02*
Y168555D01*
X178978Y429049D02*
Y433203D01*
Y389739D02*
Y400742D01*
Y219733D02*
Y351055D01*
Y177114D02*
Y205464D01*
Y162962D02*
Y168555D01*
X177978Y429542D02*
Y432203D01*
Y390326D02*
Y399742D01*
Y236715D02*
Y352055D01*
Y177108D02*
Y231395D01*
Y163815D02*
Y168561D01*
X176978Y429761D02*
Y431203D01*
Y390446D02*
Y398742D01*
Y237682D02*
Y353055D01*
Y176445D02*
Y230428D01*
Y164679D02*
Y169225D01*
X175978Y390173D02*
Y397757D01*
Y238207D02*
Y354055D01*
Y165557D02*
Y229903D01*
X174978Y389304D02*
Y397351D01*
Y238451D02*
Y386287D01*
Y166447D02*
Y229659D01*
X173978Y238460D02*
Y397342D01*
Y167350D02*
Y229650D01*
X172978Y238237D02*
Y397342D01*
Y168266D02*
Y229873D01*
X171978Y237739D02*
Y397342D01*
Y169196D02*
Y230371D01*
X170978Y236822D02*
Y397342D01*
Y170139D02*
Y231288D01*
X169978Y171097D02*
Y397342D01*
X168978Y172069D02*
Y397342D01*
X167978Y173055D02*
Y397342D01*
X166978Y174057D02*
Y397342D01*
X165978Y175074D02*
Y397342D01*
X164978Y176107D02*
Y397342D01*
X163978Y177156D02*
Y397342D01*
X162978Y178221D02*
Y397342D01*
X161978Y179304D02*
Y397342D01*
X160978Y180403D02*
Y397342D01*
X159978Y181521D02*
Y397342D01*
X158978Y308663D02*
Y397342D01*
Y182657D02*
Y303148D01*
X157978Y309585D02*
Y397342D01*
Y183812D02*
Y302226D01*
X156978Y310085D02*
Y396853D01*
Y184986D02*
Y301726D01*
X155978Y410571D02*
Y424978D01*
Y310310D02*
Y395853D01*
Y186180D02*
Y301501D01*
X154978Y409571D02*
Y424288D01*
Y310302D02*
Y394853D01*
Y233656D02*
Y301509D01*
Y187394D02*
Y228657D01*
X153978Y408571D02*
Y423102D01*
Y310060D02*
Y393853D01*
Y234648D02*
Y301751D01*
Y188630D02*
Y227664D01*
X152978Y407571D02*
Y421896D01*
Y359283D02*
Y392853D01*
Y309538D02*
Y358040D01*
Y235174D02*
Y302273D01*
Y189888D02*
Y227139D01*
X151978Y406571D02*
Y420670D01*
Y308575D02*
Y356528D01*
Y235410D02*
Y303236D01*
Y191168D02*
Y226903D01*
X150978Y405571D02*
Y419424D01*
Y241583D02*
Y356069D01*
Y235403D02*
Y238339D01*
Y192472D02*
Y226909D01*
X149978Y404571D02*
Y418157D01*
Y243052D02*
Y356037D01*
Y235155D02*
Y236871D01*
Y193800D02*
Y227158D01*
X148978Y403571D02*
Y416867D01*
Y243765D02*
Y356413D01*
Y234611D02*
Y236157D01*
Y195153D02*
Y227702D01*
X147978Y402571D02*
Y415555D01*
Y359768D02*
Y364902D01*
Y244132D02*
Y357555D01*
Y233582D02*
Y235791D01*
Y196532D02*
Y228731D01*
X146978Y401571D02*
Y414220D01*
Y249466D02*
Y363604D01*
Y244241D02*
Y246140D01*
Y223907D02*
Y235682D01*
Y197938D02*
Y223077D01*
X145978Y400571D02*
Y412861D01*
Y251428D02*
Y362594D01*
Y244113D02*
Y245631D01*
Y225898D02*
Y235810D01*
Y199372D02*
Y222163D01*
X144978Y399571D02*
Y411476D01*
Y253385D02*
Y361594D01*
Y243723D02*
Y245121D01*
Y227860D02*
Y236199D01*
Y200835D02*
Y221654D01*
X143978Y398571D02*
Y410066D01*
Y254006D02*
Y360594D01*
Y242974D02*
Y244612D01*
Y229712D02*
Y236949D01*
Y202329D02*
Y221144D01*
X142978Y397571D02*
Y408628D01*
Y253708D02*
Y359594D01*
Y241374D02*
Y244102D01*
Y230116D02*
Y238549D01*
Y203854D02*
Y220635D01*
X141978Y396549D02*
Y407163D01*
Y253199D02*
Y358594D01*
Y229731D02*
Y243593D01*
Y205413D02*
Y220125D01*
X140978Y366781D02*
Y405668D01*
Y252689D02*
Y357594D01*
Y235710D02*
Y243412D01*
Y229222D02*
Y231717D01*
Y207007D02*
Y219616D01*
X139978Y365781D02*
Y404143D01*
Y252180D02*
Y356594D01*
Y236962D02*
Y244351D01*
Y228712D02*
Y230464D01*
Y208637D02*
Y219568D01*
X138978Y364781D02*
Y402586D01*
Y251670D02*
Y355594D01*
Y237603D02*
Y246314D01*
Y228203D02*
Y229824D01*
Y210306D02*
Y220783D01*
X137978Y363781D02*
Y400996D01*
Y251161D02*
Y354594D01*
Y237920D02*
Y248276D01*
Y227693D02*
Y229506D01*
Y212015D02*
Y222746D01*
X136978Y362781D02*
Y399371D01*
Y237987D02*
Y353594D01*
Y227172D02*
Y229439D01*
Y213767D02*
Y224708D01*
X135978Y361781D02*
Y397710D01*
Y237817D02*
Y352594D01*
Y215565D02*
Y229610D01*
X134978Y360781D02*
Y396011D01*
Y237375D02*
Y351594D01*
Y217410D02*
Y230051D01*
X133978Y359781D02*
Y394271D01*
Y236538D02*
Y350594D01*
Y219307D02*
Y230888D01*
X132978Y358781D02*
Y392489D01*
Y234455D02*
Y349594D01*
Y221258D02*
Y232971D01*
X131978Y357781D02*
Y390661D01*
Y223268D02*
Y348594D01*
X130978Y356781D02*
Y388786D01*
Y225341D02*
Y347594D01*
X129978Y355781D02*
Y386648D01*
Y227525D02*
Y346594D01*
X128978Y354781D02*
Y384376D01*
Y229797D02*
Y345594D01*
X127978Y353781D02*
Y382022D01*
Y232151D02*
Y344594D01*
X126978Y352781D02*
Y379578D01*
Y234596D02*
Y343594D01*
X125978Y351781D02*
Y377034D01*
Y237140D02*
Y342594D01*
X124978Y350781D02*
Y374379D01*
Y239795D02*
Y341611D01*
X123978Y349781D02*
Y371599D01*
Y242574D02*
Y341036D01*
X122978Y348781D02*
Y368678D01*
Y245495D02*
Y340848D01*
X121978Y347781D02*
Y365594D01*
Y248579D02*
Y340976D01*
X120978Y346781D02*
Y362321D01*
Y251852D02*
Y341465D01*
X119978Y345544D02*
Y358821D01*
Y255352D02*
Y342645D01*
X118978Y259127D02*
Y355046D01*
X117978Y263249D02*
Y350925D01*
X116978Y267826D02*
Y346347D01*
X115978Y273042D02*
Y341132D01*
X114978Y279253D02*
Y334920D01*
X113978Y287380D02*
Y326793D01*
G54D134*
X227953Y156693D03*
X258268Y158268D03*
X268110Y164173D03*
X180709Y207480D03*
X201575Y195669D03*
X206693Y197638D03*
X180709Y217717D03*
X251181Y223228D03*
X201575Y233858D03*
X224016D03*
X206693Y260236D03*
X224016D03*
X218504Y329921D03*
X204331Y329528D03*
X245276Y329921D03*
X122884Y344094D03*
X199213Y350000D03*
X150394Y358661D03*
X218110Y370866D03*
X224409Y368504D03*
X144488Y385039D03*
X177165Y387795D03*
X186614Y388189D03*
X292913Y384646D03*
X305118D03*
X174016Y403937D03*
X209449Y420472D03*
X238583Y413386D03*
X319291Y446850D03*
X338976D03*
G74*
X0Y0D02*
M02*
