%
T1C.01969F095S3
X018071Y020748
X018071Y021772
X012288Y034409
X015039Y035866
X014449Y038504
X017717Y03878
X018661Y038819
X017402Y040394
X020945Y042047
X023858Y041339
X021811Y037087
X022441Y03685
X019921Y035
X02185Y032992
X024528Y032992
X020433Y032953
X022402Y026024
X020669Y026024
X022402Y023386
X020157Y023386
X020669Y019764
X020157Y019567
X022795Y015669
X025827Y015827
X026811Y016417
X025118Y022323
X029291Y038465
X030512Y038465
X031929Y044685
X033898Y044685
T2C.0315F197S55
X017444Y023406
X024604Y027539
X023819Y030591
X015551Y030591
X029921Y04811
X025387Y04754
X029921Y039843
X027527Y039554
T3C.035F197S55
X01515Y023116
X014702Y023996
X014257Y02487
T4C.03543F197S55
X032953Y019685G85X032953Y019882
X035433Y019685G85X035433Y019882
T5C.03937F197S55
X016654Y041535
X017654Y041535
X018654Y041535
X017654Y042535
X016654Y042535
X018654Y042535
X029098Y036969
X026827Y024724
X025827Y024724
X027827Y024724
X028815Y024724
X031087Y036969
X030087Y036969
X032087Y036969
T6C.04F139S55
X021181Y015157
X022181Y015157
X01811Y017283
X01911Y017283
X014173Y02248
X013719Y023371
X033701Y012362
X034701Y012362
M30
