*
*
G04 PADS 9.5 Build Number: 522968 generated Gerber (RS-274-X) file*
G04 PC Version=2.1*
*
%IN "HomeFit.pcb"*%
*
%MOIN*%
*
%FSLAX35Y35*%
*
*
*
*
G04 PC Standard Apertures*
*
*
G04 Thermal Relief Aperture macro.*
%AMTER*
1,1,$1,0,0*
1,0,$1-$2,0,0*
21,0,$3,$4,0,0,45*
21,0,$3,$4,0,0,135*
%
*
*
G04 Annular Aperture macro.*
%AMANN*
1,1,$1,0,0*
1,0,$2,0,0*
%
*
*
G04 Odd Aperture macro.*
%AMODD*
1,1,$1,0,0*
1,0,$1-0.005,0,0*
%
*
*
G04 PC Custom Aperture Macros*
*
*
*
*
*
*
G04 PC Aperture Table*
*
%ADD010C,0.001*%
%ADD013C,0.01*%
%ADD014C,0.00787*%
%ADD058R,0.04X0.048*%
%ADD061C,0.09*%
%ADD062R,0.09X0.09*%
%ADD070R,0.048X0.04*%
%ADD089R,0.07299X0.07299*%
%ADD090C,0.07299*%
%ADD093C,0.07*%
%ADD103R,0.028X0.08*%
%ADD104R,0.08X0.028*%
%ADD105R,0.02575X0.06906*%
%ADD106R,0.09268X0.08087*%
%ADD108O,0.06118X0.08087*%
%ADD109R,0.17929X0.0848*%
%ADD110R,0.06118X0.06906*%
%ADD138R,0.06906X0.06906*%
%ADD144R,0.08087X0.06512*%
%ADD164R,0.04937X0.06906*%
%ADD165R,0.13992X0.06906*%
%ADD166R,0.06118X0.03362*%
%ADD167R,0.05724X0.04937*%
%ADD168R,0.04937X0.05724*%
*
*
*
*
G04 PC Circuitry*
G04 Layer Name HomeFit.pcb - circuitry*
%LPD*%
*
*
G04 PC Custom Flashes*
G04 Layer Name HomeFit.pcb - flashes*
%LPD*%
*
*
G04 PC Circuitry*
G04 Layer Name HomeFit.pcb - circuitry*
%LPD*%
*
G54D10*
G01X347559Y150000D02*
G75*
G03X347559I-5906J0D01*
G01X357445Y191339D02*
X357450D01*
X347559Y150000D02*
G03X347559I-5906J0D01*
G54D13*
G01X143878Y252731D02*
X138532Y250007D01*
X141256Y244661*
X146602Y247385*
X143878Y252731*
X141027Y245110D02*
X142138D01*
X140517Y246110D02*
X144100D01*
X140008Y247110D02*
X146063D01*
X139498Y248110D02*
X146232D01*
X138989Y249110D02*
X145723D01*
X138735Y250110D02*
X145213D01*
X140697Y251110D02*
X144704D01*
X142660Y252110D02*
X144194D01*
X139110Y248872D02*
Y250302D01*
X140110Y246909D02*
Y250811D01*
X141110Y244946D02*
Y251321D01*
X142110Y245096D02*
Y251830D01*
X143110Y245606D02*
Y252340D01*
X144110Y246115D02*
Y252275D01*
X145110Y246625D02*
Y250312D01*
X146110Y247134D02*
Y248350D01*
X143480Y230183D02*
X136352Y226551D01*
X139984Y219423*
X147112Y223055*
X143480Y230183*
X139634Y220110D02*
X141333D01*
X139125Y221110D02*
X143295D01*
X138615Y222110D02*
X145258D01*
X138106Y223110D02*
X147084D01*
X137596Y224110D02*
X146575D01*
X137087Y225110D02*
X146065D01*
X136577Y226110D02*
X145556D01*
X137449Y227110D02*
X145046D01*
X139412Y228110D02*
X144537D01*
X141375Y229110D02*
X144027D01*
X143337Y230110D02*
X143517D01*
X137110Y225064D02*
Y226937D01*
X138110Y223101D02*
Y227447D01*
X139110Y221138D02*
Y227956D01*
X140110Y219487D02*
Y228466D01*
X141110Y219997D02*
Y228976D01*
X142110Y220506D02*
Y229485D01*
X143110Y221016D02*
Y229995D01*
X144110Y221525D02*
Y228947D01*
X145110Y222035D02*
Y226984D01*
X146110Y222545D02*
Y225022D01*
X147110Y223054D02*
Y223059D01*
G54D14*
X226378Y442287D02*
G03X226378I-5906J0D01*
G01Y169524D02*
G03X226378I-5906J0D01*
G01X347559Y150000D02*
G03X347559I-5906J0D01*
G01X318080Y118504D02*
X365341D01*
Y205118*
X318080*
Y118504*
X299207Y254724D02*
Y116929D01*
Y254724D02*
Y116929D01*
X324797Y350229D02*
G03X299207Y254724I-25590J-44324D01*
G01X324797Y350229D02*
G03X299207Y254724I-25590J-44324D01*
G01Y116929*
X324797Y350229D02*
G03X299207Y254724I-25590J-44324D01*
G01X393701Y469564D02*
G03X299213Y116929I-94488J-163658D01*
G01X393701Y469564D02*
G03X299213Y116929I-94488J-163658D01*
G01X393701Y469564D02*
G03X299213Y116929I-94488J-163658D01*
G01X393696Y469567D02*
X324797Y350230D01*
X393696Y469567D02*
X324797Y350230D01*
X393696Y469567D02*
X324797Y350230D01*
G54D58*
X333071Y460974D03*
Y454774D03*
X325984Y460974D03*
Y454774D03*
X125591Y352018D03*
Y358218D03*
X231890Y150443D03*
Y156643D03*
X325984Y426428D03*
Y432628D03*
Y440601D03*
Y446801D03*
X333071Y440601D03*
Y446801D03*
Y426428D03*
Y432628D03*
G54D61*
X137192Y233713D03*
X166535Y425354D03*
X176535Y415354D03*
Y425354D03*
X186535Y415354D03*
Y425354D03*
X191102Y172835D03*
X221811Y151575D03*
X347008Y123622D03*
G54D62*
X166535Y415354D03*
X181102Y172835D03*
X211811Y151575D03*
X337008Y123622D03*
G54D70*
X148081Y270866D03*
X154281D03*
X238927Y387008D03*
X232727D03*
X204380Y335433D03*
X210580D03*
X204380Y342913D03*
X210580D03*
X147687Y318110D03*
X153887D03*
Y377165D03*
X147687D03*
X224360Y361811D03*
X218160D03*
X238927Y379528D03*
X232727D03*
X143257Y330709D03*
X137057D03*
X215305Y211811D03*
X209105D03*
X229872Y413386D03*
X223672D03*
X209105Y204724D03*
X215305D03*
X229478D03*
X223278D03*
X229478Y197638D03*
X223278D03*
X238533Y342913D03*
X232333D03*
X224360D03*
X218160D03*
X122884Y330709D03*
X129084D03*
X194931Y211811D03*
X201131D03*
X186958D03*
X180758D03*
X209498Y413386D03*
X215698D03*
X224754Y335433D03*
X218554D03*
X238533D03*
X232333D03*
G54D89*
X320866Y369685D03*
X258268Y247244D03*
G54D90*
X310866Y369685D03*
X300866D03*
X290984D03*
X268268Y247244D03*
X278268D03*
X288150D03*
X246036Y275394D03*
X174436Y234055D03*
X299213Y398425D03*
Y481102D03*
X275266Y395544D03*
X253868Y475404D03*
X238189Y305906D03*
X155512D03*
G54D93*
X147017Y239961D03*
X151504Y231156D03*
G54D103*
X196063Y394882D03*
X192913D03*
X189764D03*
X186614D03*
X183465D03*
X180315D03*
X177165D03*
X174016D03*
Y359449D03*
X177165D03*
X180315D03*
X183465D03*
X186614D03*
X189764D03*
X192913D03*
X196063D03*
G54D104*
X202756Y366142D03*
Y369291D03*
Y372441D03*
Y375591D03*
Y378740D03*
Y381890D03*
Y385039D03*
Y388189D03*
X167323D03*
Y385039D03*
Y381890D03*
Y378740D03*
Y375591D03*
Y372441D03*
Y369291D03*
Y366142D03*
G54D105*
X347047Y187205D03*
X344488D03*
X341929D03*
X339370D03*
X336811D03*
G54D106*
X329528Y187795D03*
X354331D03*
G54D108*
X329528Y197835D03*
X354331D03*
G54D109*
X341929D03*
G54D110*
X248031Y388583D03*
Y378346D03*
X256299D03*
Y388583D03*
G54D138*
X137992Y272835D03*
X125000D03*
X137992Y320079D03*
X125000D03*
X169291Y199409D03*
Y212402D03*
X195079Y185433D03*
X182087D03*
G54D144*
X159055Y346850D03*
X135433D03*
X159055Y358661D03*
X135433D03*
G54D164*
X122520Y284252D03*
X131496D03*
X140512D03*
G54D165*
X131496Y309055D03*
G54D166*
X180709Y203937D03*
Y200197D03*
Y196457D03*
X192520D03*
Y203937D03*
G54D167*
X293701Y158268D03*
Y164173D03*
Y170079D03*
Y175984D03*
Y181890D03*
Y187795D03*
Y193701D03*
Y199606D03*
Y205512D03*
Y211417D03*
Y217323D03*
Y223228D03*
Y229134D03*
X242520D03*
Y223228D03*
Y217323D03*
Y211417D03*
Y205512D03*
Y199606D03*
Y193701D03*
Y187795D03*
Y181890D03*
Y175984D03*
Y170079D03*
Y164173D03*
Y158268D03*
G54D168*
X288780Y236024D03*
X282874D03*
X276969D03*
X271063D03*
X265157D03*
X259252D03*
X253346D03*
X247441D03*
G74*
X0Y0D02*
M02*
