*
*
G04 PADS 9.5 Build Number: 522968 generated Gerber (RS-274-X) file*
G04 PC Version=2.1*
*
%IN "HomeFit.pcb"*%
*
%MOIN*%
*
%FSLAX35Y35*%
*
*
*
*
G04 PC Standard Apertures*
*
*
G04 Thermal Relief Aperture macro.*
%AMTER*
1,1,$1,0,0*
1,0,$1-$2,0,0*
21,0,$3,$4,0,0,45*
21,0,$3,$4,0,0,135*
%
*
*
G04 Annular Aperture macro.*
%AMANN*
1,1,$1,0,0*
1,0,$2,0,0*
%
*
*
G04 Odd Aperture macro.*
%AMODD*
1,1,$1,0,0*
1,0,$1-0.005,0,0*
%
*
*
G04 PC Custom Aperture Macros*
*
*
*
*
*
*
G04 PC Aperture Table*
*
%ADD010C,0.001*%
%ADD013C,0.01*%
%ADD014C,0.00787*%
%ADD016C,0.0003*%
%ADD017C,0.00591*%
%ADD086C,0.00984*%
%ADD113C,0.00787*%
%ADD157C,0.02165*%
*
*
*
*
G04 PC Circuitry*
G04 Layer Name HomeFit.pcb - circuitry*
%LPD*%
*
*
G04 PC Custom Flashes*
G04 Layer Name HomeFit.pcb - flashes*
%LPD*%
*
*
G04 PC Circuitry*
G04 Layer Name HomeFit.pcb - circuitry*
%LPD*%
*
G54D10*
G01X347559Y150000D02*
G75*
G03X347559I-5906J0D01*
G01X357445Y191339D02*
X357450D01*
X347559Y150000D02*
G03X347559I-5906J0D01*
G54D13*
G01X149981Y274366D02*
X144181D01*
Y267366*
X149981*
X152381Y274366D02*
X158181D01*
Y267366*
X152381*
X237027Y383508D02*
X242827D01*
Y390508*
X237027*
X234627Y383508D02*
X228827D01*
Y390508*
X234627*
X206280Y338933D02*
X200480D01*
Y331933*
X206280*
X208680Y338933D02*
X214480D01*
Y331933*
X208680*
X336571Y459074D02*
Y464874D01*
X329571*
Y459074*
X336571Y456674D02*
Y450874D01*
X329571*
Y456674*
X329484Y459074D02*
Y464874D01*
X322484*
Y459074*
X329484Y456674D02*
Y450874D01*
X322484*
Y456674*
X206280Y346413D02*
X200480D01*
Y339413*
X206280*
X208680Y346413D02*
X214480D01*
Y339413*
X208680*
X149587Y321610D02*
X143787D01*
Y314610*
X149587*
X151987Y321610D02*
X157787D01*
Y314610*
X151987*
Y373665D02*
X157787D01*
Y380665*
X151987*
X149587Y373665D02*
X143787D01*
Y380665*
X149587*
X222460Y358311D02*
X228260D01*
Y365311*
X222460*
X220060Y358311D02*
X214260D01*
Y365311*
X220060*
X237027Y376028D02*
X242827D01*
Y383028*
X237027*
X234627Y376028D02*
X228827D01*
Y383028*
X234627*
X141357Y327209D02*
X147157D01*
Y334209*
X141357*
X138957Y327209D02*
X133157D01*
Y334209*
X138957*
X213405Y208311D02*
X219205D01*
Y215311*
X213405*
X211005Y208311D02*
X205205D01*
Y215311*
X211005*
X227972Y409886D02*
X233772D01*
Y416886*
X227972*
X225572Y409886D02*
X219772D01*
Y416886*
X225572*
X211005Y208224D02*
X205205D01*
Y201224*
X211005*
X213405Y208224D02*
X219205D01*
Y201224*
X213405*
X122091Y353918D02*
Y348118D01*
X129091*
Y353918*
X122091Y356318D02*
Y362118D01*
X129091*
Y356318*
X228390Y152343D02*
Y146543D01*
X235390*
Y152343*
X228390Y154743D02*
Y160543D01*
X235390*
Y154743*
X227578Y201224D02*
X233378D01*
Y208224*
X227578*
X225178Y201224D02*
X219378D01*
Y208224*
X225178*
X227578Y194138D02*
X233378D01*
Y201138*
X227578*
X225178Y194138D02*
X219378D01*
Y201138*
X225178*
X322484Y428328D02*
Y422528D01*
X329484*
Y428328*
X322484Y430728D02*
Y436528D01*
X329484*
Y430728*
X322484Y442501D02*
Y436701D01*
X329484*
Y442501*
X322484Y444901D02*
Y450701D01*
X329484*
Y444901*
X236633Y339413D02*
X242433D01*
Y346413*
X236633*
X234233Y339413D02*
X228433D01*
Y346413*
X234233*
X222460Y339413D02*
X228260D01*
Y346413*
X222460*
X220060Y339413D02*
X214260D01*
Y346413*
X220060*
X124784Y334209D02*
X118984D01*
Y327209*
X124784*
X127184Y334209D02*
X132984D01*
Y327209*
X127184*
X196831Y215311D02*
X191031D01*
Y208311*
X196831*
X199231Y215311D02*
X205031D01*
Y208311*
X199231*
X185058D02*
X190858D01*
Y215311*
X185058*
X182658Y208311D02*
X176858D01*
Y215311*
X182658*
X211398Y416886D02*
X205598D01*
Y409886*
X211398*
X213798Y416886D02*
X219598D01*
Y409886*
X213798*
X222854Y331933D02*
X228654D01*
Y338933*
X222854*
X220454Y331933D02*
X214654D01*
Y338933*
X220454*
X329571Y442501D02*
Y436701D01*
X336571*
Y442501*
X329571Y444901D02*
Y450701D01*
X336571*
Y444901*
X236633Y331933D02*
X242433D01*
Y338933*
X236633*
X234233Y331933D02*
X228433D01*
Y338933*
X234233*
X329571Y428328D02*
Y422528D01*
X336571*
Y428328*
X329571Y430728D02*
Y436528D01*
X336571*
Y430728*
G54D14*
X139547Y218078D02*
X130467Y235898D01*
X139377Y240438*
X148457Y222618*
X139547Y218078*
X161535Y410354D02*
Y430354D01*
X191535*
Y410354*
X161535*
X176102Y177835D02*
X196102D01*
Y167835*
X176102*
Y177835*
X206811Y156575D02*
X226811D01*
Y146575*
X206811*
Y156575*
X325866Y364685D02*
X285866D01*
Y374685*
X325866*
Y364685*
X253268Y252244D02*
X293268D01*
Y242244*
X253268*
Y252244*
X332008Y128622D02*
X352008D01*
Y118622*
X332008*
Y128622*
X138189Y343701D02*
X156299D01*
Y361811*
X138189*
Y343701*
X161681Y224191D02*
X151157Y218829D01*
X132390Y255662*
X142913Y261024*
X161681Y224191*
X231938Y272254D02*
X184204Y244695D01*
X188535Y237194*
X236268Y264753*
X231938Y272254*
X303543Y412205D02*
Y467323D01*
X294882*
Y412205*
X303543*
X275883Y409975D02*
X261617Y463215D01*
X253251Y460973*
X267517Y407733*
X275883Y409975*
X224409Y310236D02*
X169291D01*
Y301575*
X224409*
Y310236*
X118504Y288976D02*
X144094D01*
Y304331*
X118504*
Y288976*
X326378Y186614D02*
X357480D01*
Y205118*
X326378*
Y186614*
X246457Y390551D02*
Y376378D01*
X257874*
Y390551*
X246457*
X226378Y442287D02*
G03X226378I-5906J0D01*
G01Y169524D02*
G03X226378I-5906J0D01*
G01X347559Y150000D02*
G03X347559I-5906J0D01*
G01X318080Y118504D02*
X365341D01*
Y205118*
X318080*
Y118504*
X299207Y254724D02*
Y116929D01*
Y254724D02*
Y116929D01*
X324797Y350229D02*
G03X299207Y254724I-25590J-44324D01*
G01X324797Y350229D02*
G03X299207Y254724I-25590J-44324D01*
G01Y116929*
X324797Y350229D02*
G03X299207Y254724I-25590J-44324D01*
G01X393701Y469564D02*
G03X299213Y116929I-94488J-163658D01*
G01X393701Y469564D02*
G03X299213Y116929I-94488J-163658D01*
G01X393701Y469564D02*
G03X299213Y116929I-94488J-163658D01*
G01X393696Y469567D02*
X324797Y350230D01*
X393696Y469567D02*
X324797Y350230D01*
X393696Y469567D02*
X324797Y350230D01*
G54D16*
X198819Y363386D02*
X171260D01*
Y390945*
X198819*
Y363386*
X197137Y366063D02*
G03X197137I-1783J0D01*
G54D17*
G01X183858Y205512D02*
Y194882D01*
X189370*
Y205512*
X183858*
X151821Y264727D02*
X151722Y264998D01*
X151526Y265268*
X151329Y265404*
X150935*
X150738Y265268*
X150541Y264998*
X150443Y264727*
X150344Y264321*
Y263644*
X150443Y263238*
X150541Y262968*
X150738Y262697*
X150935Y262562*
X151329*
X151526Y262697*
X151722Y262968*
X151821Y263238*
X152707Y264862D02*
X152904Y264998D01*
X153199Y265404*
Y262562*
X234547Y394648D02*
X234449Y394919D01*
X234252Y395189*
X234055Y395325*
X233661*
X233465Y395189*
X233268Y394919*
X233169Y394648*
X233071Y394242*
Y393565*
X233169Y393159*
X233268Y392889*
X233465Y392618*
X233661Y392483*
X234055*
X234252Y392618*
X234449Y392889*
X234547Y393159*
X235433Y394783D02*
X235630Y394919D01*
X235925Y395325*
Y392483*
X237402Y395325D02*
X237106Y395189D01*
X236909Y394783*
X236811Y394107*
Y393701*
X236909Y393024*
X237106Y392618*
X237402Y392483*
X237598*
X237894Y392618*
X238091Y393024*
X238189Y393701*
Y394107*
X238091Y394783*
X237894Y395189*
X237598Y395325*
X237402*
X206250Y329294D02*
X206152Y329564D01*
X205955Y329835*
X205758Y329970*
X205364*
X205167Y329835*
X204970Y329564*
X204872Y329294*
X204774Y328888*
Y328211*
X204872Y327805*
X204970Y327534*
X205167Y327264*
X205364Y327128*
X205758*
X205955Y327264*
X206152Y327534*
X206250Y327805*
X207136Y329429D02*
X207333Y329564D01*
X207628Y329970*
Y327128*
X208514Y329429D02*
X208711Y329564D01*
X209006Y329970*
Y327128*
X339730Y457340D02*
X339631Y457611D01*
X339435Y457881*
X339238Y458017*
X338844*
X338647Y457881*
X338450Y457611*
X338352Y457340*
X338253Y456934*
Y456257*
X338352Y455851*
X338450Y455581*
X338647Y455310*
X338844Y455175*
X339238*
X339435Y455310*
X339631Y455581*
X339730Y455851*
X340616Y457475D02*
X340812Y457611D01*
X341108Y458017*
Y455175*
X342092Y457340D02*
Y457475D01*
X342190Y457746*
X342289Y457881*
X342486Y458017*
X342879*
X343076Y457881*
X343175Y457746*
X343273Y457475*
Y457205*
X343175Y456934*
X342978Y456528*
X341994Y455175*
X343372*
X316437Y458821D02*
X316339Y459092D01*
X316142Y459363*
X315945Y459498*
X315551*
X315354Y459363*
X315157Y459092*
X315059Y458821*
X314961Y458415*
Y457739*
X315059Y457333*
X315157Y457062*
X315354Y456791*
X315551Y456656*
X315945*
X316142Y456791*
X316339Y457062*
X316437Y457333*
X317323Y458957D02*
X317520Y459092D01*
X317815Y459498*
Y456656*
X318898Y459498D02*
X319980D01*
X319390Y458415*
X319685*
X319882Y458280*
X319980Y458145*
X320079Y457739*
Y457468*
X319980Y457062*
X319783Y456791*
X319488Y456656*
X319193*
X318898Y456791*
X318799Y456927*
X318701Y457197*
X205758Y350554D02*
X205659Y350824D01*
X205463Y351095*
X205266Y351230*
X204872*
X204675Y351095*
X204478Y350824*
X204380Y350554*
X204281Y350148*
Y349471*
X204380Y349065*
X204478Y348794*
X204675Y348524*
X204872Y348388*
X205266*
X205463Y348524*
X205659Y348794*
X205758Y349065*
X206644Y350689D02*
X206841Y350824D01*
X207136Y351230*
Y348388*
X209006Y351230D02*
X208022Y349336D01*
X209498*
X209006Y351230D02*
Y348388D01*
X129724Y264727D02*
X129626Y264998D01*
X129429Y265268*
X129232Y265404*
X128839*
X128642Y265268*
X128445Y264998*
X128346Y264727*
X128248Y264321*
Y263644*
X128346Y263238*
X128445Y262968*
X128642Y262697*
X128839Y262562*
X129232*
X129429Y262697*
X129626Y262968*
X129724Y263238*
X130709Y264727D02*
Y264862D01*
X130807Y265133*
X130906Y265268*
X131102Y265404*
X131496*
X131693Y265268*
X131791Y265133*
X131890Y264862*
Y264592*
X131791Y264321*
X131594Y263915*
X130610Y262562*
X131988*
X115551Y320632D02*
X115453Y320903D01*
X115256Y321174*
X115059Y321309*
X114665*
X114469Y321174*
X114272Y320903*
X114173Y320632*
X114075Y320226*
Y319550*
X114173Y319144*
X114272Y318873*
X114469Y318602*
X114665Y318467*
X115059*
X115256Y318602*
X115453Y318873*
X115551Y319144*
X116634Y321309D02*
X117717D01*
X117126Y320226*
X117421*
X117618Y320091*
X117717Y319956*
X117815Y319550*
Y319279*
X117717Y318873*
X117520Y318602*
X117224Y318467*
X116929*
X116634Y318602*
X116535Y318738*
X116437Y319008*
X150541Y312758D02*
X150443Y313029D01*
X150246Y313300*
X150049Y313435*
X149656*
X149459Y313300*
X149262Y313029*
X149163Y312758*
X149065Y312352*
Y311676*
X149163Y311270*
X149262Y310999*
X149459Y310728*
X149656Y310593*
X150049*
X150246Y310728*
X150443Y310999*
X150541Y311270*
X152411Y313435D02*
X151427Y311540D01*
X152904*
X152411Y313435D02*
Y310593D01*
X150541Y371420D02*
X150443Y371690D01*
X150246Y371961*
X150049Y372096*
X149656*
X149459Y371961*
X149262Y371690*
X149163Y371420*
X149065Y371014*
Y370337*
X149163Y369931*
X149262Y369660*
X149459Y369390*
X149656Y369254*
X150049*
X150246Y369390*
X150443Y369660*
X150541Y369931*
X152707Y372096D02*
X151722D01*
X151624Y370878*
X151722Y371014*
X152018Y371149*
X152313*
X152608Y371014*
X152805Y370743*
X152904Y370337*
X152805Y370066*
X152707Y369660*
X152510Y369390*
X152215Y369254*
X151919*
X151624Y369390*
X151526Y369525*
X151427Y369796*
X221801Y367557D02*
X221900Y367286D01*
X222096Y367015*
X222293Y366880*
X222687*
X222884Y367015*
X223081Y367286*
X223179Y367557*
X223278Y367963*
Y368639*
X223179Y369045*
X223081Y369316*
X222884Y369587*
X222687Y369722*
X222293*
X222096Y369587*
X221900Y369316*
X221801Y369045*
X219734Y367286D02*
X219833Y367015D01*
X220128Y366880*
X220325*
X220620Y367015*
X220817Y367421*
X220915Y368098*
Y368775*
X220817Y369316*
X220620Y369587*
X220325Y369722*
X220226*
X219931Y369587*
X219734Y369316*
X219636Y368910*
Y368775*
X219734Y368369*
X219931Y368098*
X220226Y367963*
X220325*
X220620Y368098*
X220817Y368369*
X220915Y368775*
X169230Y191043D02*
X169131Y191314D01*
X168935Y191585*
X168738Y191720*
X168344*
X168147Y191585*
X167950Y191314*
X167852Y191043*
X167753Y190637*
Y189961*
X167852Y189555*
X167950Y189284*
X168147Y189013*
X168344Y188878*
X168738*
X168935Y189013*
X169131Y189284*
X169230Y189555*
X171494Y191720D02*
X170509Y188878D01*
X170116Y191720D02*
X171494D01*
X235236Y373782D02*
X235138Y374053D01*
X234941Y374323*
X234744Y374459*
X234350*
X234154Y374323*
X233957Y374053*
X233858Y373782*
X233760Y373376*
Y372699*
X233858Y372293*
X233957Y372023*
X234154Y371752*
X234350Y371617*
X234744*
X234941Y371752*
X235138Y372023*
X235236Y372293*
X236614Y374459D02*
X236319Y374323D01*
X236220Y374053*
Y373782*
X236319Y373511*
X236516Y373376*
X236909Y373241*
X237205Y373105*
X237402Y372835*
X237500Y372564*
Y372158*
X237402Y371887*
X237303Y371752*
X237008Y371617*
X236614*
X236319Y371752*
X236220Y371887*
X236122Y372158*
Y372564*
X236220Y372835*
X236417Y373105*
X236713Y373241*
X237106Y373376*
X237303Y373511*
X237402Y373782*
Y374053*
X237303Y374323*
X237008Y374459*
X236614*
X203412Y185068D02*
X203314Y185338D01*
X203117Y185609*
X202920Y185744*
X202526*
X202330Y185609*
X202133Y185338*
X202034Y185068*
X201936Y184662*
Y183985*
X202034Y183579*
X202133Y183308*
X202330Y183038*
X202526Y182902*
X202920*
X203117Y183038*
X203314Y183308*
X203412Y183579*
X205578Y184797D02*
X205479Y184391D01*
X205282Y184120*
X204987Y183985*
X204889*
X204593Y184120*
X204396Y184391*
X204298Y184797*
Y184932*
X204396Y185338*
X204593Y185609*
X204889Y185744*
X204987*
X205282Y185609*
X205479Y185338*
X205578Y184797*
Y184120*
X205479Y183444*
X205282Y183038*
X204987Y182902*
X204790*
X204495Y183038*
X204396Y183308*
X138583Y338238D02*
Y335396D01*
Y338238D02*
X139272D01*
X139567Y338103*
X139764Y337832*
X139862Y337562*
X139961Y337156*
Y336479*
X139862Y336073*
X139764Y335802*
X139567Y335531*
X139567D02*
X139272Y335396D01*
X138583*
X140846Y337697D02*
X141043Y337832D01*
X141339Y338238*
Y335396*
X210581Y220128D02*
Y217286D01*
Y220128D02*
X211270D01*
X211565Y219993*
X211762Y219722*
X211860Y219451*
X211959Y219045*
Y218369*
X211860Y217963*
X211762Y217692*
X211565Y217421*
X211270Y217286*
X210581*
X212943Y219451D02*
Y219587D01*
X213041Y219857*
X213140Y219993*
X213337Y220128*
X213730*
X213927Y219993*
X214026Y219857*
X214124Y219587*
Y219316*
X214026Y219045*
X213829Y218639*
X212844Y217286*
X214222*
X224754Y421309D02*
Y418467D01*
Y421309D02*
X225443D01*
X225738Y421174*
X225935Y420903*
X226033Y420632*
X226132Y420226*
Y419550*
X226033Y419144*
X225935Y418873*
X225738Y418602*
X225443Y418467*
X224754*
X227215Y421309D02*
X228297D01*
X227707Y420226*
X228002*
X228199Y420091*
X228297Y419956*
X228396Y419550*
Y419279*
X228297Y418873*
X228100Y418602*
X227805Y418467*
X227510*
X227215Y418602*
X227116Y418738*
X227018Y419008*
X210531Y198868D02*
Y196026D01*
Y198868D02*
X211220D01*
X211516Y198733*
X211713Y198462*
X211811Y198191*
X211909Y197785*
Y197109*
X211811Y196703*
X211713Y196432*
X211516Y196161*
X211220Y196026*
X210531*
X213780Y198868D02*
X212795Y196973D01*
X214272*
X213780Y198868D02*
Y196026D01*
X145608Y218309D02*
Y216144D01*
X145510Y215738*
X145412Y215602*
X145215Y215467*
X145018*
X144821Y215602*
X144723Y215738*
X144624Y216144*
Y216414*
X146494Y217768D02*
X146691Y217903D01*
X146986Y218309*
Y215467*
X186061Y435273D02*
Y433108D01*
X185962Y432702*
X185864Y432566*
X185667Y432431*
X185470*
X185273Y432566*
X185175Y432702*
X185076Y433108*
Y433378*
X187045Y434596D02*
Y434732D01*
X187143Y435002*
X187242Y435138*
X187438Y435273*
X187832*
X188029Y435138*
X188127Y435002*
X188226Y434732*
Y434461*
X188127Y434190*
X187931Y433784*
X186946Y432431*
X188324*
X172392Y174852D02*
Y172687D01*
X172293Y172281*
X172195Y172146*
X171998Y172010*
X171801*
X171604Y172146*
X171506Y172281*
X171407Y172687*
Y172958*
X173474Y174852D02*
X174557D01*
X173967Y173770*
X174262*
X174459Y173634*
X174557Y173499*
X174656Y173093*
Y172822*
X174557Y172416*
X174360Y172146*
X174065Y172010*
X173770*
X173474Y172146*
X173376Y172281*
X173278Y172552*
X202657Y153593D02*
Y151427D01*
X202559Y151021*
X202461Y150886*
X202264Y150750*
X202067*
X201870Y150886*
X201772Y151021*
X201673Y151427*
Y151698*
X204528Y153593D02*
X203543Y151698D01*
X205020*
X204528Y153593D02*
Y150750D01*
X280807Y370989D02*
Y368824D01*
X280709Y368418*
X280610Y368282*
X280413Y368147*
X280217*
X280020Y368282*
X279921Y368418*
X279823Y368824*
Y369094*
X282972Y370989D02*
X281988D01*
X281890Y369771*
X281988Y369906*
X282283Y370042*
X282579*
X282874Y369906*
X283071Y369636*
X283169Y369230*
X283071Y368959*
X282972Y368553*
X282776Y368282*
X282480Y368147*
X282185*
X281890Y368282*
X281791Y368418*
X281693Y368688*
X248819Y249262D02*
Y247096D01*
X248720Y246690*
X248622Y246555*
X248425Y246420*
X248228*
X248031Y246555*
X247933Y246690*
X247835Y247096*
Y247367*
X250886Y248856D02*
X250787Y249126D01*
X250492Y249262*
X250295*
X250000Y249126*
X249803Y248720*
X249705Y248044*
Y247367*
X249803Y246826*
X250000Y246555*
X250295Y246420*
X250394*
X250689Y246555*
X250886Y246826*
X250984Y247232*
Y247367*
X250886Y247773*
X250689Y248044*
X250394Y248179*
X250295*
X250000Y248044*
X249803Y247773*
X249705Y247367*
X324473Y124664D02*
Y122499D01*
X324374Y122093*
X324276Y121957*
X324079Y121822*
X323882*
X323685Y121957*
X323587Y122093*
X323488Y122499*
Y122769*
X326736Y124664D02*
X325752Y121822D01*
X325358Y124664D02*
X326736D01*
X124803Y346506D02*
Y343664D01*
Y346506D02*
X125689D01*
X125984Y346371*
X126083Y346235*
X126181Y345965*
Y345694*
X126083Y345423*
X125984Y345288*
X125689Y345153*
X124803*
X125492D02*
X126181Y343664D01*
X127067Y345965D02*
X127264Y346100D01*
X127559Y346506*
Y343664*
X230364Y144537D02*
Y141695D01*
Y144537D02*
X231250D01*
X231545Y144402*
X231644Y144267*
X231742Y143996*
Y143725*
X231644Y143455*
X231545Y143319*
X231250Y143184*
X230364*
X231053D02*
X231742Y141695D01*
X232628Y143996D02*
X232825Y144131D01*
X233120Y144537*
Y141695*
X234596Y144537D02*
X234301Y144402D01*
X234104Y143996*
X234006Y143319*
Y142913*
X234104Y142237*
X234301Y141831*
X234596Y141695*
X234793*
X235089Y141831*
X235285Y142237*
X235384Y142913*
Y143319*
X235285Y143996*
X235089Y144402*
X234793Y144537*
X234596*
X224508Y212254D02*
Y209412D01*
Y212254D02*
X225394D01*
X225689Y212119*
X225787Y211983*
X225886Y211713*
Y211442*
X225787Y211171*
X225689Y211036*
X225394Y210901*
X224508*
X225197D02*
X225886Y209412D01*
X226772Y211713D02*
X226969Y211848D01*
X227264Y212254*
Y209412*
X228150Y211713D02*
X228346Y211848D01*
X228642Y212254*
Y209412*
X224065Y192175D02*
Y189333D01*
Y192175D02*
X224951D01*
X225246Y192040*
X225344Y191905*
X225443Y191634*
Y191363*
X225344Y191093*
X225246Y190957*
X224951Y190822*
X224065*
X224754D02*
X225443Y189333D01*
X226329Y191634D02*
X226526Y191769D01*
X226821Y192175*
Y189333*
X227805Y191499D02*
Y191634D01*
X227904Y191905*
X228002Y192040*
X228199Y192175*
X228593*
X228789Y192040*
X228888Y191905*
X228986Y191634*
Y191363*
X228888Y191093*
X228691Y190687*
X227707Y189333*
X229085*
X315797Y430758D02*
Y427916D01*
Y430758D02*
X316683D01*
X316978Y430623*
X317077Y430487*
X317175Y430217*
Y429946*
X317077Y429675*
X316978Y429540*
X316683Y429405*
X315797*
X316486D02*
X317175Y427916D01*
X318061Y430217D02*
X318258Y430352D01*
X318553Y430758*
Y427916*
X319636Y430758D02*
X320719D01*
X320128Y429675*
X320423*
X320620Y429540*
X320719Y429405*
X320817Y428999*
Y428728*
X320719Y428322*
X320522Y428051*
X320226Y427916*
X319931*
X319636Y428051*
X319537Y428187*
X319439Y428457*
X315748Y444931D02*
Y442089D01*
Y444931D02*
X316634D01*
X316929Y444796*
X317028Y444660*
X317126Y444390*
Y444119*
X317028Y443848*
X316929Y443713*
X316634Y443578*
X315748*
X316437D02*
X317126Y442089D01*
X318012Y444390D02*
X318209Y444525D01*
X318504Y444931*
Y442089*
X320374Y444931D02*
X319390Y443036D01*
X320866*
X320374Y444931D02*
Y442089D01*
X232677Y351230D02*
Y348388D01*
Y351230D02*
X233563D01*
X233858Y351095*
X233957Y350960*
X234055Y350689*
Y350418*
X233957Y350148*
X233858Y350012*
X233563Y349877*
X232677*
X233366D02*
X234055Y348388D01*
X234941Y350689D02*
X235138Y350824D01*
X235433Y351230*
Y348388*
X237598Y351230D02*
X236614D01*
X236516Y350012*
X236614Y350148*
X236909Y350283*
X237205*
X237500Y350148*
X237697Y349877*
X237795Y349471*
X237697Y349200*
X237598Y348794*
X237402Y348524*
X237106Y348388*
X236811*
X236516Y348524*
X236417Y348659*
X236319Y348930*
X218602Y351230D02*
Y348388D01*
Y351230D02*
X219488D01*
X219783Y351095*
X219882Y350960*
X219980Y350689*
Y350418*
X219882Y350148*
X219783Y350012*
X219488Y349877*
X218602*
X219291D02*
X219980Y348388D01*
X220866Y350689D02*
X221063Y350824D01*
X221358Y351230*
Y348388*
X223425Y350824D02*
X223327Y351095D01*
X223031Y351230*
X222835*
X222539Y351095*
X222343Y350689*
X222244Y350012*
Y349336*
X222343Y348794*
X222539Y348524*
X222835Y348388*
X222933*
X223228Y348524*
X223425Y348794*
X223524Y349200*
Y349336*
X223425Y349742*
X223228Y350012*
X222933Y350148*
X222835*
X222539Y350012*
X222343Y349742*
X222244Y349336*
X123967Y338238D02*
Y335396D01*
Y338238D02*
X124852D01*
X125148Y338103*
X125246Y337968*
X125344Y337697*
Y337426*
X125246Y337156*
X125148Y337020*
X124852Y336885*
X123967*
X124656D02*
X125344Y335396D01*
X126329Y337562D02*
Y337697D01*
X126427Y337968*
X126526Y338103*
X126722Y338238*
X127116*
X127313Y338103*
X127411Y337968*
X127510Y337697*
Y337426*
X127411Y337156*
X127215Y336750*
X126230Y335396*
X127608*
X196014Y220128D02*
Y217286D01*
Y220128D02*
X196900D01*
X197195Y219993*
X197293Y219857*
X197392Y219587*
Y219316*
X197293Y219045*
X197195Y218910*
X196900Y218775*
X196014*
X196703D02*
X197392Y217286D01*
X198474Y220128D02*
X199557D01*
X198967Y219045*
X199262*
X199459Y218910*
X199557Y218775*
X199656Y218369*
Y218098*
X199557Y217692*
X199360Y217421*
X199065Y217286*
X198770*
X198474Y217421*
X198376Y217557*
X198278Y217827*
X181398Y220128D02*
Y217286D01*
Y220128D02*
X182283D01*
X182579Y219993*
X182677Y219857*
X182776Y219587*
Y219316*
X182677Y219045*
X182579Y218910*
X182283Y218775*
X181398*
X182087D02*
X182776Y217286D01*
X184646Y220128D02*
X183661Y218233D01*
X185138*
X184646Y220128D02*
Y217286D01*
X210138Y421309D02*
Y418467D01*
Y421309D02*
X211024D01*
X211319Y421174*
X211417Y421038*
X211516Y420768*
Y420497*
X211417Y420226*
X211319Y420091*
X211024Y419956*
X210138*
X210827D02*
X211516Y418467D01*
X213681Y421309D02*
X212697D01*
X212598Y420091*
X212697Y420226*
X212992Y420362*
X213287*
X213583Y420226*
X213780Y419956*
X213878Y419550*
X213780Y419279*
X213681Y418873*
X213484Y418602*
X213189Y418467*
X212894*
X212598Y418602*
X212500Y418738*
X212402Y419008*
X220079Y329970D02*
Y327128D01*
Y329970D02*
X220965D01*
X221260Y329835*
X221358Y329700*
X221457Y329429*
Y329158*
X221358Y328888*
X221260Y328752*
X220965Y328617*
X220079*
X220768D02*
X221457Y327128D01*
X223524Y329564D02*
X223425Y329835D01*
X223130Y329970*
X222933*
X222638Y329835*
X222441Y329429*
X222343Y328752*
Y328076*
X222441Y327534*
X222638Y327264*
X222933Y327128*
X223031*
X223031D02*
X223327Y327264D01*
X223524Y327534*
X223622Y327940*
Y328076*
X223524Y328482*
X223327Y328752*
X223031Y328888*
X223031D02*
X222933D01*
X222638Y328752*
X222441Y328482*
X222343Y328076*
X338254Y443337D02*
Y440495D01*
Y443337D02*
X339140D01*
X339435Y443201*
X339534Y443066*
X339632Y442795*
Y442525*
X339534Y442254*
X339435Y442119*
X339140Y441983*
X338254*
X338943D02*
X339632Y440495D01*
X341896Y443337D02*
X340912Y440495D01*
X340518Y443337D02*
X341896D01*
X233415Y329970D02*
Y327128D01*
Y329970D02*
X234301D01*
X234596Y329835*
X234695Y329700*
X234793Y329429*
Y329158*
X234695Y328888*
X234596Y328752*
X234301Y328617*
X233415*
X234104D02*
X234793Y327128D01*
X236171Y329970D02*
X235876Y329835D01*
X235778Y329564*
Y329294*
X235876Y329023*
X236073Y328888*
X236467Y328752*
X236762Y328617*
X236959Y328346*
X237057Y328076*
Y327670*
X236959Y327399*
X236860Y327264*
X236565Y327128*
X236171*
X235876Y327264*
X235778Y327399*
X235679Y327670*
Y328076*
X235778Y328346*
X235974Y328617*
X236270Y328752*
X236663Y328888*
X236860Y329023*
X236959Y329294*
Y329564*
X236860Y329835*
X236565Y329970*
X236171*
X338189Y431152D02*
Y428310D01*
Y431152D02*
X339075D01*
X339370Y431016*
X339469Y430881*
X339567Y430610*
Y430340*
X339469Y430069*
X339370Y429934*
X339075Y429798*
X338189*
X338878D02*
X339567Y428310D01*
X341732Y430204D02*
X341634Y429798D01*
X341437Y429528*
X341142Y429392*
X341043*
X340748Y429528*
X340551Y429798*
X340453Y430204*
Y430340*
X340551Y430746*
X340748Y431016*
X341043Y431152*
X341142*
X341437Y431016*
X341634Y430746*
X341732Y430204*
Y429528*
X341634Y428851*
X341437Y428445*
X341142Y428310*
X340945*
X340650Y428445*
X340551Y428716*
X147047Y341769D02*
X146850Y342040D01*
X146555Y342175*
X146161*
X145866Y342040*
X145669Y341769*
Y341499*
X145768Y341228*
X145866Y341093*
X146063Y340957*
X146654Y340687*
X146850Y340551*
X146949Y340416*
X147047Y340145*
Y339739*
X146850Y339469*
X146555Y339333*
X146161*
X145866Y339469*
X145669Y339739*
X147933Y341634D02*
X148130Y341769D01*
X148425Y342175*
Y339333*
X155162Y218886D02*
X154965Y219156D01*
X154670Y219292*
X154276*
X153981Y219156*
X153784Y218886*
Y218615*
X153882Y218344*
X153981Y218209*
X154177Y218074*
X154768Y217803*
X154965Y217668*
X155063Y217532*
X155162Y217262*
Y216856*
X154965Y216585*
X154670Y216450*
X154276*
X153981Y216585*
X153784Y216856*
X156047Y219292D02*
X156540Y216450D01*
X157032Y219292D02*
X156540Y216450D01*
X157032Y219292D02*
X157524Y216450D01*
X158016Y219292D02*
X157524Y216450D01*
X158902Y218750D02*
X159099Y218886D01*
X159394Y219292*
Y216450*
X189133Y244337D02*
X188936Y244608D01*
X188641Y244743*
X188247*
X187952Y244608*
X187755Y244337*
Y244066*
X187853Y243796*
X187952Y243660*
X188149Y243525*
X188739Y243254*
X188936Y243119*
X189035Y242984*
X189133Y242713*
Y242307*
X188936Y242036*
X188641Y241901*
X188247*
X187952Y242036*
X187755Y242307*
X190019Y244743D02*
X190511Y241901D01*
X191003Y244743D02*
X190511Y241901D01*
X191003Y244743D02*
X191495Y241901D01*
X191987Y244743D02*
X191495Y241901D01*
X192972Y244066D02*
Y244202D01*
X193070Y244472*
X193168Y244608*
X193365Y244743*
X193759*
X193956Y244608*
X194054Y244472*
X194153Y244202*
Y243931*
X194054Y243660*
X193857Y243254*
X192873Y241901*
X194251*
X300299Y420629D02*
X300570Y420826D01*
X300705Y421121*
Y421515*
X300570Y421810*
X300299Y422007*
X300028*
X299758Y421909*
X299622Y421810*
X299487Y421613*
X299216Y421023*
X299081Y420826*
X298946Y420727*
X298675Y420629*
X298269*
X297998Y420826*
X297863Y421121*
Y421515*
X297998Y421810*
X298269Y422007*
X300705Y419743D02*
X297863Y419251D01*
X300705Y418759D02*
X297863Y419251D01*
X300705Y418759D02*
X297863Y418267D01*
X300705Y417775D02*
X297863Y418267D01*
X300705Y416692D02*
Y415609D01*
X299622Y416200*
Y415905*
X299487Y415708*
X299352Y415609*
X298946Y415511*
X298675*
X298269Y415609*
X297998Y415806*
X297863Y416101*
Y416397*
X297998Y416692*
X298134Y416790*
X298404Y416889*
X270193Y417924D02*
X270463Y418121D01*
X270599Y418416*
Y418810*
X270463Y419105*
X270193Y419302*
X269922*
X269651Y419204*
X269516Y419105*
X269381Y418908*
X269110Y418318*
X268975Y418121*
X268839Y418022*
X268569Y417924*
X268163*
X267892Y418121*
X267757Y418416*
Y418810*
X267892Y419105*
X268163Y419302*
X270599Y417038D02*
X267757Y416546D01*
X270599Y416054D02*
X267757Y416546D01*
X270599Y416054D02*
X267757Y415562D01*
X270599Y415070D02*
X267757Y415562D01*
X270599Y413200D02*
X268704Y414184D01*
Y412707*
X270599Y413200D02*
X267757D01*
X173328Y306542D02*
X173131Y306812D01*
X172836Y306948*
X172442*
X172147Y306812*
X171950Y306542*
Y306271*
X172049Y306000*
X172147Y305865*
X172344Y305730*
X172934Y305459*
X173131Y305324*
X173230Y305188*
X173328Y304918*
Y304512*
X173131Y304241*
X172836Y304106*
X172442*
X172147Y304241*
X171950Y304512*
X174214Y306948D02*
X174706Y304106D01*
X175198Y306948D02*
X174706Y304106D01*
X175198Y306948D02*
X175690Y304106D01*
X176182Y306948D02*
X175690Y304106D01*
X178348Y306948D02*
X177364D01*
X177265Y305730*
X177364Y305865*
X177659Y306000*
X177954*
X178249Y305865*
X178446Y305594*
X178545Y305188*
X178446Y304918*
X178348Y304512*
X178151Y304241*
X177856Y304106*
X177560*
X177265Y304241*
X177167Y304376*
X177068Y304647*
X112355Y296318D02*
Y294288D01*
X112453Y293882*
X112650Y293611*
X112946Y293476*
X113142*
X113438Y293611*
X113635Y293882*
X113733Y294288*
Y296318*
X114619Y295776D02*
X114816Y295912D01*
X115111Y296318*
Y293476*
X190210Y373776D02*
Y375806D01*
X190111Y376212*
X189915Y376483*
X189619Y376618*
X189422*
X189127Y376483*
X188930Y376212*
X188832Y375806*
Y373776*
X187848Y374453D02*
Y374318D01*
X187749Y374047*
X187651Y373912*
X187454Y373776*
X187060*
X186863Y373912*
X186765Y374047*
X186667Y374318*
Y374588*
X186765Y374859*
X186962Y375265*
X187946Y376618*
X186568*
X196232Y198085D02*
Y196055D01*
X196330Y195649*
X196527Y195378*
X196822Y195243*
X197019*
X197314Y195378*
X197511Y195649*
X197609Y196055*
X197609D02*
Y198085D01*
X198692D02*
X199775D01*
X199184Y197002*
X199480*
X199676Y196867*
X199775Y196732*
X199873Y196326*
Y196055*
X199775Y195649*
X199578Y195378*
X199283Y195243*
X198987*
X198692Y195378*
X198594Y195514*
X198495Y195784*
X289272Y129577D02*
Y127547D01*
X289370Y127141*
X289567Y126870*
X289862Y126735*
X290059*
X290354Y126870*
X290551Y127141*
X290650Y127547*
Y129577*
X292520D02*
X291535Y127682D01*
X293012*
X292520Y129577D02*
Y126735D01*
X319661Y196318D02*
Y194288D01*
X319759Y193882*
X319956Y193611*
X320251Y193476*
X320448*
X320744Y193611*
X320940Y193882*
X321039Y194288*
Y196318*
X323204D02*
X322220D01*
X322122Y195100*
X322220Y195235*
X322515Y195370*
X322810*
X323106Y195235*
X323303Y194964*
X323401Y194558*
X323303Y194288*
X323204Y193882*
X323007Y193611*
X322712Y193476*
X322417*
X322122Y193611*
X322023Y193746*
X321925Y194017*
X249963Y396641D02*
X250750Y395288D01*
Y393799*
X251538Y396641D02*
X250750Y395288D01*
X252424Y396100D02*
X252621Y396235D01*
X252916Y396641*
Y393799*
X127953Y243639D02*
Y239764D01*
Y243639D02*
X129161D01*
X129563Y243455*
X129698Y243270*
X129832Y242901*
Y242532*
X129698Y242163*
X129563Y241978*
X129161Y241794*
X127953D02*
X129161D01*
X129563Y241609*
X129698Y241425*
X129832Y241056*
Y240502*
X129698Y240133*
X129563Y239948*
X129161Y239764*
X127953*
X132113Y243639D02*
X131040Y239764D01*
X132113Y243639D02*
X133187Y239764D01*
X131442Y241056D02*
X132785D01*
X135335Y243639D02*
Y239764D01*
X134395Y243639D02*
X136274D01*
X183465Y166080D02*
Y163312D01*
X183599Y162758*
X183867Y162389*
X184270Y162205*
X184538*
X184941Y162389*
X185209Y162758*
X185344Y163312*
Y166080*
X188431Y165527D02*
X188162Y165896D01*
X187759Y166080*
X187223*
X186820Y165896*
X186552Y165527*
Y165157*
X186686Y164788*
X186820Y164604*
X187088Y164419*
X187894Y164050*
X188162Y163866*
X188296Y163681*
X188431Y163312*
Y162758*
X188162Y162389*
X187759Y162205*
X187223*
X186820Y162389*
X186552Y162758*
X189639Y166080D02*
Y162205D01*
Y166080D02*
X190846D01*
X191249Y165896*
X191383Y165711*
X191518Y165342*
Y164973*
X191383Y164604*
X191249Y164419*
X190846Y164235*
X189639D02*
X190846D01*
X191249Y164050*
X191383Y163866*
X191518Y163497*
Y162943*
X191383Y162574*
X191249Y162389*
X190846Y162205*
X189639*
X316929Y380647D02*
Y376772D01*
Y380647D02*
X318137D01*
X318540Y380463*
X318674Y380278*
X318808Y379909*
Y379355*
X318674Y378986*
X318540Y378802*
X318137Y378617*
X316929*
X320016Y380647D02*
Y376772D01*
Y380647D02*
X321224D01*
X321627Y380463*
X321761Y380278*
X321895Y379909*
Y379540*
X321761Y379171*
X321627Y378986*
X321224Y378802*
X320016D02*
X321224D01*
X321627Y378617*
X321761Y378433*
X321895Y378063*
Y377510*
X321761Y377141*
X321627Y376956*
X321224Y376772*
X320016*
X323908Y380647D02*
X323506Y380463D01*
X323237Y379909*
X323103Y378986*
Y378433*
X323237Y377510*
X323506Y376956*
X323908Y376772*
X324177*
X324579Y376956*
X324848Y377510*
X324982Y378433*
Y378986*
X324848Y379909*
X324579Y380463*
X324177Y380647*
X323908*
X286614D02*
Y376772D01*
Y380647D02*
X287822D01*
X288225Y380463*
X288359Y380278*
X288493Y379909*
Y379355*
X288359Y378986*
X288225Y378802*
X287822Y378617*
X286614*
X289701Y380647D02*
Y376772D01*
Y380647D02*
X290909D01*
X291312Y380463*
X291446Y380278*
X291580Y379909*
Y379540*
X291446Y379171*
X291312Y378986*
X290909Y378802*
X289701D02*
X290909D01*
X291312Y378617*
X291446Y378433*
X291580Y378063*
Y377510*
X291446Y377141*
X291312Y376956*
X290909Y376772*
X289701*
X293057Y380647D02*
X294533D01*
X293728Y379171*
X294130*
X294399Y378986*
X294533Y378802*
X294667Y378248*
Y377879*
X294533Y377325*
X294264Y376956*
X293862Y376772*
X293459*
X293057Y376956*
X292922Y377141*
X292788Y377510*
X255512Y257813D02*
Y253937D01*
Y257813D02*
X256720D01*
X256720D02*
X257122Y257628D01*
X257257Y257443*
X257391Y257074*
Y256705*
X257257Y256336*
X257122Y256152*
X256720Y255967*
X255512*
X256451D02*
X257391Y253937D01*
X258599Y257813D02*
X260478Y253937D01*
Y257813D02*
X258599Y253937D01*
X265900Y257813D02*
Y253937D01*
X264961Y257813D02*
X266840D01*
X268048D02*
X269927Y253937D01*
Y257813D02*
X268048Y253937D01*
G54D86*
X144016Y267323D02*
X118976D01*
Y278346*
X144016*
Y267323*
Y314567D02*
X118976D01*
Y325591*
X144016*
Y314567*
X163780Y193386D02*
Y218425D01*
X174803*
Y193386*
X163780*
X201102Y179921D02*
X176063D01*
Y190945*
X201102*
Y179921*
G54D113*
X185243Y204291D02*
G03X185243I-125J0D01*
G54D157*
G01X142717Y268307D02*
Y277362D01*
Y315551D02*
Y324606D01*
X164764Y194685D02*
X173819D01*
X199803Y180906D02*
Y189961D01*
G74*
X0Y0D02*
M02*
