*
*
G04 PADS 9.5 Build Number: 522968 generated Gerber (RS-274-X) file*
G04 PC Version=2.1*
*
%IN "HomeFit.pcb"*%
*
%MOIN*%
*
%FSLAX35Y35*%
*
*
*
*
G04 PC Standard Apertures*
*
*
G04 Thermal Relief Aperture macro.*
%AMTER*
1,1,$1,0,0*
1,0,$1-$2,0,0*
21,0,$3,$4,0,0,45*
21,0,$3,$4,0,0,135*
%
*
*
G04 Annular Aperture macro.*
%AMANN*
1,1,$1,0,0*
1,0,$2,0,0*
%
*
*
G04 Odd Aperture macro.*
%AMODD*
1,1,$1,0,0*
1,0,$1-0.005,0,0*
%
*
*
G04 PC Custom Aperture Macros*
*
*
*
*
*
*
G04 PC Aperture Table*
*
%ADD010C,0.001*%
%ADD013C,0.01*%
%ADD014C,0.00787*%
%ADD021R,0.03X0.038*%
%ADD022R,0.06X0.06*%
%ADD023C,0.06*%
%ADD025R,0.038X0.03*%
%ADD026R,0.01575X0.05906*%
%ADD027R,0.08268X0.07087*%
%ADD029O,0.05118X0.07087*%
%ADD030R,0.16929X0.0748*%
%ADD031C,0.06299*%
%ADD032R,0.04724X0.05512*%
%ADD035C,0.01575*%
%ADD036C,0.01181*%
%ADD037C,0.01969*%
%ADD057C,0.015*%
%ADD073R,0.06299X0.06299*%
%ADD074C,0.03937*%
%ADD078R,0.013X0.06*%
%ADD079R,0.06X0.013*%
%ADD086C,0.00984*%
%ADD117R,0.05906X0.05906*%
%ADD121R,0.07087X0.05512*%
%ADD134C,0.02756*%
%ADD159R,0.03937X0.05906*%
%ADD160R,0.12992X0.05906*%
%ADD161R,0.05118X0.02362*%
%ADD162R,0.04724X0.03937*%
%ADD163R,0.03937X0.04724*%
*
*
*
*
G04 PC Circuitry*
G04 Layer Name HomeFit.pcb - circuitry*
%LPD*%
*
*
G04 PC Custom Flashes*
G04 Layer Name HomeFit.pcb - flashes*
%LPD*%
*
*
G04 PC Circuitry*
G04 Layer Name HomeFit.pcb - circuitry*
%LPD*%
*
G54D10*
G01X347559Y150000D02*
G75*
G03X347559I-5906J0D01*
G01X357445Y191339D02*
X357450D01*
X347559Y150000D02*
G03X347559I-5906J0D01*
G54D13*
G01X142825Y228166D02*
X138370Y225896D01*
X140640Y221441*
X145095Y223711*
X142825Y228166*
X140299Y222110D02*
X141954D01*
X139789Y223110D02*
X143916D01*
X139280Y224110D02*
X144891D01*
X138770Y225110D02*
X144382D01*
X138791Y226110D02*
X143872D01*
X140753Y227110D02*
X143363D01*
X142716Y228110D02*
X142853D01*
X139110Y224442D02*
Y226273D01*
X140110Y222480D02*
Y226782D01*
X141110Y221680D02*
Y227292D01*
X142110Y222190D02*
Y227802D01*
X143110Y222699D02*
Y227605D01*
X144110Y223209D02*
Y225643D01*
X143659Y252058D02*
X139204Y249788D01*
X141474Y245333*
X145929Y247603*
X143659Y252058*
X141078Y246110D02*
X142999D01*
X140569Y247110D02*
X144962D01*
X140059Y248110D02*
X145671D01*
X139550Y249110D02*
X145161D01*
X139836Y250110D02*
X144652D01*
X141799Y251110D02*
X144142D01*
X140110Y248010D02*
Y250250D01*
X141110Y246048D02*
Y250760D01*
X142110Y245657D02*
Y251269D01*
X143110Y246167D02*
Y251779D01*
X144110Y246676D02*
Y251173D01*
X145110Y247186D02*
Y249211D01*
X221555Y359406D02*
X222899Y360750D01*
X221555Y364216D02*
X222899Y362872D01*
X227165Y364216D02*
X225821Y362872D01*
X227165Y359406D02*
X225821Y360750D01*
X227067Y410981D02*
X228411Y412325D01*
X227067Y415791D02*
X228411Y414446D01*
X232676Y415791D02*
X231332Y414446D01*
X232676Y410981D02*
X231332Y412325D01*
X165434Y216259D02*
X167203Y214489D01*
X173149Y216259D02*
X171379Y214489D01*
X173149Y208544D02*
X171379Y210314D01*
X165434Y208544D02*
X167203Y210314D01*
X335476Y458169D02*
X334132Y459513D01*
X330666Y458169D02*
X332010Y459513D01*
X330666Y463779D02*
X332010Y462435D01*
X335476Y463779D02*
X334132Y462435D01*
X328389Y458169D02*
X327045Y459513D01*
X323579Y458169D02*
X324924Y459513D01*
X323579Y463779D02*
X324924Y462435D01*
X328389Y463779D02*
X327045Y462435D01*
X323579Y429232D02*
X324924Y427888D01*
X328389Y429232D02*
X327045Y427888D01*
X328389Y423623D02*
X327045Y424967D01*
X323579Y423623D02*
X324924Y424967D01*
X330666Y429232D02*
X332010Y427888D01*
X335476Y429232D02*
X334132Y427888D01*
X335476Y423623D02*
X334132Y424967D01*
X330666Y423623D02*
X332010Y424967D01*
X236122Y384603D02*
X237466Y385947D01*
X241732Y389413D02*
X240387Y388069D01*
X241732Y384603D02*
X240387Y385947D01*
X236122Y381932D02*
X237466Y380588D01*
X241732Y381932D02*
X240387Y380588D01*
X241732Y377123D02*
X240387Y378467D01*
X198851Y370886D02*
X199946Y371981D01*
X198851Y373996D02*
X199946Y372901D01*
X206661Y370886D02*
X205566Y371981D01*
X207185Y337838D02*
X205841Y336494D01*
X201576Y333028D02*
X202920Y334372D01*
X201576Y337838D02*
X202920Y336494D01*
X207185Y333028D02*
X205841Y334372D01*
X207185Y340509D02*
X205841Y341853D01*
X201576Y340509D02*
X202920Y341853D01*
X201576Y345318D02*
X202920Y343974D01*
X198851Y377185D02*
X199946Y378281D01*
X198851Y380295D02*
X199946Y379200D01*
X163418Y374036D02*
X164513Y375131D01*
X171228Y377145D02*
X170132Y376050D01*
X171228Y374036D02*
X170132Y375131D01*
X144883Y374761D02*
X146227Y376105D01*
X144883Y379570D02*
X146227Y378226D01*
X150492Y379570D02*
X149148Y378226D01*
X150492Y374761D02*
X149148Y376105D01*
X163503Y350511D02*
X161791Y348799D01*
X163503Y343190D02*
X161791Y344902D01*
X154607Y343190D02*
X156319Y344902D01*
X154607Y350511D02*
X156319Y348799D01*
X139881Y350511D02*
X138169Y348799D01*
X139881Y343190D02*
X138169Y344902D01*
X130985Y343190D02*
X132697Y344902D01*
X130985Y350511D02*
X132697Y348799D01*
X140453Y328304D02*
X141797Y329648D01*
X140453Y333113D02*
X141797Y331769D01*
X146062Y333113D02*
X144718Y331769D01*
X146062Y328304D02*
X144718Y329648D01*
X156692Y320515D02*
X155348Y319171D01*
X156692Y315705D02*
X155348Y317050D01*
X151083Y320515D02*
X152427Y319171D01*
X121142Y316221D02*
X122912Y317991D01*
X121142Y323936D02*
X122912Y322167D01*
X128858Y323936D02*
X127088Y322167D01*
X119646Y288109D02*
X121128Y286628D01*
X125393Y288109D02*
X123912Y286628D01*
X125393Y280394D02*
X123912Y281876D01*
X119646Y280394D02*
X121128Y281876D01*
X121142Y268977D02*
X122912Y270747D01*
X121142Y276692D02*
X122912Y274923D01*
X128858Y276692D02*
X127088Y274923D01*
X128858Y268977D02*
X127088Y270747D01*
X157086Y273271D02*
X155742Y271927D01*
X157086Y268461D02*
X155742Y269805D01*
X151476Y268461D02*
X152820Y269805D01*
X151476Y273271D02*
X152820Y271927D01*
X290434Y232007D02*
X291915Y230526D01*
X296968Y232007D02*
X295486Y230526D01*
X239253Y226261D02*
X240734Y227742D01*
X239253Y232007D02*
X240734Y230526D01*
X245787Y232007D02*
X244305Y230526D01*
X245787Y226261D02*
X244305Y227742D01*
X244568Y239291D02*
X246049Y237809D01*
X250314Y239291D02*
X248833Y237809D01*
X244568Y232757D02*
X246049Y234238D01*
X250314Y232757D02*
X248833Y234238D01*
X211909Y207129D02*
X210565Y205785D01*
X211909Y202320D02*
X210565Y203664D01*
X206300Y202320D02*
X207644Y203664D01*
X206300Y207129D02*
X207644Y205785D01*
X178229Y181576D02*
X179999Y183345D01*
X178229Y189291D02*
X179999Y187521D01*
X185944Y189291D02*
X184175Y187521D01*
X185944Y181576D02*
X184175Y183345D01*
X177954Y209406D02*
X179298Y210750D01*
X177954Y214216D02*
X179298Y212872D01*
X183563Y209406D02*
X182219Y210750D01*
X183563Y214216D02*
X182219Y212872D01*
X235728Y340509D02*
X237072Y341853D01*
X235728Y333028D02*
X237072Y334372D01*
X235728Y337838D02*
X237072Y336494D01*
G54D14*
X226378Y442287D02*
G03X226378I-5906J0D01*
G01Y169524D02*
G03X226378I-5906J0D01*
G01X347559Y150000D02*
G03X347559I-5906J0D01*
G01X318080Y118504D02*
X365341D01*
Y205118*
X318080*
Y118504*
X299207Y254724D02*
Y116929D01*
Y254724D02*
Y116929D01*
X324797Y350229D02*
G03X299207Y254724I-25590J-44324D01*
G01X324797Y350229D02*
G03X299207Y254724I-25590J-44324D01*
G01Y116929*
X324797Y350229D02*
G03X299207Y254724I-25590J-44324D01*
G01X393701Y469564D02*
G03X299213Y116929I-94488J-163658D01*
G01X393701Y469564D02*
G03X299213Y116929I-94488J-163658D01*
G01X393701Y469564D02*
G03X299213Y116929I-94488J-163658D01*
G01X393696Y469567D02*
X324797Y350230D01*
X393696Y469567D02*
X324797Y350230D01*
X393696Y469567D02*
X324797Y350230D01*
G54D21*
X333071Y460974D03*
Y454774D03*
X325984Y460974D03*
Y454774D03*
X125591Y352018D03*
Y358218D03*
X231890Y150443D03*
Y156643D03*
X325984Y426428D03*
Y432628D03*
Y440601D03*
Y446801D03*
X333071Y440601D03*
Y446801D03*
Y426428D03*
Y432628D03*
G54D22*
X181102Y172835D03*
X211811Y151575D03*
X337008Y123622D03*
G54D23*
X137192Y233713D03*
X191102Y172835D03*
X221811Y151575D03*
X347008Y123622D03*
X147017Y239961D03*
X151504Y231156D03*
G54D25*
X148081Y270866D03*
X154281D03*
X238927Y387008D03*
X232727D03*
X204380Y335433D03*
X210580D03*
X204380Y342913D03*
X210580D03*
X147687Y318110D03*
X153887D03*
Y377165D03*
X147687D03*
X224360Y361811D03*
X218160D03*
X238927Y379528D03*
X232727D03*
X143257Y330709D03*
X137057D03*
X215305Y211811D03*
X209105D03*
X229872Y413386D03*
X223672D03*
X209105Y204724D03*
X215305D03*
X229478D03*
X223278D03*
X229478Y197638D03*
X223278D03*
X238533Y342913D03*
X232333D03*
X224360D03*
X218160D03*
X122884Y330709D03*
X129084D03*
X194931Y211811D03*
X201131D03*
X186958D03*
X180758D03*
X209498Y413386D03*
X215698D03*
X224754Y335433D03*
X218554D03*
X238533D03*
X232333D03*
G54D26*
X347047Y187205D03*
X344488D03*
X341929D03*
X339370D03*
X336811D03*
G54D27*
X329528Y187795D03*
X354331D03*
G54D29*
X329528Y197835D03*
X354331D03*
G54D30*
X341929D03*
G54D31*
X166535Y425354D03*
X176535Y415354D03*
Y425354D03*
X186535Y415354D03*
Y425354D03*
X310866Y369685D03*
X300866D03*
X290984D03*
X268268Y247244D03*
X278268D03*
X288150D03*
X246036Y275394D03*
X174436Y234055D03*
X299213Y398425D03*
Y481102D03*
X275266Y395544D03*
X253868Y475404D03*
X238189Y305906D03*
X155512D03*
G54D32*
X248031Y388583D03*
Y378346D03*
X256299D03*
Y388583D03*
G54D35*
X144488Y385039D02*
X167323D01*
G54D36*
X347008Y123622D02*
X356299Y132913D01*
Y162205*
X221811Y151575D02*
X222835Y150551D01*
X231782*
X231890Y150443*
X231939Y150394*
X234646*
X242520Y158268*
X227953Y156693D02*
X231840D01*
X231890Y156643*
X258268Y158268D02*
X293701D01*
X268110Y164173D02*
X293701D01*
X327165Y161024D02*
Y133465D01*
X337008Y123622*
X327165Y161024D02*
X336614Y170472D01*
Y187205*
X336811*
X329528Y187795D02*
X336220D01*
X336811Y187205*
X329528Y187795D02*
Y197835D01*
X354331Y187795D02*
Y197835D01*
X347047Y187205D02*
X347244Y187008D01*
Y171260*
X356299Y162205*
X180709Y203937D02*
Y207480D01*
X169291Y212402D02*
Y212205D01*
X170669*
X175394Y207480*
Y201969*
X177165Y200197*
X180709*
X186958Y211811D02*
X192520Y206250D01*
Y203937*
X201131Y211811D02*
X209105D01*
X206693Y197638D02*
X223278D01*
X215305Y204724D02*
X223278D01*
X229478Y197638D02*
X232283Y194832D01*
Y175197*
X237402Y170079*
X242520*
X229478Y204724D02*
X234646Y199557D01*
Y178740*
X237402Y175984*
X242520*
X341929Y197835D02*
X341339D01*
X354331*
X329528D02*
X341339D01*
X180709Y217717D02*
X209449D01*
Y217667*
X215305Y211811*
X246036Y275394D02*
Y287143D01*
X246063Y287169*
X238189Y305906D02*
X242126Y309843D01*
Y345669*
X129084Y330709D02*
X137057D01*
X218504Y329921D02*
Y335383D01*
X218554Y335433*
X204331Y329528D02*
X207824D01*
X210580Y332283*
Y335433*
X245276Y329921D02*
Y346850D01*
X247244Y348819*
X261811*
X267323Y354331*
Y361417*
X270079Y364173*
X315354*
X320866Y369685*
X199213Y350000D02*
X203494D01*
X210580Y342913*
X218160D02*
X226821Y351575D01*
X261417*
X264567Y354724*
Y364567*
X269685Y369685*
X290984*
X210580Y342913D02*
X218160D01*
X210580Y335433D02*
X218554D01*
X232333D02*
Y300899D01*
X246063Y287169*
X224754Y335433D02*
X232333D01*
X224360Y342913D02*
X232333D01*
Y344144*
X235433Y347244*
X240551*
X242126Y345669*
X125591Y358218D02*
X126034Y358661D01*
X135433*
X150394*
X159843D02*
X162205D01*
X170079Y350787*
X184252*
X186614Y353150*
Y359449*
X150394Y358661D02*
X159843D01*
X159055*
X196063Y359449D02*
Y263386D01*
X199213Y260236*
X206693*
X192913Y359449D02*
Y259843D01*
X198031Y254724*
X261417*
X268268Y247874*
Y247244*
X189764Y359449D02*
Y253937D01*
X196457Y247244*
X258268*
X218110Y361861D02*
X218160Y361811D01*
X224360D02*
Y368454D01*
X224409Y368504*
X153887Y377165D02*
X155462Y378740D01*
X167323*
X177165Y387795D02*
Y394882D01*
X167323Y388189D02*
Y401575D01*
X176535Y410787*
Y415354*
X186614Y388189D02*
Y394882D01*
X213337Y375591D02*
X218110Y370818D01*
X202756Y388189D02*
X229921D01*
X231102Y387008*
X232727*
X202756Y385039D02*
X227215D01*
X232727Y379528*
X202756Y381890D02*
X207038D01*
X213337Y375591*
X202756D02*
X213337D01*
X232727Y379528D02*
X240601Y371654D01*
X253543*
X256299Y374409*
Y378346*
X232727Y387008D02*
X237845Y392126D01*
X244488*
X248031Y388583*
X305118Y384646D02*
X310866Y378898D01*
Y369685*
X174016Y394882D02*
Y403937D01*
X177165Y394882D02*
Y405118D01*
X181890Y409843*
Y419291*
X180315Y394882D02*
Y403937D01*
X182677Y406299*
X263386*
X267717Y401969*
Y391339*
X271260Y387795*
X296063*
X300866Y382992*
Y369685*
X183465Y394882D02*
Y401575D01*
X185433Y403543*
X261417*
X264567Y400394*
Y390157*
X270079Y384646*
X292913*
X275266Y395544D02*
X287203Y407480D01*
X313386*
X318947Y412992*
Y429921*
X321654Y432628*
X325984*
X299213Y398425D02*
X331102D01*
X340157Y407480*
Y430709*
X176535Y425354D02*
X181890Y420000D01*
Y419291*
X209449Y420472D02*
Y413435D01*
X209498Y413386*
X215698D02*
X223672D01*
X229872D02*
X238583D01*
X319291Y446850D02*
X325935D01*
X325984Y446801*
X333071Y440601D02*
Y432628D01*
X333120Y432677*
X338189*
X340157Y430709*
X333071Y454774D02*
Y446801D01*
X333120Y446850*
X338976*
X325984Y446801D02*
Y454774D01*
Y432628D02*
Y440601D01*
G54D37*
X191102Y172835D02*
X195276Y177008D01*
X195079Y185433D02*
X195276Y185236D01*
Y177008*
X169291Y199409D02*
X171457D01*
X174409Y196457*
X180709*
X193307D02*
X195079Y194685D01*
Y185433*
X193307Y196457D02*
X194931D01*
X197294Y198819*
Y207087*
X192520Y196457D02*
X193307D01*
X194931Y211811D02*
Y209449D01*
X197294Y207087*
X137192Y233713D02*
X143440Y239961D01*
X147017*
X154527*
X159449Y235039*
Y209252*
X169291Y199409*
X124065Y326772D02*
X131102D01*
X137894Y319980*
G54D57*
X185007Y176739D02*
X183224Y174956D01*
X185007Y168930D02*
X183224Y170713D01*
X177198Y168930D02*
X178981Y170713D01*
X177198Y176739D02*
X178981Y174956D01*
X183404Y428486D02*
X184308Y427581D01*
X189667Y422222D02*
X188763Y423127D01*
X189667Y428486D02*
X188763Y427581D01*
X136480Y226510D02*
X138879Y225730D01*
X143439Y230055D02*
X142659Y227656D01*
X146984Y223097D02*
X144585Y223876D01*
X140026Y219551D02*
X140805Y221950D01*
X291281Y250376D02*
X290377Y249471D01*
X285018Y250376D02*
X285922Y249471D01*
X285018Y244112D02*
X285922Y245017D01*
X291281Y244112D02*
X290377Y245017D01*
X226074Y158572D02*
X226978Y157667D01*
X226074Y154814D02*
X226978Y155719D01*
X226289Y370383D02*
X225384Y369478D01*
X222530Y370383D02*
X223435Y369478D01*
X222530Y366625D02*
X223435Y367530D01*
X226289Y366625D02*
X225384Y367530D01*
X240462Y415265D02*
X239557Y414360D01*
X236704Y415265D02*
X237608Y414360D01*
X236704Y411507D02*
X237608Y412411D01*
X240462Y411507D02*
X239557Y412411D01*
G54D73*
X166535Y415354D03*
X320866Y369685D03*
X258268Y247244D03*
G54D74*
X201575Y195669D02*
X203937Y193307D01*
Y159449*
X211811Y151575*
X251181Y223228D02*
X293701D01*
X142567Y248696D02*
Y257087D01*
X148079Y262598*
Y270864*
X148081Y270866*
X174436Y234055D02*
X174633Y233858D01*
X197638*
X224016D02*
X197638D01*
X201575*
X224016Y260236D02*
X264961D01*
X277953Y247244*
X278268*
X140512Y284252D02*
X140551Y284213D01*
Y275394*
X131496Y284252D02*
Y309055D01*
X137992Y272835D02*
X146113D01*
X148081Y270866*
X137992Y272835D02*
X140551Y275394D01*
X131496Y309055D02*
Y313583D01*
X137894Y319980*
X155512Y305906D02*
X167743D01*
X174436Y299213*
Y234055*
X137894Y319980D02*
X137992Y320079D01*
X122884Y330709D02*
Y327953D01*
X124065Y326772*
X122884Y330709D02*
Y344094D01*
X137992Y320079D02*
X145719D01*
X147687Y318110*
X148031Y317766*
Y313386*
X155512Y305906*
X122884Y344094D02*
Y349312D01*
X125591Y352018*
X218110Y370866D02*
Y370818D01*
Y361861*
G54D78*
X196063Y394882D03*
X192913D03*
X189764D03*
X186614D03*
X183465D03*
X180315D03*
X177165D03*
X174016D03*
Y359449D03*
X177165D03*
X180315D03*
X183465D03*
X186614D03*
X189764D03*
X192913D03*
X196063D03*
G54D79*
X202756Y366142D03*
Y369291D03*
Y372441D03*
Y375591D03*
Y378740D03*
Y381890D03*
Y385039D03*
Y388189D03*
X167323D03*
Y385039D03*
Y381890D03*
Y378740D03*
Y375591D03*
Y372441D03*
Y369291D03*
Y366142D03*
G54D86*
X292579Y247244D02*
G03X292579I-4429J0D01*
G01X303642Y481102D02*
G03X303642I-4429J0D01*
G01X258297Y475404D02*
G03X258297I-4429J0D01*
G01X241240Y413386D02*
G03X241240I-2657J0D01*
G01X170965Y425354D02*
G03X170965I-4430J0D01*
G01X155783Y231156D02*
G03X155783I-4279J0D01*
G01X297146Y153788D02*
Y154629D01*
G03X296490Y155093I-492J-0*
G01X296063Y155020D02*
G03X296490Y155093I-0J1279D01*
G01X296063Y155020D02*
X291339D01*
X290091Y156015D02*
G03X291339Y155020I1248J284D01*
G01X290091Y156015D02*
G03X289611Y156398I-480J-110D01*
G01X260351*
G03X260025Y156275I-0J-493*
G01Y160261D02*
G03Y156275I-1757J-1993D01*
G01Y160261D02*
G03X260351Y160138I326J369D01*
G01X289611*
G03X290091Y160521I0J492*
G01X290275Y160947D02*
G03X290091Y160521I1064J-711D01*
G01X290275Y160947D02*
G03Y161494I-410J273D01*
G01X290091Y161920D02*
G03X290275Y161494I1248J285D01*
G01X290091Y161920D02*
G03X289611Y162303I-480J-109D01*
G01X270194*
G03X269868Y162180I-0J-492*
G01Y166166D02*
G03Y162180I-1758J-1993D01*
G01Y166166D02*
G03X270194Y166043I326J369D01*
G01X289611*
G03X290091Y166426I0J492*
G01X290275Y166853D02*
G03X290091Y166426I1064J-711D01*
G01X290275Y166853D02*
G03Y167399I-410J273D01*
G01X290059Y168110D02*
G03X290275Y167399I1280J0D01*
G01X290059Y168110D02*
Y172047D01*
X290275Y172758D02*
G03X290059Y172047I1064J-711D01*
G01X290275Y172758D02*
G03Y173305I-410J273D01*
G01X290059Y174016D02*
G03X290275Y173305I1280J-0D01*
G01X290059Y174016D02*
Y177953D01*
X290275Y178664D02*
G03X290059Y177953I1064J-711D01*
G01X290275Y178664D02*
G03Y179210I-410J273D01*
G01X290059Y179921D02*
G03X290275Y179210I1280J0D01*
G01X290059Y179921D02*
Y183858D01*
X290275Y184569D02*
G03X290059Y183858I1064J-711D01*
G01X290275Y184569D02*
G03Y185116I-410J274D01*
G01X290059Y185827D02*
G03X290275Y185116I1280J-0D01*
G01X290059Y185827D02*
Y189764D01*
X290275Y190475D02*
G03X290059Y189764I1064J-711D01*
G01X290275Y190475D02*
G03Y191021I-410J273D01*
G01X290059Y191732D02*
G03X290275Y191021I1280J0D01*
G01X290059Y191732D02*
Y195669D01*
X290275Y196380D02*
G03X290059Y195669I1064J-711D01*
G01X290275Y196380D02*
G03Y196927I-410J274D01*
G01X290059Y197638D02*
G03X290275Y196927I1280J-0D01*
G01X290059Y197638D02*
Y201575D01*
X290275Y202286D02*
G03X290059Y201575I1064J-711D01*
G01X290275Y202286D02*
G03Y202832I-410J273D01*
G01X290059Y203543D02*
G03X290275Y202832I1280J0D01*
G01X290059Y203543D02*
Y207480D01*
X290275Y208191D02*
G03X290059Y207480I1064J-711D01*
G01X290275Y208191D02*
G03Y208738I-410J274D01*
G01X290059Y209449D02*
G03X290275Y208738I1280J-0D01*
G01X290059Y209449D02*
Y213386D01*
X290275Y214097D02*
G03X290059Y213386I1064J-711D01*
G01X290275Y214097D02*
G03Y214643I-410J273D01*
G01X290059Y215354D02*
G03X290275Y214643I1280J0D01*
G01X290059Y215354D02*
Y219291D01*
X290067Y219433D02*
G03X290059Y219291I1272J-142D01*
G01X290067Y219433D02*
G03X289578Y219980I-489J55D01*
G01X251181*
Y226476D02*
G03Y219980I0J-3248D01*
G01Y226476D02*
X289578D01*
G03X290067Y227023I-0J493*
G01X290059Y227165D02*
G03X290067Y227023I1280J0D01*
G01X290059Y227165D02*
Y231102D01*
X290192Y231671D02*
G03X290059Y231102I1147J-569D01*
G01X290192Y231671D02*
G03X289751Y232382I-441J219D01*
G01X286811*
X286100Y232597D02*
G03X286811Y232382I711J1064D01*
G01X286100Y232597D02*
G03X285553I-273J-409D01*
G01X284843Y232382D02*
G03X285553Y232597I-0J1279D01*
G01X284843Y232382D02*
X280906D01*
X280195Y232597D02*
G03X280906Y232382I711J1064D01*
G01X280195Y232597D02*
G03X279648I-274J-409D01*
G01X278937Y232382D02*
G03X279648Y232597I0J1279D01*
G01X278937Y232382D02*
X275000D01*
X274289Y232597D02*
G03X275000Y232382I711J1064D01*
G01X274289Y232597D02*
G03X273742I-273J-409D01*
G01X273031Y232382D02*
G03X273742Y232597I0J1279D01*
G01X273031Y232382D02*
X269094D01*
X268384Y232597D02*
G03X269094Y232382I710J1064D01*
G01X268384Y232597D02*
G03X267837I-274J-409D01*
G01X267126Y232382D02*
G03X267837Y232597I-0J1279D01*
G01X267126Y232382D02*
X263189D01*
X262478Y232597D02*
G03X263189Y232382I711J1064D01*
G01X262478Y232597D02*
G03X261931I-273J-409D01*
G01X261220Y232382D02*
G03X261931Y232597I0J1279D01*
G01X261220Y232382D02*
X257283D01*
X256573Y232597D02*
G03X257283Y232382I710J1064D01*
G01X256573Y232597D02*
G03X256026I-274J-409D01*
G01X255315Y232382D02*
G03X256026Y232597I-0J1279D01*
G01X255315Y232382D02*
X251378D01*
X250667Y232597D02*
G03X251378Y232382I711J1064D01*
G01X250667Y232597D02*
G03X250120I-273J-409D01*
G01X249409Y232382D02*
G03X250120Y232597I0J1279D01*
G01X249409Y232382D02*
X246469D01*
G03X246028Y231671I-0J-492*
G01X246161Y231102D02*
G03X246028Y231671I-1279J0D01*
G01X246161Y231102D02*
Y227165D01*
X245946Y226455D02*
G03X246161Y227165I-1064J710D01*
G01X245946Y226454D02*
G03Y225908I409J-273D01*
G01X246161Y225197D02*
G03X245946Y225908I-1279J-0D01*
G01X246161Y225197D02*
Y221260D01*
X245946Y220549D02*
G03X246161Y221260I-1064J711D01*
G01X245946Y220549D02*
G03Y220002I409J-273D01*
G01X246161Y219291D02*
G03X245946Y220002I-1279J0D01*
G01X246161Y219291D02*
Y215354D01*
X245946Y214643D02*
G03X246161Y215354I-1064J711D01*
G01X245946Y214643D02*
G03Y214097I409J-273D01*
G01X246161Y213386D02*
G03X245946Y214097I-1279J-0D01*
G01X246161Y213386D02*
Y209449D01*
X245946Y208738D02*
G03X246161Y209449I-1064J711D01*
G01X245946Y208738D02*
G03Y208191I409J-273D01*
G01X246161Y207480D02*
G03X245946Y208191I-1279J0D01*
G01X246161Y207480D02*
Y203543D01*
X245946Y202832D02*
G03X246161Y203543I-1064J711D01*
G01X245946Y202832D02*
G03Y202286I409J-273D01*
G01X246161Y201575D02*
G03X245946Y202286I-1279J-0D01*
G01X246161Y201575D02*
Y197638D01*
X245946Y196927D02*
G03X246161Y197638I-1064J711D01*
G01X245946Y196927D02*
G03Y196380I409J-273D01*
G01X246161Y195669D02*
G03X245946Y196380I-1279J0D01*
G01X246161Y195669D02*
Y191732D01*
X245946Y191021D02*
G03X246161Y191732I-1064J711D01*
G01X245946Y191021D02*
G03Y190475I409J-273D01*
G01X246161Y189764D02*
G03X245946Y190475I-1279J-0D01*
G01X246161Y189764D02*
Y185827D01*
X245946Y185116D02*
G03X246161Y185827I-1064J711D01*
G01X245946Y185116D02*
G03Y184569I409J-273D01*
G01X246161Y183858D02*
G03X245946Y184569I-1279J0D01*
G01X246161Y183858D02*
Y179921D01*
X245946Y179210D02*
G03X246161Y179921I-1064J711D01*
G01X245946Y179210D02*
G03Y178664I409J-273D01*
G01X246161Y177953D02*
G03X245946Y178664I-1279J-0D01*
G01X246161Y177953D02*
Y174016D01*
X245946Y173305D02*
G03X246161Y174016I-1064J711D01*
G01X245946Y173305D02*
G03Y172758I409J-274D01*
G01X246161Y172047D02*
G03X245946Y172758I-1279J0D01*
G01X246161Y172047D02*
Y168110D01*
X245946Y167399D02*
G03X246161Y168110I-1064J711D01*
G01X245946Y167399D02*
G03Y166853I409J-273D01*
G01X246161Y166142D02*
G03X245946Y166853I-1279J-0D01*
G01X246161Y166142D02*
Y162205D01*
X245946Y161494D02*
G03X246161Y162205I-1064J711D01*
G01X245946Y161494D02*
G03Y160947I409J-274D01*
G01X246161Y160236D02*
G03X245946Y160947I-1279J0D01*
G01X246161Y160236D02*
Y156299D01*
X244882Y155020D02*
G03X246161Y156299I-0J1279D01*
G01X244882Y155020D02*
X242120D01*
G03X241772Y154876I0J-492*
G01X240982Y154085*
G03X241330Y153245I348J-348*
G01X296654Y153296*
G03X297146Y153788I-0J492*
G01X390811Y467902D02*
G03X390633Y468576I-425J248D01*
X208119Y468077I-90830J-156493*
X130763Y388377I95689J-170266*
X130752Y388354I436J-228*
X130759Y225804I176902J-81267*
X130762Y225796I447J205*
X191368Y153292I173264J83249*
X191657Y153199I288J399*
G01X204394Y153211*
G03X204741Y154051I-1J492*
G01X201640Y157152*
X200689Y159449D02*
G03X201640Y157152I3248J-0D01*
G01X200689Y159449D02*
Y191758D01*
G03X200545Y192106I-492J-0*
G01X199278Y193373*
X198331Y195494D02*
G03X199278Y193373I3244J175D01*
G01X198331Y195494D02*
G03X197492Y195816I-491J-26D01*
G01X197399Y195723*
G03X197271Y195252I348J-348*
G01X197343Y194685D02*
G03X197271Y195252I-2264J0D01*
G01X197343Y194685D02*
Y190158D01*
X197343D02*
G03X197835Y189665I492J-0D01*
G01X198031*
X199311Y188386D02*
G03X198031Y189665I-1280J-0D01*
G01X199311Y188386D02*
Y182480D01*
X198032Y181201D02*
G03X199311Y182480I-1J1279D01*
G01X198032Y181201D02*
G03X197539Y180709I-0J-492D01*
G01Y177008*
X196876Y175407D02*
G03X197539Y177008I-1600J1601D01*
G01X196876Y175407D02*
X195458Y173988D01*
G03X195320Y173557I348J-348*
G01X191825Y177053D02*
G03X195320Y173557I-723J-4218D01*
G01X191825Y177053D02*
G03X192256Y177190I83J485D01*
G01X192868Y177801*
G03X193012Y178149I-348J348*
G01Y180709*
G03X192520Y181201I-492J-0*
G01X192126*
X190846Y182480D02*
G03X192126Y181201I1280J0D01*
G01X190846Y182480D02*
Y188386D01*
X192126Y189665D02*
G03X190846Y188386I-0J-1279D01*
G01X192126Y189665D02*
X192323D01*
G03X192815Y190158I-0J493*
G01X192815D02*
Y193504D01*
G03X192323Y193996I-492J-0*
G01X189961*
X188681Y195276D02*
G03X189961Y193996I1280J-0D01*
G01X188681Y195276D02*
Y197638D01*
X189961Y198917D02*
G03X188681Y197638I-0J-1279D01*
G01X189961Y198917D02*
X193987D01*
G03X194335Y199061I-0J492*
G01X194886Y199612*
G03X195030Y199960I-348J348*
G01Y200984*
G03X194538Y201476I-492J0*
G01X189961*
X188681Y202756D02*
G03X189961Y201476I1280J-0D01*
G01X188681Y202756D02*
Y205118D01*
X189191Y206140D02*
G03X188681Y205118I770J-1022D01*
G01X189191Y206140D02*
G03X189243Y206882I-296J394D01*
G01X187237Y208887*
G03X186889Y209031I-348J-348*
G01X185058*
X184192Y209370D02*
G03X185058Y209031I866J941D01*
G01X184192Y209370D02*
G03X183525I-334J-362D01*
G01X183318Y209215D02*
G03X183525Y209370I-660J1096D01*
G01X183318Y209215D02*
G03X183124Y208588I254J-422D01*
G01X183306Y206917D02*
G03X183124Y208588I-2597J563D01*
G01X183306Y206917D02*
G03X183642Y206342I481J-105D01*
G01X184547Y205118D02*
G03X183642Y206342I-1279J0D01*
G01X184547Y205118D02*
Y202756D01*
X184447Y202258D02*
G03X184547Y202756I-1179J498D01*
G01X184447Y202258D02*
G03Y201876I453J-191D01*
G01X184547Y201378D02*
G03X184447Y201876I-1279J-0D01*
G01X184547Y201378D02*
Y199016D01*
X184447Y198518D02*
G03X184547Y199016I-1179J498D01*
G01X184447Y198518D02*
G03Y198135I453J-191D01*
G01X184547Y197638D02*
G03X184447Y198135I-1279J-0D01*
G01X184547Y197638D02*
Y195276D01*
X183268Y193996D02*
G03X184547Y195276I-0J1280D01*
G01X183268Y193996D02*
X178150D01*
X177563Y194138D02*
G03X178150Y193996I587J1138D01*
G01X177563Y194138D02*
G03X177338Y194193I-225J-437D01*
G01X174409*
X172809Y194856D02*
G03X174409Y194193I1600J1601D01*
G01X172809Y194856D02*
X172631Y195033D01*
G03X172272Y195177I-348J-348*
G01X172244D02*
G03X172272I0J1280D01*
G01X172244D02*
X166339D01*
X165059Y196457D02*
G03X166339Y195177I1280J-0D01*
G01X165059Y196457D02*
Y200236D01*
G03X164915Y200584I-492J0*
G01X157848Y207651*
X157185Y209252D02*
G03X157848Y207651I2264J-0D01*
G01X157185Y209252D02*
Y233898D01*
G03X157041Y234246I-492J-0*
G01X153733Y237553*
G03X153385Y237697I-348J-348*
G01X150913*
G03X150511Y237489I-0J-492*
G01X144138Y236795D02*
G03X150511Y237489I2879J3166D01*
G01X144138Y236795D02*
G03X143459Y236779I-331J-364D01*
G01X141548Y234867*
G03X141410Y234436I348J-348*
G01X137915Y237931D02*
G03X141410Y234436I-723J-4218D01*
G01X137915Y237931D02*
G03X138346Y238068I83J485D01*
G01X141840Y241562*
X143167Y242208D02*
G03X141840Y241562I273J-2247D01*
G01X143167Y242208D02*
G03X143511Y242415I-59J489D01*
G01X150511Y242433D02*
G03X143511Y242415I-3494J-2472D01*
G01X150511Y242433D02*
G03X150913Y242225I402J284D01*
G01X154527*
X156128Y241562D02*
G03X154527Y242225I-1601J-1601D01*
G01X156128Y241562D02*
X161050Y236640D01*
X161713Y235039D02*
G03X161050Y236640I-2264J0D01*
G01X161713Y235039D02*
Y210394D01*
G03X161857Y210046I492J-0*
G01X168116Y203786*
G03X168464Y203642I348J348*
G01X172244*
X173524Y202362D02*
G03X172244Y203642I-1280J0D01*
G01X173524Y202362D02*
Y200748D01*
G03X173668Y200400I492J-0*
G01X175203Y198865*
G03X175551Y198720I348J348*
G01X176378*
G03X176870Y199213I-0J493*
G01Y201378*
X176971Y201876D02*
G03X176870Y201378I1179J-498D01*
G01X176971Y201876D02*
G03Y202258I-454J191D01*
G01X176870Y202756D02*
G03X176971Y202258I1280J-0D01*
G01X176870Y202756D02*
Y205118D01*
X177775Y206342D02*
G03X176870Y205118I375J-1224D01*
G01X177775Y206342D02*
G03X178112Y206917I-144J470D01*
G01X178312Y208629D02*
G03X178112Y206917I2397J-1149D01*
G01X178312Y208629D02*
G03X178143Y209250I-444J213D01*
G01X177579Y210311D02*
G03X178143Y209250I1279J0D01*
G01X177579Y210311D02*
Y213311D01*
X178858Y214591D02*
G03X177579Y213311I0J-1280D01*
G01X178858Y214591D02*
X178982D01*
G03X179251Y215494I-0J492*
G01X182466Y219710D02*
G03X179251Y215494I-1757J-1993D01*
G01X182466Y219710D02*
G03X182792Y219587I326J369D01*
G01X209449*
X210979Y218792D02*
G03X209449Y219587I-1530J-1075D01*
G01X210979Y218792D02*
G03X211033Y218727I402J283D01*
G01X215026Y214735*
G03X215374Y214591I348J348*
G01X217205*
X218484Y213311D02*
G03X217205Y214591I-1279J0D01*
G01X218484Y213311D02*
Y210311D01*
X217205Y209031D02*
G03X218484Y210311I-0J1280D01*
G01X217205Y209031D02*
X213405D01*
X212538Y209370D02*
G03X213405Y209031I867J941D01*
G01X212538Y209370D02*
G03X211871I-333J-362D01*
G01X211005Y209031D02*
G03X211871Y209370I-0J1280D01*
G01X211005Y209031D02*
X207205D01*
X206087Y209688D02*
G03X207205Y209031I1118J623D01*
G01X206087Y209688D02*
G03X205657Y209941I-430J-239D01*
G01X204579*
G03X204149Y209688I0J-492*
G01X203031Y209031D02*
G03X204149Y209688I0J1280D01*
G01X203031Y209031D02*
X199636D01*
G03X199217Y208280I-0J-492*
G01X199558Y207087D02*
G03X199217Y208280I-2264J-0D01*
G01X199558Y207087D02*
Y199084D01*
X199558D02*
G03X200250Y198635I492J0D01*
G01X203451Y198320D02*
G03X200250Y198635I-1876J-2651D01*
G01X203451Y198320D02*
G03X204198Y198553I285J402D01*
G01X208451Y199631D02*
G03X204198Y198553I-1758J-1993D01*
G01X208451Y199631D02*
G03X208776Y199508I325J369D01*
G01X219830*
G03X220260Y199761I0J492*
G01X221378Y200417D02*
G03X220260Y199761I-0J-1279D01*
G01X221378Y200417D02*
X225178D01*
X226045Y200079D02*
G03X225178Y200417I-867J-941D01*
G01X226045Y200079D02*
G03X226711I333J362D01*
G01X227578Y200417D02*
G03X226711Y200079I-0J-1279D01*
G01X227578Y200417D02*
X229952D01*
G03X230300Y201257I0J492*
G01X229757Y201801*
G03X229409Y201945I-348J-348*
G01X227578*
X226711Y202283D02*
G03X227578Y201945I867J941D01*
G01X226711Y202283D02*
G03X226045I-333J-362D01*
G01X225178Y201945D02*
G03X226045Y202283I-0J1279D01*
G01X225178Y201945D02*
X221378D01*
X220260Y202602D02*
G03X221378Y201945I1118J622D01*
G01X220260Y202602D02*
G03X219830Y202854I-430J-240D01*
G01X218752*
G03X218323Y202602I0J-492*
G01X217205Y201945D02*
G03X218323Y202602I-0J1279D01*
G01X217205Y201945D02*
X213405D01*
X212538Y202283D02*
G03X213405Y201945I867J941D01*
G01X212538Y202283D02*
G03X211871I-333J-362D01*
G01X211005Y201945D02*
G03X211871Y202283I-0J1279D01*
G01X211005Y201945D02*
X207205D01*
X205925Y203224D02*
G03X207205Y201945I1280J0D01*
G01X205925Y203224D02*
Y206224D01*
X207205Y207504D02*
G03X205925Y206224I-0J-1280D01*
G01X207205Y207504D02*
X211005D01*
X211871Y207166D02*
G03X211005Y207504I-866J-942D01*
G01X211871Y207166D02*
G03X212538I334J362D01*
G01X213405Y207504D02*
G03X212538Y207166I-0J-1280D01*
G01X213405Y207504D02*
X217205D01*
X218323Y206847D02*
G03X217205Y207504I-1118J-623D01*
G01X218323Y206847D02*
G03X218752Y206595I429J240D01*
G01X219830*
G03X220260Y206847I0J492*
G01X221378Y207504D02*
G03X220260Y206847I-0J-1280D01*
G01X221378Y207504D02*
X225178D01*
X226045Y207166D02*
G03X225178Y207504I-867J-942D01*
G01X226045Y207166D02*
G03X226711I333J362D01*
G01X227578Y207504D02*
G03X226711Y207166I-0J-1280D01*
G01X227578Y207504D02*
X231378D01*
X232658Y206224D02*
G03X231378Y207504I-1280J0D01*
G01X232658Y206224D02*
Y204393D01*
X232658D02*
G03X232802Y204045I492J0D01*
G01X235968Y200879*
X236516Y199557D02*
G03X235968Y200879I-1870J-0D01*
G01X236516Y199557D02*
Y179719D01*
G03X236660Y179371I492J-0*
G01X238032Y177998*
G03X238380Y177854I348J348*
G01X238430*
G03X238910Y178237I0J492*
G01X239094Y178664D02*
G03X238910Y178237I1063J-711D01*
G01X239094Y178664D02*
G03Y179210I-410J273D01*
G01X238878Y179921D02*
G03X239094Y179210I1279J0D01*
G01X238878Y179921D02*
Y183858D01*
X239094Y184569D02*
G03X238878Y183858I1063J-711D01*
G01X239094Y184569D02*
G03Y185116I-410J274D01*
G01X238878Y185827D02*
G03X239094Y185116I1279J-0D01*
G01X238878Y185827D02*
Y189764D01*
X239094Y190475D02*
G03X238878Y189764I1063J-711D01*
G01X239094Y190475D02*
G03Y191021I-410J273D01*
G01X238878Y191732D02*
G03X239094Y191021I1279J0D01*
G01X238878Y191732D02*
Y195669D01*
X239094Y196380D02*
G03X238878Y195669I1063J-711D01*
G01X239094Y196380D02*
G03Y196927I-410J274D01*
G01X238878Y197638D02*
G03X239094Y196927I1279J-0D01*
G01X238878Y197638D02*
Y201575D01*
X239094Y202286D02*
G03X238878Y201575I1063J-711D01*
G01X239094Y202286D02*
G03Y202832I-410J273D01*
G01X238878Y203543D02*
G03X239094Y202832I1279J0D01*
G01X238878Y203543D02*
Y207480D01*
X239094Y208191D02*
G03X238878Y207480I1063J-711D01*
G01X239094Y208191D02*
G03Y208738I-410J274D01*
G01X238878Y209449D02*
G03X239094Y208738I1279J-0D01*
G01X238878Y209449D02*
Y213386D01*
X239094Y214097D02*
G03X238878Y213386I1063J-711D01*
G01X239094Y214097D02*
G03Y214643I-410J273D01*
G01X238878Y215354D02*
G03X239094Y214643I1279J0D01*
G01X238878Y215354D02*
Y219291D01*
X239094Y220002D02*
G03X238878Y219291I1063J-711D01*
G01X239094Y220002D02*
G03Y220549I-410J274D01*
G01X238878Y221260D02*
G03X239094Y220549I1279J-0D01*
G01X238878Y221260D02*
Y225197D01*
X239094Y225908D02*
G03X238878Y225197I1063J-711D01*
G01X239094Y225908D02*
G03Y226454I-410J273D01*
G01X238878Y227165D02*
G03X239094Y226455I1279J0D01*
G01X238878Y227165D02*
Y231102D01*
X240157Y232382D02*
G03X238878Y231102I0J-1280D01*
G01X240157Y232382D02*
X243885D01*
G03X244326Y233093I0J492*
G01X244193Y233661D02*
G03X244326Y233093I1279J0D01*
G01X244193Y233661D02*
Y238386D01*
X245472Y239665D02*
G03X244193Y238386I0J-1279D01*
G01X245472Y239665D02*
X249409D01*
X250120Y239450D02*
G03X249409Y239665I-711J-1064D01*
G01X250120Y239450D02*
G03X250667I274J409D01*
G01X251378Y239665D02*
G03X250667Y239450I-0J-1279D01*
G01X251378Y239665D02*
X255315D01*
X256026Y239450D02*
G03X255315Y239665I-711J-1064D01*
G01X256026Y239450D02*
G03X256573I273J409D01*
G01X257283Y239665D02*
G03X256573Y239450I0J-1279D01*
G01X257283Y239665D02*
X261220D01*
X261931Y239450D02*
G03X261220Y239665I-711J-1064D01*
G01X261931Y239450D02*
G03X262478I274J409D01*
G01X263189Y239665D02*
G03X262478Y239450I-0J-1279D01*
G01X263189Y239665D02*
X267126D01*
X267837Y239450D02*
G03X267126Y239665I-711J-1064D01*
G01X267837Y239450D02*
G03X268384I273J409D01*
G01X269094Y239665D02*
G03X268384Y239450I0J-1279D01*
G01X269094Y239665D02*
X273031D01*
X273742Y239450D02*
G03X273031Y239665I-711J-1064D01*
G01X273742Y239450D02*
G03X274289I274J409D01*
G01X275000Y239665D02*
G03X274289Y239450I0J-1279D01*
G01X275000Y239665D02*
X278937D01*
X279648Y239450D02*
G03X278937Y239665I-711J-1064D01*
G01X279648Y239450D02*
G03X280195I273J409D01*
G01X280906Y239665D02*
G03X280195Y239450I-0J-1279D01*
G01X280906Y239665D02*
X284843D01*
X285553Y239450D02*
G03X284843Y239665I-710J-1064D01*
G01X285553Y239450D02*
G03X286100I274J409D01*
G01X286811Y239665D02*
G03X286100Y239450I0J-1279D01*
G01X286811Y239665D02*
X290748D01*
X292028Y238386D02*
G03X290748Y239665I-1280J-0D01*
G01X292028Y238386D02*
Y233661D01*
X291894Y233093D02*
G03X292028Y233661I-1146J568D01*
G01X291894Y233093D02*
G03X292335Y232382I441J-219D01*
G01X296063*
X296490Y232309D02*
G03X296063Y232382I-427J-1207D01*
G01X296490Y232309D02*
G03X297146Y232773I164J464D01*
G01Y252794*
G03X296677Y253286I-492J0*
G01X323021Y352638D02*
G03X296677Y253286I-23789J-46861D01*
G01X323021Y352638D02*
G03X323669Y352829I223J439D01*
G01X390811Y467902*
X240256Y310821D02*
Y332161D01*
G03X239764Y332654I-492J0*
G01X236633*
X235766Y332992D02*
G03X236633Y332654I867J941D01*
G01X235766Y332992D02*
G03X235100I-333J-362D01*
G01X234567Y332698D02*
G03X235100Y332992I-334J1235D01*
G01X234567Y332698D02*
G03X234203Y332223I128J-475D01*
G01Y309372*
G03X235045Y309025I492J-0*
G01X239433Y310156D02*
G03X235045Y309025I-1244J-4250D01*
G01X239433Y310156D02*
G03X239919Y310281I138J473D01*
G01X240112Y310473*
G03X240256Y310821I-348J348*
G01X207884Y332232D02*
G03X207854Y332956I-348J348D01*
G01X207814Y332992D02*
G03X207854Y332956I866J941D01*
G01X207814Y332992D02*
G03X207147I-334J-362D01*
G01X206280Y332654D02*
G03X207147Y332992I0J1279D01*
G01X206280Y332654D02*
X206058D01*
G03X205788Y331750I-0J-493*
G01X206088Y331521D02*
G03X205788Y331750I-1757J-1993D01*
G01X206088Y331521D02*
G03X206414Y331398I326J369D01*
G01X206846*
G03X207194Y331542I-0J492*
G01X207884Y332232*
X133760Y320644D02*
Y320709D01*
G03X133616Y321057I-492J-0*
G01X130309Y324364*
G03X129961Y324508I-348J-348*
G01X129426*
G03X129017Y323742I-0J-492*
G01X129232Y323031D02*
G03X129017Y323742I-1279J0D01*
G01X129232Y323031D02*
Y317126D01*
Y317107D02*
G03Y317126I-1279J19D01*
G01Y317107D02*
G03X130072Y316752I492J-7D01*
G01X133616Y320296*
G03X133760Y320644I-348J348*
G01X208692Y214591D02*
G03X209040Y215431I0J492D01*
G01X208769Y215702*
G03X208421Y215846I-348J-348*
G01X182792*
G03X182466Y215723I-0J-492*
G01X182166Y215494D02*
G03X182466Y215723I-1457J2223D01*
G01X182166Y215494D02*
G03X182436Y214591I270J-411D01*
G01X182658*
X183525Y214252D02*
G03X182658Y214591I-867J-941D01*
G01X183525Y214252D02*
G03X184192I333J362D01*
G01X185058Y214591D02*
G03X184192Y214252I0J-1280D01*
G01X185058Y214591D02*
X188858D01*
X190138Y213311D02*
G03X188858Y214591I-1280J0D01*
G01X190138Y213311D02*
Y211480D01*
G03X190282Y211132I492J0*
G01X190912Y210502*
G03X191752Y210850I348J348*
G01Y213311*
X193031Y214591D02*
G03X191752Y213311I0J-1280D01*
G01X193031Y214591D02*
X196831D01*
X197698Y214252D02*
G03X196831Y214591I-867J-941D01*
G01X197698Y214252D02*
G03X198365I333J362D01*
G01X199231Y214591D02*
G03X198365Y214252I0J-1280D01*
G01X199231Y214591D02*
X203031D01*
X204149Y213934D02*
G03X203031Y214591I-1118J-623D01*
G01X204149Y213934D02*
G03X204579Y213681I430J239D01*
G01X205657*
G03X206087Y213934I0J492*
G01X207205Y214591D02*
G03X206087Y213934I-0J-1280D01*
G01X207205Y214591D02*
X208692D01*
X239094Y166853D02*
G03Y167399I-410J273D01*
G01X238910Y167826D02*
G03X239094Y167399I1247J284D01*
G01X238910Y167826D02*
G03X238430Y168209I-480J-109D01*
G01X237402*
X236079Y168756D02*
G03X237402Y168209I1323J1323D01*
G01X236079Y168756D02*
X230961Y173874D01*
X230413Y175197D02*
G03X230961Y173874I1870J-0D01*
G01X230413Y175197D02*
Y193854D01*
G03X230269Y194202I-492J-0*
G01X229757Y194714*
G03X229409Y194858I-348J-348*
G01X227578*
X226711Y195196D02*
G03X227578Y194858I867J942D01*
G01X226711Y195196D02*
G03X226045I-333J-362D01*
G01X225178Y194858D02*
G03X226045Y195196I-0J1280D01*
G01X225178Y194858D02*
X221378D01*
X220260Y195515D02*
G03X221378Y194858I1118J623D01*
G01X220260Y195515D02*
G03X219830Y195768I-430J-239D01*
G01X208776*
G03X208451Y195645I0J-492*
G01X207335Y195059D02*
G03X208451Y195645I-642J2579D01*
G01X207335Y195059D02*
G03X206991Y194414I118J-478D01*
G01X207185Y193307D02*
G03X206991Y194414I-3248J0D01*
G01X207185Y193307D02*
Y160998D01*
G03X207329Y160650I492J0*
G01X211981Y155998*
G03X212329Y155854I348J348*
G01X214811*
X216091Y154575D02*
G03X214811Y155854I-1280J-0D01*
G01X216091Y154575D02*
Y153714D01*
G03X216583Y153222I492J0*
G01X217547Y153223*
G03X217986Y153494I-1J492*
G01X225632Y153502D02*
G03X217986Y153494I-3821J-1927D01*
G01X225632Y153502D02*
G03X226072Y153231I440J221D01*
G01X226902Y153232*
G03X227066Y154188I-0J492*
G01X228848Y159195D02*
G03X227066Y154188I-895J-2502D01*
G01X228848Y159195D02*
G03X229396Y159349I165J464D01*
G01X230390Y159823D02*
G03X229396Y159349I-0J-1280D01*
G01X230390Y159823D02*
X233390D01*
X234669Y158543D02*
G03X233390Y159823I-1279J0D01*
G01X234669Y158543D02*
Y154743D01*
X234595Y154312D02*
G03X234669Y154743I-1205J431D01*
G01X234595Y154312D02*
G03X235406Y153799I463J-165D01*
G01X238734Y157127*
G03X238878Y157475I-348J348*
G01Y160236*
X239094Y160947D02*
G03X238878Y160236I1063J-711D01*
G01X239094Y160947D02*
G03Y161494I-410J273D01*
G01X238878Y162205D02*
G03X239094Y161494I1279J-0D01*
G01X238878Y162205D02*
Y166142D01*
X239094Y166853D02*
G03X238878Y166142I1063J-711D01*
G01X292579Y247244D02*
G03X292579I-4429J0D01*
G01X325295Y372835D02*
Y366535D01*
X324016Y365256D02*
G03X325295Y366535I-0J1279D01*
G01X324016Y365256D02*
X319286D01*
G03X318938Y365112I-0J-492*
G01X316677Y362851*
X315354Y362303D02*
G03X316677Y362851I0J1870D01*
G01X315354Y362303D02*
X271057D01*
G03X270709Y362159I0J-492*
G01X269337Y360787*
G03X269193Y360439I348J-348*
G01Y354331*
X268645Y353008D02*
G03X269193Y354331I-1322J1323D01*
G01X268645Y353008D02*
X263133Y347497D01*
X261811Y346949D02*
G03X263133Y347497I0J1870D01*
G01X261811Y346949D02*
X248223D01*
G03X247875Y346805I-0J-492*
G01X247290Y346220*
G03X247146Y345872I348J-348*
G01Y332005*
G03X247269Y331679I492J-0*
G01X244611Y327348D02*
G03X247269Y331679I665J2573D01*
G01X244611Y327348D02*
G03X243996Y326872I-123J-476D01*
G01Y309843*
X243448Y308520D02*
G03X243996Y309843I-1322J1323D01*
G01X243448Y308520D02*
X242564Y307636D01*
G03X242440Y307150I348J-348*
G01X235045Y302786D02*
G03X242440Y307150I3144J3120D01*
G01X235045Y302786D02*
G03X234203Y302440I-350J-346D01*
G01Y301878*
G03X234347Y301530I492J-0*
G01X247385Y288492*
X247912Y286890D02*
G03X247385Y288492I-1849J279D01*
G01X247912Y286890D02*
G03X247907Y286816I487J-74D01*
G01Y279711*
G03X248162Y279279I492J-0*
G01X243910D02*
G03X248162I2126J-3885D01*
G01X243910D02*
G03X244166Y279711I-236J432D01*
G01Y286217*
G03X244022Y286565I-492J0*
G01X231011Y299577*
X230463Y300899D02*
G03X231011Y299577I1870J0D01*
G01X230463Y300899D02*
Y332223D01*
G03X230099Y332698I-492J-0*
G01X229315Y333310D02*
G03X230099Y332698I1118J623D01*
G01X229315Y333310D02*
G03X228885Y333563I-430J-239D01*
G01X228201*
G03X227771Y333310I0J-492*
G01X226654Y332654D02*
G03X227771Y333310I-0J1279D01*
G01X226654Y332654D02*
X222854D01*
X221987Y332992D02*
G03X222854Y332654I867J941D01*
G01X221987Y332992D02*
G03X221320I-333J-362D01*
G01X220752Y332689D02*
G03X221320Y332992I-298J1244D01*
G01X220752Y332689D02*
G03X220374Y332210I114J-479D01*
G01Y332005*
G03X220497Y331679I492J-0*
G01X216511D02*
G03X220497I1993J-1758D01*
G01X216511D02*
G03X216634Y332005I-369J326D01*
G01Y332237*
G03X216284Y332708I-492J-0*
G01X215536Y333310D02*
G03X216284Y332708I1118J623D01*
G01X215536Y333310D02*
G03X215106Y333563I-430J-239D01*
G01X214028*
G03X213598Y333310I0J-492*
G01X212814Y332698D02*
G03X213598Y333310I-334J1235D01*
G01X212814Y332698D02*
G03X212450Y332235I128J-475D01*
G01X211903Y330961D02*
G03X212450Y332235I-1323J1322D01*
G01X211903Y330961D02*
X209147Y328205D01*
X207824Y327657D02*
G03X209147Y328205I0J1871D01*
G01X207824Y327657D02*
X206414D01*
G03X206088Y327534I-0J-492*
G01X202873Y331750D02*
G03X206088Y327534I1458J-2222D01*
G01X202873Y331750D02*
G03X202604Y332654I-269J411D01*
G01X202480*
X201201Y333933D02*
G03X202480Y332654I1279J0D01*
G01X201201Y333933D02*
Y336933D01*
X202480Y338213D02*
G03X201201Y336933I0J-1280D01*
G01X202480Y338213D02*
X206280D01*
X207147Y337874D02*
G03X206280Y338213I-867J-941D01*
G01X207147Y337874D02*
G03X207814I333J362D01*
G01X208680Y338213D02*
G03X207814Y337874I0J-1280D01*
G01X208680Y338213D02*
X212480D01*
X213598Y337556D02*
G03X212480Y338213I-1118J-623D01*
G01X213598Y337556D02*
G03X214028Y337303I430J239D01*
G01X215106*
G03X215536Y337556I-0J492*
G01X216654Y338213D02*
G03X215536Y337556I-0J-1280D01*
G01X216654Y338213D02*
X220454D01*
X221320Y337874D02*
G03X220454Y338213I-866J-941D01*
G01X221320Y337874D02*
G03X221987I334J362D01*
G01X222854Y338213D02*
G03X221987Y337874I-0J-1280D01*
G01X222854Y338213D02*
X226654D01*
X227771Y337556D02*
G03X226654Y338213I-1117J-623D01*
G01X227771Y337556D02*
G03X228201Y337303I430J239D01*
G01X228885*
G03X229315Y337556I0J492*
G01X230433Y338213D02*
G03X229315Y337556I0J-1280D01*
G01X230433Y338213D02*
X234233D01*
X235100Y337874D02*
G03X234233Y338213I-867J-941D01*
G01X235100Y337874D02*
G03X235766I333J362D01*
G01X236633Y338213D02*
G03X235766Y337874I0J-1280D01*
G01X236633Y338213D02*
X239764D01*
G03X240256Y338705I-0J492*
G01Y339642*
G03X239764Y340134I-492J-0*
G01X236633*
X235766Y340472D02*
G03X236633Y340134I867J941D01*
G01X235766Y340472D02*
G03X235100I-333J-362D01*
G01X234233Y340134D02*
G03X235100Y340472I0J1279D01*
G01X234233Y340134D02*
X230433D01*
X229315Y340791D02*
G03X230433Y340134I1118J622D01*
G01X229315Y340791D02*
G03X228885Y341043I-430J-240D01*
G01X227808*
G03X227378Y340791I-0J-492*
G01X226260Y340134D02*
G03X227378Y340791I-0J1279D01*
G01X226260Y340134D02*
X222460D01*
X221593Y340472D02*
G03X222460Y340134I867J941D01*
G01X221593Y340472D02*
G03X220927I-333J-362D01*
G01X220060Y340134D02*
G03X220927Y340472I-0J1279D01*
G01X220060Y340134D02*
X216260D01*
X215142Y340791D02*
G03X216260Y340134I1118J622D01*
G01X215142Y340791D02*
G03X214712Y341043I-430J-240D01*
G01X214028*
G03X213598Y340791I0J-492*
G01X212480Y340134D02*
G03X213598Y340791I0J1279D01*
G01X212480Y340134D02*
X208680D01*
X207814Y340472D02*
G03X208680Y340134I866J941D01*
G01X207814Y340472D02*
G03X207147I-334J-362D01*
G01X206280Y340134D02*
G03X207147Y340472I0J1279D01*
G01X206280Y340134D02*
X202480D01*
X201201Y341413D02*
G03X202480Y340134I1279J0D01*
G01X201201Y341413D02*
Y344413D01*
X202480Y345693D02*
G03X201201Y344413I0J-1280D01*
G01X202480Y345693D02*
X203968D01*
G03X204316Y346533I-0J492*
G01X202863Y347986*
G03X202515Y348130I-348J-348*
G01X201296*
G03X200970Y348007I-0J-492*
G01X198548Y347427D02*
G03X200970Y348007I665J2573D01*
G01X198548Y347427D02*
G03X197933Y346950I-123J-477D01*
G01Y264364*
G03X198077Y264016I492J0*
G01X199843Y262250*
G03X200191Y262106I348J348*
G01X204610*
G03X204935Y262229I-0J492*
G01X206707Y257579D02*
G03X204935Y262229I-14J2657D01*
G01X206707Y257579D02*
G03X206693Y257578I2J-492D01*
X206679Y257579I-16J-491*
G01X204935Y258243D02*
G03X206679Y257579I1758J1993D01*
G01X204935Y258243D02*
G03X204610Y258366I-325J-369D01*
G01X199213*
X197890Y258914D02*
G03X199213Y258366I1323J1322D01*
G01X197890Y258914D02*
X195624Y261181D01*
Y261180D02*
G03X194783Y260833I-348J-347D01*
G01Y260821*
G03X194928Y260473I493J-0*
G01X198662Y256739*
G03X199010Y256595I348J348*
G01X206677*
G03X206693I-0J492*
X206709I16J492*
G01X221999*
G03X222264Y257501I-0J492*
G01X224016Y263484D02*
G03X222264Y257501I-0J-3248D01*
G01X224016Y263484D02*
X264961D01*
X267257Y262533D02*
G03X264961Y263484I-2296J-2297D01*
G01X267257Y262533D02*
X277973Y251817D01*
G03X278316Y251673I348J348*
G01X273889Y246579D02*
G03X278316Y251673I4379J665D01*
G01X273889Y246579D02*
G03X273750Y246853I-487J-74D01*
G01X273512Y247092*
X273511D02*
G03X272674Y246794I-347J-348D01*
G01X264163Y248909D02*
G03X272674Y246794I4105J-1665D01*
G01X264163Y248909D02*
G03X264055Y249442I-456J185D01*
G01X263537Y249960*
G03X262697Y249612I-348J-348*
G01Y244094*
X261417Y242815D02*
G03X262697Y244094I0J1279D01*
G01X261417Y242815D02*
X255118D01*
X253839Y244094D02*
G03X255118Y242815I1279J0D01*
G01X253839Y244094D02*
Y244882D01*
G03X253346Y245374I-493J-0*
G01X196457*
X195134Y245922D02*
G03X196457Y245374I1323J1322D01*
G01X195134Y245922D02*
X188441Y252615D01*
X187894Y253937D02*
G03X188441Y252615I1870J0D01*
G01X187894Y253937D02*
Y350596D01*
G03X187054Y350944I-492J0*
G01X185574Y349465*
X184252Y348917D02*
G03X185574Y349465I-0J1870D01*
G01X184252Y348917D02*
X170079D01*
X168756Y349465D02*
G03X170079Y348917I1323J1322D01*
G01X168756Y349465D02*
X163610Y354611D01*
G03X163078Y354719I-348J-348*
G01X162598Y354626D02*
G03X163078Y354719I0J1280D01*
G01X162598Y354626D02*
X155512D01*
X154232Y355906D02*
G03X155512Y354626I1280J-0D01*
G01X154232Y355906D02*
Y356299D01*
G03X153740Y356791I-492J0*
G01X152477*
G03X152151Y356668I-0J-492*
G01X148636D02*
G03X152151I1758J1993D01*
G01X148636D02*
G03X148310Y356791I-326J-369D01*
G01X140748*
G03X140256Y356299I0J-492*
G01Y355906*
X138976Y354626D02*
G03X140256Y355906I0J1280D01*
G01X138976Y354626D02*
X131890D01*
X130610Y355906D02*
G03X131890Y354626I1280J-0D01*
G01X130610Y355906D02*
Y356299D01*
G03X130118Y356791I-492J0*
G01X128862*
G03X128370Y356304I0J-492*
G01X128032Y355451D02*
G03X128370Y356304I-941J867D01*
G01X128032Y355451D02*
G03Y354785I362J-333D01*
G01X128370Y353918D02*
G03X128032Y354785I-1279J0D01*
G01X128370Y353918D02*
Y353831D01*
G03X128432Y353592I492J-0*
G01Y350444D02*
G03Y353592I-2841J1574D01*
G01Y350444D02*
G03X128370Y350206I430J-238D01*
G01Y350118*
X127179Y348842D02*
G03X128370Y350118I-88J1276D01*
G01X127179Y348842D02*
G03X126865Y348699I33J-491D01*
G01X126276Y348111*
G03X126132Y347763I348J-348*
G01Y344094*
Y333890*
G03X126780Y333423I492J-0*
G01X127184Y333488D02*
G03X126780Y333423I0J-1279D01*
G01X127184Y333488D02*
X130984D01*
X132102Y332831D02*
G03X130984Y333488I-1118J-622D01*
G01X132102Y332831D02*
G03X132532Y332579I430J240D01*
G01X133610*
G03X134040Y332831I-0J492*
G01X135157Y333488D02*
G03X134040Y332831I0J-1279D01*
G01X135157Y333488D02*
X138957D01*
X139824Y333150D02*
G03X138957Y333488I-867J-941D01*
G01X139824Y333150D02*
G03X140491I333J362D01*
G01X141357Y333488D02*
G03X140491Y333150I0J-1279D01*
G01X141357Y333488D02*
X145157D01*
X146437Y332209D02*
G03X145157Y333488I-1280J-0D01*
G01X146437Y332209D02*
Y329209D01*
X145157Y327929D02*
G03X146437Y329209I0J1280D01*
G01X145157Y327929D02*
X141357D01*
X140491Y328267D02*
G03X141357Y327929I866J942D01*
G01X140491Y328267D02*
G03X139824I-334J-362D01*
G01X138957Y327929D02*
G03X139824Y328267I0J1280D01*
G01X138957Y327929D02*
X135157D01*
X134040Y328586D02*
G03X135157Y327929I1117J623D01*
G01X134040Y328586D02*
G03X133610Y328839I-430J-240D01*
G01X133425*
G03X133077Y327998I0J-493*
G01X136620Y324455*
G03X136968Y324311I348J348*
G01X140945*
X142091Y323600D02*
G03X140945Y324311I-1146J-569D01*
G01X142091Y323600D02*
G03X142532Y323327I441J219D01*
G01X145719*
X148016Y322375D02*
G03X145719Y323327I-2297J-2296D01*
G01X148016Y322375D02*
X149361Y321030D01*
G03X149675Y320887I348J348*
G01X150454Y320552D02*
G03X149675Y320887I-867J-942D01*
G01X150454Y320552D02*
G03X151121I333J362D01*
G01X151987Y320890D02*
G03X151121Y320552I0J-1280D01*
G01X151987Y320890D02*
X155787D01*
X157067Y319610D02*
G03X155787Y320890I-1280J0D01*
G01X157067Y319610D02*
Y316610D01*
X155787Y315331D02*
G03X157067Y316610I0J1279D01*
G01X155787Y315331D02*
X151987D01*
X151898Y315334D02*
G03X151987Y315331I89J1276D01*
G01X151898Y315334D02*
G03X151516Y314495I-34J-491D01*
G01X155547Y310464*
G03X155857Y310321I348J348*
G01X158390Y309272D02*
G03X155857Y310321I-2878J-3366D01*
G01X158390Y309272D02*
G03X158710Y309154I320J374D01*
G01X167743*
X170040Y308202D02*
G03X167743Y309154I-2297J-2296D01*
G01X170040Y308202D02*
X176733Y301509D01*
X177684Y299213D02*
G03X176733Y301509I-3248J-0D01*
G01X177684Y299213D02*
Y237598D01*
G03X178176Y237106I492J0*
G01X197638*
X224016*
Y230610D02*
G03Y237106I-0J3248D01*
G01Y230610D02*
X201575D01*
X197638*
X177389*
G03X177093Y230512I-0J-492*
G01X171070Y236934D02*
G03X177093Y230512I3366J-2879D01*
G01X171070Y236934D02*
G03X171188Y237254I-374J320D01*
G01Y297663*
G03X171044Y298011I-492J0*
G01X166542Y302513*
G03X166194Y302657I-348J-348*
G01X158710*
G03X158390Y302539I0J-492*
G01X151096Y305561D02*
G03X158390Y302539I4416J345D01*
G01X151096Y305561D02*
G03X150953Y305870I-491J-39D01*
G01X145735Y311089*
X144783Y313386D02*
G03X145735Y311089I3248J-0D01*
G01X144783Y313386D02*
Y315661D01*
G03X144707Y315925I-492J0*
G01X144523Y316414D02*
G03X144707Y315925I1264J196D01*
G01X144523Y316414D02*
G03X144037Y316831I-486J-75D01*
G01X142532*
G03X142091Y316557I-0J-492*
G01X140945Y315846D02*
G03X142091Y316557I-0J1280D01*
G01X140945Y315846D02*
X138557D01*
G03X138209Y315702I0J-492*
G01X136634Y314128*
G03X136982Y313287I348J-348*
G01X137992*
X139272Y312008D02*
G03X137992Y313287I-1280J-0D01*
G01X139272Y312008D02*
Y306102D01*
X137992Y304823D02*
G03X139272Y306102I0J1279D01*
G01X137992Y304823D02*
X135236D01*
G03X134744Y304331I0J-492*
G01Y287205*
Y284252*
Y281299*
X133465Y280020D02*
G03X134744Y281299I-0J1279D01*
G01X133465Y280020D02*
X129528D01*
X128248Y281299D02*
G03X129528Y280020I1280J0D01*
G01X128248Y281299D02*
Y284252D01*
Y304331*
G03X127756Y304823I-492J-0*
G01X125000*
X123720Y306102D02*
G03X125000Y304823I1280J0D01*
G01X123720Y306102D02*
Y312008D01*
X125000Y313287D02*
G03X123720Y312008I0J-1279D01*
G01X125000Y313287D02*
X127761D01*
G03X128253Y313754I0J493*
G01X128645Y315138D02*
G03X128253Y313754I2851J-1555D01*
G01X128645Y315138D02*
G03X128140Y315860I-433J235D01*
G01X127953Y315846D02*
G03X128140Y315860I-0J1280D01*
G01X127953Y315846D02*
X122047D01*
X120768Y317126D02*
G03X122047Y315846I1279J-0D01*
G01X120768Y317126D02*
Y323031D01*
X121328Y324090D02*
G03X120768Y323031I719J-1059D01*
G01X121328Y324090D02*
G03X121399Y324845I-277J407D01*
G01X120588Y325656*
X119636Y327953D02*
G03X120588Y325656I3248J-0D01*
G01X119636Y327953D02*
Y330709D01*
Y344094*
Y349312*
X120588Y351609D02*
G03X119636Y349312I2296J-2297D01*
G01X120588Y351609D02*
X122671Y353692D01*
G03X122814Y354006I-348J348*
G01X123149Y354785D02*
G03X122814Y354006I942J-867D01*
G01X123149Y354785D02*
G03Y355451I-362J333D01*
G01X122811Y356318D02*
G03X123149Y355451I1280J0D01*
G01X122811Y356318D02*
Y360118D01*
X124091Y361398D02*
G03X122811Y360118I-0J-1280D01*
G01X124091Y361398D02*
X127091D01*
X128190Y360772D02*
G03X127091Y361398I-1099J-654D01*
G01X128190Y360772D02*
G03X128613Y360532I423J252D01*
G01X130118*
G03X130610Y361024I0J492*
G01Y361417*
X131890Y362697D02*
G03X130610Y361417I-0J-1280D01*
G01X131890Y362697D02*
X138976D01*
X140256Y361417D02*
G03X138976Y362697I-1280J0D01*
G01X140256Y361417D02*
Y361024D01*
G03X140748Y360532I492J-0*
G01X148310*
G03X148636Y360655I0J492*
G01X152151D02*
G03X148636I-1757J-1994D01*
G01X152151D02*
G03X152477Y360532I326J369D01*
G01X153740*
G03X154232Y361024I0J492*
G01Y361417*
X155512Y362697D02*
G03X154232Y361417I-0J-1280D01*
G01X155512Y362697D02*
X162598D01*
X163878Y361417D02*
G03X162598Y362697I-1280J0D01*
G01X163878Y361417D02*
Y359837D01*
G03X164022Y359489I492J-0*
G01X170709Y352802*
G03X171057Y352658I348J348*
G01X171057D02*
X183274D01*
X183274D02*
G03X183621Y352802I-0J492D01*
G01X184600Y353780*
G03X184744Y354128I-348J348*
G01Y354682*
G03X184214Y355173I-492J0*
G01X184115Y355169D02*
G03X184214Y355173I-0J1280D01*
G01X184115Y355169D02*
X182815D01*
X182147Y355357D02*
G03X182815Y355169I668J1092D01*
G01X182147Y355357D02*
G03X181633I-257J-419D01*
G01X180965Y355169D02*
G03X181633Y355357I-0J1280D01*
G01X180965Y355169D02*
X179665D01*
X178997Y355357D02*
G03X179665Y355169I668J1092D01*
G01X178997Y355357D02*
G03X178483I-257J-419D01*
G01X177815Y355169D02*
G03X178483Y355357I0J1280D01*
G01X177815Y355169D02*
X176515D01*
X175847Y355357D02*
G03X176515Y355169I668J1092D01*
G01X175847Y355357D02*
G03X175334I-256J-419D01*
G01X174666Y355169D02*
G03X175334Y355357I-0J1280D01*
G01X174666Y355169D02*
X173366D01*
X172086Y356449D02*
G03X173366Y355169I1280J-0D01*
G01X172086Y356449D02*
Y362449D01*
X173366Y363728D02*
G03X172086Y362449I-0J-1279D01*
G01X173366Y363728D02*
X174666D01*
X175334Y363540D02*
G03X174666Y363728I-668J-1091D01*
G01X175334Y363540D02*
G03X175847I257J420D01*
G01X176515Y363728D02*
G03X175847Y363540I0J-1279D01*
G01X176515Y363728D02*
X177815D01*
X178483Y363540D02*
G03X177815Y363728I-668J-1091D01*
G01X178483Y363540D02*
G03X178997I257J420D01*
G01X179665Y363728D02*
G03X178997Y363540I-0J-1279D01*
G01X179665Y363728D02*
X180965D01*
X181633Y363540D02*
G03X180965Y363728I-668J-1091D01*
G01X181633Y363540D02*
G03X182147I257J420D01*
G01X182815Y363728D02*
G03X182147Y363540I-0J-1279D01*
G01X182815Y363728D02*
X184115D01*
X184782Y363540D02*
G03X184115Y363728I-667J-1091D01*
G01X184782Y363540D02*
G03X185296I257J420D01*
G01X185964Y363728D02*
G03X185296Y363540I0J-1279D01*
G01X185964Y363728D02*
X187264D01*
X187932Y363540D02*
G03X187264Y363728I-668J-1091D01*
G01X187932Y363540D02*
G03X188446I257J420D01*
G01X189114Y363728D02*
G03X188446Y363540I-0J-1279D01*
G01X189114Y363728D02*
X190414D01*
X191082Y363540D02*
G03X190414Y363728I-668J-1091D01*
G01X191082Y363540D02*
G03X191595I257J420D01*
G01X192263Y363728D02*
G03X191595Y363540I0J-1279D01*
G01X192263Y363728D02*
X193563D01*
X194231Y363540D02*
G03X193563Y363728I-668J-1091D01*
G01X194231Y363540D02*
G03X194745I257J420D01*
G01X195413Y363728D02*
G03X194745Y363540I-0J-1279D01*
G01X195413Y363728D02*
X196713D01*
X197993Y362449D02*
G03X196713Y363728I-1280J-0D01*
G01X197993Y362449D02*
Y356449D01*
X197950Y356120D02*
G03X197993Y356449I-1237J329D01*
G01X197950Y356120D02*
G03X197933Y355994I475J-126D01*
G01Y353050*
G03X198548Y352573I492J-0*
G01X200970Y351993D02*
G03X198548Y352573I-1757J-1993D01*
G01X200970Y351993D02*
G03X201296Y351870I326J369D01*
G01X203494*
X204816Y351322D02*
G03X203494Y351870I-1322J-1322D01*
G01X204816Y351322D02*
X210301Y345837D01*
G03X210649Y345693I348J348*
G01X212480*
X213598Y345036D02*
G03X212480Y345693I-1118J-623D01*
G01X213598Y345036D02*
G03X214028Y344783I430J240D01*
G01X214712*
G03X215142Y345036I0J493*
G01X216260Y345693D02*
G03X215142Y345036I-0J-1280D01*
G01X216260Y345693D02*
X218091D01*
G03X218439Y345837I-0J492*
G01X225499Y352897*
X226821Y353445D02*
G03X225499Y352897I0J-1870D01*
G01X226821Y353445D02*
X260439D01*
G03X260787Y353589I-0J492*
G01X262553Y355355*
G03X262697Y355703I-348J348*
G01Y364567*
X263245Y365889D02*
G03X262697Y364567I1322J-1322D01*
G01X263245Y365889D02*
X268363Y371007D01*
X269685Y371555D02*
G03X268363Y371007I0J-1870D01*
G01X269685Y371555D02*
X286667D01*
G03X287099Y371811I-0J492*
G01X294388Y366850D02*
G03X287099Y371811I-3404J2835D01*
G01X294388Y366850D02*
G03X294766Y366043I378J-315D01*
G01X297085*
G03X297463Y366850I-0J492*
G01X298740Y373571D02*
G03X297463Y366850I2126J-3886D01*
G01X298740Y373571D02*
G03X298996Y374002I-236J431D01*
G01Y382014*
G03X298852Y382362I-492J-0*
G01X296406Y384808*
G03X295566Y384489I-348J-348*
G01X291156Y382653D02*
G03X295566Y384489I1757J1993D01*
G01X291156Y382653D02*
G03X290830Y382776I-326J-370D01*
G01X270079*
X268756Y383323D02*
G03X270079Y382776I1323J1323D01*
G01X268756Y383323D02*
X263245Y388835D01*
X262697Y390157D02*
G03X263245Y388835I1870J0D01*
G01X262697Y390157D02*
Y399415D01*
G03X262553Y399763I-492J0*
G01X260787Y401529*
G03X260439Y401673I-348J-348*
G01X186412*
G03X186064Y401529I-0J-492*
G01X185479Y400944*
G03X185335Y400596I348J-348*
G01Y399648*
G03X185865Y399158I492J0*
G01X185964Y399161D02*
G03X185865Y399158I0J-1279D01*
G01X185964Y399161D02*
X187264D01*
X187932Y398973D02*
G03X187264Y399161I-668J-1091D01*
G01X187932Y398973D02*
G03X188446I257J420D01*
G01X189114Y399161D02*
G03X188446Y398973I-0J-1279D01*
G01X189114Y399161D02*
X190414D01*
X191082Y398973D02*
G03X190414Y399161I-668J-1091D01*
G01X191082Y398973D02*
G03X191595I257J420D01*
G01X192263Y399161D02*
G03X191595Y398973I0J-1279D01*
G01X192263Y399161D02*
X193563D01*
X194231Y398973D02*
G03X193563Y399161I-668J-1091D01*
G01X194231Y398973D02*
G03X194745I257J420D01*
G01X195413Y399161D02*
G03X194745Y398973I-0J-1279D01*
G01X195413Y399161D02*
X196713D01*
X197993Y397882D02*
G03X196713Y399161I-1280J-0D01*
G01X197993Y397882D02*
Y391882D01*
X196713Y390602D02*
G03X197993Y391882I-0J1280D01*
G01X196713Y390602D02*
X195413D01*
X194745Y390791D02*
G03X195413Y390602I668J1091D01*
G01X194745Y390790D02*
G03X194231I-257J-419D01*
G01X193563Y390602D02*
G03X194231Y390791I0J1280D01*
G01X193563Y390602D02*
X192263D01*
X191595Y390791D02*
G03X192263Y390602I668J1091D01*
G01X191595Y390790D02*
G03X191082I-256J-419D01*
G01X190414Y390602D02*
G03X191082Y390791I-0J1280D01*
G01X190414Y390602D02*
X189114D01*
X189111*
G03X188720Y389810I-1J-492*
G01X184508D02*
G03X188720I2106J-1621D01*
G01X184508D02*
G03X184118Y390602I-390J300D01*
G01X184114*
X182815*
X182147Y390791D02*
G03X182815Y390602I668J1091D01*
G01X182147Y390790D02*
G03X181633I-257J-419D01*
G01X180965Y390602D02*
G03X181633Y390791I-0J1280D01*
G01X180965Y390602D02*
X179665D01*
X179566Y390606D02*
G03X179665Y390602I99J1276D01*
G01X179566Y390606D02*
G03X179035Y390116I-38J-490D01*
G01Y389879*
G03X179158Y389553I493J-0*
G01X175172D02*
G03X179158I1993J-1758D01*
G01X175172D02*
G03X175295Y389879I-369J326D01*
G01Y390116*
G03X174765Y390606I-492J-0*
G01X174666Y390602D02*
G03X174765Y390606I-0J1280D01*
G01X174666Y390602D02*
X173366D01*
X172086Y391882D02*
G03X173366Y390602I1280J-0D01*
G01X172086Y391882D02*
Y397882D01*
X172129Y398211D02*
G03X172086Y397882I1237J-329D01*
G01X172129Y398211D02*
G03X172146Y398337I-475J126D01*
G01Y401854*
G03X172023Y402179I-492J-0*
G01X171766Y402523D02*
G03X172023Y402179I2250J1414D01*
G01X171766Y402523D02*
G03X171001Y402609I-417J-262D01*
G01X169337Y400944*
G03X169193Y400596I348J-348*
G01Y390611*
G03X169685Y390119I492J-0*
G01X170323*
X171602Y388839D02*
G03X170323Y390119I-1279J-0D01*
G01X171602Y388839D02*
Y387539D01*
X171414Y386871D02*
G03X171602Y387539I-1091J668D01*
G01X171414Y386871D02*
G03Y386357I420J-257D01*
G01X171602Y385689D02*
G03X171414Y386357I-1279J0D01*
G01X171602Y385689D02*
Y384389D01*
X171414Y383721D02*
G03X171602Y384389I-1091J668D01*
G01X171414Y383721D02*
G03Y383208I420J-256D01*
G01X171602Y382540D02*
G03X171414Y383208I-1279J-0D01*
G01X171602Y382540D02*
Y381240D01*
X171414Y380572D02*
G03X171602Y381240I-1091J668D01*
G01X171414Y380572D02*
G03Y380058I420J-257D01*
G01X171602Y379390D02*
G03X171414Y380058I-1279J0D01*
G01X171602Y379390D02*
Y378090D01*
X171414Y377422D02*
G03X171602Y378090I-1091J668D01*
G01X171414Y377422D02*
G03Y376908I420J-257D01*
G01X171602Y376241D02*
G03X171414Y376908I-1279J-0D01*
G01X171602Y376241D02*
Y374941D01*
X171414Y374273D02*
G03X171602Y374941I-1091J668D01*
G01X171414Y374273D02*
G03Y373759I420J-257D01*
G01X171602Y373091D02*
G03X171414Y373759I-1279J-0D01*
G01X171602Y373091D02*
Y371791D01*
X171414Y371123D02*
G03X171602Y371791I-1091J668D01*
G01X171414Y371123D02*
G03Y370609I420J-257D01*
G01X171602Y369941D02*
G03X171414Y370609I-1279J0D01*
G01X171602Y369941D02*
Y368641D01*
X171414Y367973D02*
G03X171602Y368641I-1091J668D01*
G01X171414Y367973D02*
G03Y367460I420J-256D01*
G01X171602Y366792D02*
G03X171414Y367460I-1279J-0D01*
G01X171602Y366792D02*
Y365492D01*
X170323Y364212D02*
G03X171602Y365492I-0J1280D01*
G01X170323Y364212D02*
X164323D01*
X163043Y365492D02*
G03X164323Y364212I1280J-0D01*
G01X163043Y365492D02*
Y366792D01*
X163231Y367460D02*
G03X163043Y366792I1092J-668D01*
G01X163231Y367460D02*
G03Y367973I-419J257D01*
G01X163043Y368641D02*
G03X163231Y367973I1280J0D01*
G01X163043Y368641D02*
Y369941D01*
X163231Y370609D02*
G03X163043Y369941I1092J-668D01*
G01X163231Y370609D02*
G03Y371123I-419J257D01*
G01X163043Y371791D02*
G03X163231Y371123I1280J-0D01*
G01X163043Y371791D02*
Y373091D01*
X163231Y373759D02*
G03X163043Y373091I1092J-668D01*
G01X163231Y373759D02*
G03Y374273I-419J257D01*
G01X163043Y374941D02*
G03X163231Y374273I1280J-0D01*
G01X163043Y374941D02*
Y376241D01*
X163047Y376340D02*
G03X163043Y376241I1276J-99D01*
G01X163047Y376340D02*
G03X162556Y376870I-491J38D01*
G01X157559*
G03X157067Y376378I0J-492*
G01Y375665*
X155787Y374386D02*
G03X157067Y375665I0J1279D01*
G01X155787Y374386D02*
X151987D01*
X151121Y374724D02*
G03X151987Y374386I866J941D01*
G01X151121Y374724D02*
G03X150454I-334J-362D01*
G01X149587Y374386D02*
G03X150454Y374724I0J1279D01*
G01X149587Y374386D02*
X145787D01*
X144508Y375665D02*
G03X145787Y374386I1279J0D01*
G01X144508Y375665D02*
Y378665D01*
X145787Y379945D02*
G03X144508Y378665I0J-1280D01*
G01X145787Y379945D02*
X149587D01*
X150454Y379607D02*
G03X149587Y379945I-867J-942D01*
G01X150454Y379607D02*
G03X151121I333J362D01*
G01X151987Y379945D02*
G03X151121Y379607I0J-1280D01*
G01X151987Y379945D02*
X153819D01*
G03X154161Y380084I-0J492*
G01X155462Y380610D02*
G03X154161Y380084I0J-1870D01*
G01X155462Y380610D02*
X162556D01*
G03X163047Y381141I0J492*
G01X163043Y381240D02*
G03X163047Y381141I1280J-0D01*
G01X163043Y381240D02*
Y382480D01*
G03X162551Y382972I-492J0*
G01X146324*
G03X146037Y382880I0J-492*
G01Y387199D02*
G03Y382880I-1549J-2160D01*
G01Y387199D02*
G03X146324Y387106I287J399D01*
G01X162551*
G03X163043Y387598I0J492*
G01Y388839*
X164323Y390119D02*
G03X163043Y388839I-0J-1280D01*
G01X164323Y390119D02*
X164961D01*
G03X165453Y390611I-0J492*
G01Y401575*
X166000Y402897D02*
G03X165453Y401575I1323J-1322D01*
G01X166000Y402897D02*
X174071Y410968D01*
G03X174004Y411720I-348J348*
G01X178622Y419261D02*
G03X174004Y411720I-2087J-3907D01*
G01X178622Y419261D02*
G03X179202Y420043I232J434D01*
G01X178266Y420979*
G03X177780Y421104I-348J-348*
G01X180786Y424110D02*
G03X177780Y421104I-4251J1244D01*
G01X180786Y424110D02*
G03X180911Y423624I473J-138D01*
G01X181846Y422688*
G03X182628Y423268I348J348*
G01X184200Y421591D02*
G03X182628Y423268I2335J3763D01*
G01X184200Y421591D02*
G03X183513Y420929I-260J-418D01*
G01X183760Y420000D02*
G03X183513Y420929I-1870J0D01*
G01X183760Y420000D02*
Y419714D01*
G03X184480Y419278I492J-0*
G01Y411431D02*
G03Y419278I2055J3923D01*
G01Y411431D02*
G03X183760Y410995I-228J-436D01*
G01Y409843*
X183509Y408907D02*
G03X183760Y409843I-1619J936D01*
G01X183509Y408907D02*
G03X183936Y408169I427J-246D01*
G01X263386*
X264708Y407622D02*
G03X263386Y408169I-1322J-1323D01*
G01X264708Y407622D02*
X269039Y403291D01*
X269587Y401969D02*
G03X269039Y403291I-1870J-0D01*
G01X269587Y401969D02*
Y392317D01*
G03X269731Y391969I492J0*
G01X271890Y389810*
G03X272238Y389665I348J348*
G01X296063*
X297385Y389118D02*
G03X296063Y389665I-1322J-1323D01*
G01X297385Y389118D02*
X301667Y384836D01*
G03X302500Y385100I348J348*
G01X307770Y384812D02*
G03X302500Y385100I-2652J-166D01*
G01X307770Y384812D02*
G03X307914Y384495I492J31D01*
G01X312189Y380220*
X312736Y378898D02*
G03X312188Y380220I-1870J-0D01*
G01X312736Y378898D02*
Y374002D01*
G03X312992Y373571I492J0*
G01X314773Y367599D02*
G03X312992Y373571I-3907J2086D01*
G01X314773Y367599D02*
G03X315555Y367019I434J-232D01*
G01X316293Y367756*
G03X316437Y368104I-348J348*
G01Y372835*
X317717Y374114D02*
G03X316437Y372835I-0J-1279D01*
G01X317717Y374114D02*
X324016D01*
X325295Y372835D02*
G03X324016Y374114I-1279J-0D01*
G01X342028Y430709D02*
Y407480D01*
X341480Y406158D02*
G03X342028Y407480I-1323J1322D01*
G01X341480Y406158D02*
X332425Y397103D01*
X331102Y396555D02*
G03X332425Y397103I0J1870D01*
G01X331102Y396555D02*
X303530D01*
G03X303098Y396299I-0J-492*
G01Y400551D02*
G03Y396299I-3885J-2126D01*
G01Y400551D02*
G03X303530Y400295I432J236D01*
G01X330124*
G03X330472Y400439I-0J492*
G01X338143Y408111*
G03X338287Y408459I-348J348*
G01Y429730*
G03X338143Y430078I-492J0*
G01X337558Y430663*
G03X337211Y430807I-347J-348*
G01X336294*
G03X335815Y430430I-0J-492*
G01X335512Y429861D02*
G03X335815Y430430I-941J867D01*
G01X335512Y429861D02*
G03Y429194I362J-333D01*
G01X335850Y428328D02*
G03X335512Y429194I-1279J-0D01*
G01X335850Y428328D02*
Y424528D01*
X334571Y423248D02*
G03X335850Y424528I-0J1280D01*
G01X334571Y423248D02*
X331571D01*
X330291Y424528D02*
G03X331571Y423248I1280J-0D01*
G01X330291Y424528D02*
Y428328D01*
X330630Y429194D02*
G03X330291Y428328I941J-866D01*
G01X330630Y429194D02*
G03Y429861I-363J334D01*
G01X330291Y430728D02*
G03X330630Y429861I1280J-0D01*
G01X330291Y430728D02*
Y434528D01*
X330948Y435645D02*
G03X330291Y434528I623J-1117D01*
G01X330948Y435645D02*
G03X331201Y436075I-239J430D01*
G01Y437153*
G03X330948Y437583I-492J0*
G01X330291Y438701D02*
G03X330948Y437583I1280J-0D01*
G01X330291Y438701D02*
Y442501D01*
X330630Y443367D02*
G03X330291Y442501I941J-866D01*
G01X330630Y443367D02*
G03Y444034I-363J334D01*
G01X330291Y444901D02*
G03X330630Y444034I1280J-0D01*
G01X330291Y444901D02*
Y448701D01*
X330948Y449819D02*
G03X330291Y448701I623J-1118D01*
G01X330948Y449819D02*
G03X331201Y450248I-239J429D01*
G01Y451326*
G03X330948Y451756I-492J0*
G01X330291Y452874D02*
G03X330948Y451756I1280J0D01*
G01X330291Y452874D02*
Y456674D01*
X330630Y457541D02*
G03X330291Y456674I941J-867D01*
G01X330630Y457541D02*
G03Y458207I-363J333D01*
G01X330291Y459074D02*
G03X330630Y458207I1280J0D01*
G01X330291Y459074D02*
Y462874D01*
X331571Y464154D02*
G03X330291Y462874I-0J-1280D01*
G01X331571Y464154D02*
X334571D01*
X335850Y462874D02*
G03X334571Y464154I-1279J0D01*
G01X335850Y462874D02*
Y459074D01*
X335512Y458207D02*
G03X335850Y459074I-941J867D01*
G01X335512Y458207D02*
G03Y457541I362J-333D01*
G01X335850Y456674D02*
G03X335512Y457541I-1279J0D01*
G01X335850Y456674D02*
Y452874D01*
X335194Y451756D02*
G03X335850Y452874I-623J1118D01*
G01X335194Y451756D02*
G03X334941Y451326I239J-430D01*
G01Y450248*
G03X335194Y449819I492J0*
G01X335796Y449070D02*
G03X335194Y449819I-1225J-369D01*
G01X335796Y449070D02*
G03X336267Y448720I471J143D01*
G01X336893*
G03X337219Y448844I0J493*
G01Y444857D02*
G03Y448844I1757J1993D01*
G01Y444857D02*
G03X336893Y444980I-326J-369D01*
G01X336294*
G03X335815Y444603I-0J-492*
G01X335512Y444034D02*
G03X335815Y444603I-941J867D01*
G01X335512Y444034D02*
G03Y443367I362J-333D01*
G01X335850Y442501D02*
G03X335512Y443367I-1279J-0D01*
G01X335850Y442501D02*
Y438701D01*
X335194Y437583D02*
G03X335850Y438701I-623J1118D01*
G01X335194Y437583D02*
G03X334941Y437153I239J-430D01*
G01Y436075*
G03X335194Y435645I492J0*
G01X335796Y434897D02*
G03X335194Y435645I-1225J-369D01*
G01X335796Y434897D02*
G03X336267Y434547I471J142D01*
G01X338189*
X339511Y434000D02*
G03X338189Y434547I-1322J-1323D01*
G01X339511Y434000D02*
X341480Y432031D01*
X342028Y430709D02*
G03X341480Y432031I-1871J-0D01*
G01X328764Y462874D02*
Y459074D01*
X328426Y458207D02*
G03X328764Y459074I-942J867D01*
G01X328426Y458207D02*
G03Y457541I362J-333D01*
G01X328764Y456674D02*
G03X328426Y457541I-1280J0D01*
G01X328764Y456674D02*
Y452874D01*
X328107Y451756D02*
G03X328764Y452874I-623J1118D01*
G01X328107Y451756D02*
G03X327854Y451326I239J-430D01*
G01Y450248*
G03X328107Y449819I492J0*
G01X328764Y448701D02*
G03X328107Y449819I-1280J-0D01*
G01X328764Y448701D02*
Y444901D01*
X328426Y444034D02*
G03X328764Y444901I-942J867D01*
G01X328426Y444034D02*
G03Y443367I362J-333D01*
G01X328764Y442501D02*
G03X328426Y443367I-1280J-0D01*
G01X328764Y442501D02*
Y438701D01*
X328107Y437583D02*
G03X328764Y438701I-623J1118D01*
G01X328107Y437583D02*
G03X327854Y437153I239J-430D01*
G01Y436075*
G03X328107Y435645I492J0*
G01X328764Y434528D02*
G03X328107Y435645I-1280J-0D01*
G01X328764Y434528D02*
Y430728D01*
X328426Y429861D02*
G03X328764Y430728I-942J867D01*
G01X328426Y429861D02*
G03Y429194I362J-333D01*
G01X328764Y428328D02*
G03X328426Y429194I-1280J-0D01*
G01X328764Y428328D02*
Y424528D01*
X327484Y423248D02*
G03X328764Y424528I0J1280D01*
G01X327484Y423248D02*
X324484D01*
X323205Y424528D02*
G03X324484Y423248I1279J-0D01*
G01X323205Y424528D02*
Y428328D01*
X323543Y429194D02*
G03X323205Y428328I941J-866D01*
G01X323543Y429194D02*
G03Y429861I-362J334D01*
G01X323249Y430394D02*
G03X323543Y429861I1235J334D01*
G01X323249Y430394D02*
G03X322774Y430757I-475J-129D01*
G01X322632*
G03X322284Y430613I0J-492*
G01X320961Y429291*
G03X320817Y428943I348J-348*
G01Y412992*
X320264Y411664D02*
G03X320817Y412992I-1317J1328D01*
G01X320264Y411664D02*
X314702Y406152D01*
X313386Y405610D02*
G03X314702Y406152I-0J1870D01*
G01X313386Y405610D02*
X288181D01*
G03X287833Y405466I0J-492*
G01X279641Y397274*
G03X279517Y396788I348J-348*
G01X276510Y399795D02*
G03X279517Y396788I-1244J-4251D01*
G01X276510Y399795D02*
G03X276997Y399919I139J472D01*
G01X285880Y408803*
X287203Y409350D02*
G03X285880Y408803I-0J-1870D01*
G01X287203Y409350D02*
X312414D01*
G03X312760Y409493I-0J493*
G01X316931Y413627*
G03X317077Y413977I-346J350*
G01Y429921*
X317625Y431244D02*
G03X317077Y429921I1322J-1323D01*
G01X317625Y431244D02*
X320331Y433950D01*
X321654Y434498D02*
G03X320331Y433950I-0J-1870D01*
G01X321654Y434498D02*
X322774D01*
G03X323249Y434861I-0J492*
G01X323862Y435645D02*
G03X323249Y434861I622J-1117D01*
G01X323862Y435645D02*
G03X324114Y436075I-240J430D01*
G01Y437153*
G03X323862Y437583I-492J0*
G01X323205Y438701D02*
G03X323862Y437583I1279J-0D01*
G01X323205Y438701D02*
Y442501D01*
X323543Y443367D02*
G03X323205Y442501I941J-866D01*
G01X323543Y443367D02*
G03Y444034I-362J334D01*
G01X323240Y444603D02*
G03X323543Y444034I1244J298D01*
G01X323240Y444603D02*
G03X322761Y444980I-479J-115D01*
G01X321375*
G03X321049Y444857I-0J-492*
G01Y448844D02*
G03Y444857I-1758J-1994D01*
G01Y448844D02*
G03X321375Y448720I326J369D01*
G01X322788*
G03X323259Y449070I0J493*
G01X323862Y449819D02*
G03X323259Y449070I622J-1118D01*
G01X323862Y449819D02*
G03X324114Y450248I-240J429D01*
G01Y451326*
G03X323862Y451756I-492J0*
G01X323205Y452874D02*
G03X323862Y451756I1279J0D01*
G01X323205Y452874D02*
Y456674D01*
X323543Y457541D02*
G03X323205Y456674I941J-867D01*
G01X323543Y457541D02*
G03Y458207I-362J333D01*
G01X323205Y459074D02*
G03X323543Y458207I1279J0D01*
G01X323205Y459074D02*
Y462874D01*
X324484Y464154D02*
G03X323205Y462874I0J-1280D01*
G01X324484Y464154D02*
X327484D01*
X328764Y462874D02*
G03X327484Y464154I-1280J0D01*
G01X303642Y481102D02*
G03X303642I-4429J0D01*
G01X258297Y475404D02*
G03X258297I-4429J0D01*
G01X241240Y413386D02*
G03X241240I-2657J0D01*
G01X233051Y414886D02*
Y411886D01*
X231772Y410606D02*
G03X233051Y411886I-0J1280D01*
G01X231772Y410606D02*
X227972D01*
X227105Y410944D02*
G03X227972Y410606I867J942D01*
G01X227105Y410944D02*
G03X226438I-333J-362D01*
G01X225572Y410606D02*
G03X226438Y410944I-0J1280D01*
G01X225572Y410606D02*
X221772D01*
X220654Y411263D02*
G03X221772Y410606I1118J623D01*
G01X220654Y411263D02*
G03X220224Y411516I-430J-239D01*
G01X219146*
G03X218716Y411263I0J-492*
G01X217598Y410606D02*
G03X218716Y411263I0J1280D01*
G01X217598Y410606D02*
X213798D01*
X212932Y410944D02*
G03X213798Y410606I866J942D01*
G01X212932Y410944D02*
G03X212265I-334J-362D01*
G01X211398Y410606D02*
G03X212265Y410944I0J1280D01*
G01X211398Y410606D02*
X207598D01*
X206319Y411886D02*
G03X207598Y410606I1279J-0D01*
G01X206319Y411886D02*
Y414886D01*
X207229Y416111D02*
G03X206319Y414886I369J-1225D01*
G01X207229Y416111D02*
G03X207579Y416582I-142J471D01*
G01Y418389*
G03X207456Y418715I-492J0*
G01X211442D02*
G03X207456I-1993J1757D01*
G01X211442D02*
G03X211319Y418389I369J-326D01*
G01Y416609*
G03X211696Y416130I492J-0*
G01X212265Y415827D02*
G03X211696Y416130I-867J-941D01*
G01X212265Y415827D02*
G03X212932I333J362D01*
G01X213798Y416165D02*
G03X212932Y415827I0J-1279D01*
G01X213798Y416165D02*
X217598D01*
X218716Y415509D02*
G03X217598Y416165I-1118J-623D01*
G01X218716Y415509D02*
G03X219146Y415256I430J239D01*
G01X220224*
G03X220654Y415509I-0J492*
G01X221772Y416165D02*
G03X220654Y415509I-0J-1279D01*
G01X221772Y416165D02*
X225572D01*
X226438Y415827D02*
G03X225572Y416165I-866J-941D01*
G01X226438Y415827D02*
G03X227105I334J362D01*
G01X227972Y416165D02*
G03X227105Y415827I-0J-1279D01*
G01X227972Y416165D02*
X231772D01*
X233051Y414886D02*
G03X231772Y416165I-1279J-0D01*
G01X170965Y418504D02*
Y412205D01*
X169685Y410925D02*
G03X170965Y412205I0J1280D01*
G01X169685Y410925D02*
X163386D01*
X162106Y412205D02*
G03X163386Y410925I1280J-0D01*
G01X162106Y412205D02*
Y418504D01*
X163386Y419783D02*
G03X162106Y418504I-0J-1279D01*
G01X163386Y419783D02*
X169685D01*
X170965Y418504D02*
G03X169685Y419783I-1280J-0D01*
G01X170965Y425354D02*
G03X170965I-4430J0D01*
G01X125768Y287205D02*
Y281299D01*
X124488Y280020D02*
G03X125768Y281299I0J1279D01*
G01X124488Y280020D02*
X120551D01*
X119272Y281299D02*
G03X120551Y280020I1279J0D01*
G01X119272Y281299D02*
Y287205D01*
X120551Y288484D02*
G03X119272Y287205I0J-1279D01*
G01X120551Y288484D02*
X124488D01*
X125768Y287205D02*
G03X124488Y288484I-1280J-0D01*
G01X129232Y275787D02*
Y269882D01*
X127953Y268602D02*
G03X129232Y269882I-0J1280D01*
G01X127953Y268602D02*
X122047D01*
X120768Y269882D02*
G03X122047Y268602I1279J-0D01*
G01X120768Y269882D02*
Y275787D01*
X122047Y277067D02*
G03X120768Y275787I0J-1280D01*
G01X122047Y277067D02*
X127953D01*
X129232Y275787D02*
G03X127953Y277067I-1279J0D01*
G01X155783Y231156D02*
G03X155783I-4279J0D01*
G01X146348Y222352D02*
G03X146907Y224073I-581J1140D01*
G01X146348Y222352D02*
X141002Y219628D01*
X139281Y220187D02*
G03X141002Y219628I1140J581D01*
G01X139281Y220187D02*
X136557Y225533D01*
X137116Y227254D02*
G03X136557Y225533I581J-1140D01*
G01X137116Y227254D02*
X142462Y229978D01*
X144183Y229419D02*
G03X142462Y229978I-1140J-581D01*
G01X144183Y229419D02*
X146907Y224073D01*
X157461Y272366D02*
Y269366D01*
X156181Y268087D02*
G03X157461Y269366I0J1279D01*
G01X156181Y268087D02*
X152381D01*
X151975Y268153D02*
G03X152381Y268087I406J1213D01*
G01X151975Y268153D02*
G03X151327Y267686I-156J-467D01*
G01Y262598*
X150375Y260302D02*
G03X151327Y262598I-2296J2296D01*
G01X150375Y260302D02*
X145959Y255885D01*
G03X145815Y255537I348J-348*
G01Y251866*
G03X145868Y251642I492J-0*
G01X147742Y247966*
X147183Y246245D02*
G03X147742Y247966I-581J1140D01*
G01X147183Y246245D02*
X141837Y243521D01*
X140116Y244080D02*
G03X141837Y243521I1140J581D01*
G01X140116Y244080D02*
X137392Y249426D01*
X137951Y251147D02*
G03X137392Y249426I581J-1140D01*
G01X137951Y251147D02*
X139050Y251707D01*
G03X139319Y252146I-223J439*
G01Y257087*
X140270Y259383D02*
G03X139319Y257087I2297J-2296D01*
G01X140270Y259383D02*
X144686Y263800D01*
G03X144831Y264148I-348J348*
G01Y269094*
G03X144338Y269587I-493J0*
G01X142532*
G03X142091Y269313I-0J-493*
G01X140945Y268602D02*
G03X142091Y269313I-0J1280D01*
G01X140945Y268602D02*
X135039D01*
X133760Y269882D02*
G03X135039Y268602I1279J-0D01*
G01X133760Y269882D02*
Y275787D01*
X135039Y277067D02*
G03X133760Y275787I0J-1280D01*
G01X135039Y277067D02*
X136811D01*
G03X137303Y277559I0J492*
G01Y280928*
G03X137292Y281031I-492J-0*
G01X137264Y281299D02*
G03X137292Y281031I1279J0D01*
G01X137264Y281299D02*
Y287205D01*
X138543Y288484D02*
G03X137264Y287205I0J-1279D01*
G01X138543Y288484D02*
X142480D01*
X143760Y287205D02*
G03X142480Y288484I-1280J-0D01*
G01X143760Y287205D02*
Y284754D01*
G03X143765Y284683I492J-0*
G01X143799Y284213D02*
G03X143765Y284683I-3248J-0D01*
G01X143799Y284213D02*
Y276575D01*
G03X144291Y276083I492J-0*
G01X146113*
X148409Y275131D02*
G03X146113Y276083I-2296J-2296D01*
G01X148409Y275131D02*
X149755Y273786D01*
G03X150069Y273643I348J348*
G01X150848Y273307D02*
G03X150069Y273643I-867J-941D01*
G01X150848Y273307D02*
G03X151514I333J363D01*
G01X152381Y273646D02*
G03X151514Y273307I0J-1280D01*
G01X152381Y273646D02*
X156181D01*
X157461Y272366D02*
G03X156181Y273646I-1280J0D01*
G01X185382Y175835D02*
Y169835D01*
X184102Y168555D02*
G03X185382Y169835I0J1280D01*
G01X184102Y168555D02*
X178102D01*
X176823Y169835D02*
G03X178102Y168555I1279J-0D01*
G01X176823Y169835D02*
Y175835D01*
X178102Y177114D02*
G03X176823Y175835I0J-1279D01*
G01X178102Y177114D02*
X184102D01*
X185382Y175835D02*
G03X184102Y177114I-1280J-0D01*
G01X186319Y188386D02*
Y182480D01*
X185039Y181201D02*
G03X186319Y182480I0J1279D01*
G01X185039Y181201D02*
X179134D01*
X177854Y182480D02*
G03X179134Y181201I1280J0D01*
G01X177854Y182480D02*
Y188386D01*
X179134Y189665D02*
G03X177854Y188386I-0J-1279D01*
G01X179134Y189665D02*
X185039D01*
X186319Y188386D02*
G03X185039Y189665I-1280J-0D01*
G01X173524Y215354D02*
Y209449D01*
X172244Y208169D02*
G03X173524Y209449I0J1280D01*
G01X172244Y208169D02*
X166339D01*
X165059Y209449D02*
G03X166339Y208169I1280J-0D01*
G01X165059Y209449D02*
Y215354D01*
X166339Y216634D02*
G03X165059Y215354I-0J-1280D01*
G01X166339Y216634D02*
X172244D01*
X173524Y215354D02*
G03X172244Y216634I-1280J0D01*
G01X163878Y349606D02*
Y344094D01*
X162598Y342815D02*
G03X163878Y344094I0J1279D01*
G01X162598Y342815D02*
X155512D01*
X154232Y344094D02*
G03X155512Y342815I1280J0D01*
G01X154232Y344094D02*
Y349606D01*
X155512Y350886D02*
G03X154232Y349606I-0J-1280D01*
G01X155512Y350886D02*
X162598D01*
X163878Y349606D02*
G03X162598Y350886I-1280J0D01*
G01X140256Y349606D02*
Y344094D01*
X138976Y342815D02*
G03X140256Y344094I0J1279D01*
G01X138976Y342815D02*
X131890D01*
X130610Y344094D02*
G03X131890Y342815I1280J0D01*
G01X130610Y344094D02*
Y349606D01*
X131890Y350886D02*
G03X130610Y349606I-0J-1280D01*
G01X131890Y350886D02*
X138976D01*
X140256Y349606D02*
G03X138976Y350886I-1280J0D01*
G01X259941Y391339D02*
Y385827D01*
X258661Y384547D02*
G03X259941Y385827I0J1280D01*
G01X258661Y384547D02*
X253937D01*
X252657Y385821D02*
G03X253937Y384547I1280J6D01*
G01X252657Y385821D02*
G03X251673I-492J-3D01*
G01X250394Y384547D02*
G03X251673Y385821I-0J1280D01*
G01X250394Y384547D02*
X245669D01*
X244390Y385827D02*
G03X245669Y384547I1279J-0D01*
G01X244390Y385827D02*
Y389376D01*
G03X244246Y389724I-492J-0*
G01X243858Y390112*
G03X243510Y390256I-348J-348*
G01X242076*
G03X241729Y389415I0J-492*
G01X242106Y388508D02*
G03X241729Y389415I-1279J-0D01*
G01X242106Y388508D02*
Y385508D01*
X240827Y384228D02*
G03X242106Y385508I-0J1280D01*
G01X240827Y384228D02*
X237027D01*
X236160Y384567D02*
G03X237027Y384228I867J941D01*
G01X236160Y384567D02*
G03X235493I-333J-363D01*
G01X234627Y384228D02*
G03X235493Y384567I-0J1280D01*
G01X234627Y384228D02*
X231859D01*
G03X231511Y383388I-0J-492*
G01X232448Y382451*
G03X232796Y382307I348J348*
G01X234627*
X235493Y381969D02*
G03X234627Y382307I-866J-941D01*
G01X235493Y381969D02*
G03X236160I334J362D01*
G01X237027Y382307D02*
G03X236160Y381969I-0J-1279D01*
G01X237027Y382307D02*
X240827D01*
X242106Y381028D02*
G03X240827Y382307I-1279J-0D01*
G01X242106Y381028D02*
Y378028D01*
X240827Y376748D02*
G03X242106Y378028I-0J1280D01*
G01X240827Y376748D02*
X239339D01*
G03X238991Y375908I0J-492*
G01X241231Y373668*
G03X241579Y373524I348J348*
G01X244858*
G03X245083Y374453I-0J492*
G01X244390Y375591D02*
G03X245083Y374453I1279J-0D01*
G01X244390Y375591D02*
Y381102D01*
X245669Y382382D02*
G03X244390Y381102I0J-1280D01*
G01X245669Y382382D02*
X250394D01*
X251673Y381109D02*
G03X250394Y382382I-1279J-7D01*
G01X251673Y381109D02*
G03X252657I492J2D01*
G01X253937Y382382D02*
G03X252657Y381109I0J-1280D01*
G01X253937Y382382D02*
X258661D01*
X259941Y381102D02*
G03X258661Y382382I-1280J0D01*
G01X259941Y381102D02*
Y375591D01*
X258661Y374311D02*
G03X259941Y375591I0J1280D01*
G01X258661Y374311D02*
X258586D01*
G03X258110Y373942I0J-492*
G01X257622Y373087D02*
G03X258110Y373942I-1323J1322D01*
G01X257622Y373087D02*
X254866Y370331D01*
X253543Y369783D02*
G03X254866Y370331I0J1871D01*
G01X253543Y369783D02*
X240601D01*
X239278Y370331D02*
G03X240601Y369783I1323J1323D01*
G01X239278Y370331D02*
X233006Y376604D01*
G03X232658Y376748I-348J-348*
G01X230827*
X229547Y378028D02*
G03X230827Y376748I1280J-0D01*
G01X229547Y378028D02*
Y379859D01*
G03X229403Y380207I-492J-0*
G01X226584Y383025*
G03X226236Y383169I-348J-348*
G01X209591*
G03X209243Y382329I0J-492*
G01X214660Y376913*
X217338Y374234*
G03X217742Y374093I348J348*
G01X221358Y370866D02*
G03X217742Y374093I-3248J0D01*
G01X221358Y370866D02*
Y370818D01*
Y370340*
G03X222250Y370053I492J0*
G01Y366955D02*
G03Y370053I2159J1549D01*
G01Y366955D02*
G03X221358Y366668I-400J-287D01*
G01Y364975*
G03X222020Y364512I492J-0*
G01X222460Y364591D02*
G03X222020Y364512I-0J-1280D01*
G01X222460Y364591D02*
X226260D01*
X227539Y363311D02*
G03X226260Y364591I-1279J0D01*
G01X227539Y363311D02*
Y360311D01*
X226260Y359031D02*
G03X227539Y360311I-0J1280D01*
G01X226260Y359031D02*
X222460D01*
X221593Y359370D02*
G03X222460Y359031I867J941D01*
G01X221593Y359370D02*
G03X220927I-333J-362D01*
G01X220060Y359031D02*
G03X220927Y359370I-0J1280D01*
G01X220060Y359031D02*
X219830D01*
G03X219604Y358976I0J-492*
G01X216617D02*
G03X219604I1493J2885D01*
G01X216617D02*
G03X216390Y359031I-227J-437D01*
G01X216260*
X214980Y360311D02*
G03X216260Y359031I1280J0D01*
G01X214980Y360311D02*
Y360928D01*
G03X214965Y361051I-492J0*
G01X214862Y361861D02*
G03X214965Y361051I3248J-0D01*
G01X214862Y361861D02*
Y370818D01*
Y370866*
X214875Y371158D02*
G03X214862Y370866I3235J-292D01*
G01X214875Y371158D02*
G03X214733Y371550I-490J44D01*
G01X212707Y373576*
G03X212359Y373720I-348J-348*
G01X207522*
G03X207032Y373190I0J-492*
G01X207035Y373091D02*
G03X207032Y373190I-1279J-0D01*
G01X207035Y373091D02*
Y371791D01*
X206847Y371123D02*
G03X207035Y371791I-1091J668D01*
G01X206847Y371123D02*
G03Y370609I420J-257D01*
G01X207035Y369941D02*
G03X206847Y370609I-1279J0D01*
G01X207035Y369941D02*
Y368641D01*
X206847Y367973D02*
G03X207035Y368641I-1091J668D01*
G01X206847Y367973D02*
G03Y367460I420J-256D01*
G01X207035Y366792D02*
G03X206847Y367460I-1279J-0D01*
G01X207035Y366792D02*
Y365492D01*
X205756Y364212D02*
G03X207035Y365492I-0J1280D01*
G01X205756Y364212D02*
X199756D01*
X198476Y365492D02*
G03X199756Y364212I1280J-0D01*
G01X198476Y365492D02*
Y366792D01*
X198665Y367460D02*
G03X198476Y366792I1091J-668D01*
G01X198665Y367460D02*
G03Y367973I-420J257D01*
G01X198476Y368641D02*
G03X198665Y367973I1280J0D01*
G01X198476Y368641D02*
Y369941D01*
X198665Y370609D02*
G03X198476Y369941I1091J-668D01*
G01X198665Y370609D02*
G03Y371123I-420J257D01*
G01X198476Y371791D02*
G03X198665Y371123I1280J-0D01*
G01X198476Y371791D02*
Y373091D01*
X198665Y373759D02*
G03X198476Y373091I1091J-668D01*
G01X198665Y373759D02*
G03Y374273I-420J257D01*
G01X198476Y374941D02*
G03X198665Y374273I1280J-0D01*
G01X198476Y374941D02*
Y376241D01*
X198665Y376908D02*
G03X198476Y376241I1091J-667D01*
G01X198665Y376908D02*
G03Y377422I-420J257D01*
G01X198476Y378090D02*
G03X198665Y377422I1280J0D01*
G01X198476Y378090D02*
Y379390D01*
X198665Y380058D02*
G03X198476Y379390I1091J-668D01*
G01X198665Y380058D02*
G03Y380572I-420J257D01*
G01X198476Y381240D02*
G03X198665Y380572I1280J-0D01*
G01X198476Y381240D02*
Y382540D01*
X198665Y383208D02*
G03X198476Y382540I1091J-668D01*
G01X198665Y383208D02*
G03Y383721I-420J257D01*
G01X198476Y384389D02*
G03X198665Y383721I1280J0D01*
G01X198476Y384389D02*
Y385689D01*
X198665Y386357D02*
G03X198476Y385689I1091J-668D01*
G01X198665Y386357D02*
G03Y386871I-420J257D01*
G01X198476Y387539D02*
G03X198665Y386871I1280J-0D01*
G01X198476Y387539D02*
Y388839D01*
X199756Y390119D02*
G03X198476Y388839I-0J-1280D01*
G01X199756Y390119D02*
X205756D01*
X206085Y390076D02*
G03X205756Y390119I-329J-1237D01*
G01X206085Y390076D02*
G03X206211Y390059I126J475D01*
G01X229921*
X230792Y389844D02*
G03X229921Y390059I-871J-1655D01*
G01X230792Y389844D02*
G03X231021Y389787I229J436D01*
G01X232658*
G03X233006Y389932I-0J493*
G01X236523Y393448*
X237845Y393996D02*
G03X236523Y393448I-0J-1870D01*
G01X237845Y393996D02*
X244488D01*
X245811Y393448D02*
G03X244488Y393996I-1323J-1322D01*
G01X245811Y393448D02*
X246497Y392762D01*
G03X246845Y392618I348J348*
G01X250394*
X251673Y391345D02*
G03X250394Y392618I-1279J-6D01*
G01X251673Y391345D02*
G03X252657I492J2D01*
G01X253937Y392618D02*
G03X252657Y391345I0J-1279D01*
G01X253937Y392618D02*
X258661D01*
X259941Y391339D02*
G03X258661Y392618I-1280J-0D01*
G01X207185Y161198D02*
X239176D01*
X207185Y167198D02*
X239171D01*
X207185Y166198D02*
X238879D01*
X207185Y162198D02*
X238878D01*
X207185Y165198D02*
X238878D01*
X207185Y164198D02*
X238878D01*
X207185Y163198D02*
X238878D01*
X207782Y160198D02*
X238878D01*
X234489Y159198D02*
X238878D01*
X234669Y158198D02*
X238878D01*
X234669Y157198D02*
X238793D01*
X207185Y168198D02*
X238534D01*
X234669Y156198D02*
X237805D01*
X234669Y155198D02*
X236805D01*
X234568Y154198D02*
X235805D01*
X207185Y169198D02*
X235638D01*
X207185Y170198D02*
X234638D01*
X207185Y171198D02*
X233638D01*
X207185Y172198D02*
X232638D01*
X207185Y173198D02*
X231638D01*
X207185Y174198D02*
X230703D01*
X207185Y193198D02*
X230413D01*
X207185Y192198D02*
X230413D01*
X207185Y191198D02*
X230413D01*
X207185Y190198D02*
X230413D01*
X207185Y189198D02*
X230413D01*
X207185Y188198D02*
X230413D01*
X207185Y187198D02*
X230413D01*
X207185Y186198D02*
X230413D01*
X207185Y185198D02*
X230413D01*
X207185Y184198D02*
X230413D01*
X207185Y183198D02*
X230413D01*
X207185Y182198D02*
X230413D01*
X207185Y181198D02*
X230413D01*
X207185Y180198D02*
X230413D01*
X207185Y179198D02*
X230413D01*
X207185Y178198D02*
X230413D01*
X207185Y177198D02*
X230413D01*
X207185Y176198D02*
X230413D01*
X207185Y175198D02*
X230413D01*
X207061Y194198D02*
X230273D01*
X228841Y159198D02*
X229185D01*
X208782D02*
X227065D01*
X225193Y154198D02*
X227038D01*
X226046Y195198D02*
X226710D01*
X209782Y158198D02*
X225762D01*
X224089Y155198D02*
X225756D01*
X210782Y157198D02*
X225344D01*
X211782Y156198D02*
X225342D01*
X207746Y195198D02*
X220510D01*
X215929Y155198D02*
X219533D01*
X216091Y154198D02*
X218429D01*
X181957Y215198D02*
X209171D01*
X203954Y214198D02*
X206282D01*
X197770D02*
X198293D01*
X189781D02*
X192109D01*
X190138Y213198D02*
X191752D01*
X190138Y212198D02*
X191752D01*
X190227Y211198D02*
X191752D01*
X183597Y214198D02*
X184120D01*
X129232Y320198D02*
X133518D01*
X129232Y321198D02*
X133475D01*
X129232Y319198D02*
X132518D01*
X129232Y322198D02*
X132475D01*
X129232Y318198D02*
X131518D01*
X129221Y323198D02*
X131475D01*
X129232Y317198D02*
X130518D01*
X128969Y324198D02*
X130475D01*
X205567Y332198D02*
X207850D01*
X234203Y331198D02*
X240256D01*
X234203Y330198D02*
X240256D01*
X234203Y329198D02*
X240256D01*
X234203Y328198D02*
X240256D01*
X234203Y327198D02*
X240256D01*
X234203Y326198D02*
X240256D01*
X234203Y325198D02*
X240256D01*
X234203Y324198D02*
X240256D01*
X234203Y323198D02*
X240256D01*
X234203Y322198D02*
X240256D01*
X234203Y321198D02*
X240256D01*
X234203Y320198D02*
X240256D01*
X234203Y319198D02*
X240256D01*
X234203Y318198D02*
X240256D01*
X234203Y317198D02*
X240256D01*
X234203Y316198D02*
X240256D01*
X234203Y315198D02*
X240256D01*
X234203Y314198D02*
X240256D01*
X234203Y313198D02*
X240256D01*
X234203Y312198D02*
X240256D01*
X234203Y311198D02*
X240256D01*
X234203Y332198D02*
X240255D01*
X239282Y310198D02*
X239809D01*
X234203D02*
X237096D01*
X234235Y309198D02*
X235226D01*
X208324Y468198D02*
X390876D01*
X206571Y467198D02*
X390400D01*
X204849Y466198D02*
X389817D01*
X210053Y469198D02*
X389553D01*
X203167Y465198D02*
X389233D01*
X201522Y464198D02*
X388650D01*
X335809Y463198D02*
X388066D01*
X211826Y470198D02*
X387780D01*
X335850Y462198D02*
X387483D01*
X335850Y461198D02*
X386899D01*
X335850Y460198D02*
X386316D01*
X255255Y471198D02*
X385958D01*
X335850Y459198D02*
X385733D01*
X335504Y458198D02*
X385149D01*
X335738Y457198D02*
X384566D01*
X256924Y472198D02*
X384085D01*
X335850Y456198D02*
X383982D01*
X335850Y455198D02*
X383399D01*
X335850Y454198D02*
X382815D01*
X335850Y453198D02*
X382232D01*
X257708Y473198D02*
X382157D01*
X335657Y452198D02*
X381648D01*
X334941Y451198D02*
X381065D01*
X334944Y450198D02*
X380481D01*
X258130Y474198D02*
X380171D01*
X340222Y449198D02*
X379898D01*
X341267Y448198D02*
X379314D01*
X341611Y447198D02*
X378731D01*
X341552Y446198D02*
X378147D01*
X258292Y475198D02*
X378121D01*
X341057Y445198D02*
X377564D01*
X339135Y444198D02*
X376980D01*
X335644Y443198D02*
X376397D01*
X258225Y476198D02*
X376004D01*
X335850Y442198D02*
X375813D01*
X335850Y441198D02*
X375230D01*
X335850Y440198D02*
X374647D01*
X335850Y439198D02*
X374063D01*
X301303Y477198D02*
X373812D01*
X335747Y438198D02*
X373480D01*
X334943Y437198D02*
X372896D01*
X334941Y436198D02*
X372313D01*
X335661Y435198D02*
X371729D01*
X302556Y478198D02*
X371539D01*
X339278Y434198D02*
X371146D01*
X340313Y433198D02*
X370562D01*
X341313Y432198D02*
X369979D01*
X341963Y431198D02*
X369395D01*
X303211Y479198D02*
X369178D01*
X342028Y430198D02*
X368812D01*
X342028Y429198D02*
X368228D01*
X342028Y428198D02*
X367645D01*
X342028Y427198D02*
X367061D01*
X303548Y480198D02*
X366718D01*
X342028Y426198D02*
X366478D01*
X342028Y425198D02*
X365894D01*
X342028Y424198D02*
X365311D01*
X342028Y423198D02*
X364727D01*
X303641Y481198D02*
X364149D01*
X342028Y422198D02*
X364144D01*
X342028Y421198D02*
X363561D01*
X342028Y420198D02*
X362977D01*
X342028Y419198D02*
X362394D01*
X342028Y418198D02*
X361810D01*
X303504Y482198D02*
X361457D01*
X342028Y417198D02*
X361227D01*
X342028Y416198D02*
X360643D01*
X342028Y415198D02*
X360060D01*
X342028Y414198D02*
X359476D01*
X342028Y413198D02*
X358893D01*
X303115Y483198D02*
X358624D01*
X342028Y412198D02*
X358309D01*
X342028Y411198D02*
X357726D01*
X342028Y410198D02*
X357142D01*
X342028Y409198D02*
X356559D01*
X342028Y408198D02*
X355975D01*
X302381Y484198D02*
X355630D01*
X342006Y407198D02*
X355392D01*
X341518Y406198D02*
X354808D01*
X340520Y405198D02*
X354225D01*
X339520Y404198D02*
X353641D01*
X338520Y403198D02*
X353058D01*
X337520Y402198D02*
X352475D01*
X300900Y485198D02*
X352448D01*
X336520Y401198D02*
X351891D01*
X335520Y400198D02*
X351308D01*
X334520Y399198D02*
X350724D01*
X333520Y398198D02*
X350141D01*
X332520Y397198D02*
X349557D01*
X250567Y486198D02*
X349040D01*
X303041Y396198D02*
X348974D01*
X302246Y395198D02*
X348390D01*
X300534Y394198D02*
X347807D01*
X279023Y393198D02*
X347223D01*
X278168Y392198D02*
X346640D01*
X276119Y391198D02*
X346056D01*
X271502Y390198D02*
X345473D01*
X254251Y487198D02*
X345355D01*
X297300Y389198D02*
X344889D01*
X298305Y388198D02*
X344306D01*
X305860Y387198D02*
X343722D01*
X307275Y386198D02*
X343139D01*
X307718Y385198D02*
X342555D01*
X308211Y384198D02*
X341972D01*
X309211Y383198D02*
X341389D01*
X258285Y488198D02*
X341321D01*
X310211Y382198D02*
X340805D01*
X311211Y381198D02*
X340222D01*
X312210Y380198D02*
X339638D01*
X312712Y379198D02*
X339055D01*
X335640Y444198D02*
X338817D01*
X312736Y378198D02*
X338471D01*
X335509Y429198D02*
X338287D01*
X335850Y428198D02*
X338287D01*
X335850Y427198D02*
X338287D01*
X335850Y426198D02*
X338287D01*
X335850Y425198D02*
X338287D01*
X335807Y424198D02*
X338287D01*
X320817Y423198D02*
X338287D01*
X320817Y422198D02*
X338287D01*
X320817Y421198D02*
X338287D01*
X320817Y420198D02*
X338287D01*
X320817Y419198D02*
X338287D01*
X320817Y418198D02*
X338287D01*
X320817Y417198D02*
X338287D01*
X320817Y416198D02*
X338287D01*
X320817Y415198D02*
X338287D01*
X320817Y414198D02*
X338287D01*
X320817Y413198D02*
X338287D01*
X320640Y412198D02*
X338287D01*
X319793Y411198D02*
X338287D01*
X318784Y410198D02*
X338287D01*
X317775Y409198D02*
X338287D01*
X316766Y408198D02*
X338212D01*
X335736Y430198D02*
X338024D01*
X312736Y377198D02*
X337888D01*
X335750Y449198D02*
X337730D01*
X312736Y376198D02*
X337304D01*
X315757Y407198D02*
X337230D01*
X262782Y489198D02*
X336824D01*
X312736Y375198D02*
X336721D01*
X314748Y406198D02*
X336230D01*
X312736Y374198D02*
X336137D01*
X325243Y373198D02*
X335554D01*
X287565Y405198D02*
X335230D01*
X325295Y372198D02*
X334970D01*
X325295Y371198D02*
X334387D01*
X286565Y404198D02*
X334230D01*
X325295Y370198D02*
X333803D01*
X285565Y403198D02*
X333230D01*
X325295Y369198D02*
X333220D01*
X325295Y368198D02*
X332636D01*
X301533Y402198D02*
X332230D01*
X325295Y367198D02*
X332053D01*
X267939Y490198D02*
X331667D01*
X325250Y366198D02*
X331469D01*
X302667Y401198D02*
X331230D01*
X327854Y451198D02*
X331201D01*
X327854Y436198D02*
X331201D01*
X327856Y437198D02*
X331199D01*
X327857Y450198D02*
X331198D01*
X319053Y365198D02*
X330886D01*
X328417Y458198D02*
X330638D01*
X328422Y429198D02*
X330633D01*
X328553Y444198D02*
X330502D01*
X328557Y443198D02*
X330498D01*
X328570Y452198D02*
X330485D01*
X328574Y435198D02*
X330481D01*
X328649Y430198D02*
X330406D01*
X328652Y457198D02*
X330403D01*
X328661Y438198D02*
X330394D01*
X328663Y449198D02*
X330392D01*
X328721Y424198D02*
X330335D01*
X328722Y463198D02*
X330333D01*
X318023Y364198D02*
X330303D01*
X328764Y462198D02*
X330291D01*
X328764Y461198D02*
X330291D01*
X328764Y460198D02*
X330291D01*
X328764Y459198D02*
X330291D01*
X328764Y456198D02*
X330291D01*
X328764Y455198D02*
X330291D01*
X328764Y454198D02*
X330291D01*
X328764Y453198D02*
X330291D01*
X328764Y448198D02*
X330291D01*
X328764Y447198D02*
X330291D01*
X328764Y446198D02*
X330291D01*
X328764Y445198D02*
X330291D01*
X328764Y442198D02*
X330291D01*
X328764Y441198D02*
X330291D01*
X328764Y440198D02*
X330291D01*
X328764Y439198D02*
X330291D01*
X328764Y434198D02*
X330291D01*
X328764Y433198D02*
X330291D01*
X328764Y432198D02*
X330291D01*
X328764Y431198D02*
X330291D01*
X328764Y428198D02*
X330291D01*
X328764Y427198D02*
X330291D01*
X328764Y426198D02*
X330291D01*
X328764Y425198D02*
X330291D01*
X317023Y363198D02*
X329719D01*
X270753Y362198D02*
X329136D01*
X269748Y361198D02*
X328552D01*
X269193Y360198D02*
X327969D01*
X269193Y359198D02*
X327385D01*
X302967Y358198D02*
X326802D01*
X310085Y357198D02*
X326218D01*
X314052Y356198D02*
X325635D01*
X274150Y491198D02*
X325456D01*
X317106Y355198D02*
X325051D01*
X319660Y354198D02*
X324468D01*
X182897Y451198D02*
X324114D01*
X165982Y436198D02*
X324114D01*
X166993Y437198D02*
X324112D01*
X181639Y450198D02*
X324112D01*
X321885Y353198D02*
X323884D01*
X192349Y458198D02*
X323552D01*
X320888Y429198D02*
X323546D01*
X319450Y444198D02*
X323415D01*
X173387Y443198D02*
X323411D01*
X184177Y452198D02*
X323398D01*
X164985Y435198D02*
X323394D01*
X321868Y430198D02*
X323320D01*
X190924Y457198D02*
X323317D01*
X168020Y438198D02*
X323308D01*
X320537Y449198D02*
X323305D01*
X320817Y424198D02*
X323248D01*
X199913Y463198D02*
X323246D01*
X198338Y462198D02*
X323205D01*
X196795Y461198D02*
X323205D01*
X195284Y460198D02*
X323205D01*
X193802Y459198D02*
X323205D01*
X189525Y456198D02*
X323205D01*
X188152Y455198D02*
X323205D01*
X186803Y454198D02*
X323205D01*
X185478Y453198D02*
X323205D01*
X172281Y442198D02*
X323205D01*
X171191Y441198D02*
X323205D01*
X170118Y440198D02*
X323205D01*
X169061Y439198D02*
X323205D01*
X320817Y428198D02*
X323205D01*
X320817Y427198D02*
X323205D01*
X320817Y426198D02*
X323205D01*
X320817Y425198D02*
X323205D01*
X164003Y434198D02*
X320638D01*
X163034Y433198D02*
X319579D01*
X174510Y444198D02*
X319132D01*
X162079Y432198D02*
X318579D01*
X180402Y449198D02*
X318045D01*
X161137Y431198D02*
X317580D01*
X175652Y445198D02*
X317210D01*
X160209Y430198D02*
X317098D01*
X282516Y492198D02*
X317090D01*
X188737Y429198D02*
X317077D01*
X189931Y428198D02*
X317077D01*
X190563Y427198D02*
X317077D01*
X190884Y426198D02*
X317077D01*
X190962Y425198D02*
X317077D01*
X190811Y424198D02*
X317077D01*
X190404Y423198D02*
X317077D01*
X211470Y422198D02*
X317077D01*
X212005Y421198D02*
X317077D01*
X212092Y420198D02*
X317077D01*
X211781Y419198D02*
X317077D01*
X211319Y418198D02*
X317077D01*
X211319Y417198D02*
X317077D01*
X211541Y416198D02*
X317077D01*
X240527Y415198D02*
X317077D01*
X241113Y414198D02*
X317077D01*
X179186Y448198D02*
X317001D01*
X176811Y446198D02*
X316715D01*
X177989Y447198D02*
X316657D01*
X241234Y413198D02*
X316498D01*
X313564Y373198D02*
X316490D01*
X314514Y372198D02*
X316437D01*
X315029Y371198D02*
X316437D01*
X315266Y370198D02*
X316437D01*
X315268Y369198D02*
X316437D01*
X315038Y368198D02*
X316437D01*
X314745Y367198D02*
X315734D01*
X240960Y412198D02*
X315489D01*
X240091Y411198D02*
X314480D01*
X183760Y410198D02*
X313471D01*
X299305Y387198D02*
X304377D01*
X300305Y386198D02*
X302961D01*
X301305Y385198D02*
X302519D01*
X259937Y381198D02*
X298996D01*
X259941Y380198D02*
X298996D01*
X259941Y379198D02*
X298996D01*
X259941Y378198D02*
X298996D01*
X259941Y377198D02*
X298996D01*
X259941Y376198D02*
X298996D01*
X259879Y375198D02*
X298996D01*
X258272Y374198D02*
X298996D01*
X293948Y382198D02*
X298960D01*
X293682Y373198D02*
X298168D01*
X295142Y383198D02*
X298016D01*
X279486Y394198D02*
X297892D01*
X247159Y485198D02*
X297526D01*
X294408Y366198D02*
X297443D01*
X294632Y372198D02*
X297219D01*
X294649Y367198D02*
X297201D01*
X277593Y252198D02*
X297146D01*
X290146Y251198D02*
X297146D01*
X291450Y250198D02*
X297146D01*
X292125Y249198D02*
X297146D01*
X292475Y248198D02*
X297146D01*
X292579Y247198D02*
X297146D01*
X292453Y246198D02*
X297146D01*
X292078Y245198D02*
X297146D01*
X291365Y244198D02*
X297146D01*
X289951Y243198D02*
X297146D01*
X177684Y242198D02*
X297146D01*
X177684Y241198D02*
X297146D01*
X177684Y240198D02*
X297146D01*
X291737Y239198D02*
X297146D01*
X292028Y238198D02*
X297146D01*
X292028Y237198D02*
X297146D01*
X292028Y236198D02*
X297146D01*
X292028Y235198D02*
X297146D01*
X292028Y234198D02*
X297146D01*
X291941Y233198D02*
X297146D01*
X257918Y477198D02*
X297122D01*
X295533Y384198D02*
X297016D01*
X276593Y253198D02*
X296935D01*
X284565Y402198D02*
X296892D01*
X295147Y371198D02*
X296703D01*
X295156Y368198D02*
X296694D01*
X295384Y370198D02*
X296467D01*
X295387Y369198D02*
X296464D01*
X279682Y395198D02*
X296179D01*
X243976Y484198D02*
X296045D01*
X257305Y478198D02*
X295869D01*
X283565Y401198D02*
X295758D01*
X269193Y358198D02*
X295496D01*
X279647Y396198D02*
X295384D01*
X240982Y483198D02*
X295310D01*
X256154Y479198D02*
X295214D01*
X282565Y400198D02*
X295154D01*
X279579Y397198D02*
X294957D01*
X238150Y482198D02*
X294921D01*
X232888Y480198D02*
X294877D01*
X281565Y399198D02*
X294851D01*
X280565Y398198D02*
X294789D01*
X235457Y481198D02*
X294784D01*
X259323Y382198D02*
X291879D01*
X275593Y254198D02*
X289161D01*
X269193Y357198D02*
X288378D01*
X257724Y373198D02*
X288286D01*
X256732Y372198D02*
X287337D01*
X183645Y409198D02*
X286462D01*
X280069Y243198D02*
X286349D01*
X280264Y251198D02*
X286153D01*
X183771Y408198D02*
X285275D01*
X274593Y255198D02*
X284963D01*
X281483Y244198D02*
X284935D01*
X281568Y250198D02*
X284849D01*
X269193Y356198D02*
X284412D01*
X265132Y407198D02*
X284275D01*
X282196Y245198D02*
X284222D01*
X282243Y249198D02*
X284175D01*
X282571Y246198D02*
X283846D01*
X282593Y248198D02*
X283824D01*
X282697Y247198D02*
X283721D01*
X266132Y406198D02*
X283275D01*
X267132Y405198D02*
X282275D01*
X273593Y256198D02*
X281803D01*
X269193Y355198D02*
X281358D01*
X268132Y404198D02*
X281275D01*
X269126Y403198D02*
X280275D01*
X269573Y402198D02*
X279275D01*
X272593Y257198D02*
X279184D01*
X269188Y354198D02*
X278803D01*
X269587Y401198D02*
X278275D01*
X269587Y400198D02*
X277275D01*
X271593Y258198D02*
X276914D01*
X268811Y353198D02*
X276579D01*
X270069Y243198D02*
X276467D01*
X271483Y244198D02*
X275053D01*
X270593Y259198D02*
X274896D01*
X267834Y352198D02*
X274594D01*
X270502Y391198D02*
X274413D01*
X272196Y245198D02*
X274340D01*
X272571Y246198D02*
X273964D01*
X272973Y247198D02*
X273354D01*
X269593Y260198D02*
X273071D01*
X266834Y351198D02*
X272796D01*
X269587Y399198D02*
X272763D01*
X269601Y392198D02*
X272365D01*
X269587Y398198D02*
X271720D01*
X269587Y393198D02*
X271510D01*
X268593Y261198D02*
X271401D01*
X269587Y397198D02*
X271157D01*
X265834Y350198D02*
X271148D01*
X269587Y394198D02*
X271047D01*
X269587Y396198D02*
X270886D01*
X269587Y395198D02*
X270851D01*
X267593Y262198D02*
X269860D01*
X264834Y349198D02*
X269626D01*
X231701Y383198D02*
X268895D01*
X255732Y371198D02*
X268585D01*
X266295Y263198D02*
X268428D01*
X263834Y348198D02*
X268210D01*
X231688Y384198D02*
X267882D01*
X254717Y370198D02*
X267553D01*
X197962Y264198D02*
X267091D01*
X262743Y347198D02*
X266887D01*
X259776Y385198D02*
X266882D01*
X226975Y369198D02*
X266553D01*
X262330Y243198D02*
X266467D01*
X259941Y386198D02*
X265882D01*
X197933Y265198D02*
X265837D01*
X247269Y346198D02*
X265645D01*
X227049Y368198D02*
X265553D01*
X262697Y244198D02*
X265053D01*
X259941Y387198D02*
X264882D01*
X197933Y266198D02*
X264658D01*
X226724Y367198D02*
X264553D01*
X247146Y345198D02*
X264477D01*
X262697Y245198D02*
X264340D01*
X262697Y249198D02*
X264188D01*
X262697Y246198D02*
X263964D01*
X262697Y248198D02*
X263942D01*
X259941Y388198D02*
X263882D01*
X262697Y247198D02*
X263839D01*
X225730Y366198D02*
X263553D01*
X197933Y267198D02*
X263546D01*
X247146Y344198D02*
X263375D01*
X259941Y389198D02*
X262962D01*
X221358Y365198D02*
X262806D01*
X185629Y399198D02*
X262697D01*
X197953Y398198D02*
X262697D01*
X197993Y397198D02*
X262697D01*
X197993Y396198D02*
X262697D01*
X197993Y395198D02*
X262697D01*
X197993Y394198D02*
X262697D01*
X246061Y393198D02*
X262697D01*
X259610Y392198D02*
X262697D01*
X259941Y391198D02*
X262697D01*
X259941Y390198D02*
X262697D01*
X227182Y364198D02*
X262697D01*
X227539Y363198D02*
X262697D01*
X227539Y362198D02*
X262697D01*
X227539Y361198D02*
X262697D01*
X227534Y360198D02*
X262697D01*
X226890Y359198D02*
X262697D01*
X197993Y358198D02*
X262697D01*
X197993Y357198D02*
X262697D01*
X197968Y356198D02*
X262697D01*
X197933Y268198D02*
X262494D01*
X197933Y355198D02*
X262395D01*
X247146Y343198D02*
X262332D01*
X185335Y400198D02*
X262118D01*
X197933Y269198D02*
X261498D01*
X197933Y354198D02*
X261395D01*
X247146Y342198D02*
X261345D01*
X185732Y401198D02*
X261118D01*
X197933Y270198D02*
X260554D01*
X247146Y341198D02*
X260408D01*
X247454Y271198D02*
X259657D01*
X247146Y340198D02*
X259519D01*
X249103Y272198D02*
X258805D01*
X247146Y339198D02*
X258674D01*
X249883Y273198D02*
X257995D01*
X247146Y338198D02*
X257870D01*
X250301Y274198D02*
X257225D01*
X247146Y337198D02*
X257106D01*
X250461Y275198D02*
X256491D01*
X247146Y336198D02*
X256378D01*
X250392Y276198D02*
X255793D01*
X247146Y335198D02*
X255685D01*
X250082Y277198D02*
X255129D01*
X247146Y334198D02*
X255026D01*
X249465Y278198D02*
X254496D01*
X247146Y333198D02*
X254399D01*
X177684Y243198D02*
X254205D01*
X248305Y279198D02*
X253895D01*
X177684Y244198D02*
X253839D01*
X247146Y332198D02*
X253802D01*
X177684Y245198D02*
X253724D01*
X247907Y280198D02*
X253324D01*
X251055Y382198D02*
X253276D01*
X247606Y331198D02*
X253235D01*
X251342Y392198D02*
X252989D01*
X251508Y385198D02*
X252823D01*
X247907Y281198D02*
X252780D01*
X247919Y330198D02*
X252697D01*
X251670Y381198D02*
X252661D01*
X251697Y391198D02*
X252634D01*
X213648Y471198D02*
X252480D01*
X251852Y386198D02*
X252479D01*
X247907Y282198D02*
X252265D01*
X247833Y329198D02*
X252186D01*
X247907Y283198D02*
X251776D01*
X247298Y328198D02*
X251701D01*
X230429Y479198D02*
X251582D01*
X247907Y284198D02*
X251313D01*
X244120Y327198D02*
X251242D01*
X247907Y285198D02*
X250875D01*
X215521Y472198D02*
X250812D01*
X243996Y326198D02*
X250808D01*
X247907Y286198D02*
X250462D01*
X228067Y478198D02*
X250431D01*
X243996Y325198D02*
X250398D01*
X247933Y287198D02*
X250072D01*
X217449Y473198D02*
X250027D01*
X243996Y324198D02*
X250012D01*
X225794Y477198D02*
X249818D01*
X247625Y288198D02*
X249706D01*
X243996Y323198D02*
X249650D01*
X219435Y474198D02*
X249606D01*
X223603Y476198D02*
X249510D01*
X221485Y475198D02*
X249444D01*
X246679Y289198D02*
X249362D01*
X243996Y322198D02*
X249309D01*
X245679Y290198D02*
X249041D01*
X243996Y321198D02*
X248992D01*
X244679Y291198D02*
X248741D01*
X243996Y320198D02*
X248695D01*
X243679Y292198D02*
X248463D01*
X243996Y319198D02*
X248421D01*
X242679Y293198D02*
X248206D01*
X243996Y318198D02*
X248167D01*
X241679Y294198D02*
X247970D01*
X243996Y317198D02*
X247934D01*
X240679Y295198D02*
X247754D01*
X243996Y316198D02*
X247722D01*
X239679Y296198D02*
X247559D01*
X243996Y315198D02*
X247529D01*
X238679Y297198D02*
X247383D01*
X243996Y314198D02*
X247357D01*
X237679Y298198D02*
X247228D01*
X243996Y313198D02*
X247205D01*
X236679Y299198D02*
X247092D01*
X243996Y312198D02*
X247072D01*
X235679Y300198D02*
X246975D01*
X243996Y311198D02*
X246959D01*
X234679Y301198D02*
X246878D01*
X243996Y310198D02*
X246865D01*
X240612Y302198D02*
X246800D01*
X243881Y309198D02*
X246790D01*
X241694Y303198D02*
X246742D01*
X243126Y308198D02*
X246734D01*
X242276Y304198D02*
X246702D01*
X242428Y307198D02*
X246697D01*
X242561Y305198D02*
X246681D01*
X242608Y306198D02*
X246680D01*
X240701Y374198D02*
X245315D01*
X241345Y382198D02*
X245008D01*
X197933Y271198D02*
X244619D01*
X242068Y385198D02*
X244555D01*
X177684Y239198D02*
X244483D01*
X239701Y375198D02*
X244452D01*
X242095Y381198D02*
X244393D01*
X241904Y389198D02*
X244390D01*
X242106Y388198D02*
X244390D01*
X242106Y387198D02*
X244390D01*
X242106Y386198D02*
X244390D01*
X242106Y380198D02*
X244390D01*
X242106Y379198D02*
X244390D01*
X242106Y378198D02*
X244390D01*
X241801Y377198D02*
X244390D01*
X238850Y376198D02*
X244390D01*
X227196Y233198D02*
X244280D01*
X177684Y238198D02*
X244193D01*
X177891Y237198D02*
X244193D01*
X226269Y236198D02*
X244193D01*
X226975Y235198D02*
X244193D01*
X227246Y234198D02*
X244193D01*
X197933Y286198D02*
X244166D01*
X197933Y285198D02*
X244166D01*
X197933Y284198D02*
X244166D01*
X197933Y283198D02*
X244166D01*
X197933Y282198D02*
X244166D01*
X197933Y281198D02*
X244166D01*
X197933Y280198D02*
X244166D01*
X197933Y279198D02*
X243768D01*
X241844Y390198D02*
X243742D01*
X197933Y287198D02*
X243390D01*
X197933Y272198D02*
X242970D01*
X197933Y278198D02*
X242608D01*
X197933Y288198D02*
X242390D01*
X197933Y273198D02*
X242190D01*
X197933Y277198D02*
X241991D01*
X197933Y274198D02*
X241772D01*
X197933Y276198D02*
X241681D01*
X197933Y275198D02*
X241612D01*
X197933Y289198D02*
X241390D01*
X197933Y290198D02*
X240390D01*
X197933Y339198D02*
X240256D01*
X226807Y232198D02*
X239496D01*
X226457Y370198D02*
X239427D01*
X197933Y291198D02*
X239390D01*
X161713Y226198D02*
X239176D01*
X181661Y220198D02*
X239170D01*
X218127Y214198D02*
X239145D01*
X236833Y179198D02*
X239102D01*
X199266Y208198D02*
X239098D01*
X236516Y185198D02*
X239043D01*
X234649Y202198D02*
X239040D01*
X236516Y191198D02*
X238995D01*
X236516Y196198D02*
X238992D01*
X236516Y197198D02*
X238956D01*
X236516Y190198D02*
X238954D01*
X233649Y203198D02*
X238926D01*
X236516Y184198D02*
X238924D01*
X217835Y209198D02*
X238903D01*
X237833Y178198D02*
X238899D01*
X214563Y215198D02*
X238888D01*
X225879Y231198D02*
X238881D01*
X161713Y221198D02*
X238879D01*
X176613Y230198D02*
X238878D01*
X161713Y229198D02*
X238878D01*
X161713Y228198D02*
X238878D01*
X161713Y227198D02*
X238878D01*
X161713Y225198D02*
X238878D01*
X161713Y224198D02*
X238878D01*
X161713Y223198D02*
X238878D01*
X161713Y222198D02*
X238878D01*
X210591Y219198D02*
X238878D01*
X211563Y218198D02*
X238878D01*
X212563Y217198D02*
X238878D01*
X213563Y216198D02*
X238878D01*
X218484Y213198D02*
X238878D01*
X218484Y212198D02*
X238878D01*
X218484Y211198D02*
X238878D01*
X218479Y210198D02*
X238878D01*
X232209Y207198D02*
X238878D01*
X232658Y206198D02*
X238878D01*
X232658Y205198D02*
X238878D01*
X232698Y204198D02*
X238878D01*
X235649Y201198D02*
X238878D01*
X236402Y200198D02*
X238878D01*
X236516Y199198D02*
X238878D01*
X236516Y198198D02*
X238878D01*
X236516Y195198D02*
X238878D01*
X236516Y194198D02*
X238878D01*
X236516Y193198D02*
X238878D01*
X236516Y192198D02*
X238878D01*
X236516Y189198D02*
X238878D01*
X236516Y188198D02*
X238878D01*
X236516Y187198D02*
X238878D01*
X236516Y186198D02*
X238878D01*
X236516Y183198D02*
X238878D01*
X236516Y182198D02*
X238878D01*
X236516Y181198D02*
X238878D01*
X236516Y180198D02*
X238878D01*
X221341Y371198D02*
X238412D01*
X197933Y292198D02*
X238390D01*
X221073Y372198D02*
X237412D01*
X197933Y293198D02*
X237390D01*
X232850Y411198D02*
X237075D01*
X233013Y415198D02*
X236639D01*
X235145Y382198D02*
X236509D01*
X234428Y338198D02*
X236438D01*
X220372Y373198D02*
X236412D01*
X197933Y294198D02*
X236390D01*
X197993Y393198D02*
X236272D01*
X234632Y340198D02*
X236234D01*
X233051Y412198D02*
X236206D01*
X233051Y414198D02*
X236052D01*
X233051Y413198D02*
X235932D01*
X234203Y302198D02*
X235766D01*
X217379Y374198D02*
X235412D01*
X197933Y295198D02*
X235390D01*
X197993Y392198D02*
X235272D01*
X216375Y375198D02*
X234412D01*
X197933Y296198D02*
X234390D01*
X197794Y391198D02*
X234272D01*
X215375Y376198D02*
X233412D01*
X197933Y297198D02*
X233390D01*
X188626Y390198D02*
X233272D01*
X197933Y298198D02*
X232390D01*
X197933Y299198D02*
X231390D01*
X197933Y300198D02*
X230599D01*
X220374Y332198D02*
X230463D01*
X220835Y331198D02*
X230463D01*
X221147Y330198D02*
X230463D01*
X221061Y329198D02*
X230463D01*
X220527Y328198D02*
X230463D01*
X205609Y327198D02*
X230463D01*
X197933Y326198D02*
X230463D01*
X197933Y325198D02*
X230463D01*
X197933Y324198D02*
X230463D01*
X197933Y323198D02*
X230463D01*
X197933Y322198D02*
X230463D01*
X197933Y321198D02*
X230463D01*
X197933Y320198D02*
X230463D01*
X197933Y319198D02*
X230463D01*
X197933Y318198D02*
X230463D01*
X197933Y317198D02*
X230463D01*
X197933Y316198D02*
X230463D01*
X197933Y315198D02*
X230463D01*
X197933Y314198D02*
X230463D01*
X197933Y313198D02*
X230463D01*
X197933Y312198D02*
X230463D01*
X197933Y311198D02*
X230463D01*
X197933Y310198D02*
X230463D01*
X197933Y309198D02*
X230463D01*
X197933Y308198D02*
X230463D01*
X197933Y307198D02*
X230463D01*
X197933Y306198D02*
X230463D01*
X197933Y305198D02*
X230463D01*
X197933Y304198D02*
X230463D01*
X197933Y303198D02*
X230463D01*
X197933Y302198D02*
X230463D01*
X197933Y301198D02*
X230463D01*
X199558Y201198D02*
X230351D01*
X226849Y338198D02*
X230238D01*
X226659Y340198D02*
X230034D01*
X214375Y377198D02*
X229853D01*
X212375Y379198D02*
X229547D01*
X213375Y378198D02*
X229547D01*
X211375Y380198D02*
X229412D01*
X227701Y333198D02*
X229386D01*
X210375Y381198D02*
X228412D01*
X209375Y382198D02*
X227412D01*
X225895Y200198D02*
X226861D01*
X225942Y202198D02*
X226814D01*
X226009Y207198D02*
X226747D01*
X197933Y353198D02*
X225892D01*
X200707Y352198D02*
X224799D01*
X204941Y351198D02*
X223799D01*
X221358Y366198D02*
X223089D01*
X205941Y350198D02*
X222799D01*
X198896Y263198D02*
X222682D01*
X220649Y338198D02*
X222658D01*
X198203Y257198D02*
X222478D01*
X221379Y370198D02*
X222362D01*
X220459Y340198D02*
X222061D01*
X220690Y359198D02*
X221829D01*
X206941Y349198D02*
X221799D01*
X208398Y258198D02*
X221487D01*
X208486Y262198D02*
X221427D01*
X209139Y259198D02*
X220938D01*
X209170Y261198D02*
X220913D01*
X207941Y348198D02*
X220799D01*
X209350Y260198D02*
X220768D01*
X218677Y411198D02*
X220693D01*
X207407Y200198D02*
X220661D01*
X217968Y202198D02*
X220614D01*
X218035Y207198D02*
X220547D01*
X208941Y347198D02*
X219799D01*
X209941Y346198D02*
X218799D01*
X212448Y332198D02*
X216634D01*
X209139Y328198D02*
X216481D01*
X212675Y338198D02*
X216458D01*
X212103Y331198D02*
X216173D01*
X210139Y329198D02*
X215947D01*
X211139Y330198D02*
X215861D01*
X212879Y340198D02*
X215861D01*
X197993Y359198D02*
X215629D01*
X213527Y333198D02*
X215606D01*
X213491Y345198D02*
X215249D01*
X197993Y360198D02*
X214985D01*
X197993Y361198D02*
X214931D01*
X206890Y371198D02*
X214877D01*
X207010Y370198D02*
X214862D01*
X207035Y369198D02*
X214862D01*
X206956Y368198D02*
X214862D01*
X206969Y367198D02*
X214862D01*
X207035Y366198D02*
X214862D01*
X207001Y365198D02*
X214862D01*
X121543Y364198D02*
X214862D01*
X197751Y363198D02*
X214862D01*
X197993Y362198D02*
X214862D01*
X207035Y372198D02*
X214085D01*
X207031Y373198D02*
X213085D01*
X211635Y209198D02*
X212774D01*
X211768Y202198D02*
X212641D01*
X211835Y207198D02*
X212574D01*
X206475Y338198D02*
X208485D01*
X206679Y340198D02*
X208281D01*
X189931Y418198D02*
X207579D01*
X190563Y417198D02*
X207579D01*
X189642Y422198D02*
X207427D01*
X190884Y416198D02*
X207394D01*
X188737Y419198D02*
X207117D01*
X188065Y421198D02*
X206892D01*
X183749Y420198D02*
X206806D01*
X203662Y209198D02*
X206574D01*
X188065Y411198D02*
X206520D01*
X199558Y202198D02*
X206441D01*
X199555Y207198D02*
X206374D01*
X190962Y415198D02*
X206357D01*
X190811Y414198D02*
X206319D01*
X190404Y413198D02*
X206319D01*
X189642Y412198D02*
X206319D01*
X199558Y200198D02*
X205979D01*
X199558Y203198D02*
X205925D01*
X199558Y206198D02*
X205925D01*
X199558Y205198D02*
X205925D01*
X199558Y204198D02*
X205925D01*
X197203Y258198D02*
X204988D01*
X199905Y262198D02*
X204895D01*
X190127Y154198D02*
X204595D01*
X199558Y199198D02*
X204541D01*
X197933Y346198D02*
X204460D01*
X198000Y347198D02*
X203651D01*
X188780Y155198D02*
X203595D01*
X197933Y332198D02*
X203094D01*
X197933Y327198D02*
X203052D01*
X187457Y156198D02*
X202595D01*
X197933Y338198D02*
X202285D01*
X197933Y331198D02*
X202264D01*
X197933Y340198D02*
X202081D01*
X197933Y328198D02*
X202030D01*
X197933Y330198D02*
X201759D01*
X197933Y329198D02*
X201694D01*
X186157Y157198D02*
X201596D01*
X197933Y345198D02*
X201469D01*
X197933Y333198D02*
X201433D01*
X197933Y337198D02*
X201228D01*
X197933Y341198D02*
X201219D01*
X197933Y344198D02*
X201201D01*
X197933Y343198D02*
X201201D01*
X197933Y342198D02*
X201201D01*
X197933Y336198D02*
X201201D01*
X197933Y335198D02*
X201201D01*
X197933Y334198D02*
X201201D01*
X184880Y158198D02*
X200940D01*
X183625Y159198D02*
X200699D01*
X197343Y191198D02*
X200689D01*
X197343Y190198D02*
X200689D01*
X199021Y189198D02*
X200689D01*
X199311Y188198D02*
X200689D01*
X199311Y187198D02*
X200689D01*
X199311Y186198D02*
X200689D01*
X199311Y185198D02*
X200689D01*
X199311Y184198D02*
X200689D01*
X199311Y183198D02*
X200689D01*
X199279Y182198D02*
X200689D01*
X197976Y181198D02*
X200689D01*
X197539Y180198D02*
X200689D01*
X197539Y179198D02*
X200689D01*
X197539Y178198D02*
X200689D01*
X197539Y177198D02*
X200689D01*
X197389Y176198D02*
X200689D01*
X196667Y175198D02*
X200689D01*
X195667Y174198D02*
X200689D01*
X195366Y173198D02*
X200689D01*
X195334Y172198D02*
X200689D01*
X195056Y171198D02*
X200689D01*
X194473Y170198D02*
X200689D01*
X193358Y169198D02*
X200689D01*
X173210Y168198D02*
X200689D01*
X174295Y167198D02*
X200689D01*
X175397Y166198D02*
X200689D01*
X176517Y165198D02*
X200689D01*
X177654Y164198D02*
X200689D01*
X178809Y163198D02*
X200689D01*
X179983Y162198D02*
X200689D01*
X181177Y161198D02*
X200689D01*
X182391Y160198D02*
X200689D01*
X197343Y192198D02*
X200453D01*
X197343Y193198D02*
X199453D01*
X171343Y377198D02*
X198736D01*
X171356Y380198D02*
X198723D01*
X171377Y374198D02*
X198702D01*
X197343Y194198D02*
X198679D01*
X171420Y383198D02*
X198658D01*
X171457Y371198D02*
X198622D01*
X188374Y386198D02*
X198582D01*
X171523Y368198D02*
X198556D01*
X171536Y367198D02*
X198542D01*
X189073Y389198D02*
X198528D01*
X189080Y387198D02*
X198523D01*
X171568Y365198D02*
X198511D01*
X171576Y370198D02*
X198502D01*
X171588Y384198D02*
X198491D01*
X171598Y373198D02*
X198481D01*
X171602Y381198D02*
X198477D01*
X189272Y388198D02*
X198476D01*
X177726Y385198D02*
X198476D01*
X171602Y382198D02*
X198476D01*
X171602Y379198D02*
X198476D01*
X171602Y378198D02*
X198476D01*
X171602Y376198D02*
X198476D01*
X171602Y375198D02*
X198476D01*
X171602Y372198D02*
X198476D01*
X171602Y369198D02*
X198476D01*
X171602Y366198D02*
X198476D01*
X197284Y195198D02*
X198361D01*
X196203Y259198D02*
X197606D01*
X195203Y260198D02*
X196606D01*
X194946Y261198D02*
X195606D01*
X184547Y200198D02*
X195030D01*
X184547Y201198D02*
X194981D01*
X177684Y246198D02*
X194858D01*
X184547Y199198D02*
X194471D01*
X177684Y247198D02*
X193858D01*
X161376Y180198D02*
X193012D01*
X162286Y179198D02*
X193012D01*
X163208Y178198D02*
X193012D01*
X177684Y248198D02*
X192858D01*
X150631Y193198D02*
X192815D01*
X151391Y192198D02*
X192815D01*
X152162Y191198D02*
X192815D01*
X152943Y190198D02*
X192815D01*
X160479Y181198D02*
X192575D01*
X164144Y177198D02*
X192264D01*
X177684Y249198D02*
X191858D01*
X186028Y189198D02*
X191137D01*
X186287Y182198D02*
X190878D01*
X177684Y250198D02*
X190858D01*
X186319Y188198D02*
X190846D01*
X186319Y187198D02*
X190846D01*
X186319Y186198D02*
X190846D01*
X186319Y185198D02*
X190846D01*
X186319Y184198D02*
X190846D01*
X186319Y183198D02*
X190846D01*
X177684Y251198D02*
X189858D01*
X183957Y194198D02*
X189271D01*
X183955Y206198D02*
X189255D01*
X183351Y207198D02*
X188927D01*
X177684Y252198D02*
X188858D01*
X185212Y169198D02*
X188847D01*
X184425Y198198D02*
X188810D01*
X184425Y202198D02*
X188809D01*
X184545Y205198D02*
X188684D01*
X184545Y195198D02*
X188683D01*
X184547Y204198D02*
X188681D01*
X184547Y203198D02*
X188681D01*
X184547Y197198D02*
X188681D01*
X184547Y196198D02*
X188681D01*
X185329Y176198D02*
X188456D01*
X177684Y253198D02*
X188046D01*
X183268Y208198D02*
X187927D01*
X186307Y350198D02*
X187894D01*
X185237Y349198D02*
X187894D01*
X163878Y348198D02*
X187894D01*
X163878Y347198D02*
X187894D01*
X163878Y346198D02*
X187894D01*
X163878Y345198D02*
X187894D01*
X163878Y344198D02*
X187894D01*
X163511Y343198D02*
X187894D01*
X126132Y342198D02*
X187894D01*
X126132Y341198D02*
X187894D01*
X126132Y340198D02*
X187894D01*
X126132Y339198D02*
X187894D01*
X126132Y338198D02*
X187894D01*
X126132Y337198D02*
X187894D01*
X126132Y336198D02*
X187894D01*
X126132Y335198D02*
X187894D01*
X126132Y334198D02*
X187894D01*
X145969Y333198D02*
X187894D01*
X146437Y332198D02*
X187894D01*
X146437Y331198D02*
X187894D01*
X146437Y330198D02*
X187894D01*
X146437Y329198D02*
X187894D01*
X145942Y328198D02*
X187894D01*
X133878Y327198D02*
X187894D01*
X134878Y326198D02*
X187894D01*
X135878Y325198D02*
X187894D01*
X141471Y324198D02*
X187894D01*
X146626Y323198D02*
X187894D01*
X148193Y322198D02*
X187894D01*
X149193Y321198D02*
X187894D01*
X156924Y320198D02*
X187894D01*
X157067Y319198D02*
X187894D01*
X157067Y318198D02*
X187894D01*
X157067Y317198D02*
X187894D01*
X156999Y316198D02*
X187894D01*
X151523Y315198D02*
X187894D01*
X151813Y314198D02*
X187894D01*
X152813Y313198D02*
X187894D01*
X153813Y312198D02*
X187894D01*
X154813Y311198D02*
X187894D01*
X156605Y310198D02*
X187894D01*
X158507Y309198D02*
X187894D01*
X170044Y308198D02*
X187894D01*
X171044Y307198D02*
X187894D01*
X172044Y306198D02*
X187894D01*
X173044Y305198D02*
X187894D01*
X174044Y304198D02*
X187894D01*
X175044Y303198D02*
X187894D01*
X176044Y302198D02*
X187894D01*
X177007Y301198D02*
X187894D01*
X177531Y300198D02*
X187894D01*
X177684Y299198D02*
X187894D01*
X177684Y298198D02*
X187894D01*
X177684Y297198D02*
X187894D01*
X177684Y296198D02*
X187894D01*
X177684Y295198D02*
X187894D01*
X177684Y294198D02*
X187894D01*
X177684Y293198D02*
X187894D01*
X177684Y292198D02*
X187894D01*
X177684Y291198D02*
X187894D01*
X177684Y290198D02*
X187894D01*
X177684Y289198D02*
X187894D01*
X177684Y288198D02*
X187894D01*
X177684Y287198D02*
X187894D01*
X177684Y286198D02*
X187894D01*
X177684Y285198D02*
X187894D01*
X177684Y284198D02*
X187894D01*
X177684Y283198D02*
X187894D01*
X177684Y282198D02*
X187894D01*
X177684Y281198D02*
X187894D01*
X177684Y280198D02*
X187894D01*
X177684Y279198D02*
X187894D01*
X177684Y278198D02*
X187894D01*
X177684Y277198D02*
X187894D01*
X177684Y276198D02*
X187894D01*
X177684Y275198D02*
X187894D01*
X177684Y274198D02*
X187894D01*
X177684Y273198D02*
X187894D01*
X177684Y272198D02*
X187894D01*
X177684Y271198D02*
X187894D01*
X177684Y270198D02*
X187894D01*
X177684Y269198D02*
X187894D01*
X177684Y268198D02*
X187894D01*
X177684Y267198D02*
X187894D01*
X177684Y266198D02*
X187894D01*
X177684Y265198D02*
X187894D01*
X177684Y264198D02*
X187894D01*
X177684Y263198D02*
X187894D01*
X177684Y262198D02*
X187894D01*
X177684Y261198D02*
X187894D01*
X177684Y260198D02*
X187894D01*
X177684Y259198D02*
X187894D01*
X177684Y258198D02*
X187894D01*
X177684Y257198D02*
X187894D01*
X177684Y256198D02*
X187894D01*
X177684Y255198D02*
X187894D01*
X177684Y254198D02*
X187894D01*
X185382Y170198D02*
X187732D01*
X185382Y175198D02*
X187534D01*
X185382Y171198D02*
X187148D01*
X185382Y174198D02*
X187046D01*
X185382Y172198D02*
X186870D01*
X185382Y173198D02*
X186838D01*
X183449Y421198D02*
X185006D01*
X183804Y411198D02*
X185006D01*
X179289Y386198D02*
X184854D01*
X169313Y354198D02*
X184744D01*
X179042Y390198D02*
X184603D01*
X183292Y209198D02*
X184428D01*
X178737Y429198D02*
X184334D01*
X179423Y389198D02*
X184156D01*
X179755Y387198D02*
X184148D01*
X170313Y353198D02*
X184018D01*
X179792Y388198D02*
X183957D01*
X179931Y428198D02*
X183139D01*
X181337Y423198D02*
X182659D01*
X181233Y355198D02*
X182547D01*
X180563Y427198D02*
X182508D01*
X180811Y424198D02*
X182260D01*
X180884Y426198D02*
X182187D01*
X180962Y425198D02*
X182109D01*
X161713Y220198D02*
X179757D01*
X173524Y215198D02*
X179460D01*
X178083Y355198D02*
X179397D01*
X151596Y420198D02*
X179047D01*
X173206Y216198D02*
X178528D01*
X161713Y219198D02*
X178502D01*
X173499Y209198D02*
X178208D01*
X172512Y208198D02*
X178150D01*
X153735Y189198D02*
X178145D01*
X161713Y217198D02*
X178102D01*
X161713Y218198D02*
X178095D01*
X164705Y207198D02*
X178066D01*
X173524Y214198D02*
X177936D01*
X159595Y182198D02*
X177886D01*
X154538Y188198D02*
X177854D01*
X155352Y187198D02*
X177854D01*
X156177Y186198D02*
X177854D01*
X157014Y185198D02*
X177854D01*
X157862Y184198D02*
X177854D01*
X158722Y183198D02*
X177854D01*
X173524Y210198D02*
X177584D01*
X173524Y213198D02*
X177579D01*
X173524Y212198D02*
X177579D01*
X173524Y211198D02*
X177579D01*
X165705Y206198D02*
X177463D01*
X172142Y169198D02*
X176993D01*
X173524Y202198D02*
X176992D01*
X165093Y176198D02*
X176875D01*
X166705Y205198D02*
X176873D01*
X167705Y204198D02*
X176870D01*
X173213Y203198D02*
X176870D01*
X173524Y201198D02*
X176870D01*
X173870Y200198D02*
X176870D01*
X174870Y199198D02*
X176870D01*
X166056Y175198D02*
X176823D01*
X167034Y174198D02*
X176823D01*
X168025Y173198D02*
X176823D01*
X169032Y172198D02*
X176823D01*
X170053Y171198D02*
X176823D01*
X171090Y170198D02*
X176823D01*
X171602Y385198D02*
X176604D01*
X174934Y355198D02*
X176247D01*
X169417Y390198D02*
X175288D01*
X171497Y386198D02*
X175042D01*
X168065Y421198D02*
X175006D01*
X171551Y389198D02*
X174908D01*
X171556Y387198D02*
X174576D01*
X171602Y388198D02*
X174538D01*
X168737Y429198D02*
X174334D01*
X170760Y419198D02*
X174334D01*
X149881Y194198D02*
X174263D01*
X170474Y411198D02*
X174201D01*
X169642Y422198D02*
X173429D01*
X170965Y412198D02*
X173429D01*
X144070Y410198D02*
X173301D01*
X169931Y428198D02*
X173139D01*
X170965Y418198D02*
X173139D01*
X168313Y355198D02*
X173098D01*
X170404Y423198D02*
X172667D01*
X170965Y413198D02*
X172667D01*
X170563Y427198D02*
X172508D01*
X170965Y417198D02*
X172508D01*
X121239Y363198D02*
X172328D01*
X143371Y409198D02*
X172301D01*
X169193Y391198D02*
X172285D01*
X170811Y424198D02*
X172260D01*
X170965Y414198D02*
X172260D01*
X161713Y230198D02*
X172259D01*
X170884Y426198D02*
X172187D01*
X170965Y416198D02*
X172187D01*
X169590Y401198D02*
X172146D01*
X169193Y400198D02*
X172146D01*
X169193Y399198D02*
X172146D01*
X169193Y398198D02*
X172126D01*
X167313Y356198D02*
X172111D01*
X170962Y425198D02*
X172109D01*
X170965Y415198D02*
X172109D01*
X169193Y397198D02*
X172086D01*
X169193Y396198D02*
X172086D01*
X169193Y395198D02*
X172086D01*
X169193Y394198D02*
X172086D01*
X169193Y393198D02*
X172086D01*
X169193Y392198D02*
X172086D01*
X163612Y362198D02*
X172086D01*
X163878Y361198D02*
X172086D01*
X163878Y360198D02*
X172086D01*
X164313Y359198D02*
X172086D01*
X165313Y358198D02*
X172086D01*
X166313Y357198D02*
X172086D01*
X170590Y402198D02*
X172007D01*
X142682Y408198D02*
X171301D01*
X134744Y297198D02*
X171188D01*
X134744Y296198D02*
X171188D01*
X134744Y295198D02*
X171188D01*
X134744Y294198D02*
X171188D01*
X134744Y293198D02*
X171188D01*
X134744Y292198D02*
X171188D01*
X134744Y291198D02*
X171188D01*
X134744Y290198D02*
X171188D01*
X134744Y289198D02*
X171188D01*
X143287Y288198D02*
X171188D01*
X143760Y287198D02*
X171188D01*
X143760Y286198D02*
X171188D01*
X143760Y285198D02*
X171188D01*
X143799Y284198D02*
X171188D01*
X143799Y283198D02*
X171188D01*
X143799Y282198D02*
X171188D01*
X143799Y281198D02*
X171188D01*
X143799Y280198D02*
X171188D01*
X143799Y279198D02*
X171188D01*
X143799Y278198D02*
X171188D01*
X143799Y277198D02*
X171188D01*
X143975Y276198D02*
X171188D01*
X148341Y275198D02*
X171188D01*
X149343Y274198D02*
X171188D01*
X157154Y273198D02*
X171188D01*
X157461Y272198D02*
X171188D01*
X157461Y271198D02*
X171188D01*
X157461Y270198D02*
X171188D01*
X157450Y269198D02*
X171188D01*
X156703Y268198D02*
X171188D01*
X151327Y267198D02*
X171188D01*
X151327Y266198D02*
X171188D01*
X151327Y265198D02*
X171188D01*
X151327Y264198D02*
X171188D01*
X151327Y263198D02*
X171188D01*
X151302Y262198D02*
X171188D01*
X151009Y261198D02*
X171188D01*
X150271Y260198D02*
X171188D01*
X149271Y259198D02*
X171188D01*
X148271Y258198D02*
X171188D01*
X147271Y257198D02*
X171188D01*
X146271Y256198D02*
X171188D01*
X145815Y255198D02*
X171188D01*
X145815Y254198D02*
X171188D01*
X145815Y253198D02*
X171188D01*
X145815Y252198D02*
X171188D01*
X146095Y251198D02*
X171188D01*
X146605Y250198D02*
X171188D01*
X147114Y249198D02*
X171188D01*
X147624Y248198D02*
X171188D01*
X147868Y247198D02*
X171188D01*
X147090Y246198D02*
X171188D01*
X145128Y245198D02*
X171188D01*
X147623Y244198D02*
X171188D01*
X149817Y243198D02*
X171188D01*
X154878Y242198D02*
X171188D01*
X156492Y241198D02*
X171188D01*
X157492Y240198D02*
X171188D01*
X158492Y239198D02*
X171188D01*
X159492Y238198D02*
X171188D01*
X160492Y237198D02*
X171185D01*
X161713Y231198D02*
X171052D01*
X134744Y298198D02*
X170857D01*
X161394Y236198D02*
X170559D01*
X161713Y232198D02*
X170415D01*
X142001Y407198D02*
X170301D01*
X161707Y235198D02*
X170157D01*
X161713Y233198D02*
X170091D01*
X161713Y234198D02*
X170009D01*
X134744Y299198D02*
X169857D01*
X141330Y406198D02*
X169301D01*
X163878Y349198D02*
X169094D01*
X134744Y300198D02*
X168857D01*
X140667Y405198D02*
X168301D01*
X163733Y350198D02*
X168024D01*
X134744Y301198D02*
X167857D01*
X140013Y404198D02*
X167301D01*
X128733Y351198D02*
X167024D01*
X157934Y302198D02*
X166857D01*
X139368Y403198D02*
X166301D01*
X149141Y195198D02*
X166110D01*
X163705Y208198D02*
X166071D01*
X128834Y352198D02*
X166024D01*
X138731Y402198D02*
X165560D01*
X138103Y401198D02*
X165453D01*
X137484Y400198D02*
X165453D01*
X136872Y399198D02*
X165453D01*
X136269Y398198D02*
X165453D01*
X135674Y397198D02*
X165453D01*
X135087Y396198D02*
X165453D01*
X134507Y395198D02*
X165453D01*
X133936Y394198D02*
X165453D01*
X133373Y393198D02*
X165453D01*
X132817Y392198D02*
X165453D01*
X132269Y391198D02*
X165453D01*
X161713Y216198D02*
X165376D01*
X131728Y390198D02*
X165228D01*
X148410Y196198D02*
X165086D01*
X162705Y209198D02*
X165084D01*
X161713Y215198D02*
X165059D01*
X161713Y214198D02*
X165059D01*
X161713Y213198D02*
X165059D01*
X161713Y212198D02*
X165059D01*
X161713Y211198D02*
X165059D01*
X161753Y210198D02*
X165059D01*
X145587Y200198D02*
X165059D01*
X146278Y199198D02*
X165059D01*
X146980Y198198D02*
X165059D01*
X147690Y197198D02*
X165059D01*
X128617Y353198D02*
X165024D01*
X152406Y421198D02*
X165006D01*
X159294Y429198D02*
X164334D01*
X144904Y201198D02*
X164302D01*
X128339Y354198D02*
X164024D01*
X153226Y422198D02*
X163429D01*
X144231Y202198D02*
X163302D01*
X124911Y374198D02*
X163269D01*
X123837Y371198D02*
X163189D01*
X158391Y428198D02*
X163139D01*
X122818Y368198D02*
X163123D01*
X122490Y367198D02*
X163109D01*
X131195Y389198D02*
X163095D01*
X121853Y365198D02*
X163078D01*
X123491Y370198D02*
X163069D01*
X124547Y373198D02*
X163048D01*
X127636Y381198D02*
X163044D01*
X130680Y388198D02*
X163043D01*
X128051Y382198D02*
X163043D01*
X157067Y376198D02*
X163043D01*
X156978Y375198D02*
X163043D01*
X124189Y372198D02*
X163043D01*
X123152Y369198D02*
X163043D01*
X122169Y366198D02*
X163043D01*
X146039Y387198D02*
X162837D01*
X154058Y423198D02*
X162667D01*
X144779Y411198D02*
X162596D01*
X157500Y427198D02*
X162508D01*
X150798Y419198D02*
X162311D01*
X143567Y203198D02*
X162302D01*
X154901Y424198D02*
X162260D01*
X156622Y426198D02*
X162187D01*
X155756Y425198D02*
X162109D01*
X145496Y412198D02*
X162106D01*
X150010Y418198D02*
X162106D01*
X149232Y417198D02*
X162106D01*
X148465Y416198D02*
X162106D01*
X147708Y415198D02*
X162106D01*
X146961Y414198D02*
X162106D01*
X146224Y413198D02*
X162106D01*
X142912Y204198D02*
X161302D01*
X142266Y205198D02*
X160302D01*
X141628Y206198D02*
X159302D01*
X140999Y207198D02*
X158302D01*
X140378Y208198D02*
X157446D01*
X139766Y209198D02*
X157186D01*
X155265Y233198D02*
X157185D01*
X155655Y232198D02*
X157185D01*
X155783Y231198D02*
X157185D01*
X155674Y230198D02*
X157185D01*
X155309Y229198D02*
X157185D01*
X154596Y228198D02*
X157185D01*
X153129Y227198D02*
X157185D01*
X145825Y226198D02*
X157185D01*
X146334Y225198D02*
X157185D01*
X146844Y224198D02*
X157185D01*
X147012Y223198D02*
X157185D01*
X146045Y222198D02*
X157185D01*
X144083Y221198D02*
X157185D01*
X142120Y220198D02*
X157185D01*
X134090Y219198D02*
X157185D01*
X134623Y218198D02*
X157185D01*
X135163Y217198D02*
X157185D01*
X135711Y216198D02*
X157185D01*
X136266Y215198D02*
X157185D01*
X136829Y214198D02*
X157185D01*
X137401Y213198D02*
X157185D01*
X137980Y212198D02*
X157185D01*
X138567Y211198D02*
X157185D01*
X139163Y210198D02*
X157185D01*
X154514Y234198D02*
X157083D01*
X152912Y235198D02*
X156089D01*
X149055Y236198D02*
X155089D01*
X139889Y343198D02*
X154599D01*
X139990Y362198D02*
X154498D01*
X140042Y355198D02*
X154446D01*
X140111Y350198D02*
X154377D01*
X127228Y380198D02*
X154290D01*
X151187Y361198D02*
X154232D01*
X151390Y356198D02*
X154232D01*
X140256Y349198D02*
X154232D01*
X140256Y348198D02*
X154232D01*
X140256Y347198D02*
X154232D01*
X140256Y346198D02*
X154232D01*
X140256Y345198D02*
X154232D01*
X140256Y344198D02*
X154232D01*
X150285Y237198D02*
X154089D01*
X134744Y302198D02*
X153089D01*
X134744Y303198D02*
X152007D01*
X134744Y304198D02*
X151425D01*
X151041Y273198D02*
X151321D01*
X138897Y305198D02*
X151140D01*
X139272Y306198D02*
X150626D01*
X141878Y235198D02*
X150096D01*
X145315Y227198D02*
X149878D01*
X139272Y307198D02*
X149626D01*
X140256Y361198D02*
X149600D01*
X140256Y356198D02*
X149398D01*
X139272Y308198D02*
X148626D01*
X141444Y234198D02*
X148493D01*
X144806Y228198D02*
X148412D01*
X141441Y233198D02*
X147742D01*
X144296Y229198D02*
X147699D01*
X139272Y309198D02*
X147626D01*
X141195Y232198D02*
X147353D01*
X139633Y230198D02*
X147333D01*
X140655Y231198D02*
X147224D01*
X139272Y310198D02*
X146626D01*
X143165Y244198D02*
X146412D01*
X139272Y311198D02*
X145631D01*
X139258Y312198D02*
X145009D01*
X142878Y236198D02*
X144980D01*
X116901Y268198D02*
X144831D01*
X117108Y267198D02*
X144831D01*
X117320Y266198D02*
X144831D01*
X117538Y265198D02*
X144831D01*
X117761Y264198D02*
X144831D01*
X142026Y269198D02*
X144820D01*
X138463Y313198D02*
X144789D01*
X137704Y315198D02*
X144783D01*
X136704Y314198D02*
X144783D01*
X126826Y379198D02*
X144624D01*
X125281Y375198D02*
X144596D01*
X141825Y316198D02*
X144576D01*
X126430Y378198D02*
X144508D01*
X126041Y377198D02*
X144508D01*
X125658Y376198D02*
X144508D01*
X123760Y243198D02*
X144217D01*
X117989Y263198D02*
X144084D01*
X124110Y242198D02*
X143090D01*
X118224Y262198D02*
X143084D01*
X130225Y387198D02*
X142938D01*
X128473Y383198D02*
X142572D01*
X129777Y386198D02*
X142096D01*
X118463Y261198D02*
X142084D01*
X128901Y384198D02*
X141968D01*
X129335Y385198D02*
X141835D01*
X124467Y241198D02*
X141475D01*
X118709Y260198D02*
X141084D01*
X129238Y229198D02*
X140930D01*
X139742Y328198D02*
X140573D01*
X139769Y333198D02*
X140546D01*
X124830Y240198D02*
X140475D01*
X118960Y259198D02*
X140098D01*
X123415Y244198D02*
X140056D01*
X123077Y245198D02*
X139546D01*
X119216Y258198D02*
X139515D01*
X125199Y239198D02*
X139475D01*
X119479Y257198D02*
X139321D01*
X119747Y256198D02*
X139319D01*
X120020Y255198D02*
X139319D01*
X120300Y254198D02*
X139319D01*
X120585Y253198D02*
X139319D01*
X120876Y252198D02*
X139319D01*
X133565Y220198D02*
X139276D01*
X122745Y246198D02*
X139037D01*
X129678Y228198D02*
X138968D01*
X133048Y221198D02*
X138766D01*
X122418Y247198D02*
X138527D01*
X125574Y238198D02*
X138475D01*
X132538Y222198D02*
X138257D01*
X121173Y251198D02*
X138050D01*
X122098Y248198D02*
X138018D01*
X132035Y223198D02*
X137747D01*
X134744Y288198D02*
X137736D01*
X121784Y249198D02*
X137508D01*
X134116Y280198D02*
X137303D01*
X114986Y279198D02*
X137303D01*
X115133Y278198D02*
X137303D01*
X134740Y281198D02*
X137268D01*
X121475Y250198D02*
X137267D01*
X134744Y287198D02*
X137264D01*
X134744Y286198D02*
X137264D01*
X134744Y285198D02*
X137264D01*
X134744Y284198D02*
X137264D01*
X134744Y283198D02*
X137264D01*
X134744Y282198D02*
X137264D01*
X131539Y224198D02*
X137238D01*
X115286Y277198D02*
X137145D01*
X130125Y227198D02*
X137017D01*
X131051Y225198D02*
X136728D01*
X130578Y226198D02*
X136420D01*
X128805Y230198D02*
X134752D01*
X125955Y237198D02*
X134708D01*
X132956Y328198D02*
X134373D01*
X131796Y333198D02*
X134346D01*
X129034Y269198D02*
X133958D01*
X129165Y276198D02*
X133827D01*
X129232Y275198D02*
X133760D01*
X129232Y274198D02*
X133760D01*
X129232Y273198D02*
X133760D01*
X129232Y272198D02*
X133760D01*
X129232Y271198D02*
X133760D01*
X129232Y270198D02*
X133760D01*
X128378Y231198D02*
X133730D01*
X126343Y236198D02*
X133708D01*
X127958Y232198D02*
X133190D01*
X126737Y235198D02*
X133179D01*
X127545Y233198D02*
X132944D01*
X127138Y234198D02*
X132940D01*
X126132Y343198D02*
X130977D01*
X120941Y362198D02*
X130876D01*
X127908Y355198D02*
X130824D01*
X128370Y350198D02*
X130755D01*
X127777Y361198D02*
X130610D01*
X128364Y356198D02*
X130610D01*
X127979Y349198D02*
X130610D01*
X126364Y348198D02*
X130610D01*
X126132Y347198D02*
X130610D01*
X126132Y346198D02*
X130610D01*
X126132Y345198D02*
X130610D01*
X126132Y344198D02*
X130610D01*
X125139Y280198D02*
X128877D01*
X113147Y315198D02*
X128672D01*
X113108Y314198D02*
X128307D01*
X125764Y281198D02*
X128252D01*
X112999Y304198D02*
X128248D01*
X113016Y303198D02*
X128248D01*
X113039Y302198D02*
X128248D01*
X113067Y301198D02*
X128248D01*
X113100Y300198D02*
X128248D01*
X113138Y299198D02*
X128248D01*
X113181Y298198D02*
X128248D01*
X113229Y297198D02*
X128248D01*
X113282Y296198D02*
X128248D01*
X113341Y295198D02*
X128248D01*
X113405Y294198D02*
X128248D01*
X113474Y293198D02*
X128248D01*
X113548Y292198D02*
X128248D01*
X113627Y291198D02*
X128248D01*
X113712Y290198D02*
X128248D01*
X113801Y289198D02*
X128248D01*
X125295Y288198D02*
X128248D01*
X125768Y287198D02*
X128248D01*
X125768Y286198D02*
X128248D01*
X125768Y285198D02*
X128248D01*
X125768Y284198D02*
X128248D01*
X125768Y283198D02*
X128248D01*
X125768Y282198D02*
X128248D01*
X113074Y313198D02*
X124529D01*
X112987Y305198D02*
X124095D01*
X113045Y312198D02*
X123735D01*
X113021Y311198D02*
X123720D01*
X113002Y310198D02*
X123720D01*
X112989Y309198D02*
X123720D01*
X112981Y308198D02*
X123720D01*
X112978Y307198D02*
X123720D01*
X112980Y306198D02*
X123720D01*
X120649Y361198D02*
X123404D01*
X119016Y355198D02*
X123273D01*
X118764Y354198D02*
X122842D01*
X119274Y356198D02*
X122817D01*
X120362Y360198D02*
X122813D01*
X120082Y359198D02*
X122811D01*
X119807Y358198D02*
X122811D01*
X119538Y357198D02*
X122811D01*
X118517Y353198D02*
X122177D01*
X113731Y324198D02*
X121442D01*
X118276Y352198D02*
X121177D01*
X113191Y316198D02*
X121167D01*
X113822Y325198D02*
X121046D01*
X116700Y269198D02*
X120966D01*
X115444Y276198D02*
X120835D01*
X113645Y323198D02*
X120779D01*
X113565Y322198D02*
X120768D01*
X113490Y321198D02*
X120768D01*
X113420Y320198D02*
X120768D01*
X113355Y319198D02*
X120768D01*
X113295Y318198D02*
X120768D01*
X113240Y317198D02*
X120768D01*
X115607Y275198D02*
X120768D01*
X115776Y274198D02*
X120768D01*
X115950Y273198D02*
X120768D01*
X116129Y272198D02*
X120768D01*
X116314Y271198D02*
X120768D01*
X116505Y270198D02*
X120768D01*
X118041Y351198D02*
X120240D01*
X113918Y326198D02*
X120151D01*
X114844Y280198D02*
X119900D01*
X117811Y350198D02*
X119759D01*
X113896Y288198D02*
X119744D01*
X114019Y327198D02*
X119725D01*
X117587Y349198D02*
X119636D01*
X117368Y348198D02*
X119636D01*
X117155Y347198D02*
X119636D01*
X116947Y346198D02*
X119636D01*
X116744Y345198D02*
X119636D01*
X116548Y344198D02*
X119636D01*
X116356Y343198D02*
X119636D01*
X116170Y342198D02*
X119636D01*
X115989Y341198D02*
X119636D01*
X115814Y340198D02*
X119636D01*
X115644Y339198D02*
X119636D01*
X115480Y338198D02*
X119636D01*
X115320Y337198D02*
X119636D01*
X115166Y336198D02*
X119636D01*
X115018Y335198D02*
X119636D01*
X114875Y334198D02*
X119636D01*
X114737Y333198D02*
X119636D01*
X114604Y332198D02*
X119636D01*
X114476Y331198D02*
X119636D01*
X114354Y330198D02*
X119636D01*
X114237Y329198D02*
X119636D01*
X114126Y328198D02*
X119636D01*
X114707Y281198D02*
X119276D01*
X113996Y287198D02*
X119272D01*
X114102Y286198D02*
X119272D01*
X114212Y285198D02*
X119272D01*
X114328Y284198D02*
X119272D01*
X114449Y283198D02*
X119272D01*
X114575Y282198D02*
X119272D01*
X241094Y154198D02*
X297146D01*
X245533Y155198D02*
X290688D01*
X245863Y161198D02*
X290357D01*
X245868Y167198D02*
X290352D01*
X245892Y173198D02*
X290329D01*
X245894Y214198D02*
X290326D01*
X245938Y179198D02*
X290283D01*
X245942Y208198D02*
X290279D01*
X245996Y185198D02*
X290224D01*
X246000Y202198D02*
X290221D01*
X246044Y191198D02*
X290176D01*
X246047Y196198D02*
X290173D01*
X246083Y197198D02*
X290137D01*
X246085Y232198D02*
X290135D01*
X246086Y190198D02*
X290135D01*
X246114Y203198D02*
X290107D01*
X246116Y184198D02*
X290105D01*
X246137Y209198D02*
X290084D01*
X246138Y178198D02*
X290083D01*
X246152Y215198D02*
X290069D01*
X246153Y172198D02*
X290068D01*
X246158Y231198D02*
X290063D01*
X246161Y230198D02*
X290059D01*
X246161Y229198D02*
X290059D01*
X246161Y228198D02*
X290059D01*
X246161Y227198D02*
X290059D01*
X246161Y219198D02*
X290059D01*
X246161Y218198D02*
X290059D01*
X246161Y217198D02*
X290059D01*
X246161Y216198D02*
X290059D01*
X246161Y213198D02*
X290059D01*
X246161Y212198D02*
X290059D01*
X246161Y211198D02*
X290059D01*
X246161Y210198D02*
X290059D01*
X246161Y207198D02*
X290059D01*
X246161Y206198D02*
X290059D01*
X246161Y205198D02*
X290059D01*
X246161Y204198D02*
X290059D01*
X246161Y201198D02*
X290059D01*
X246161Y200198D02*
X290059D01*
X246161Y199198D02*
X290059D01*
X246161Y198198D02*
X290059D01*
X246161Y195198D02*
X290059D01*
X246161Y194198D02*
X290059D01*
X246161Y193198D02*
X290059D01*
X246161Y192198D02*
X290059D01*
X246161Y189198D02*
X290059D01*
X246161Y188198D02*
X290059D01*
X246161Y187198D02*
X290059D01*
X246161Y186198D02*
X290059D01*
X246161Y183198D02*
X290059D01*
X246161Y182198D02*
X290059D01*
X246161Y181198D02*
X290059D01*
X246161Y180198D02*
X290059D01*
X246161Y177198D02*
X290059D01*
X246161Y176198D02*
X290059D01*
X246161Y175198D02*
X290059D01*
X246161Y174198D02*
X290059D01*
X246161Y171198D02*
X290059D01*
X246161Y170198D02*
X290059D01*
X246161Y169198D02*
X290059D01*
X246161Y168198D02*
X290059D01*
X259934Y156198D02*
X290007D01*
X269832Y166198D02*
X289969D01*
X269889Y162198D02*
X289916D01*
X260116Y160198D02*
X289846D01*
X246160Y166198D02*
X266389D01*
X246161Y162198D02*
X266333D01*
X246161Y165198D02*
X265658D01*
X246161Y163198D02*
X265638D01*
X246161Y164198D02*
X265453D01*
X246157Y156198D02*
X256601D01*
X246161Y160198D02*
X256441D01*
X246161Y157198D02*
X255835D01*
X246161Y159198D02*
X255778D01*
X246161Y158198D02*
X255611D01*
X245869Y220198D02*
X250013D01*
X245863Y226198D02*
X249865D01*
X246160Y221198D02*
X248646D01*
X246161Y225198D02*
X248598D01*
X246161Y222198D02*
X248101D01*
X246161Y224198D02*
X248081D01*
X246161Y223198D02*
X247933D01*
X238978Y166637D02*
Y167615D01*
Y160731D02*
Y161710D01*
X237978Y156370D02*
Y168209D01*
X236978Y155370D02*
Y168257D01*
X235978Y154370D02*
Y168858D01*
X234978Y153661D02*
Y169858D01*
X233978Y159680D02*
Y170858D01*
X232978Y159823D02*
Y171858D01*
X231978Y159823D02*
Y172858D01*
X230978Y159823D02*
Y173858D01*
X229978Y159755D02*
Y194493D01*
X228978Y159168D02*
Y194858D01*
X227978Y159350D02*
Y194858D01*
X226978Y159165D02*
Y195008D01*
Y153238D02*
Y154221D01*
X225978Y158471D02*
Y195139D01*
Y153240D02*
Y154915D01*
X224978Y154454D02*
Y194858D01*
X223978Y155265D02*
Y194858D01*
X222978Y155692D02*
Y194858D01*
X221978Y155851D02*
Y194858D01*
X220978Y155772D02*
Y194922D01*
X219978Y155442D02*
Y195745D01*
X218978Y154782D02*
Y195768D01*
X217978Y153478D02*
Y195768D01*
X216978Y153223D02*
Y195768D01*
X215978Y155100D02*
Y195768D01*
X214978Y155843D02*
Y195768D01*
X213978Y155854D02*
Y195768D01*
X212978Y155854D02*
Y195768D01*
X211978Y156002D02*
Y195768D01*
X210978Y157002D02*
Y195768D01*
X209978Y158002D02*
Y195768D01*
X208978Y159002D02*
Y195768D01*
X207978Y160002D02*
Y195311D01*
X206978Y194456D02*
Y194707D01*
X208978Y214682D02*
Y215493D01*
X207978Y214591D02*
Y215846D01*
X206978Y214570D02*
Y215846D01*
X205978Y213800D02*
Y215846D01*
X204978Y213681D02*
Y215846D01*
X203978Y214172D02*
Y215846D01*
X202978Y214591D02*
Y215846D01*
X201978Y214591D02*
Y215846D01*
X200978Y214591D02*
Y215846D01*
X199978Y214591D02*
Y215846D01*
X198978Y214565D02*
Y215846D01*
X197978Y214125D02*
Y215846D01*
X196978Y214582D02*
Y215846D01*
X195978Y214591D02*
Y215846D01*
X194978Y214591D02*
Y215846D01*
X193978Y214591D02*
Y215846D01*
X192978Y214589D02*
Y215846D01*
X191978Y214037D02*
Y215846D01*
X190978Y210447D02*
Y215846D01*
X189978Y213931D02*
Y215846D01*
X188978Y214585D02*
Y215846D01*
X187978Y214591D02*
Y215846D01*
X186978Y214591D02*
Y215846D01*
X185978Y214591D02*
Y215846D01*
X184978Y214588D02*
Y215846D01*
X183978Y214137D02*
Y215846D01*
X182978Y214550D02*
Y215846D01*
X181978Y214903D02*
Y215262D01*
X132978Y319658D02*
Y321695D01*
X131978Y318658D02*
Y322695D01*
X130978Y317658D02*
Y323695D01*
X129978Y316678D02*
Y324508D01*
X128978Y323813D02*
Y324219D01*
X207978Y332362D02*
Y332798D01*
X206978Y331416D02*
Y332860D01*
X205978Y331613D02*
Y332647D01*
X239978Y310339D02*
Y332605D01*
X238978Y310264D02*
Y332654D01*
X237978Y310330D02*
Y332654D01*
X236978Y310166D02*
Y332654D01*
X235978Y309743D02*
Y332834D01*
X234978Y308968D02*
Y332892D01*
X389978Y466473D02*
Y468955D01*
X388978Y464759D02*
Y469525D01*
X387978Y463045D02*
Y470087D01*
X386978Y461332D02*
Y470641D01*
X385978Y459618D02*
Y471187D01*
X384978Y457904D02*
Y471725D01*
X383978Y456190D02*
Y472254D01*
X382978Y454476D02*
Y472776D01*
X381978Y452762D02*
Y473289D01*
X380978Y451048D02*
Y473795D01*
X379978Y449334D02*
Y474293D01*
X378978Y447621D02*
Y474784D01*
X377978Y445907D02*
Y475267D01*
X376978Y444193D02*
Y475742D01*
X375978Y442479D02*
Y476210D01*
X374978Y440765D02*
Y476670D01*
X373978Y439051D02*
Y477123D01*
X372978Y437337D02*
Y477569D01*
X371978Y435623D02*
Y478008D01*
X370978Y433910D02*
Y478439D01*
X369978Y432196D02*
Y478863D01*
X368978Y430482D02*
Y479281D01*
X367978Y428768D02*
Y479691D01*
X366978Y427054D02*
Y480094D01*
X365978Y425340D02*
Y480490D01*
X364978Y423626D02*
Y480880D01*
X363978Y421912D02*
Y481263D01*
X362978Y420199D02*
Y481639D01*
X361978Y418485D02*
Y482008D01*
X360978Y416771D02*
Y482370D01*
X359978Y415057D02*
Y482726D01*
X358978Y413343D02*
Y483076D01*
X357978Y411629D02*
Y483419D01*
X356978Y409915D02*
Y483755D01*
X355978Y408201D02*
Y484085D01*
X354978Y406488D02*
Y484408D01*
X353978Y404774D02*
Y484725D01*
X352978Y403060D02*
Y485036D01*
X351978Y401346D02*
Y485340D01*
X350978Y399632D02*
Y485638D01*
X349978Y397918D02*
Y485930D01*
X348978Y396204D02*
Y486215D01*
X347978Y394490D02*
Y486494D01*
X346978Y392777D02*
Y486768D01*
X345978Y391063D02*
Y487035D01*
X344978Y389349D02*
Y487295D01*
X343978Y387635D02*
Y487550D01*
X342978Y385921D02*
Y487799D01*
X341978Y431138D02*
Y488042D01*
Y384207D02*
Y407051D01*
X340978Y448599D02*
Y488278D01*
Y432533D02*
Y445102D01*
Y382493D02*
Y405656D01*
X339978Y449312D02*
Y488509D01*
Y433533D02*
Y444389D01*
Y380780D02*
Y404656D01*
X338978Y449508D02*
Y488734D01*
Y434373D02*
Y444193D01*
Y379066D02*
Y403656D01*
X337978Y449313D02*
Y488953D01*
Y434547D02*
Y444388D01*
Y407945D02*
Y430244D01*
Y377352D02*
Y402656D01*
X336978Y448728D02*
Y489165D01*
Y434547D02*
Y444973D01*
Y406945D02*
Y430807D01*
Y375638D02*
Y401656D01*
X335978Y448815D02*
Y489372D01*
Y434641D02*
Y444865D01*
Y405945D02*
Y430692D01*
Y373924D02*
Y400656D01*
X334978Y464087D02*
Y489574D01*
Y450062D02*
Y451513D01*
Y435889D02*
Y437339D01*
Y404945D02*
Y423314D01*
Y372210D02*
Y399656D01*
X333978Y464154D02*
Y489769D01*
Y403945D02*
Y423248D01*
Y370496D02*
Y398656D01*
X332978Y464154D02*
Y489958D01*
Y402945D02*
Y423248D01*
Y368782D02*
Y397656D01*
X331978Y464154D02*
Y490142D01*
Y401945D02*
Y423248D01*
Y367069D02*
Y396773D01*
X330978Y464008D02*
Y490320D01*
Y449836D02*
Y451738D01*
Y435663D02*
Y437565D01*
Y400945D02*
Y423394D01*
Y365355D02*
Y396555D01*
X329978Y400295D02*
Y490492D01*
Y363641D02*
Y396555D01*
X328978Y400295D02*
Y490658D01*
Y361927D02*
Y396555D01*
X327978Y464055D02*
Y490818D01*
Y449923D02*
Y451652D01*
Y435750D02*
Y437479D01*
Y400295D02*
Y423347D01*
Y360213D02*
Y396555D01*
X326978Y464154D02*
Y490973D01*
Y400295D02*
Y423248D01*
Y358499D02*
Y396555D01*
X325978Y464154D02*
Y491122D01*
Y400295D02*
Y423248D01*
Y356785D02*
Y396555D01*
X324978Y464154D02*
Y491266D01*
Y400295D02*
Y423248D01*
Y373678D02*
Y396555D01*
Y355071D02*
Y365692D01*
X323978Y464049D02*
Y491403D01*
Y449908D02*
Y451667D01*
Y435735D02*
Y437493D01*
Y400295D02*
Y423353D01*
Y374114D02*
Y396555D01*
Y353358D02*
Y365256D01*
X322978Y448758D02*
Y491535D01*
Y434542D02*
Y444930D01*
Y400295D02*
Y430713D01*
Y374114D02*
Y396555D01*
Y352660D02*
Y365256D01*
X321978Y448720D02*
Y491661D01*
Y434498D02*
Y444980D01*
Y400295D02*
Y430307D01*
Y374114D02*
Y396555D01*
Y353153D02*
Y365256D01*
X320978Y448904D02*
Y491782D01*
Y434371D02*
Y444796D01*
Y400295D02*
Y429307D01*
Y374114D02*
Y396555D01*
Y353620D02*
Y365256D01*
X319978Y449418D02*
Y491897D01*
Y433596D02*
Y444283D01*
Y400295D02*
Y411380D01*
Y374114D02*
Y396555D01*
Y354062D02*
Y365256D01*
X318978Y449489D02*
Y492007D01*
Y432596D02*
Y444211D01*
Y400295D02*
Y410389D01*
Y374114D02*
Y396555D01*
Y354480D02*
Y365148D01*
X317978Y449160D02*
Y492110D01*
Y431596D02*
Y444540D01*
Y400295D02*
Y409398D01*
Y374114D02*
Y396555D01*
Y354874D02*
Y364152D01*
X316978Y448158D02*
Y492208D01*
Y413680D02*
Y445543D01*
Y400295D02*
Y408407D01*
Y373879D02*
Y396555D01*
Y355244D02*
Y363152D01*
X315978Y412682D02*
Y492301D01*
Y400295D02*
Y407416D01*
Y367441D02*
Y396555D01*
Y355591D02*
Y362410D01*
X314978Y411691D02*
Y492388D01*
Y400295D02*
Y406425D01*
Y371332D02*
Y396555D01*
Y366931D02*
Y368038D01*
Y355916D02*
Y362303D01*
X313978Y410700D02*
Y492469D01*
Y400295D02*
Y405706D01*
Y372837D02*
Y396555D01*
Y356219D02*
Y362303D01*
X312978Y409709D02*
Y492545D01*
Y400295D02*
Y405610D01*
Y373579D02*
Y396555D01*
Y356501D02*
Y362303D01*
X311978Y409350D02*
Y492615D01*
Y400295D02*
Y405610D01*
Y380431D02*
Y396555D01*
Y356762D02*
Y362303D01*
X310978Y409350D02*
Y492680D01*
Y400295D02*
Y405610D01*
Y381431D02*
Y396555D01*
Y357001D02*
Y362303D01*
X309978Y409350D02*
Y492739D01*
Y400295D02*
Y405610D01*
Y382431D02*
Y396555D01*
Y357220D02*
Y362303D01*
X308978Y409350D02*
Y492793D01*
Y400295D02*
Y405610D01*
Y383431D02*
Y396555D01*
Y357419D02*
Y362303D01*
X307978Y409350D02*
Y492841D01*
Y400295D02*
Y405610D01*
Y384431D02*
Y396555D01*
Y357598D02*
Y362303D01*
X306978Y409350D02*
Y492883D01*
Y400295D02*
Y405610D01*
Y386544D02*
Y396555D01*
Y357757D02*
Y362303D01*
X305978Y409350D02*
Y492920D01*
Y400295D02*
Y405610D01*
Y387160D02*
Y396555D01*
Y357896D02*
Y362303D01*
X304978Y409350D02*
Y492951D01*
Y400295D02*
Y405610D01*
Y387299D02*
Y396555D01*
Y358016D02*
Y362303D01*
X303978Y409350D02*
Y492977D01*
Y400295D02*
Y405610D01*
Y387046D02*
Y396555D01*
Y358116D02*
Y362303D01*
X302978Y483435D02*
Y492997D01*
Y409350D02*
Y478770D01*
Y400758D02*
Y405610D01*
Y386221D02*
Y396092D01*
Y358197D02*
Y362303D01*
X301978Y484562D02*
Y493012D01*
Y409350D02*
Y477642D01*
Y401885D02*
Y405610D01*
Y384693D02*
Y394965D01*
Y358259D02*
Y362303D01*
X300978Y485165D02*
Y493022D01*
Y409350D02*
Y477040D01*
Y402487D02*
Y405610D01*
Y385525D02*
Y394363D01*
Y358302D02*
Y362303D01*
X299978Y485465D02*
Y493025D01*
Y409350D02*
Y476740D01*
Y402788D02*
Y405610D01*
Y386525D02*
Y394063D01*
Y358325D02*
Y362303D01*
X298978Y485525D02*
Y493023D01*
Y409350D02*
Y476679D01*
Y402848D02*
Y405610D01*
Y387525D02*
Y394002D01*
Y373869D02*
Y382147D01*
Y358330D02*
Y362303D01*
X297978Y485356D02*
Y493016D01*
Y409350D02*
Y476849D01*
Y402679D02*
Y405610D01*
Y388525D02*
Y394172D01*
Y373043D02*
Y383236D01*
Y358316D02*
Y362303D01*
X296978Y484926D02*
Y493003D01*
Y409350D02*
Y477278D01*
Y402249D02*
Y405610D01*
Y389426D02*
Y394601D01*
Y371806D02*
Y384236D01*
Y366043D02*
Y367565D01*
Y358282D02*
Y362303D01*
Y232402D02*
Y253165D01*
X295978Y484128D02*
Y492985D01*
Y409350D02*
Y478077D01*
Y401450D02*
Y405610D01*
Y389665D02*
Y395400D01*
Y366043D02*
Y384946D01*
Y358230D02*
Y362303D01*
Y232382D02*
Y253324D01*
X294978Y482399D02*
Y492961D01*
Y409350D02*
Y479805D01*
Y399722D02*
Y405610D01*
Y389665D02*
Y397128D01*
Y371601D02*
Y382972D01*
Y366043D02*
Y367769D01*
Y358158D02*
Y362303D01*
Y232382D02*
Y253396D01*
X293978Y409350D02*
Y492932D01*
Y389665D02*
Y405610D01*
Y372950D02*
Y382211D01*
Y358067D02*
Y362303D01*
Y232382D02*
Y253487D01*
X292978Y409350D02*
Y492897D01*
Y389665D02*
Y405610D01*
Y373640D02*
Y381989D01*
Y357957D02*
Y362303D01*
Y232382D02*
Y253597D01*
X291978Y409350D02*
Y492856D01*
Y389665D02*
Y405610D01*
Y374001D02*
Y382158D01*
Y357828D02*
Y362303D01*
Y249472D02*
Y253727D01*
Y238740D02*
Y245016D01*
Y232536D02*
Y233307D01*
X290978Y409350D02*
Y492810D01*
Y389665D02*
Y405610D01*
Y374114D02*
Y382753D01*
Y357678D02*
Y362303D01*
Y250653D02*
Y253876D01*
Y239645D02*
Y243835D01*
X289978Y409350D02*
Y492758D01*
Y389665D02*
Y405610D01*
Y373998D02*
Y382776D01*
Y357509D02*
Y362303D01*
Y251278D02*
Y254045D01*
Y239665D02*
Y243210D01*
X288978Y409350D02*
Y492701D01*
Y389665D02*
Y405610D01*
Y373634D02*
Y382776D01*
Y357321D02*
Y362303D01*
Y251595D02*
Y254234D01*
Y239665D02*
Y242893D01*
X287978Y409350D02*
Y492638D01*
Y389665D02*
Y405566D01*
Y372937D02*
Y382776D01*
Y357111D02*
Y362303D01*
Y251670D02*
Y254443D01*
Y239665D02*
Y242818D01*
X286978Y409337D02*
Y492570D01*
Y389665D02*
Y404610D01*
Y371666D02*
Y382776D01*
Y356882D02*
Y362303D01*
Y251515D02*
Y254672D01*
Y239665D02*
Y242973D01*
X285978Y408893D02*
Y492496D01*
Y389665D02*
Y403610D01*
Y371555D02*
Y382776D01*
Y356632D02*
Y362303D01*
Y251104D02*
Y254922D01*
Y239391D02*
Y243384D01*
X284978Y407900D02*
Y492417D01*
Y389665D02*
Y402610D01*
Y371555D02*
Y382776D01*
Y356361D02*
Y362303D01*
Y250335D02*
Y255194D01*
Y239658D02*
Y244153D01*
X283978Y406900D02*
Y492332D01*
Y389665D02*
Y401610D01*
Y371555D02*
Y382776D01*
Y356068D02*
Y362303D01*
Y248731D02*
Y255486D01*
Y239665D02*
Y245757D01*
X282978Y405900D02*
Y492241D01*
Y389665D02*
Y400610D01*
Y371555D02*
Y382776D01*
Y355754D02*
Y362303D01*
Y239665D02*
Y255800D01*
X281978Y404900D02*
Y492145D01*
Y389665D02*
Y399610D01*
Y371555D02*
Y382776D01*
Y355417D02*
Y362303D01*
Y249664D02*
Y256137D01*
Y239665D02*
Y244825D01*
X280978Y403900D02*
Y492043D01*
Y389665D02*
Y398610D01*
Y371555D02*
Y382776D01*
Y355058D02*
Y362303D01*
Y250748D02*
Y256496D01*
Y239665D02*
Y243741D01*
X279978Y402900D02*
Y491936D01*
Y389665D02*
Y397610D01*
Y371555D02*
Y382776D01*
Y354676D02*
Y362303D01*
Y251330D02*
Y256878D01*
Y239370D02*
Y243158D01*
X278978Y401900D02*
Y491823D01*
Y389665D02*
Y393127D01*
Y371555D02*
Y382776D01*
Y354271D02*
Y362303D01*
Y251616D02*
Y257283D01*
Y239665D02*
Y242872D01*
X277978Y400900D02*
Y491704D01*
Y389665D02*
Y392042D01*
Y371555D02*
Y382776D01*
Y353841D02*
Y362303D01*
Y251813D02*
Y257713D01*
Y239665D02*
Y242824D01*
X276978Y399901D02*
Y491580D01*
Y389665D02*
Y391459D01*
Y371555D02*
Y382776D01*
Y353386D02*
Y362303D01*
Y252813D02*
Y258168D01*
Y239665D02*
Y243007D01*
X275978Y399916D02*
Y491450D01*
Y389665D02*
Y391172D01*
Y371555D02*
Y382776D01*
Y352906D02*
Y362303D01*
Y253813D02*
Y258648D01*
Y239665D02*
Y243453D01*
X274978Y399964D02*
Y491314D01*
Y389665D02*
Y391124D01*
Y371555D02*
Y382776D01*
Y352399D02*
Y362303D01*
Y254813D02*
Y259155D01*
Y239665D02*
Y244279D01*
X273978Y399781D02*
Y491173D01*
Y389665D02*
Y391306D01*
Y371555D02*
Y382776D01*
Y351865D02*
Y362303D01*
Y255813D02*
Y259689D01*
Y239368D02*
Y246143D01*
X272978Y399336D02*
Y491026D01*
Y389665D02*
Y391752D01*
Y371555D02*
Y382776D01*
Y351303D02*
Y362303D01*
Y256813D02*
Y260251D01*
Y239665D02*
Y247200D01*
X271978Y398511D02*
Y490873D01*
Y389740D02*
Y392577D01*
Y371555D02*
Y382776D01*
Y350711D02*
Y362303D01*
Y257813D02*
Y260843D01*
Y239665D02*
Y244825D01*
X270978Y396650D02*
Y490715D01*
Y390722D02*
Y394437D01*
Y371555D02*
Y382776D01*
Y350089D02*
Y362297D01*
Y258813D02*
Y261465D01*
Y239665D02*
Y243741D01*
X269978Y391722D02*
Y490550D01*
Y371555D02*
Y382778D01*
Y349436D02*
Y361427D01*
Y259813D02*
Y262119D01*
Y239665D02*
Y243158D01*
X268978Y403352D02*
Y490380D01*
Y371416D02*
Y383134D01*
Y348749D02*
Y353459D01*
Y260813D02*
Y262806D01*
Y239660D02*
Y242872D01*
X267978Y404352D02*
Y490204D01*
Y370622D02*
Y384102D01*
Y348027D02*
Y352341D01*
Y261813D02*
Y263527D01*
Y239385D02*
Y242824D01*
X266978Y405352D02*
Y490023D01*
Y369622D02*
Y385102D01*
Y347269D02*
Y351341D01*
Y262782D02*
Y264286D01*
Y239665D02*
Y243007D01*
X265978Y406352D02*
Y489836D01*
Y368622D02*
Y386102D01*
Y346471D02*
Y350341D01*
Y263321D02*
Y265083D01*
Y239665D02*
Y243453D01*
X264978Y407352D02*
Y489642D01*
Y367622D02*
Y387102D01*
Y345633D02*
Y349341D01*
Y263484D02*
Y265921D01*
Y239665D02*
Y244279D01*
X263978Y408073D02*
Y489443D01*
Y366622D02*
Y388102D01*
Y344752D02*
Y348341D01*
Y263484D02*
Y266803D01*
Y248345D02*
Y249519D01*
Y239665D02*
Y246143D01*
X262978Y408169D02*
Y489238D01*
Y365552D02*
Y389172D01*
Y343823D02*
Y347357D01*
Y263484D02*
Y267731D01*
Y239648D02*
Y250056D01*
X261978Y408169D02*
Y489028D01*
Y354780D02*
Y400338D01*
Y342845D02*
Y346956D01*
Y263484D02*
Y268710D01*
Y239422D02*
Y242944D01*
X260978Y408169D02*
Y488811D01*
Y353780D02*
Y401338D01*
Y341812D02*
Y346949D01*
Y263484D02*
Y269743D01*
Y239665D02*
Y242815D01*
X259978Y408169D02*
Y488588D01*
Y353445D02*
Y401673D01*
Y340720D02*
Y346949D01*
Y263484D02*
Y270835D01*
Y239665D02*
Y242815D01*
X258978Y408169D02*
Y488360D01*
Y392578D02*
Y401673D01*
Y382342D02*
Y384587D01*
Y353445D02*
Y374351D01*
Y339563D02*
Y346949D01*
Y263484D02*
Y271991D01*
Y239665D02*
Y242815D01*
X257978Y477055D02*
Y488125D01*
Y408169D02*
Y473752D01*
Y392618D02*
Y401673D01*
Y382382D02*
Y384547D01*
Y353445D02*
Y373585D01*
Y338334D02*
Y346949D01*
Y263484D02*
Y273220D01*
Y239665D02*
Y242815D01*
X256978Y478558D02*
Y487884D01*
Y408169D02*
Y472250D01*
Y392618D02*
Y401673D01*
Y382382D02*
Y384547D01*
Y353445D02*
Y372443D01*
Y337025D02*
Y346949D01*
Y263484D02*
Y274529D01*
Y239628D02*
Y242815D01*
X255978Y479298D02*
Y487638D01*
Y408169D02*
Y471509D01*
Y392618D02*
Y401673D01*
Y382382D02*
Y384547D01*
Y353445D02*
Y371443D01*
Y335626D02*
Y346949D01*
Y263484D02*
Y275928D01*
Y239480D02*
Y242815D01*
X254978Y479692D02*
Y487385D01*
Y408169D02*
Y471116D01*
Y392618D02*
Y401673D01*
Y382382D02*
Y384547D01*
Y353445D02*
Y370443D01*
Y334122D02*
Y346949D01*
Y263484D02*
Y277432D01*
Y239665D02*
Y242823D01*
X253978Y479832D02*
Y487126D01*
Y408169D02*
Y470976D01*
Y392618D02*
Y401673D01*
Y382382D02*
Y384547D01*
Y353445D02*
Y369835D01*
Y332497D02*
Y346949D01*
Y263484D02*
Y279058D01*
Y239665D02*
Y243514D01*
X252978Y479743D02*
Y486861D01*
Y408169D02*
Y471065D01*
Y392185D02*
Y401673D01*
Y381949D02*
Y384980D01*
Y353445D02*
Y369783D01*
Y330726D02*
Y346949D01*
Y263484D02*
Y280829D01*
Y239665D02*
Y245374D01*
X251978Y479409D02*
Y486590D01*
Y408169D02*
Y471398D01*
Y390892D02*
Y401673D01*
Y380656D02*
Y386273D01*
Y353445D02*
Y369783D01*
Y328775D02*
Y346949D01*
Y263484D02*
Y282779D01*
Y239665D02*
Y245374D01*
X250978Y478760D02*
Y486313D01*
Y408169D02*
Y472048D01*
Y392477D02*
Y401673D01*
Y382241D02*
Y384688D01*
Y353445D02*
Y369783D01*
Y326596D02*
Y346949D01*
Y263484D02*
Y284959D01*
Y239601D02*
Y245374D01*
X249978Y477521D02*
Y486030D01*
Y408169D02*
Y473287D01*
Y392618D02*
Y401673D01*
Y382382D02*
Y384547D01*
Y353445D02*
Y369783D01*
Y324105D02*
Y346949D01*
Y277415D02*
Y287450D01*
Y263484D02*
Y273373D01*
Y239532D02*
Y245374D01*
X248978Y408169D02*
Y485740D01*
Y392618D02*
Y401673D01*
Y382382D02*
Y384547D01*
Y353445D02*
Y369783D01*
Y321152D02*
Y346949D01*
Y278705D02*
Y290402D01*
Y263484D02*
Y272082D01*
Y239665D02*
Y245374D01*
X247978Y408169D02*
Y485445D01*
Y392618D02*
Y401673D01*
Y382382D02*
Y384547D01*
Y353445D02*
Y369783D01*
Y317391D02*
Y346884D01*
Y279456D02*
Y294163D01*
Y263484D02*
Y271413D01*
Y239665D02*
Y245374D01*
X246978Y408169D02*
Y485143D01*
Y392618D02*
Y401673D01*
Y382382D02*
Y384547D01*
Y353445D02*
Y369783D01*
Y311378D02*
Y327880D01*
Y288899D02*
Y300176D01*
Y263484D02*
Y271066D01*
Y239665D02*
Y245374D01*
X245978Y408169D02*
Y484834D01*
Y393281D02*
Y401673D01*
Y382382D02*
Y384547D01*
Y353445D02*
Y369783D01*
Y289899D02*
Y327358D01*
Y263484D02*
Y270965D01*
Y239665D02*
Y245374D01*
X244978Y408169D02*
Y484519D01*
Y393931D02*
Y401673D01*
Y382179D02*
Y384750D01*
Y373539D02*
Y374514D01*
Y353445D02*
Y369783D01*
Y290899D02*
Y327281D01*
Y263484D02*
Y271093D01*
Y239566D02*
Y245374D01*
X243978Y408169D02*
Y484198D01*
Y393996D02*
Y401673D01*
Y373524D02*
Y389992D01*
Y353445D02*
Y369783D01*
Y291899D02*
Y309580D01*
Y279323D02*
Y286610D01*
Y263484D02*
Y271472D01*
Y232391D02*
Y245374D01*
X242978Y408169D02*
Y483871D01*
Y393996D02*
Y401673D01*
Y373524D02*
Y390256D01*
Y353445D02*
Y369783D01*
Y292899D02*
Y308049D01*
Y278597D02*
Y287610D01*
Y263484D02*
Y272190D01*
Y232382D02*
Y245374D01*
X241978Y408169D02*
Y483537D01*
Y393996D02*
Y401673D01*
Y389067D02*
Y390246D01*
Y381587D02*
Y384949D01*
Y373524D02*
Y377468D01*
Y353445D02*
Y369783D01*
Y293899D02*
Y303611D01*
Y277167D02*
Y288610D01*
Y263484D02*
Y273621D01*
Y232382D02*
Y245374D01*
X240978Y414538D02*
Y483196D01*
Y408169D02*
Y412234D01*
Y393996D02*
Y401673D01*
Y382298D02*
Y384237D01*
Y373921D02*
Y376757D01*
Y353445D02*
Y369783D01*
Y294899D02*
Y302464D01*
Y263484D02*
Y289610D01*
Y232382D02*
Y245374D01*
X239978Y415648D02*
Y482849D01*
Y408169D02*
Y411124D01*
Y393996D02*
Y401673D01*
Y382307D02*
Y384228D01*
Y374921D02*
Y376748D01*
Y353445D02*
Y369890D01*
Y338262D02*
Y340085D01*
Y295899D02*
Y301854D01*
Y263484D02*
Y290610D01*
Y232369D02*
Y245374D01*
X238978Y416014D02*
Y482495D01*
Y408169D02*
Y410758D01*
Y393996D02*
Y401673D01*
Y382307D02*
Y384228D01*
Y375922D02*
Y376590D01*
Y353445D02*
Y370632D01*
Y338213D02*
Y340134D01*
Y296899D02*
Y301547D01*
Y263484D02*
Y291610D01*
Y231597D02*
Y245374D01*
Y225692D02*
Y226670D01*
Y219786D02*
Y220765D01*
Y213881D02*
Y214859D01*
Y207975D02*
Y208954D01*
Y202070D02*
Y203048D01*
Y196164D02*
Y197143D01*
Y190259D02*
Y191237D01*
Y184353D02*
Y185332D01*
Y178448D02*
Y179426D01*
X237978Y415974D02*
Y482135D01*
Y408169D02*
Y410798D01*
Y393996D02*
Y401673D01*
Y382307D02*
Y384228D01*
Y353445D02*
Y371632D01*
Y338213D02*
Y340134D01*
Y297899D02*
Y301481D01*
Y263484D02*
Y292610D01*
Y178053D02*
Y245374D01*
X236978Y415504D02*
Y481768D01*
Y408169D02*
Y411268D01*
Y393783D02*
Y401673D01*
Y382306D02*
Y384229D01*
Y353445D02*
Y372632D01*
Y338213D02*
Y340134D01*
Y298899D02*
Y301645D01*
Y263484D02*
Y293610D01*
Y179053D02*
Y245374D01*
X235978Y413911D02*
Y481395D01*
Y408169D02*
Y412861D01*
Y392903D02*
Y401673D01*
Y381863D02*
Y384673D01*
Y353445D02*
Y373632D01*
Y338032D02*
Y340314D01*
Y299899D02*
Y302068D01*
Y263484D02*
Y294610D01*
Y200869D02*
Y245374D01*
X234978Y408169D02*
Y481014D01*
Y391903D02*
Y401673D01*
Y382258D02*
Y384277D01*
Y353445D02*
Y374632D01*
Y337974D02*
Y340373D01*
Y300899D02*
Y302843D01*
Y263484D02*
Y295610D01*
Y201869D02*
Y245374D01*
X233978Y408169D02*
Y480627D01*
Y390903D02*
Y401673D01*
Y382307D02*
Y384228D01*
Y353445D02*
Y375632D01*
Y338213D02*
Y340134D01*
Y263484D02*
Y296610D01*
Y202869D02*
Y245374D01*
X232978Y415314D02*
Y480233D01*
Y408169D02*
Y411458D01*
Y389906D02*
Y401673D01*
Y382307D02*
Y384228D01*
Y353445D02*
Y376630D01*
Y338213D02*
Y340134D01*
Y263484D02*
Y297610D01*
Y203869D02*
Y245374D01*
X231978Y416149D02*
Y479832D01*
Y408169D02*
Y410623D01*
Y389787D02*
Y401673D01*
Y382921D02*
Y384228D01*
Y353445D02*
Y376748D01*
Y338213D02*
Y340134D01*
Y263484D02*
Y298610D01*
Y207355D02*
Y245374D01*
X230978Y416165D02*
Y479425D01*
Y408169D02*
Y410606D01*
Y389789D02*
Y401673D01*
Y353445D02*
Y376748D01*
Y338213D02*
Y340134D01*
Y263484D02*
Y299611D01*
Y207504D02*
Y245374D01*
X229978Y416165D02*
Y479010D01*
Y408169D02*
Y410606D01*
Y390058D02*
Y401673D01*
Y353445D02*
Y377070D01*
Y338129D02*
Y340218D01*
Y263484D02*
Y332737D01*
Y207504D02*
Y245374D01*
Y200418D02*
Y201580D01*
X228978Y416165D02*
Y478588D01*
Y408169D02*
Y410606D01*
Y390059D02*
Y401673D01*
Y353445D02*
Y380632D01*
Y337312D02*
Y341035D01*
Y263484D02*
Y333554D01*
Y207504D02*
Y245374D01*
Y200417D02*
Y201945D01*
X227978Y416165D02*
Y478159D01*
Y408169D02*
Y410606D01*
Y390059D02*
Y401673D01*
Y353445D02*
Y381632D01*
Y337357D02*
Y341043D01*
Y263484D02*
Y333509D01*
Y207504D02*
Y245374D01*
Y200417D02*
Y201945D01*
X226978Y415742D02*
Y477723D01*
Y408169D02*
Y411029D01*
Y390059D02*
Y401673D01*
Y369187D02*
Y382632D01*
Y364370D02*
Y367821D01*
Y353445D02*
Y359252D01*
Y338171D02*
Y340354D01*
Y263484D02*
Y332695D01*
Y235191D02*
Y245374D01*
Y207354D02*
Y232525D01*
Y200268D02*
Y202094D01*
X225978Y416099D02*
Y477280D01*
Y408169D02*
Y410672D01*
Y390059D02*
Y401673D01*
Y370649D02*
Y383169D01*
Y364591D02*
Y366358D01*
Y353244D02*
Y359031D01*
Y338213D02*
Y340134D01*
Y263484D02*
Y332654D01*
Y236447D02*
Y245374D01*
Y207223D02*
Y231270D01*
Y200137D02*
Y202226D01*
X224978Y416165D02*
Y476829D01*
Y408169D02*
Y410606D01*
Y390059D02*
Y401673D01*
Y371100D02*
Y383169D01*
Y364591D02*
Y365908D01*
Y352376D02*
Y359031D01*
Y338213D02*
Y340134D01*
Y263484D02*
Y332654D01*
Y236961D02*
Y245374D01*
Y207504D02*
Y230756D01*
Y200417D02*
Y201945D01*
X223978Y416165D02*
Y476371D01*
Y408169D02*
Y410606D01*
Y390059D02*
Y401673D01*
Y371126D02*
Y383169D01*
Y364591D02*
Y365882D01*
Y351376D02*
Y359031D01*
Y338213D02*
Y340134D01*
Y263484D02*
Y332654D01*
Y237106D02*
Y245374D01*
Y207504D02*
Y230610D01*
Y200417D02*
Y201945D01*
X222978Y416165D02*
Y475906D01*
Y408169D02*
Y410606D01*
Y390059D02*
Y401673D01*
Y370743D02*
Y383169D01*
Y364591D02*
Y366265D01*
Y350376D02*
Y359031D01*
Y338213D02*
Y340134D01*
Y263314D02*
Y332654D01*
Y237106D02*
Y245374D01*
Y207504D02*
Y230610D01*
Y200417D02*
Y201945D01*
X221978Y416165D02*
Y475433D01*
Y408169D02*
Y410606D01*
Y390059D02*
Y401673D01*
Y369865D02*
Y383169D01*
Y364499D02*
Y367143D01*
Y349376D02*
Y359126D01*
Y337866D02*
Y340228D01*
Y262765D02*
Y333000D01*
Y256595D02*
Y257707D01*
Y237106D02*
Y245374D01*
Y207504D02*
Y230610D01*
Y200417D02*
Y201945D01*
X220978Y415889D02*
Y474953D01*
Y408169D02*
Y410882D01*
Y390059D02*
Y401673D01*
Y372392D02*
Y383169D01*
Y348376D02*
Y359411D01*
Y338100D02*
Y340513D01*
Y330892D02*
Y332766D01*
Y261385D02*
Y328950D01*
Y256595D02*
Y259088D01*
Y237106D02*
Y245374D01*
Y207440D02*
Y230610D01*
Y200353D02*
Y202009D01*
X219978Y415256D02*
Y474465D01*
Y408169D02*
Y411516D01*
Y390059D02*
Y401673D01*
Y373524D02*
Y383169D01*
Y347376D02*
Y359031D01*
Y338213D02*
Y340134D01*
Y256595D02*
Y327710D01*
Y237106D02*
Y245374D01*
Y206617D02*
Y230610D01*
Y199530D02*
Y202832D01*
X218978Y415286D02*
Y473970D01*
Y408169D02*
Y411486D01*
Y390059D02*
Y401673D01*
Y373996D02*
Y383169D01*
Y346376D02*
Y358731D01*
Y338213D02*
Y340134D01*
Y256595D02*
Y327306D01*
Y237106D02*
Y245374D01*
Y206595D02*
Y230610D01*
Y199508D02*
Y202854D01*
X217978Y416108D02*
Y473467D01*
Y408169D02*
Y410664D01*
Y390059D02*
Y401673D01*
Y374111D02*
Y383169D01*
Y345693D02*
Y358615D01*
Y338213D02*
Y340134D01*
Y256595D02*
Y327316D01*
Y237106D02*
Y245374D01*
Y214331D02*
Y230610D01*
Y207244D02*
Y209291D01*
Y199508D02*
Y202205D01*
X216978Y416165D02*
Y472956D01*
Y408169D02*
Y410606D01*
Y390059D02*
Y401673D01*
Y374595D02*
Y383169D01*
Y345693D02*
Y358816D01*
Y338213D02*
Y340134D01*
Y256595D02*
Y327746D01*
Y237106D02*
Y245374D01*
Y214591D02*
Y230610D01*
Y207504D02*
Y209031D01*
Y199508D02*
Y201945D01*
X215978Y416165D02*
Y472437D01*
Y408169D02*
Y410606D01*
Y390059D02*
Y401673D01*
Y375595D02*
Y383169D01*
Y345661D02*
Y359063D01*
Y338020D02*
Y340165D01*
Y330746D02*
Y332847D01*
Y256595D02*
Y329097D01*
Y237106D02*
Y245374D01*
Y214591D02*
Y230610D01*
Y207504D02*
Y209031D01*
Y199508D02*
Y201945D01*
X214978Y416165D02*
Y471910D01*
Y408169D02*
Y410606D01*
Y390059D02*
Y401673D01*
Y376595D02*
Y383169D01*
Y344861D02*
Y360980D01*
Y337303D02*
Y340966D01*
Y256595D02*
Y333563D01*
Y237106D02*
Y245374D01*
Y214783D02*
Y230610D01*
Y207504D02*
Y209031D01*
Y199508D02*
Y201945D01*
X213978Y416165D02*
Y471376D01*
Y408169D02*
Y410606D01*
Y390059D02*
Y401673D01*
Y377595D02*
Y383169D01*
Y344786D02*
Y372306D01*
Y337306D02*
Y341041D01*
Y256595D02*
Y333560D01*
Y237106D02*
Y245374D01*
Y215783D02*
Y230610D01*
Y207504D02*
Y209031D01*
Y199508D02*
Y201945D01*
X212978Y415867D02*
Y470833D01*
Y408169D02*
Y410904D01*
Y390059D02*
Y401673D01*
Y378595D02*
Y383169D01*
Y345592D02*
Y373306D01*
Y338112D02*
Y340234D01*
Y256595D02*
Y332754D01*
Y237106D02*
Y245374D01*
Y216783D02*
Y230610D01*
Y207431D02*
Y209105D01*
Y199508D02*
Y202018D01*
X211978Y421289D02*
Y470282D01*
Y416027D02*
Y419655D01*
Y408169D02*
Y410745D01*
Y390059D02*
Y401673D01*
Y379595D02*
Y383169D01*
Y345693D02*
Y373720D01*
Y338213D02*
Y340134D01*
Y256595D02*
Y331041D01*
Y237106D02*
Y245374D01*
Y217783D02*
Y230610D01*
Y207091D02*
Y209444D01*
Y199508D02*
Y202358D01*
X210978Y422646D02*
Y469722D01*
Y408169D02*
Y410606D01*
Y390059D02*
Y401673D01*
Y380595D02*
Y383169D01*
Y345693D02*
Y373720D01*
Y338213D02*
Y340134D01*
Y256595D02*
Y330036D01*
Y237106D02*
Y245374D01*
Y218794D02*
Y230610D01*
Y207504D02*
Y209031D01*
Y199508D02*
Y201945D01*
X209978Y423077D02*
Y469155D01*
Y408169D02*
Y410606D01*
Y390059D02*
Y401673D01*
Y381595D02*
Y383169D01*
Y346161D02*
Y373720D01*
Y338213D02*
Y340134D01*
Y256595D02*
Y329036D01*
Y237106D02*
Y245374D01*
Y219510D02*
Y230610D01*
Y207504D02*
Y209031D01*
Y199508D02*
Y201945D01*
X208978Y423088D02*
Y468579D01*
Y408169D02*
Y410606D01*
Y390059D02*
Y401673D01*
Y347161D02*
Y373720D01*
Y338213D02*
Y340134D01*
Y261594D02*
Y328055D01*
Y256595D02*
Y258879D01*
Y237106D02*
Y245374D01*
Y219587D02*
Y230610D01*
Y207504D02*
Y209031D01*
Y199508D02*
Y201945D01*
X207978Y422686D02*
Y467998D01*
Y408169D02*
Y410606D01*
Y390059D02*
Y401673D01*
Y348161D02*
Y373720D01*
Y338002D02*
Y340344D01*
Y262563D02*
Y327664D01*
Y256595D02*
Y257910D01*
Y237106D02*
Y245374D01*
Y219587D02*
Y230610D01*
Y207504D02*
Y209031D01*
Y199964D02*
Y201945D01*
X206978Y421450D02*
Y467431D01*
Y416005D02*
Y419495D01*
Y408169D02*
Y410767D01*
Y390059D02*
Y401673D01*
Y370322D02*
Y371411D01*
Y367172D02*
Y368261D01*
Y349161D02*
Y365111D01*
Y338006D02*
Y340341D01*
Y262878D02*
Y327657D01*
Y256595D02*
Y257594D01*
Y237106D02*
Y245374D01*
Y219587D02*
Y230610D01*
Y207484D02*
Y209052D01*
Y200280D02*
Y201965D01*
X205978Y408169D02*
Y466856D01*
Y390099D02*
Y401673D01*
Y350161D02*
Y364232D01*
Y338213D02*
Y340134D01*
Y262796D02*
Y327442D01*
Y256595D02*
Y257677D01*
Y237106D02*
Y245374D01*
Y219587D02*
Y230610D01*
Y206587D02*
Y209822D01*
Y200197D02*
Y202862D01*
X204978Y408169D02*
Y466273D01*
Y390119D02*
Y401673D01*
Y351161D02*
Y364212D01*
Y338213D02*
Y340134D01*
Y262266D02*
Y326950D01*
Y256595D02*
Y258206D01*
Y237106D02*
Y245374D01*
Y219587D02*
Y230610D01*
Y199668D02*
Y209941D01*
X203978Y408169D02*
Y465682D01*
Y390119D02*
Y401673D01*
Y351806D02*
Y364212D01*
Y345693D02*
Y346871D01*
Y338213D02*
Y340134D01*
Y262106D02*
Y326894D01*
Y256595D02*
Y258366D01*
Y237106D02*
Y245374D01*
Y219587D02*
Y230610D01*
Y198293D02*
Y209450D01*
Y153211D02*
Y154815D01*
X202978Y408169D02*
Y465084D01*
Y390119D02*
Y401673D01*
Y351870D02*
Y364212D01*
Y345693D02*
Y347871D01*
Y338213D02*
Y340134D01*
Y331842D02*
Y332481D01*
Y262106D02*
Y327240D01*
Y256595D02*
Y258366D01*
Y237106D02*
Y245374D01*
Y219587D02*
Y230610D01*
Y198599D02*
Y209031D01*
Y153210D02*
Y155815D01*
X201978Y408169D02*
Y464477D01*
Y390119D02*
Y401673D01*
Y351870D02*
Y364212D01*
Y345590D02*
Y348130D01*
Y338110D02*
Y340237D01*
Y330763D02*
Y332756D01*
Y262106D02*
Y328293D01*
Y256595D02*
Y258366D01*
Y237106D02*
Y245374D01*
Y219587D02*
Y230610D01*
Y198892D02*
Y209031D01*
Y153209D02*
Y156815D01*
X200978Y408169D02*
Y463862D01*
Y390119D02*
Y401673D01*
Y351987D02*
Y364212D01*
Y262106D02*
Y348013D01*
Y256595D02*
Y258366D01*
Y237106D02*
Y245374D01*
Y219587D02*
Y230610D01*
Y198862D02*
Y209031D01*
Y153208D02*
Y158110D01*
X199978Y408169D02*
Y463238D01*
Y390119D02*
Y401673D01*
Y352545D02*
Y364212D01*
Y262155D02*
Y347455D01*
Y256595D02*
Y258366D01*
Y237106D02*
Y245374D01*
Y219587D02*
Y230610D01*
Y198598D02*
Y209031D01*
Y153207D02*
Y192673D01*
X198978Y408169D02*
Y462606D01*
Y389855D02*
Y401673D01*
Y352647D02*
Y364476D01*
Y263116D02*
Y347353D01*
Y256596D02*
Y258381D01*
Y237106D02*
Y245374D01*
Y219587D02*
Y230610D01*
Y189247D02*
Y193719D01*
Y153206D02*
Y181619D01*
X197978Y408169D02*
Y461966D01*
Y398077D02*
Y401673D01*
Y362644D02*
Y391687D01*
Y352845D02*
Y356254D01*
Y264160D02*
Y347155D01*
Y257423D02*
Y258832D01*
Y237106D02*
Y245374D01*
Y219587D02*
Y230610D01*
Y189665D02*
Y195940D01*
Y153205D02*
Y181198D01*
X196978Y408169D02*
Y461317D01*
Y399134D02*
Y401673D01*
Y363701D02*
Y390630D01*
Y258423D02*
Y259826D01*
Y237106D02*
Y245374D01*
Y219587D02*
Y230610D01*
Y153204D02*
Y175515D01*
X195978Y408169D02*
Y460659D01*
Y399161D02*
Y401673D01*
Y363728D02*
Y390602D01*
Y259423D02*
Y260826D01*
Y237106D02*
Y245436D01*
Y219587D02*
Y230610D01*
Y153203D02*
Y174508D01*
X194978Y408169D02*
Y459993D01*
Y399085D02*
Y401673D01*
Y363652D02*
Y390679D01*
Y260423D02*
Y261224D01*
Y237106D02*
Y246078D01*
Y219587D02*
Y230610D01*
Y199740D02*
Y201205D01*
Y153202D02*
Y171019D01*
X193978Y408169D02*
Y459317D01*
Y399093D02*
Y401673D01*
Y363659D02*
Y390671D01*
Y237106D02*
Y247078D01*
Y219587D02*
Y230610D01*
Y198917D02*
Y201476D01*
Y153201D02*
Y169665D01*
X192978Y408169D02*
Y458632D01*
Y399161D02*
Y401673D01*
Y363728D02*
Y390602D01*
Y237106D02*
Y248078D01*
Y219587D02*
Y230610D01*
Y198917D02*
Y201476D01*
Y177969D02*
Y180889D01*
Y153200D02*
Y168988D01*
X191978Y408169D02*
Y457939D01*
Y399129D02*
Y401673D01*
Y363696D02*
Y390635D01*
Y237106D02*
Y249078D01*
Y219587D02*
Y230610D01*
Y198917D02*
Y201476D01*
Y189657D02*
Y193996D01*
Y177051D02*
Y181209D01*
Y153199D02*
Y168646D01*
X190978Y408169D02*
Y457236D01*
Y399031D02*
Y401673D01*
Y363597D02*
Y390733D01*
Y237106D02*
Y250078D01*
Y219587D02*
Y230610D01*
Y198917D02*
Y201476D01*
Y188950D02*
Y193996D01*
Y177112D02*
Y181916D01*
Y153576D02*
Y168557D01*
X189978Y428142D02*
Y456523D01*
Y418142D02*
Y422567D01*
Y408169D02*
Y412567D01*
Y399161D02*
Y401673D01*
Y363728D02*
Y390602D01*
Y237106D02*
Y251078D01*
Y219587D02*
Y230610D01*
Y198917D02*
Y201476D01*
Y176964D02*
Y193996D01*
Y154308D02*
Y168706D01*
X188978Y429049D02*
Y455801D01*
Y419049D02*
Y421659D01*
Y408169D02*
Y411659D01*
Y399154D02*
Y401673D01*
Y389404D02*
Y390584D01*
Y363721D02*
Y386974D01*
Y237106D02*
Y252078D01*
Y219587D02*
Y230610D01*
Y205937D02*
Y207147D01*
Y198457D02*
Y201937D01*
Y176549D02*
Y194457D01*
Y155050D02*
Y169120D01*
X187978Y429542D02*
Y455069D01*
Y419542D02*
Y421167D01*
Y408169D02*
Y411167D01*
Y398949D02*
Y401673D01*
Y363516D02*
Y385908D01*
Y237106D02*
Y253383D01*
Y219587D02*
Y230610D01*
Y175759D02*
Y208147D01*
Y155802D02*
Y169911D01*
X186978Y429761D02*
Y454328D01*
Y419761D02*
Y420947D01*
Y408169D02*
Y410947D01*
Y399161D02*
Y401673D01*
Y363728D02*
Y385556D01*
Y237106D02*
Y350868D01*
Y219587D02*
Y230610D01*
Y173975D02*
Y209023D01*
Y156564D02*
Y171694D01*
X185978Y429748D02*
Y453577D01*
Y419748D02*
Y420960D01*
Y408169D02*
Y410960D01*
Y399161D02*
Y401443D01*
Y363728D02*
Y385609D01*
Y237106D02*
Y349868D01*
Y219587D02*
Y230610D01*
Y189256D02*
Y209031D01*
Y157337D02*
Y181610D01*
X184978Y429500D02*
Y452815D01*
Y419500D02*
Y421208D01*
Y408169D02*
Y411208D01*
Y363472D02*
Y386095D01*
Y237106D02*
Y349064D01*
Y219587D02*
Y230610D01*
Y189665D02*
Y209034D01*
Y176768D02*
Y181201D01*
Y158121D02*
Y168901D01*
X183978Y428970D02*
Y452043D01*
Y419305D02*
Y421664D01*
Y408169D02*
Y411403D01*
Y388522D02*
Y390602D01*
Y363728D02*
Y387856D01*
Y353158D02*
Y355169D01*
Y237106D02*
Y348917D01*
Y219587D02*
Y230610D01*
Y206183D02*
Y209485D01*
Y189665D02*
Y194211D01*
Y177114D02*
Y181201D01*
Y158915D02*
Y168555D01*
X182978Y427992D02*
Y451261D01*
Y363728D02*
Y390602D01*
Y352658D02*
Y355169D01*
Y237106D02*
Y348917D01*
Y219587D02*
Y230610D01*
Y189665D02*
Y193996D01*
Y177114D02*
Y181201D01*
Y159720D02*
Y168555D01*
X181978Y422594D02*
Y450468D01*
Y363476D02*
Y390855D01*
Y352658D02*
Y355422D01*
Y237106D02*
Y348917D01*
Y220052D02*
Y230610D01*
Y189665D02*
Y193996D01*
Y177114D02*
Y181201D01*
Y160536D02*
Y168555D01*
X180978Y423557D02*
Y449665D01*
Y363728D02*
Y390602D01*
Y352658D02*
Y355169D01*
Y237106D02*
Y348917D01*
Y220360D02*
Y230610D01*
Y189665D02*
Y193996D01*
Y177114D02*
Y181201D01*
Y161364D02*
Y168555D01*
X179978Y428142D02*
Y448851D01*
Y363728D02*
Y390602D01*
Y352658D02*
Y355169D01*
Y237106D02*
Y348917D01*
Y220272D02*
Y230610D01*
Y189665D02*
Y193996D01*
Y177114D02*
Y181201D01*
Y162203D02*
Y168555D01*
X178978Y429049D02*
Y448025D01*
Y419219D02*
Y420267D01*
Y363529D02*
Y385852D01*
Y352658D02*
Y355369D01*
Y237106D02*
Y348917D01*
Y219733D02*
Y230610D01*
Y214591D02*
Y215700D01*
Y189656D02*
Y193996D01*
Y177114D02*
Y181210D01*
Y163053D02*
Y168555D01*
X177978Y429542D02*
Y447188D01*
Y419542D02*
Y421120D01*
Y363718D02*
Y385265D01*
Y352658D02*
Y355180D01*
Y237148D02*
Y348917D01*
Y214239D02*
Y230610D01*
Y206463D02*
Y209383D01*
Y188934D02*
Y194008D01*
Y177108D02*
Y181932D01*
Y163916D02*
Y168561D01*
X176978Y429761D02*
Y446340D01*
Y419761D02*
Y420947D01*
Y363728D02*
Y385144D01*
Y352658D02*
Y355169D01*
Y301235D02*
Y348917D01*
Y205632D02*
Y230428D01*
Y201893D02*
Y202241D01*
Y176445D02*
Y194193D01*
Y164790D02*
Y169225D01*
X175978Y429748D02*
Y445481D01*
Y419748D02*
Y420960D01*
Y363610D02*
Y385418D01*
Y352658D02*
Y355288D01*
Y302264D02*
Y348917D01*
Y198720D02*
Y229903D01*
Y165677D02*
Y194193D01*
X174978Y429500D02*
Y444609D01*
Y419500D02*
Y421208D01*
Y389304D02*
Y390576D01*
Y363690D02*
Y386287D01*
Y352658D02*
Y355208D01*
Y303264D02*
Y348917D01*
Y199090D02*
Y229659D01*
Y166577D02*
Y194193D01*
X173978Y428970D02*
Y443725D01*
Y418970D02*
Y421738D01*
Y410874D02*
Y411738D01*
Y363728D02*
Y390602D01*
Y352658D02*
Y355169D01*
Y304264D02*
Y348917D01*
Y200090D02*
Y229650D01*
Y167489D02*
Y194234D01*
X172978Y427992D02*
Y442829D01*
Y417992D02*
Y422716D01*
Y409874D02*
Y412716D01*
Y363668D02*
Y390663D01*
Y352658D02*
Y355230D01*
Y305264D02*
Y348917D01*
Y216403D02*
Y229873D01*
Y203411D02*
Y208400D01*
Y168414D02*
Y194703D01*
X171978Y408874D02*
Y441921D01*
Y352658D02*
Y402232D01*
Y306264D02*
Y348917D01*
Y216634D02*
Y230371D01*
Y203642D02*
Y208169D01*
Y169353D02*
Y195177D01*
X170978Y407874D02*
Y441000D01*
Y389938D02*
Y402585D01*
Y352664D02*
Y364392D01*
Y307264D02*
Y348917D01*
Y236822D02*
Y298078D01*
Y216634D02*
Y231288D01*
Y203642D02*
Y208169D01*
Y170305D02*
Y195177D01*
X169978Y428142D02*
Y440065D01*
Y419750D02*
Y422567D01*
Y406874D02*
Y410959D01*
Y390119D02*
Y401585D01*
Y353533D02*
Y364212D01*
Y308263D02*
Y348920D01*
Y216634D02*
Y299078D01*
Y203642D02*
Y208169D01*
Y171271D02*
Y195177D01*
X168978Y429049D02*
Y439118D01*
Y419783D02*
Y421659D01*
Y405874D02*
Y410925D01*
Y354533D02*
Y364212D01*
Y308910D02*
Y349276D01*
Y216634D02*
Y300078D01*
Y203642D02*
Y208169D01*
Y172251D02*
Y195177D01*
X167978Y429542D02*
Y438157D01*
Y419783D02*
Y421167D01*
Y404874D02*
Y410925D01*
Y355533D02*
Y364212D01*
Y309145D02*
Y350244D01*
Y216634D02*
Y301078D01*
Y203925D02*
Y208169D01*
Y173245D02*
Y195177D01*
X166978Y429761D02*
Y437182D01*
Y419783D02*
Y420947D01*
Y403874D02*
Y410925D01*
Y356533D02*
Y364212D01*
Y309154D02*
Y351244D01*
Y216634D02*
Y302078D01*
Y204925D02*
Y208169D01*
Y174255D02*
Y195177D01*
X165978Y429748D02*
Y436193D01*
Y419783D02*
Y420960D01*
Y402874D02*
Y410925D01*
Y357533D02*
Y364212D01*
Y309154D02*
Y352244D01*
Y216582D02*
Y302657D01*
Y205925D02*
Y208221D01*
Y175279D02*
Y195229D01*
X164978Y429500D02*
Y435190D01*
Y419783D02*
Y421208D01*
Y390119D02*
Y410925D01*
Y358533D02*
Y364212D01*
Y309154D02*
Y353244D01*
Y206925D02*
Y302657D01*
Y176319D02*
Y200508D01*
X163978Y428970D02*
Y434172D01*
Y419783D02*
Y421738D01*
Y390071D02*
Y410925D01*
Y359540D02*
Y364260D01*
Y309154D02*
Y354244D01*
Y207925D02*
Y302657D01*
Y177374D02*
Y201522D01*
X162978Y427992D02*
Y433139D01*
Y419717D02*
Y422716D01*
Y387353D02*
Y410992D01*
Y380848D02*
Y382726D01*
Y362639D02*
Y376633D01*
Y350828D02*
Y354683D01*
Y309154D02*
Y342872D01*
Y208925D02*
Y302657D01*
Y178446D02*
Y202522D01*
X161978Y387106D02*
Y432091D01*
Y380610D02*
Y382972D01*
Y362697D02*
Y376870D01*
Y350886D02*
Y354626D01*
Y309154D02*
Y342815D01*
Y209925D02*
Y302657D01*
Y179535D02*
Y203522D01*
X160978Y387106D02*
Y431026D01*
Y380610D02*
Y382972D01*
Y362697D02*
Y376870D01*
Y350886D02*
Y354626D01*
Y309154D02*
Y342815D01*
Y236712D02*
Y302657D01*
Y180640D02*
Y204522D01*
X159978Y387106D02*
Y429946D01*
Y380610D02*
Y382972D01*
Y362697D02*
Y376870D01*
Y350886D02*
Y354626D01*
Y309154D02*
Y342815D01*
Y237712D02*
Y302657D01*
Y181763D02*
Y205522D01*
X158978Y387106D02*
Y428849D01*
Y380610D02*
Y382972D01*
Y362697D02*
Y376870D01*
Y350886D02*
Y354626D01*
Y309154D02*
Y342815D01*
Y238712D02*
Y302657D01*
Y182904D02*
Y206522D01*
X157978Y387106D02*
Y427736D01*
Y380610D02*
Y382972D01*
Y362697D02*
Y376870D01*
Y350886D02*
Y354626D01*
Y309585D02*
Y342815D01*
Y239712D02*
Y302226D01*
Y184063D02*
Y207522D01*
X156978Y387106D02*
Y426604D01*
Y380610D02*
Y382972D01*
Y362697D02*
Y375196D01*
Y350886D02*
Y354626D01*
Y320080D02*
Y342815D01*
Y310085D02*
Y316140D01*
Y273368D02*
Y301726D01*
Y240712D02*
Y268365D01*
Y185241D02*
Y234309D01*
X155978Y387106D02*
Y425455D01*
Y380610D02*
Y382972D01*
Y362697D02*
Y374400D01*
Y350886D02*
Y354626D01*
Y320876D02*
Y342815D01*
Y310310D02*
Y315345D01*
Y273646D02*
Y301501D01*
Y241699D02*
Y268087D01*
Y186438D02*
Y235309D01*
X154978Y387106D02*
Y424288D01*
Y380546D02*
Y382972D01*
Y362580D02*
Y374386D01*
Y350769D02*
Y354743D01*
Y320890D02*
Y342932D01*
Y311033D02*
Y315331D01*
Y273646D02*
Y301509D01*
Y242180D02*
Y268087D01*
Y233656D02*
Y236309D01*
Y187656D02*
Y228657D01*
X153978Y387106D02*
Y423102D01*
Y379971D02*
Y382972D01*
Y360593D02*
Y374386D01*
Y320890D02*
Y356730D01*
Y312033D02*
Y315331D01*
Y273646D02*
Y301751D01*
Y242225D02*
Y268087D01*
Y234648D02*
Y237309D01*
Y188894D02*
Y227664D01*
X152978Y387106D02*
Y421896D01*
Y379945D02*
Y382972D01*
Y360532D02*
Y374386D01*
Y320890D02*
Y356791D01*
Y313033D02*
Y315331D01*
Y273646D02*
Y302273D01*
Y242225D02*
Y268087D01*
Y235174D02*
Y237697D01*
Y190154D02*
Y227139D01*
X151978Y387106D02*
Y420670D01*
Y379945D02*
Y382972D01*
Y360795D02*
Y374386D01*
Y320890D02*
Y356528D01*
Y314033D02*
Y315331D01*
Y273580D02*
Y303236D01*
Y242225D02*
Y268152D01*
Y235410D02*
Y237697D01*
Y191435D02*
Y226903D01*
X150978Y387106D02*
Y419424D01*
Y379515D02*
Y382972D01*
Y361254D02*
Y374816D01*
Y320460D02*
Y356069D01*
Y273221D02*
Y305844D01*
Y242225D02*
Y261134D01*
Y235403D02*
Y237697D01*
Y192740D02*
Y226909D01*
X149978Y387106D02*
Y418157D01*
Y379884D02*
Y382972D01*
Y361286D02*
Y374447D01*
Y320829D02*
Y356037D01*
Y273658D02*
Y306846D01*
Y243052D02*
Y259904D01*
Y235155D02*
Y236871D01*
Y194068D02*
Y227158D01*
X148978Y387106D02*
Y416867D01*
Y379945D02*
Y382972D01*
Y360910D02*
Y374386D01*
Y321413D02*
Y356413D01*
Y274563D02*
Y307846D01*
Y243765D02*
Y258904D01*
Y234611D02*
Y236157D01*
Y195420D02*
Y227702D01*
X147978Y387106D02*
Y415555D01*
Y379945D02*
Y382972D01*
Y360532D02*
Y374386D01*
Y322413D02*
Y356791D01*
Y275494D02*
Y308846D01*
Y244132D02*
Y257904D01*
Y233582D02*
Y235791D01*
Y196797D02*
Y228731D01*
X146978Y387106D02*
Y414220D01*
Y379945D02*
Y382972D01*
Y360532D02*
Y374386D01*
Y323073D02*
Y356791D01*
Y275965D02*
Y309846D01*
Y249466D02*
Y256904D01*
Y244241D02*
Y246140D01*
Y223907D02*
Y235682D01*
Y198200D02*
Y223077D01*
X145978Y387240D02*
Y412861D01*
Y379945D02*
Y382838D01*
Y360532D02*
Y374386D01*
Y333191D02*
Y356791D01*
Y323316D02*
Y328226D01*
Y276083D02*
Y310846D01*
Y251428D02*
Y255904D01*
Y244113D02*
Y245631D01*
Y225898D02*
Y235810D01*
Y199631D02*
Y222163D01*
X144978Y387651D02*
Y411476D01*
Y379656D02*
Y382427D01*
Y360532D02*
Y374675D01*
Y333488D02*
Y356791D01*
Y323327D02*
Y327929D01*
Y276083D02*
Y312280D01*
Y243723D02*
Y245121D01*
Y227860D02*
Y236199D01*
Y201090D02*
Y221654D01*
X143978Y387647D02*
Y410066D01*
Y360532D02*
Y382431D01*
Y333488D02*
Y356791D01*
Y323327D02*
Y327929D01*
Y276196D02*
Y316831D01*
Y263091D02*
Y269587D01*
Y242974D02*
Y244612D01*
Y229712D02*
Y236892D01*
Y202578D02*
Y221144D01*
X142978Y387226D02*
Y408628D01*
Y360532D02*
Y382853D01*
Y333488D02*
Y356791D01*
Y323327D02*
Y327929D01*
Y288384D02*
Y316831D01*
Y262091D02*
Y269587D01*
Y242177D02*
Y244102D01*
Y230116D02*
Y236297D01*
Y204097D02*
Y220635D01*
X141978Y385911D02*
Y407163D01*
Y360532D02*
Y384168D01*
Y333488D02*
Y356791D01*
Y323787D02*
Y327929D01*
Y288484D02*
Y316371D01*
Y261091D02*
Y269126D01*
Y241689D02*
Y243593D01*
Y229731D02*
Y235297D01*
Y205648D02*
Y220125D01*
X140978Y360532D02*
Y405668D01*
Y333431D02*
Y356791D01*
Y324311D02*
Y327987D01*
Y288484D02*
Y315847D01*
Y260091D02*
Y268603D01*
Y240700D02*
Y243412D01*
Y229222D02*
Y231717D01*
Y207232D02*
Y219616D01*
X139978Y362214D02*
Y404143D01*
Y350403D02*
Y355109D01*
Y333054D02*
Y343298D01*
Y324311D02*
Y328363D01*
Y288484D02*
Y315846D01*
Y259048D02*
Y268602D01*
Y239700D02*
Y244351D01*
Y228712D02*
Y230464D01*
Y208851D02*
Y219568D01*
X138978Y362697D02*
Y402586D01*
Y350886D02*
Y354626D01*
Y333488D02*
Y342815D01*
Y324311D02*
Y327929D01*
Y312824D02*
Y315846D01*
Y288484D02*
Y305286D01*
Y251670D02*
Y268602D01*
Y238700D02*
Y246314D01*
Y228203D02*
Y229824D01*
Y210507D02*
Y220783D01*
X137978Y362697D02*
Y400996D01*
Y350886D02*
Y354626D01*
Y333488D02*
Y342815D01*
Y324311D02*
Y327929D01*
Y313287D02*
Y315471D01*
Y288352D02*
Y304823D01*
Y251161D02*
Y268602D01*
Y237925D02*
Y248276D01*
Y227693D02*
Y229506D01*
Y212202D02*
Y222746D01*
X136978Y362697D02*
Y399371D01*
Y350886D02*
Y354626D01*
Y333488D02*
Y342815D01*
Y324311D02*
Y327929D01*
Y313287D02*
Y314471D01*
Y277096D02*
Y304823D01*
Y237987D02*
Y268602D01*
Y227172D02*
Y229439D01*
Y213937D02*
Y224708D01*
X135978Y362697D02*
Y397710D01*
Y350886D02*
Y354626D01*
Y333488D02*
Y342815D01*
Y325098D02*
Y327929D01*
Y277067D02*
Y304823D01*
Y237817D02*
Y268602D01*
Y215715D02*
Y229610D01*
X134978Y362697D02*
Y396011D01*
Y350886D02*
Y354626D01*
Y333476D02*
Y342815D01*
Y326098D02*
Y327942D01*
Y277065D02*
Y304749D01*
Y237375D02*
Y268604D01*
Y217539D02*
Y230051D01*
X133978Y362697D02*
Y394271D01*
Y350886D02*
Y354626D01*
Y332744D02*
Y342815D01*
Y327098D02*
Y328673D01*
Y276501D02*
Y280127D01*
Y236538D02*
Y269168D01*
Y219411D02*
Y230888D01*
X132978Y362697D02*
Y392489D01*
Y350886D02*
Y354626D01*
Y332579D02*
Y342815D01*
Y328142D02*
Y328551D01*
Y234455D02*
Y280020D01*
Y221334D02*
Y232971D01*
X131978Y362697D02*
Y390661D01*
Y350886D02*
Y354626D01*
Y333015D02*
Y342815D01*
Y223312D02*
Y280020D01*
X130978Y362315D02*
Y388786D01*
Y350504D02*
Y355008D01*
Y333488D02*
Y343197D01*
Y225349D02*
Y280020D01*
X129978Y360532D02*
Y386648D01*
Y333488D02*
Y356791D01*
Y227525D02*
Y280020D01*
X128978Y360532D02*
Y384376D01*
Y333488D02*
Y356791D01*
Y276554D02*
Y280144D01*
Y229797D02*
Y269116D01*
X127978Y361040D02*
Y382022D01*
Y354856D02*
Y355380D01*
Y333488D02*
Y349196D01*
Y313338D02*
Y315847D01*
Y277067D02*
Y304770D01*
Y232151D02*
Y268603D01*
X126978Y361398D02*
Y379578D01*
Y333471D02*
Y348783D01*
Y313287D02*
Y315846D01*
Y277067D02*
Y304823D01*
Y234596D02*
Y268602D01*
X125978Y361398D02*
Y377034D01*
Y313287D02*
Y315846D01*
Y277067D02*
Y304823D01*
Y237140D02*
Y268602D01*
X124978Y361398D02*
Y374379D01*
Y313287D02*
Y315846D01*
Y288387D02*
Y304823D01*
Y277067D02*
Y280117D01*
Y239795D02*
Y268602D01*
X123978Y361393D02*
Y371599D01*
Y312777D02*
Y315846D01*
Y288484D02*
Y305333D01*
Y277067D02*
Y280020D01*
Y242574D02*
Y268602D01*
X122978Y360749D02*
Y368678D01*
Y354549D02*
Y355687D01*
Y288484D02*
Y315846D01*
Y277067D02*
Y280020D01*
Y245495D02*
Y268602D01*
X121978Y352999D02*
Y365594D01*
Y288484D02*
Y315848D01*
Y277065D02*
Y280020D01*
Y248579D02*
Y268604D01*
X120978Y351999D02*
Y362321D01*
Y323734D02*
Y325266D01*
Y288484D02*
Y316424D01*
Y276490D02*
Y280020D01*
Y251852D02*
Y269180D01*
X119978Y350761D02*
Y358821D01*
Y288349D02*
Y326503D01*
Y255352D02*
Y280155D01*
X118978Y259127D02*
Y355046D01*
X117978Y263249D02*
Y350925D01*
X116978Y267826D02*
Y346347D01*
X115978Y273042D02*
Y341132D01*
X114978Y279253D02*
Y334920D01*
X113978Y287380D02*
Y326793D01*
X296978Y153418D02*
Y154999D01*
X295978Y153296D02*
Y155020D01*
X294978Y153295D02*
Y155020D01*
X293978Y153294D02*
Y155020D01*
X292978Y153293D02*
Y155020D01*
X291978Y153292D02*
Y155020D01*
X290978Y153291D02*
Y155072D01*
X289978Y226681D02*
Y232327D01*
Y166207D02*
Y219775D01*
Y160301D02*
Y162140D01*
Y153290D02*
Y156234D01*
X288978Y226476D02*
Y232382D01*
Y166043D02*
Y219980D01*
Y160138D02*
Y162303D01*
Y153289D02*
Y156398D01*
X287978Y226476D02*
Y232382D01*
Y166043D02*
Y219980D01*
Y160138D02*
Y162303D01*
Y153288D02*
Y156398D01*
X286978Y226476D02*
Y232382D01*
Y166043D02*
Y219980D01*
Y160138D02*
Y162303D01*
Y153287D02*
Y156398D01*
X285978Y226476D02*
Y232657D01*
Y166043D02*
Y219980D01*
Y160138D02*
Y162303D01*
Y153286D02*
Y156398D01*
X284978Y226476D02*
Y232389D01*
Y166043D02*
Y219980D01*
Y160138D02*
Y162303D01*
Y153286D02*
Y156398D01*
X283978Y226476D02*
Y232382D01*
Y166043D02*
Y219980D01*
Y160138D02*
Y162303D01*
Y153285D02*
Y156398D01*
X282978Y226476D02*
Y232382D01*
Y166043D02*
Y219980D01*
Y160138D02*
Y162303D01*
Y153284D02*
Y156398D01*
X281978Y226476D02*
Y232382D01*
Y166043D02*
Y219980D01*
Y160138D02*
Y162303D01*
Y153283D02*
Y156398D01*
X280978Y226476D02*
Y232382D01*
Y166043D02*
Y219980D01*
Y160138D02*
Y162303D01*
Y153282D02*
Y156398D01*
X279978Y226476D02*
Y232677D01*
Y166043D02*
Y219980D01*
Y160138D02*
Y162303D01*
Y153281D02*
Y156398D01*
X278978Y226476D02*
Y232383D01*
Y166043D02*
Y219980D01*
Y160138D02*
Y162303D01*
Y153280D02*
Y156398D01*
X277978Y226476D02*
Y232382D01*
Y166043D02*
Y219980D01*
Y160138D02*
Y162303D01*
Y153279D02*
Y156398D01*
X276978Y226476D02*
Y232382D01*
Y166043D02*
Y219980D01*
Y160138D02*
Y162303D01*
Y153278D02*
Y156398D01*
X275978Y226476D02*
Y232382D01*
Y166043D02*
Y219980D01*
Y160138D02*
Y162303D01*
Y153277D02*
Y156398D01*
X274978Y226476D02*
Y232382D01*
Y166043D02*
Y219980D01*
Y160138D02*
Y162303D01*
Y153276D02*
Y156398D01*
X273978Y226476D02*
Y232679D01*
Y166043D02*
Y219980D01*
Y160138D02*
Y162303D01*
Y153275D02*
Y156398D01*
X272978Y226476D02*
Y232382D01*
Y166043D02*
Y219980D01*
Y160138D02*
Y162303D01*
Y153274D02*
Y156398D01*
X271978Y226476D02*
Y232382D01*
Y166043D02*
Y219980D01*
Y160138D02*
Y162303D01*
Y153273D02*
Y156398D01*
X270978Y226476D02*
Y232382D01*
Y166043D02*
Y219980D01*
Y160138D02*
Y162303D01*
Y153273D02*
Y156398D01*
X269978Y226476D02*
Y232382D01*
Y166093D02*
Y219980D01*
Y160138D02*
Y162253D01*
Y153272D02*
Y156398D01*
X268978Y226476D02*
Y232387D01*
Y166685D02*
Y219980D01*
Y160138D02*
Y161661D01*
Y153271D02*
Y156398D01*
X267978Y226476D02*
Y232662D01*
Y166827D02*
Y219980D01*
Y160138D02*
Y161519D01*
Y153270D02*
Y156398D01*
X266978Y226476D02*
Y232382D01*
Y166577D02*
Y219980D01*
Y160138D02*
Y161769D01*
Y153269D02*
Y156398D01*
X265978Y226476D02*
Y232382D01*
Y165759D02*
Y219980D01*
Y160138D02*
Y162588D01*
Y153268D02*
Y156398D01*
X264978Y226476D02*
Y232382D01*
Y160138D02*
Y219980D01*
Y153267D02*
Y156398D01*
X263978Y226476D02*
Y232382D01*
Y160138D02*
Y219980D01*
Y153266D02*
Y156398D01*
X262978Y226476D02*
Y232399D01*
Y160138D02*
Y219980D01*
Y153265D02*
Y156398D01*
X261978Y226476D02*
Y232625D01*
Y160138D02*
Y219980D01*
Y153264D02*
Y156398D01*
X260978Y226476D02*
Y232382D01*
Y160138D02*
Y219980D01*
Y153263D02*
Y156398D01*
X259978Y226476D02*
Y232382D01*
Y160302D02*
Y219980D01*
Y153262D02*
Y156233D01*
X258978Y226476D02*
Y232382D01*
Y160829D02*
Y219980D01*
Y153261D02*
Y155707D01*
X257978Y226476D02*
Y232382D01*
Y160909D02*
Y219980D01*
Y153261D02*
Y155626D01*
X256978Y226476D02*
Y232419D01*
Y160591D02*
Y219980D01*
Y153260D02*
Y155944D01*
X255978Y226476D02*
Y232567D01*
Y159616D02*
Y219980D01*
Y153259D02*
Y156920D01*
X254978Y226476D02*
Y232382D01*
Y153258D02*
Y219980D01*
X253978Y226476D02*
Y232382D01*
Y153257D02*
Y219980D01*
X252978Y226476D02*
Y232382D01*
Y153256D02*
Y219980D01*
X251978Y226476D02*
Y232382D01*
Y153255D02*
Y219980D01*
X250978Y226470D02*
Y232446D01*
Y153254D02*
Y219987D01*
X249978Y226245D02*
Y232515D01*
Y153253D02*
Y220211D01*
X248978Y225615D02*
Y232382D01*
Y153252D02*
Y220842D01*
X247978Y223764D02*
Y232382D01*
Y153251D02*
Y222692D01*
X246978Y153250D02*
Y232382D01*
X245978Y231863D02*
Y231917D01*
Y225858D02*
Y226505D01*
Y219952D02*
Y220599D01*
Y214047D02*
Y214694D01*
Y208141D02*
Y208788D01*
Y202236D02*
Y202883D01*
Y196330D02*
Y196977D01*
Y190425D02*
Y191071D01*
Y184519D02*
Y185166D01*
Y178614D02*
Y179260D01*
Y172708D02*
Y173355D01*
Y166803D02*
Y167449D01*
Y160897D02*
Y161544D01*
Y153249D02*
Y155638D01*
X244978Y153248D02*
Y155023D01*
X243978Y153248D02*
Y155020D01*
X242978Y153247D02*
Y155020D01*
X241978Y153246D02*
Y154999D01*
X240978Y153394D02*
Y154081D01*
G54D117*
X137992Y272835D03*
X125000D03*
X137992Y320079D03*
X125000D03*
X169291Y199409D03*
Y212402D03*
X195079Y185433D03*
X182087D03*
G54D121*
X159055Y346850D03*
X135433D03*
X159055Y358661D03*
X135433D03*
G54D134*
X227953Y156693D03*
X258268Y158268D03*
X268110Y164173D03*
X180709Y207480D03*
X201575Y195669D03*
X206693Y197638D03*
X180709Y217717D03*
X251181Y223228D03*
X201575Y233858D03*
X224016D03*
X206693Y260236D03*
X224016D03*
X218504Y329921D03*
X204331Y329528D03*
X245276Y329921D03*
X122884Y344094D03*
X199213Y350000D03*
X150394Y358661D03*
X218110Y370866D03*
X224409Y368504D03*
X144488Y385039D03*
X177165Y387795D03*
X186614Y388189D03*
X292913Y384646D03*
X305118D03*
X174016Y403937D03*
X209449Y420472D03*
X238583Y413386D03*
X319291Y446850D03*
X338976D03*
G54D159*
X122520Y284252D03*
X131496D03*
X140512D03*
G54D160*
X131496Y309055D03*
G54D161*
X180709Y203937D03*
Y200197D03*
Y196457D03*
X192520D03*
Y203937D03*
G54D162*
X293701Y158268D03*
Y164173D03*
Y170079D03*
Y175984D03*
Y181890D03*
Y187795D03*
Y193701D03*
Y199606D03*
Y205512D03*
Y211417D03*
Y217323D03*
Y223228D03*
Y229134D03*
X242520D03*
Y223228D03*
Y217323D03*
Y211417D03*
Y205512D03*
Y199606D03*
Y193701D03*
Y187795D03*
Y181890D03*
Y175984D03*
Y170079D03*
Y164173D03*
Y158268D03*
G54D163*
X288780Y236024D03*
X282874D03*
X276969D03*
X271063D03*
X265157D03*
X259252D03*
X253346D03*
X247441D03*
G74*
X0Y0D02*
M02*
